<svg width="37" height="41" viewBox="0 0 37 41" fill="none" xmlns="http://www.w3.org/2000/svg">
<path d="M10.9103 8.53846C10.1323 8.53846 9.48718 7.89333 9.48718 7.11538V1.42308C9.48718 0.645128 10.1323 0 10.9103 0C11.6882 0 12.3333 0.645128 12.3333 1.42308V7.11538C12.3333 7.89333 11.6882 8.53846 10.9103 8.53846Z" fill="#003482"/>
<path d="M26.0897 8.53846C25.3118 8.53846 24.6667 7.89333 24.6667 7.11538V1.42308C24.6667 0.645128 25.3118 0 26.0897 0C26.8677 0 27.5128 0.645128 27.5128 1.42308V7.11538C27.5128 7.89333 26.8677 8.53846 26.0897 8.53846Z" fill="#003482"/>
<path d="M34.6282 16.2982H2.37179C1.59385 16.2982 0.948718 15.6531 0.948718 14.8751C0.948718 14.0972 1.59385 13.452 2.37179 13.452H34.6282C35.4062 13.452 36.0513 14.0972 36.0513 14.8751C36.0513 15.6531 35.4062 16.2982 34.6282 16.2982Z" fill="#003482"/>
<path d="M26.0897 40.7949H10.9103C3.98462 40.7949 0 36.8103 0 29.8846V13.7564C0 6.83077 3.98462 2.84615 10.9103 2.84615H26.0897C33.0154 2.84615 37 6.83077 37 13.7564V29.8846C37 36.8103 33.0154 40.7949 26.0897 40.7949ZM10.9103 5.69231C5.48359 5.69231 2.84615 8.32974 2.84615 13.7564V29.8846C2.84615 35.3113 5.48359 37.9487 10.9103 37.9487H26.0897C31.5164 37.9487 34.1538 35.3113 34.1538 29.8846V13.7564C34.1538 8.32974 31.5164 5.69231 26.0897 5.69231H10.9103Z" fill="#003482"/>
<path d="M11.859 25.141C11.6123 25.141 11.3656 25.0841 11.1379 24.9893C10.9102 24.8944 10.7016 24.7615 10.5118 24.5908C10.341 24.401 10.2082 24.1923 10.1133 23.9646C10.0184 23.737 9.96154 23.4903 9.96154 23.2436C9.96154 22.7503 10.1703 22.257 10.5118 21.8964C10.7016 21.7257 10.9102 21.5928 11.1379 21.4979C11.4795 21.3462 11.859 21.3082 12.2385 21.3841C12.3523 21.4031 12.4662 21.441 12.58 21.4979C12.6939 21.5359 12.8077 21.5929 12.9215 21.6688C13.0164 21.7447 13.1113 21.8206 13.2061 21.8964C13.282 21.9913 13.3769 22.0862 13.4338 22.1811C13.5097 22.2949 13.5667 22.4087 13.6046 22.5226C13.6616 22.6364 13.6995 22.7503 13.7185 22.8641C13.7375 22.9969 13.7564 23.1108 13.7564 23.2436C13.7564 23.7369 13.5477 24.2303 13.2061 24.5908C12.8456 24.9323 12.3523 25.141 11.859 25.141Z" fill="#003482"/>
<path d="M18.5 25.1429C18.0067 25.1429 17.5133 24.9342 17.1528 24.5926C17.0769 24.4977 17.0011 24.4029 16.9252 24.308C16.8493 24.1942 16.7923 24.0803 16.7543 23.9665C16.6974 23.8526 16.6595 23.7388 16.6405 23.625C16.6215 23.4921 16.6026 23.3783 16.6026 23.2454C16.6026 22.9988 16.6595 22.7521 16.7543 22.5244C16.8492 22.2967 16.9821 22.088 17.1528 21.8983C17.6841 21.367 18.538 21.1962 19.221 21.4998C19.4677 21.5947 19.6574 21.7275 19.8472 21.8983C20.1887 22.2588 20.3974 22.7521 20.3974 23.2454C20.3974 23.3783 20.3785 23.4921 20.3595 23.625C20.3405 23.7388 20.3026 23.8526 20.2457 23.9665C20.2077 24.0803 20.1507 24.1942 20.0748 24.308C19.9989 24.4029 19.9231 24.4977 19.8472 24.5926C19.6574 24.7634 19.4677 24.8962 19.221 24.9911C18.9933 25.086 18.7467 25.1429 18.5 25.1429Z" fill="#003482"/>
<path d="M11.859 31.7839C11.6123 31.7839 11.3656 31.727 11.1379 31.6321C10.9102 31.5373 10.7016 31.4044 10.5118 31.2336C10.341 31.0439 10.2082 30.8542 10.1133 30.6075C10.0184 30.3798 9.96154 30.1331 9.96154 29.8865C9.96154 29.3931 10.1703 28.8998 10.5118 28.5393C10.7016 28.3685 10.9102 28.2357 11.1379 28.1408C11.84 27.8372 12.6749 28.008 13.2061 28.5393C13.282 28.6342 13.3769 28.729 13.4338 28.8239C13.5097 28.9378 13.5667 29.0516 13.6046 29.1654C13.6616 29.2793 13.6995 29.3931 13.7185 29.526C13.7375 29.6398 13.7564 29.7726 13.7564 29.8865C13.7564 30.3798 13.5477 30.8731 13.2061 31.2336C12.8456 31.5752 12.3523 31.7839 11.859 31.7839Z" fill="#003482"/>
</svg>
