<svg width="9" height="10" viewBox="0 0 9 10" fill="none" xmlns="http://www.w3.org/2000/svg">
<path d="M7.95847 7.51956C8.22695 7.51956 8.42831 7.59789 8.56255 7.75455C8.69679 7.90685 8.76391 8.14401 8.76391 8.46821C8.76391 9.09049 8.2677 9.50171 7.27769 9.70406C6.29247 9.89988 5.31684 9.99997 4.35319 9.99997C3.62446 9.99997 2.9245 9.8085 2.2533 9.42556C1.58211 9.04262 1.03796 8.52478 0.623254 7.86769C0.206153 7.21277 0 6.49258 0 5.7093C0 4.59094 0.196565 3.59877 0.594488 2.7328C0.997206 1.86901 1.5845 1.19887 2.35878 0.722365C3.13065 0.241514 4.04875 0 5.11068 0C5.67161 0 6.22774 0.128372 6.77908 0.382941C7.32803 0.633158 7.78108 0.998692 8.14065 1.47954C8.49783 1.96257 8.67761 2.53263 8.67761 3.19407C8.67761 3.53132 8.62248 3.81635 8.51461 4.04699C8.40434 4.27327 8.25572 4.41687 8.06395 4.47344L1.42869 6.62313C1.65881 7.28022 2.11906 7.70885 2.80944 7.9112C3.5046 8.1092 4.27888 8.20711 5.12986 8.20711C5.40313 8.20711 5.6788 8.1723 5.95447 8.10267C6.23494 8.0287 6.56814 7.92426 6.95168 7.78936C7.1866 7.70233 7.38556 7.63705 7.54617 7.58919C7.70438 7.54349 7.84341 7.51956 7.95847 7.51956ZM1.32322 5.10878C1.87216 4.96952 2.49541 4.77588 3.19298 4.52566C3.89534 4.27109 4.79666 3.94037 5.89694 3.5335C6.63046 3.25499 7.13626 3.07005 7.41193 2.97649C7.21297 2.5892 6.87737 2.30417 6.40513 2.12358C5.93769 1.94516 5.39834 1.85378 4.78467 1.85378C4.44428 1.85378 4.02238 1.97345 3.51899 2.21061C3.01319 2.44995 2.54575 2.81548 2.11906 3.30721C1.69717 3.79459 1.43109 4.39511 1.32322 5.10878Z" fill="black"/>
</svg>
