<svg width="8" height="14" viewBox="0 0 8 14" fill="none" xmlns="http://www.w3.org/2000/svg">
<path d="M3.01718 13.9743C2.54774 13.9743 2.06918 13.904 1.57695 13.7675C1.49036 13.7675 1.41288 13.784 1.33996 13.8171C1.27159 13.8502 1.23057 13.8709 1.21234 13.875C1.07105 13.9577 0.932044 13.9991 0.793035 13.9991C0.464883 13.9991 0.248393 13.8398 0.145846 13.5192C0.0478554 13.2007 0 12.6981 0 12.0134V11.1943L0.182307 0.901834C0.182307 0.620528 0.232442 0.401275 0.337268 0.239938C0.446652 0.0806688 0.640353 0 0.92065 0C1.0118 0 1.11207 0.0330948 1.22146 0.0992845C1.33084 0.161338 1.42199 0.246143 1.49492 0.35577C1.5724 0.467464 1.61342 0.591571 1.61342 0.728086C1.61342 1.2907 1.6043 1.89261 1.58607 2.53176C1.55417 3.61354 1.54049 4.62087 1.54049 5.55166C1.96436 5.31586 2.37455 5.1297 2.77107 4.99732C3.1653 4.86494 3.56638 4.79875 3.97429 4.79875C5.255 4.79875 6.22122 5.17107 6.87297 5.9157C7.52928 6.66034 7.85743 7.76488 7.85743 9.22519C7.85743 10.3173 7.58853 11.2233 7.05528 11.939C6.52659 12.6505 5.88396 13.1697 5.13194 13.4944C4.38448 13.815 3.67804 13.9743 3.01718 13.9743ZM1.51315 9.54786C1.51315 10.458 1.52454 11.0764 1.54961 11.4012C1.5724 11.7218 1.61569 11.9348 1.67722 12.0382C1.88232 12.1375 2.32897 12.1872 3.01718 12.1872C3.33166 12.1872 3.68488 12.1272 4.07456 12.0052C4.4688 11.8852 4.83569 11.7197 5.17752 11.5087C5.51706 11.2936 5.77457 11.062 5.95232 10.8137C6.07994 10.611 6.1802 10.2966 6.25313 9.87054C6.33061 9.4403 6.37163 9.03489 6.37163 8.6543C6.37163 8.26957 6.22578 7.92208 5.93409 7.61181C5.6424 7.29741 5.28234 7.05334 4.85848 6.87545C4.43917 6.69964 4.05633 6.61069 3.70995 6.61069C3.34533 6.61069 2.9397 6.70791 2.4976 6.90027C2.06007 7.0885 1.74103 7.30982 1.54049 7.56217C1.52226 8.08755 1.51315 8.74945 1.51315 9.54786Z" fill="black"/>
</svg>
