<svg width="11" height="11" viewBox="0 0 11 11" fill="none" xmlns="http://www.w3.org/2000/svg">
<path d="M3.625 2.375H9.25V9.25C9.25 9.58152 9.1183 9.89946 8.88388 10.1339C8.64946 10.3683 8.33152 10.5 8 10.5H3C2.66848 10.5 2.35054 10.3683 2.11612 10.1339C1.8817 9.89946 1.75 9.58152 1.75 9.25V2.375H3.625Z" fill="black"/>
<path d="M10.5 2.375H9.25M0.5 2.375H1.75M1.75 2.375H9.25M1.75 2.375V9.25C1.75 9.58152 1.8817 9.89946 2.11612 10.1339C2.35054 10.3683 2.66848 10.5 3 10.5H8C8.33152 10.5 8.64946 10.3683 8.88388 10.1339C9.1183 9.89946 9.25 9.58152 9.25 9.25V2.375M3.625 2.0625C3.625 1.6481 3.78962 1.25067 4.08265 0.957646C4.37567 0.66462 4.7731 0.5 5.1875 0.5H5.8125C6.2269 0.5 6.62433 0.66462 6.91735 0.957646C7.21038 1.25067 7.375 1.6481 7.375 2.0625" stroke="black" stroke-linecap="round" stroke-linejoin="round"/>
</svg>
