<svg width="30" height="30" viewBox="0 0 30 30" fill="none" xmlns="http://www.w3.org/2000/svg">
<path d="M14.5625 18.3125C14.6875 18.4375 14.8333 18.5 15 18.5C15.1667 18.5 15.3125 18.4375 15.4375 18.3125L18.9375 14.8125C19.1458 14.6042 19.1979 14.375 19.0938 14.125C18.9896 13.875 18.7917 13.75 18.5 13.75H11.5C11.2083 13.75 11.0104 13.875 10.9062 14.125C10.8021 14.375 10.8542 14.6042 11.0625 14.8125L14.5625 18.3125ZM15 27.5C13.2708 27.5 11.6458 27.1717 10.125 26.515C8.60417 25.8592 7.28125 24.9688 6.15625 23.8438C5.03125 22.7188 4.14083 21.3958 3.485 19.875C2.82833 18.3542 2.5 16.7292 2.5 15C2.5 13.2708 2.82833 11.6458 3.485 10.125C4.14083 8.60417 5.03125 7.28125 6.15625 6.15625C7.28125 5.03125 8.60417 4.14042 10.125 3.48375C11.6458 2.82792 13.2708 2.5 15 2.5C16.7292 2.5 18.3542 2.82792 19.875 3.48375C21.3958 4.14042 22.7188 5.03125 23.8438 6.15625C24.9688 7.28125 25.8592 8.60417 26.515 10.125C27.1717 11.6458 27.5 13.2708 27.5 15C27.5 16.7292 27.1717 18.3542 26.515 19.875C25.8592 21.3958 24.9688 22.7188 23.8438 23.8438C22.7188 24.9688 21.3958 25.8592 19.875 26.515C18.3542 27.1717 16.7292 27.5 15 27.5ZM15 25C17.7708 25 20.1304 24.0263 22.0788 22.0788C24.0263 20.1304 25 17.7708 25 15C25 12.2292 24.0263 9.86958 22.0788 7.92125C20.1304 5.97375 17.7708 5 15 5C12.2292 5 9.87 5.97375 7.9225 7.92125C5.97417 9.86958 5 12.2292 5 15C5 17.7708 5.97417 20.1304 7.9225 22.0788C9.87 24.0263 12.2292 25 15 25Z" fill="black"/>
</svg>
