<svg width="9" height="14" viewBox="0 0 9 14" fill="none" xmlns="http://www.w3.org/2000/svg">
<path d="M4.76225 4.69733C5.17746 4.69733 5.57202 4.77021 5.94593 4.91388C6.32444 5.05963 6.63412 5.26368 6.87269 5.53019C7.11126 5.79671 7.2489 6.10279 7.28561 6.44634L7.31313 3.71456L7.33148 0.999433C7.33148 0.333144 7.59758 0 8.12978 0C8.33165 0 8.47846 0.0895326 8.57022 0.266515C8.66198 0.44558 8.70786 0.65796 8.70786 0.907818L8.69868 2.31535L8.67115 3.7562L8.55187 9.80277L8.50599 11.4518C8.49911 12.2972 8.43717 12.9322 8.32247 13.3591C8.20548 13.788 7.9692 14.0004 7.61593 14.0004C7.47371 14.0004 7.35442 13.9192 7.25808 13.7589C7.15944 13.5923 7.04703 13.3487 6.91857 13.0259C6.69147 13.2321 6.38867 13.407 6.01017 13.5506C5.62937 13.6901 5.24169 13.7963 4.84484 13.8671C4.44569 13.9442 4.10159 13.9837 3.80797 13.9837C2.55317 13.9837 1.60577 13.6089 0.963462 12.8594C0.321154 12.1098 0 11.0916 0 9.80277C0 8.91577 0.188105 8.07875 0.568901 7.29586C0.947404 6.51297 1.49795 5.88624 2.22055 5.41359C2.94085 4.93678 3.78962 4.69733 4.76225 4.69733ZM4.06489 12.293C4.61544 12.293 5.10176 12.2264 5.52385 12.0931C5.94593 11.9557 6.27856 11.7912 6.52401 11.6017C6.77405 11.4144 6.92775 11.2395 6.9828 11.077C7.03786 10.9105 7.07456 10.7335 7.09291 10.544C7.11126 10.3566 7.12044 10.1338 7.12044 9.87773V9.00322C7.12044 8.57014 7.01033 8.15995 6.79011 7.77059C6.57448 7.38331 6.28773 7.07099 5.92758 6.83779C5.56514 6.60458 5.18893 6.48798 4.79896 6.48798C4.11995 6.48798 3.52581 6.62749 3.01885 6.90441C2.51647 7.18342 2.13109 7.56862 1.86269 8.06209C1.59201 8.55764 1.45896 9.11774 1.45896 9.74447C1.45896 10.2567 1.57136 10.7064 1.79846 11.0937C2.02327 11.4831 2.33525 11.7808 2.7344 11.9849C3.13125 12.191 3.57398 12.293 4.06489 12.293Z" fill="black"/>
</svg>
