<svg width="1240" height="50" viewBox="0 0 1240 50" fill="none" xmlns="http://www.w3.org/2000/svg">
<path d="M1208 15C1208 11.6863 1210.69 9 1214 9H1234C1237.31 9 1240 11.6863 1240 15V35C1240 38.3137 1237.31 41 1234 41H1214C1210.69 41 1208 38.3137 1208 35V15Z" fill="#FAFAFA"/>
<path d="M1218.26 25.8205C1217.8 25.8205 1217.44 25.4531 1217.44 25C1217.44 24.5468 1217.8 24.1795 1218.26 24.1795H1224C1224.45 24.1795 1224.82 24.5468 1224.82 25C1224.82 25.4531 1224.45 25.8205 1224 25.8205H1218.26Z" fill="#181C32"/>
<path d="M1223.42 29.3429C1223.1 29.6633 1223.1 30.1828 1223.42 30.5032C1223.74 30.8237 1224.26 30.8237 1224.58 30.5032L1229.5 25.5802C1229.81 25.2695 1229.82 24.7694 1229.53 24.4455L1225.02 19.5225C1224.71 19.1884 1224.19 19.1658 1223.86 19.4721C1223.52 19.7783 1223.5 20.2973 1223.81 20.6313L1227.79 24.9753L1223.42 29.3429Z" fill="#181C32"/>
<path d="M1039 18C1039 14.6863 1041.69 12 1045 12H1107C1110.31 12 1113 14.6863 1113 18V32C1113 35.3137 1110.31 38 1107 38H1045C1041.69 38 1039 35.3137 1039 32V18Z" fill="#F4FFF3"/>
<path d="M1068.13 22.367V24.611H1070.77V25.634H1068.13V27.977H1071.1V29H1066.87V21.344H1071.1V22.367H1068.13Z" fill="#5F8D4E"/>
<path d="M1078.92 29H1077.67L1073.89 23.291V29H1072.64V21.344H1073.89L1077.67 27.042V21.344H1078.92V29Z" fill="#5F8D4E"/>
<path d="M1085.51 21.355V22.378H1083.47V29H1082.22V22.378H1080.17V21.355H1085.51Z" fill="#5F8D4E"/>
<path d="M850.052 16.972C851.076 16.1187 851.892 15.4093 852.5 14.844C853.108 14.268 853.615 13.6707 854.02 13.052C854.425 12.4333 854.628 11.8253 854.628 11.228C854.628 10.684 854.5 10.2573 854.244 9.948C853.988 9.63867 853.593 9.484 853.06 9.484C852.527 9.484 852.116 9.66533 851.828 10.028C851.54 10.38 851.391 10.8653 851.38 11.484H849.204C849.247 10.204 849.625 9.23333 850.34 8.572C851.065 7.91067 851.983 7.58 853.092 7.58C854.308 7.58 855.241 7.90533 855.892 8.556C856.543 9.196 856.868 10.044 856.868 11.1C856.868 11.932 856.644 12.7267 856.196 13.484C855.748 14.2413 855.236 14.9027 854.66 15.468C854.084 16.0227 853.332 16.6947 852.404 17.484H857.124V19.34H849.22V17.676L850.052 16.972Z" fill="#464E5F"/>
<path d="M858.263 9.9V7.836H862.12V19.5H859.815V9.9H858.263Z" fill="#464E5F"/>
<path d="M870.588 4.348L866.268 22.396H864.076L868.396 4.348H870.588Z" fill="#464E5F"/>
<path d="M871.842 9.9V7.836H875.698V19.5H873.394V9.9H871.842Z" fill="#464E5F"/>
<path d="M878.615 16.972C879.638 16.1187 880.455 15.4093 881.062 14.844C881.67 14.268 882.177 13.6707 882.583 13.052C882.988 12.4333 883.19 11.8253 883.19 11.228C883.19 10.684 883.062 10.2573 882.807 9.948C882.551 9.63867 882.156 9.484 881.622 9.484C881.089 9.484 880.679 9.66533 880.391 10.028C880.102 10.38 879.953 10.8653 879.943 11.484H877.766C877.809 10.204 878.188 9.23333 878.903 8.572C879.628 7.91067 880.545 7.58 881.654 7.58C882.87 7.58 883.804 7.90533 884.455 8.556C885.105 9.196 885.43 10.044 885.43 11.1C885.43 11.932 885.206 12.7267 884.758 13.484C884.31 14.2413 883.798 14.9027 883.222 15.468C882.646 16.0227 881.894 16.6947 880.966 17.484H885.687V19.34H877.782V17.676L878.615 16.972Z" fill="#464E5F"/>
<path d="M893.354 4.348L889.034 22.396H886.842L891.162 4.348H893.354Z" fill="#464E5F"/>
<path d="M895.583 16.972C896.607 16.1187 897.423 15.4093 898.031 14.844C898.639 14.268 899.146 13.6707 899.551 13.052C899.957 12.4333 900.159 11.8253 900.159 11.228C900.159 10.684 900.031 10.2573 899.775 9.948C899.519 9.63867 899.125 9.484 898.591 9.484C898.058 9.484 897.647 9.66533 897.359 10.028C897.071 10.38 896.922 10.8653 896.911 11.484H894.735C894.778 10.204 895.157 9.23333 895.871 8.572C896.597 7.91067 897.514 7.58 898.623 7.58C899.839 7.58 900.773 7.90533 901.423 8.556C902.074 9.196 902.399 10.044 902.399 11.1C902.399 11.932 902.175 12.7267 901.727 13.484C901.279 14.2413 900.767 14.9027 900.191 15.468C899.615 16.0227 898.863 16.6947 897.935 17.484H902.655V19.34H894.751V17.676L895.583 16.972Z" fill="#464E5F"/>
<path d="M904.067 13.516C904.067 11.6707 904.397 10.2253 905.059 9.18C905.731 8.13467 906.84 7.612 908.387 7.612C909.933 7.612 911.037 8.13467 911.699 9.18C912.371 10.2253 912.707 11.6707 912.707 13.516C912.707 15.372 912.371 16.828 911.699 17.884C911.037 18.94 909.933 19.468 908.387 19.468C906.84 19.468 905.731 18.94 905.059 17.884C904.397 16.828 904.067 15.372 904.067 13.516ZM910.499 13.516C910.499 12.7267 910.445 12.0653 910.339 11.532C910.243 10.988 910.04 10.5453 909.731 10.204C909.432 9.86267 908.984 9.692 908.387 9.692C907.789 9.692 907.336 9.86267 907.027 10.204C906.728 10.5453 906.525 10.988 906.419 11.532C906.323 12.0653 906.275 12.7267 906.275 13.516C906.275 14.3267 906.323 15.0093 906.419 15.564C906.515 16.108 906.717 16.5507 907.027 16.892C907.336 17.2227 907.789 17.388 908.387 17.388C908.984 17.388 909.437 17.2227 909.747 16.892C910.056 16.5507 910.259 16.108 910.355 15.564C910.451 15.0093 910.499 14.3267 910.499 13.516Z" fill="#464E5F"/>
<path d="M915.115 16.972C916.138 16.1187 916.955 15.4093 917.562 14.844C918.17 14.268 918.677 13.6707 919.083 13.052C919.488 12.4333 919.69 11.8253 919.69 11.228C919.69 10.684 919.562 10.2573 919.307 9.948C919.051 9.63867 918.656 9.484 918.122 9.484C917.589 9.484 917.179 9.66533 916.891 10.028C916.602 10.38 916.453 10.8653 916.443 11.484H914.266C914.309 10.204 914.688 9.23333 915.403 8.572C916.128 7.91067 917.045 7.58 918.154 7.58C919.37 7.58 920.304 7.90533 920.955 8.556C921.605 9.196 921.93 10.044 921.93 11.1C921.93 11.932 921.706 12.7267 921.258 13.484C920.81 14.2413 920.298 14.9027 919.722 15.468C919.146 16.0227 918.394 16.6947 917.466 17.484H922.187V19.34H914.282V17.676L915.115 16.972Z" fill="#464E5F"/>
<path d="M924.302 16.972C925.326 16.1187 926.142 15.4093 926.75 14.844C927.358 14.268 927.865 13.6707 928.27 13.052C928.675 12.4333 928.878 11.8253 928.878 11.228C928.878 10.684 928.75 10.2573 928.494 9.948C928.238 9.63867 927.843 9.484 927.31 9.484C926.777 9.484 926.366 9.66533 926.078 10.028C925.79 10.38 925.641 10.8653 925.63 11.484H923.454C923.497 10.204 923.875 9.23333 924.59 8.572C925.315 7.91067 926.233 7.58 927.342 7.58C928.558 7.58 929.491 7.90533 930.142 8.556C930.793 9.196 931.118 10.044 931.118 11.1C931.118 11.932 930.894 12.7267 930.446 13.484C929.998 14.2413 929.486 14.9027 928.91 15.468C928.334 16.0227 927.582 16.6947 926.654 17.484H931.374V19.34H923.47V17.676L924.302 16.972Z" fill="#464E5F"/>
<path d="M849.085 32.375V31.023H851.789V40.5H850.294V32.375H849.085Z" fill="#B5B5C3"/>
<path d="M853.825 35.638C853.825 34.1387 854.076 32.9687 854.579 32.128C855.09 31.2787 855.966 30.854 857.205 30.854C858.444 30.854 859.315 31.2787 859.818 32.128C860.329 32.9687 860.585 34.1387 860.585 35.638C860.585 37.1547 860.329 38.342 859.818 39.2C859.315 40.0493 858.444 40.474 857.205 40.474C855.966 40.474 855.09 40.0493 854.579 39.2C854.076 38.342 853.825 37.1547 853.825 35.638ZM859.129 35.638C859.129 34.936 859.081 34.3423 858.986 33.857C858.899 33.3717 858.717 32.9773 858.44 32.674C858.163 32.362 857.751 32.206 857.205 32.206C856.659 32.206 856.247 32.362 855.97 32.674C855.693 32.9773 855.506 33.3717 855.411 33.857C855.324 34.3423 855.281 34.936 855.281 35.638C855.281 36.366 855.324 36.977 855.411 37.471C855.498 37.965 855.68 38.3637 855.957 38.667C856.243 38.9703 856.659 39.122 857.205 39.122C857.751 39.122 858.163 38.9703 858.44 38.667C858.726 38.3637 858.912 37.965 858.999 37.471C859.086 36.977 859.129 36.366 859.129 35.638Z" fill="#B5B5C3"/>
<path d="M862.946 40.591C862.677 40.591 862.452 40.5 862.27 40.318C862.088 40.136 861.997 39.9107 861.997 39.642C861.997 39.3733 862.088 39.148 862.27 38.966C862.452 38.784 862.677 38.693 862.946 38.693C863.206 38.693 863.427 38.784 863.609 38.966C863.791 39.148 863.882 39.3733 863.882 39.642C863.882 39.9107 863.791 40.136 863.609 40.318C863.427 40.5 863.206 40.591 862.946 40.591ZM862.946 35.131C862.677 35.131 862.452 35.04 862.27 34.858C862.088 34.676 861.997 34.4507 861.997 34.182C861.997 33.9133 862.088 33.688 862.27 33.506C862.452 33.324 862.677 33.233 862.946 33.233C863.206 33.233 863.427 33.324 863.609 33.506C863.791 33.688 863.882 33.9133 863.882 34.182C863.882 34.4507 863.791 34.676 863.609 34.858C863.427 35.04 863.206 35.131 862.946 35.131Z" fill="#B5B5C3"/>
<path d="M865.158 38.524V37.406L869.526 31.14H871.32V37.237H872.529V38.524H871.32V40.5H869.864V38.524H865.158ZM869.929 32.648L866.861 37.237H869.929V32.648Z" fill="#B5B5C3"/>
<path d="M873.757 35.638C873.757 34.1387 874.008 32.9687 874.511 32.128C875.022 31.2787 875.897 30.854 877.137 30.854C878.376 30.854 879.247 31.2787 879.75 32.128C880.261 32.9687 880.517 34.1387 880.517 35.638C880.517 37.1547 880.261 38.342 879.75 39.2C879.247 40.0493 878.376 40.474 877.137 40.474C875.897 40.474 875.022 40.0493 874.511 39.2C874.008 38.342 873.757 37.1547 873.757 35.638ZM879.061 35.638C879.061 34.936 879.013 34.3423 878.918 33.857C878.831 33.3717 878.649 32.9773 878.372 32.674C878.094 32.362 877.683 32.206 877.137 32.206C876.591 32.206 876.179 32.362 875.902 32.674C875.624 32.9773 875.438 33.3717 875.343 33.857C875.256 34.3423 875.213 34.936 875.213 35.638C875.213 36.366 875.256 36.977 875.343 37.471C875.429 37.965 875.611 38.3637 875.889 38.667C876.175 38.9703 876.591 39.122 877.137 39.122C877.683 39.122 878.094 38.9703 878.372 38.667C878.658 38.3637 878.844 37.965 878.931 37.471C879.017 36.977 879.061 36.366 879.061 35.638Z" fill="#B5B5C3"/>
<path d="M891.975 34.156C891.975 34.6153 891.866 35.0487 891.65 35.456C891.433 35.8633 891.086 36.197 890.61 36.457C890.133 36.7083 889.522 36.834 888.777 36.834H887.139V40.5H885.657V31.465H888.777C889.47 31.465 890.055 31.5863 890.532 31.829C891.017 32.063 891.377 32.3837 891.611 32.791C891.853 33.1983 891.975 33.6533 891.975 34.156ZM888.777 35.625C889.34 35.625 889.76 35.4993 890.038 35.248C890.315 34.988 890.454 34.624 890.454 34.156C890.454 33.168 889.895 32.674 888.777 32.674H887.139V35.625H888.777Z" fill="#B5B5C3"/>
<path d="M902.904 31.465V40.5H901.422V34.312L898.666 40.5H897.639L894.87 34.312V40.5H893.388V31.465H894.987L898.159 38.55L901.318 31.465H902.904Z" fill="#B5B5C3"/>
<path d="M274.8 25.824C273.733 25.2693 273.2 24.4107 273.2 23.248C273.2 22.672 273.344 22.1493 273.632 21.68C273.931 21.2 274.373 20.8213 274.96 20.544C275.557 20.256 276.283 20.112 277.136 20.112C277.989 20.112 278.709 20.256 279.296 20.544C279.893 20.8213 280.336 21.2 280.624 21.68C280.923 22.1493 281.072 22.672 281.072 23.248C281.072 23.8347 280.928 24.352 280.64 24.8C280.352 25.2373 279.968 25.5787 279.488 25.824C280.075 26.08 280.533 26.4533 280.864 26.944C281.195 27.4347 281.36 28.016 281.36 28.688C281.36 29.4133 281.173 30.048 280.8 30.592C280.437 31.1253 279.936 31.536 279.296 31.824C278.656 32.112 277.936 32.256 277.136 32.256C276.336 32.256 275.616 32.112 274.976 31.824C274.347 31.536 273.845 31.1253 273.472 30.592C273.109 30.048 272.928 29.4133 272.928 28.688C272.928 28.016 273.093 27.4347 273.424 26.944C273.755 26.4427 274.213 26.0693 274.8 25.824ZM278.896 23.568C278.896 23.0453 278.736 22.64 278.416 22.352C278.107 22.064 277.68 21.92 277.136 21.92C276.603 21.92 276.176 22.064 275.856 22.352C275.547 22.64 275.392 23.0507 275.392 23.584C275.392 24.064 275.552 24.448 275.872 24.736C276.203 25.024 276.624 25.168 277.136 25.168C277.648 25.168 278.069 25.024 278.4 24.736C278.731 24.4373 278.896 24.048 278.896 23.568ZM277.136 26.8C276.528 26.8 276.032 26.9547 275.648 27.264C275.275 27.5733 275.088 28.016 275.088 28.592C275.088 29.1253 275.269 29.5627 275.632 29.904C276.005 30.2347 276.507 30.4 277.136 30.4C277.765 30.4 278.261 30.2293 278.624 29.888C278.987 29.5467 279.168 29.1147 279.168 28.592C279.168 28.0267 278.981 27.5893 278.608 27.28C278.235 26.96 277.744 26.8 277.136 26.8Z" fill="#464E5F"/>
<path d="M290.553 22.032L286.297 32H284.025L288.313 22.288H282.841V20.368H290.553V22.032Z" fill="#464E5F"/>
<path d="M291.927 23.408C291.98 22.3413 292.354 21.52 293.047 20.944C293.751 20.3573 294.674 20.064 295.815 20.064C296.594 20.064 297.26 20.2027 297.815 20.48C298.37 20.7467 298.786 21.1147 299.063 21.584C299.351 22.0427 299.495 22.5653 299.495 23.152C299.495 23.824 299.319 24.3947 298.967 24.864C298.626 25.3227 298.215 25.632 297.735 25.792V25.856C298.354 26.048 298.834 26.3893 299.175 26.88C299.527 27.3707 299.703 28 299.703 28.768C299.703 29.408 299.554 29.9787 299.255 30.48C298.967 30.9813 298.535 31.376 297.959 31.664C297.394 31.9413 296.711 32.08 295.911 32.08C294.706 32.08 293.724 31.776 292.967 31.168C292.21 30.56 291.81 29.664 291.767 28.48H293.943C293.964 29.0027 294.14 29.424 294.471 29.744C294.812 30.0533 295.276 30.208 295.863 30.208C296.407 30.208 296.823 30.0587 297.111 29.76C297.41 29.4507 297.559 29.056 297.559 28.576C297.559 27.936 297.356 27.4773 296.951 27.2C296.546 26.9227 295.916 26.784 295.063 26.784H294.599V24.944H295.063C296.578 24.944 297.335 24.4373 297.335 23.424C297.335 22.9653 297.196 22.608 296.919 22.352C296.652 22.096 296.263 21.968 295.751 21.968C295.25 21.968 294.86 22.1067 294.583 22.384C294.316 22.6507 294.162 22.992 294.119 23.408H291.927Z" fill="#464E5F"/>
<path d="M307.521 23.248C307.414 22.8 307.228 22.464 306.961 22.24C306.705 22.016 306.332 21.904 305.841 21.904C305.105 21.904 304.561 22.2027 304.209 22.8C303.868 23.3867 303.692 24.3467 303.681 25.68C303.937 25.2533 304.31 24.9227 304.801 24.688C305.292 24.4427 305.825 24.32 306.401 24.32C307.094 24.32 307.708 24.4693 308.241 24.768C308.774 25.0667 309.19 25.504 309.489 26.08C309.788 26.6453 309.937 27.328 309.937 28.128C309.937 28.8853 309.782 29.5627 309.473 30.16C309.174 30.7467 308.732 31.2053 308.145 31.536C307.558 31.8667 306.86 32.032 306.049 32.032C304.94 32.032 304.065 31.7867 303.425 31.296C302.796 30.8053 302.353 30.1227 302.097 29.248C301.852 28.3627 301.729 27.2747 301.729 25.984C301.729 24.032 302.065 22.56 302.737 21.568C303.409 20.5653 304.47 20.064 305.921 20.064C307.041 20.064 307.91 20.368 308.529 20.976C309.148 21.584 309.505 22.3413 309.601 23.248H307.521ZM305.889 26.16C305.324 26.16 304.849 26.3253 304.465 26.656C304.081 26.9867 303.889 27.4667 303.889 28.096C303.889 28.7253 304.065 29.2213 304.417 29.584C304.78 29.9467 305.286 30.128 305.937 30.128C306.513 30.128 306.966 29.952 307.297 29.6C307.638 29.248 307.809 28.7733 307.809 28.176C307.809 27.5573 307.644 27.0667 307.313 26.704C306.993 26.3413 306.518 26.16 305.889 26.16Z" fill="#464E5F"/>
<path d="M311.611 29.728V27.968L316.843 20.48H319.451V27.776H320.859V29.728H319.451V32H317.211V29.728H311.611ZM317.355 22.88L314.075 27.776H317.355V22.88Z" fill="#464E5F"/>
<path d="M330.125 22.272H324.941V25.008C325.165 24.7307 325.486 24.5067 325.901 24.336C326.317 24.1547 326.76 24.064 327.229 24.064C328.083 24.064 328.781 24.2507 329.326 24.624C329.87 24.9973 330.264 25.4773 330.509 26.064C330.755 26.64 330.878 27.2587 330.878 27.92C330.878 29.1467 330.526 30.1333 329.822 30.88C329.128 31.6267 328.136 32 326.845 32C325.629 32 324.659 31.696 323.934 31.088C323.208 30.48 322.798 29.6853 322.702 28.704H324.878C324.974 29.1307 325.187 29.472 325.517 29.728C325.859 29.984 326.291 30.112 326.814 30.112C327.443 30.112 327.917 29.9147 328.237 29.52C328.557 29.1253 328.717 28.6027 328.717 27.952C328.717 27.2907 328.552 26.7893 328.221 26.448C327.901 26.096 327.427 25.92 326.797 25.92C326.349 25.92 325.976 26.032 325.677 26.256C325.379 26.48 325.165 26.7787 325.038 27.152H322.893V20.304H330.125V22.272Z" fill="#464E5F"/>
<path d="M333.286 29.472C334.31 28.6187 335.126 27.9093 335.734 27.344C336.342 26.768 336.849 26.1707 337.254 25.552C337.66 24.9333 337.862 24.3253 337.862 23.728C337.862 23.184 337.734 22.7573 337.478 22.448C337.222 22.1387 336.828 21.984 336.294 21.984C335.761 21.984 335.35 22.1653 335.062 22.528C334.774 22.88 334.625 23.3653 334.614 23.984H332.438C332.481 22.704 332.86 21.7333 333.574 21.072C334.3 20.4107 335.217 20.08 336.326 20.08C337.542 20.08 338.476 20.4053 339.126 21.056C339.777 21.696 340.102 22.544 340.102 23.6C340.102 24.432 339.878 25.2267 339.43 25.984C338.982 26.7413 338.47 27.4027 337.894 27.968C337.318 28.5227 336.566 29.1947 335.638 29.984H340.358V31.84H332.454V30.176L333.286 29.472Z" fill="#464E5F"/>
<path d="M341.802 23.408C341.855 22.3413 342.229 21.52 342.922 20.944C343.626 20.3573 344.549 20.064 345.69 20.064C346.469 20.064 347.135 20.2027 347.69 20.48C348.245 20.7467 348.661 21.1147 348.938 21.584C349.226 22.0427 349.37 22.5653 349.37 23.152C349.37 23.824 349.194 24.3947 348.842 24.864C348.501 25.3227 348.09 25.632 347.61 25.792V25.856C348.229 26.048 348.709 26.3893 349.05 26.88C349.402 27.3707 349.578 28 349.578 28.768C349.578 29.408 349.429 29.9787 349.13 30.48C348.842 30.9813 348.41 31.376 347.834 31.664C347.269 31.9413 346.586 32.08 345.786 32.08C344.581 32.08 343.599 31.776 342.842 31.168C342.085 30.56 341.685 29.664 341.642 28.48H343.818C343.839 29.0027 344.015 29.424 344.346 29.744C344.687 30.0533 345.151 30.208 345.738 30.208C346.282 30.208 346.698 30.0587 346.986 29.76C347.285 29.4507 347.434 29.056 347.434 28.576C347.434 27.936 347.231 27.4773 346.826 27.2C346.421 26.9227 345.791 26.784 344.938 26.784H344.474V24.944H344.938C346.453 24.944 347.21 24.4373 347.21 23.424C347.21 22.9653 347.071 22.608 346.794 22.352C346.527 22.096 346.138 21.968 345.626 21.968C345.125 21.968 344.735 22.1067 344.458 22.384C344.191 22.6507 344.037 22.992 343.994 23.408H341.802Z" fill="#464E5F"/>
<path d="M417.344 24.432C417.632 24.0053 418.027 23.6587 418.528 23.392C419.04 23.1253 419.621 22.992 420.272 22.992C421.029 22.992 421.712 23.1787 422.32 23.552C422.939 23.9253 423.424 24.4587 423.776 25.152C424.139 25.8347 424.32 26.6293 424.32 27.536C424.32 28.4427 424.139 29.248 423.776 29.952C423.424 30.6453 422.939 31.184 422.32 31.568C421.712 31.952 421.029 32.144 420.272 32.144C419.611 32.144 419.029 32.016 418.528 31.76C418.037 31.4933 417.643 31.152 417.344 30.736V32H415.104V20.16H417.344V24.432ZM422.032 27.536C422.032 27.0027 421.92 26.544 421.696 26.16C421.483 25.7653 421.195 25.4667 420.832 25.264C420.48 25.0613 420.096 24.96 419.68 24.96C419.275 24.96 418.891 25.0667 418.528 25.28C418.176 25.4827 417.888 25.7813 417.664 26.176C417.451 26.5707 417.344 27.0347 417.344 27.568C417.344 28.1013 417.451 28.5653 417.664 28.96C417.888 29.3547 418.176 29.6587 418.528 29.872C418.891 30.0747 419.275 30.176 419.68 30.176C420.096 30.176 420.48 30.0693 420.832 29.856C421.195 29.6427 421.483 29.3387 421.696 28.944C421.92 28.5493 422.032 28.08 422.032 27.536Z" fill="#464E5F"/>
<path d="M428.188 24.512C428.476 24.0427 428.849 23.6747 429.308 23.408C429.777 23.1413 430.31 23.008 430.908 23.008V25.36H430.316C429.612 25.36 429.078 25.5253 428.716 25.856C428.364 26.1867 428.188 26.7627 428.188 27.584V32H425.948V23.136H428.188V24.512Z" fill="#464E5F"/>
<path d="M436.353 32.144C435.499 32.144 434.731 31.9573 434.048 31.584C433.366 31.2 432.827 30.6613 432.432 29.968C432.048 29.2747 431.857 28.4747 431.857 27.568C431.857 26.6613 432.054 25.8613 432.448 25.168C432.854 24.4747 433.403 23.9413 434.096 23.568C434.79 23.184 435.563 22.992 436.417 22.992C437.27 22.992 438.043 23.184 438.737 23.568C439.43 23.9413 439.974 24.4747 440.368 25.168C440.774 25.8613 440.977 26.6613 440.977 27.568C440.977 28.4747 440.768 29.2747 440.353 29.968C439.947 30.6613 439.393 31.2 438.689 31.584C437.995 31.9573 437.217 32.144 436.353 32.144ZM436.353 30.192C436.758 30.192 437.137 30.096 437.488 29.904C437.851 29.7013 438.139 29.4027 438.353 29.008C438.566 28.6133 438.672 28.1333 438.672 27.568C438.672 26.7253 438.448 26.08 438 25.632C437.563 25.1733 437.025 24.944 436.384 24.944C435.744 24.944 435.206 25.1733 434.768 25.632C434.342 26.08 434.129 26.7253 434.129 27.568C434.129 28.4107 434.337 29.0613 434.753 29.52C435.179 29.968 435.712 30.192 436.353 30.192Z" fill="#464E5F"/>
<path d="M446.556 32.144C445.702 32.144 444.934 31.9573 444.252 31.584C443.569 31.2 443.03 30.6613 442.636 29.968C442.252 29.2747 442.06 28.4747 442.06 27.568C442.06 26.6613 442.257 25.8613 442.652 25.168C443.057 24.4747 443.606 23.9413 444.3 23.568C444.993 23.184 445.766 22.992 446.62 22.992C447.473 22.992 448.246 23.184 448.94 23.568C449.633 23.9413 450.177 24.4747 450.572 25.168C450.977 25.8613 451.18 26.6613 451.18 27.568C451.18 28.4747 450.972 29.2747 450.556 29.968C450.15 30.6613 449.596 31.2 448.892 31.584C448.198 31.9573 447.42 32.144 446.556 32.144ZM446.556 30.192C446.961 30.192 447.34 30.096 447.692 29.904C448.054 29.7013 448.342 29.4027 448.556 29.008C448.769 28.6133 448.876 28.1333 448.876 27.568C448.876 26.7253 448.652 26.08 448.204 25.632C447.766 25.1733 447.228 24.944 446.588 24.944C445.948 24.944 445.409 25.1733 444.972 25.632C444.545 26.08 444.332 26.7253 444.332 27.568C444.332 28.4107 444.54 29.0613 444.956 29.52C445.382 29.968 445.916 30.192 446.556 30.192Z" fill="#464E5F"/>
<path d="M458.071 32L455.063 28.224V32H452.823V20.16H455.063V26.896L458.039 23.136H460.951L457.047 27.584L460.983 32H458.071Z" fill="#464E5F"/>
<path d="M464.406 20.16V32H462.167V20.16H464.406Z" fill="#464E5F"/>
<path d="M475.1 23.136L469.612 36.192H467.228L469.148 31.776L465.596 23.136H468.108L470.396 29.328L472.716 23.136H475.1Z" fill="#464E5F"/>
<path d="M481.219 23.008C482.275 23.008 483.128 23.344 483.779 24.016C484.43 24.6773 484.755 25.6053 484.755 26.8V32H482.515V27.104C482.515 26.4 482.339 25.8613 481.987 25.488C481.635 25.104 481.155 24.912 480.547 24.912C479.928 24.912 479.438 25.104 479.075 25.488C478.723 25.8613 478.547 26.4 478.547 27.104V32H476.307V23.136H478.547V24.24C478.846 23.856 479.224 23.5573 479.683 23.344C480.152 23.12 480.664 23.008 481.219 23.008Z" fill="#464E5F"/>
<path d="M490.277 32.144C489.552 32.144 488.901 32.016 488.325 31.76C487.749 31.4933 487.291 31.136 486.949 30.688C486.619 30.24 486.437 29.744 486.405 29.2H488.661C488.704 29.5413 488.869 29.824 489.157 30.048C489.456 30.272 489.824 30.384 490.261 30.384C490.688 30.384 491.019 30.2987 491.253 30.128C491.499 29.9573 491.621 29.7387 491.621 29.472C491.621 29.184 491.472 28.9707 491.173 28.832C490.885 28.6827 490.421 28.5227 489.781 28.352C489.12 28.192 488.576 28.0267 488.149 27.856C487.733 27.6853 487.371 27.424 487.061 27.072C486.763 26.72 486.613 26.2453 486.613 25.648C486.613 25.1573 486.752 24.7093 487.029 24.304C487.317 23.8987 487.723 23.5787 488.245 23.344C488.779 23.1093 489.403 22.992 490.117 22.992C491.173 22.992 492.016 23.2587 492.645 23.792C493.275 24.3147 493.621 25.024 493.685 25.92H491.541C491.509 25.568 491.36 25.2907 491.093 25.088C490.837 24.8747 490.491 24.768 490.053 24.768C489.648 24.768 489.333 24.8427 489.109 24.992C488.896 25.1413 488.789 25.3493 488.789 25.616C488.789 25.9147 488.939 26.144 489.237 26.304C489.536 26.4533 490 26.608 490.629 26.768C491.269 26.928 491.797 27.0933 492.213 27.264C492.629 27.4347 492.987 27.7013 493.285 28.064C493.595 28.416 493.755 28.8853 493.765 29.472C493.765 29.984 493.621 30.4427 493.333 30.848C493.056 31.2533 492.651 31.5733 492.117 31.808C491.595 32.032 490.981 32.144 490.277 32.144Z" fill="#464E5F"/>
<path d="M504.132 21.504C505.369 21.504 506.441 21.7333 507.348 22.192C508.255 22.6507 508.948 23.296 509.428 24.128C509.919 24.96 510.164 25.92 510.164 27.008C510.164 27.8827 510.009 28.7093 509.7 29.488C509.401 30.2667 508.964 30.896 508.388 31.376C507.812 31.856 507.129 32.096 506.34 32.096C505.785 32.096 505.337 31.984 504.996 31.76C504.655 31.5253 504.436 31.1947 504.34 30.768C504.031 31.184 503.631 31.5147 503.14 31.76C502.649 31.9947 502.132 32.112 501.588 32.112C500.777 32.112 500.143 31.872 499.684 31.392C499.225 30.9013 498.996 30.2347 498.996 29.392C498.996 28.592 499.161 27.8453 499.492 27.152C499.823 26.4587 500.281 25.904 500.868 25.488C501.455 25.0613 502.116 24.848 502.852 24.848C503.769 24.848 504.399 25.168 504.74 25.808L504.884 24.976H506.756L506.004 29.296C505.972 29.4987 505.956 29.6853 505.956 29.856C505.956 30.112 506.009 30.304 506.116 30.432C506.223 30.56 506.404 30.624 506.66 30.624C507.044 30.624 507.364 30.4427 507.62 30.08C507.887 29.7173 508.084 29.264 508.212 28.72C508.351 28.176 508.42 27.632 508.42 27.088C508.42 25.7973 508.025 24.8 507.236 24.096C506.447 23.3813 505.332 23.024 503.892 23.024C502.665 23.024 501.556 23.3227 500.564 23.92C499.572 24.5067 498.793 25.312 498.228 26.336C497.673 27.3493 497.396 28.48 497.396 29.728C497.396 31.0507 497.785 32.0693 498.564 32.784C499.353 33.4987 500.468 33.856 501.908 33.856C502.943 33.856 503.855 33.6693 504.644 33.296L504.964 34.768C503.951 35.1947 502.825 35.408 501.588 35.408C500.393 35.408 499.348 35.1787 498.452 34.72C497.556 34.272 496.863 33.632 496.372 32.8C495.881 31.968 495.636 31.0027 495.636 29.904C495.636 28.336 495.999 26.912 496.724 25.632C497.46 24.352 498.473 23.344 499.764 22.608C501.065 21.872 502.521 21.504 504.132 21.504ZM502.292 30.448C502.676 30.448 503.028 30.336 503.348 30.112C503.668 29.888 503.919 29.5893 504.1 29.216C504.292 28.8427 504.388 28.4427 504.388 28.016C504.388 27.568 504.265 27.2053 504.02 26.928C503.775 26.6507 503.433 26.512 502.996 26.512C502.601 26.512 502.255 26.6347 501.956 26.88C501.657 27.1147 501.423 27.424 501.252 27.808C501.092 28.192 501.012 28.5973 501.012 29.024C501.012 29.4613 501.119 29.808 501.332 30.064C501.545 30.32 501.865 30.448 502.292 30.448Z" fill="#464E5F"/>
<path d="M523.424 23.008C524.513 23.008 525.387 23.344 526.049 24.016C526.721 24.6773 527.057 25.6053 527.057 26.8V32H524.817V27.104C524.817 26.4107 524.641 25.8827 524.289 25.52C523.937 25.1467 523.456 24.96 522.849 24.96C522.241 24.96 521.755 25.1467 521.393 25.52C521.041 25.8827 520.865 26.4107 520.865 27.104V32H518.625V27.104C518.625 26.4107 518.448 25.8827 518.096 25.52C517.745 25.1467 517.264 24.96 516.656 24.96C516.038 24.96 515.547 25.1467 515.185 25.52C514.833 25.8827 514.656 26.4107 514.656 27.104V32H512.417V23.136H514.656V24.208C514.945 23.8347 515.312 23.5413 515.76 23.328C516.219 23.1147 516.721 23.008 517.265 23.008C517.958 23.008 518.576 23.1573 519.12 23.456C519.664 23.744 520.086 24.16 520.385 24.704C520.673 24.192 521.089 23.7813 521.633 23.472C522.187 23.1627 522.784 23.008 523.424 23.008Z" fill="#464E5F"/>
<path d="M528.606 27.536C528.606 26.64 528.782 25.8453 529.134 25.152C529.497 24.4587 529.982 23.9253 530.59 23.552C531.209 23.1787 531.897 22.992 532.654 22.992C533.315 22.992 533.891 23.1253 534.382 23.392C534.883 23.6587 535.284 23.9947 535.582 24.4V23.136H537.838V32H535.582V30.704C535.294 31.12 534.894 31.4667 534.382 31.744C533.881 32.0107 533.299 32.144 532.638 32.144C531.891 32.144 531.209 31.952 530.59 31.568C529.982 31.184 529.497 30.6453 529.134 29.952C528.782 29.248 528.606 28.4427 528.606 27.536ZM535.582 27.568C535.582 27.024 535.475 26.56 535.262 26.176C535.049 25.7813 534.761 25.4827 534.398 25.28C534.035 25.0667 533.646 24.96 533.23 24.96C532.814 24.96 532.43 25.0613 532.078 25.264C531.726 25.4667 531.438 25.7653 531.214 26.16C531.001 26.544 530.894 27.0027 530.894 27.536C530.894 28.0693 531.001 28.5387 531.214 28.944C531.438 29.3387 531.726 29.6427 532.078 29.856C532.441 30.0693 532.825 30.176 533.23 30.176C533.646 30.176 534.035 30.0747 534.398 29.872C534.761 29.6587 535.049 29.36 535.262 28.976C535.475 28.5813 535.582 28.112 535.582 27.568Z" fill="#464E5F"/>
<path d="M541.162 22.08C540.767 22.08 540.437 21.9573 540.17 21.712C539.914 21.456 539.786 21.1413 539.786 20.768C539.786 20.3947 539.914 20.0853 540.17 19.84C540.437 19.584 540.767 19.456 541.162 19.456C541.557 19.456 541.882 19.584 542.138 19.84C542.405 20.0853 542.538 20.3947 542.538 20.768C542.538 21.1413 542.405 21.456 542.138 21.712C541.882 21.9573 541.557 22.08 541.162 22.08ZM542.266 23.136V32H540.026V23.136H542.266Z" fill="#464E5F"/>
<path d="M546.719 20.16V32H544.479V20.16H546.719Z" fill="#464E5F"/>
<path d="M549.924 32.112C549.519 32.112 549.183 31.9893 548.916 31.744C548.66 31.488 548.532 31.1733 548.532 30.8C548.532 30.4267 548.66 30.1173 548.916 29.872C549.183 29.616 549.519 29.488 549.924 29.488C550.319 29.488 550.644 29.616 550.9 29.872C551.156 30.1173 551.284 30.4267 551.284 30.8C551.284 31.1733 551.156 31.488 550.9 31.744C550.644 31.9893 550.319 32.112 549.924 32.112Z" fill="#464E5F"/>
<path d="M552.512 27.568C552.512 26.6507 552.699 25.8507 553.072 25.168C553.446 24.4747 553.963 23.9413 554.624 23.568C555.286 23.184 556.043 22.992 556.896 22.992C557.995 22.992 558.902 23.2693 559.616 23.824C560.342 24.368 560.827 25.136 561.072 26.128H558.656C558.528 25.744 558.31 25.4453 558 25.232C557.702 25.008 557.328 24.896 556.88 24.896C556.24 24.896 555.734 25.1307 555.36 25.6C554.987 26.0587 554.8 26.7147 554.8 27.568C554.8 28.4107 554.987 29.0667 555.36 29.536C555.734 29.9947 556.24 30.224 556.88 30.224C557.787 30.224 558.379 29.8187 558.656 29.008H561.072C560.827 29.968 560.342 30.7307 559.616 31.296C558.891 31.8613 557.984 32.144 556.896 32.144C556.043 32.144 555.286 31.9573 554.624 31.584C553.963 31.2 553.446 30.6667 553.072 29.984C552.699 29.2907 552.512 28.4853 552.512 27.568Z" fill="#464E5F"/>
<path d="M566.649 32.144C565.796 32.144 565.028 31.9573 564.345 31.584C563.663 31.2 563.124 30.6613 562.729 29.968C562.345 29.2747 562.153 28.4747 562.153 27.568C562.153 26.6613 562.351 25.8613 562.745 25.168C563.151 24.4747 563.7 23.9413 564.393 23.568C565.087 23.184 565.86 22.992 566.713 22.992C567.567 22.992 568.34 23.184 569.033 23.568C569.727 23.9413 570.271 24.4747 570.665 25.168C571.071 25.8613 571.273 26.6613 571.273 27.568C571.273 28.4747 571.065 29.2747 570.649 29.968C570.244 30.6613 569.689 31.2 568.985 31.584C568.292 31.9573 567.513 32.144 566.649 32.144ZM566.649 30.192C567.055 30.192 567.433 30.096 567.785 29.904C568.148 29.7013 568.436 29.4027 568.649 29.008C568.863 28.6133 568.969 28.1333 568.969 27.568C568.969 26.7253 568.745 26.08 568.297 25.632C567.86 25.1733 567.321 24.944 566.681 24.944C566.041 24.944 565.503 25.1733 565.065 25.632C564.639 26.08 564.425 26.7253 564.425 27.568C564.425 28.4107 564.633 29.0613 565.049 29.52C565.476 29.968 566.009 30.192 566.649 30.192Z" fill="#464E5F"/>
<path d="M583.924 23.008C585.013 23.008 585.887 23.344 586.549 24.016C587.221 24.6773 587.557 25.6053 587.557 26.8V32H585.317V27.104C585.317 26.4107 585.141 25.8827 584.789 25.52C584.437 25.1467 583.956 24.96 583.349 24.96C582.741 24.96 582.255 25.1467 581.893 25.52C581.541 25.8827 581.365 26.4107 581.365 27.104V32H579.125V27.104C579.125 26.4107 578.948 25.8827 578.596 25.52C578.245 25.1467 577.764 24.96 577.156 24.96C576.538 24.96 576.047 25.1467 575.685 25.52C575.333 25.8827 575.156 26.4107 575.156 27.104V32H572.917V23.136H575.156V24.208C575.445 23.8347 575.812 23.5413 576.26 23.328C576.719 23.1147 577.221 23.008 577.765 23.008C578.458 23.008 579.076 23.1573 579.62 23.456C580.164 23.744 580.586 24.16 580.885 24.704C581.173 24.192 581.589 23.7813 582.133 23.472C582.687 23.1627 583.284 23.008 583.924 23.008Z" fill="#464E5F"/>
<path d="M640.976 35.152C639.941 34.1493 639.136 32.8693 638.56 31.312C637.995 29.7547 637.712 28.0853 637.712 26.304C637.712 24.48 638.011 22.768 638.608 21.168C639.205 19.5573 640.075 18.24 641.216 17.216H643.472V17.424C642.299 18.544 641.403 19.888 640.784 21.456C640.176 23.024 639.872 24.64 639.872 26.304C639.872 27.9253 640.16 29.4933 640.736 31.008C641.323 32.512 642.155 33.8187 643.232 34.928V35.152H640.976Z" fill="#464E5F"/>
<path d="M650.662 23.248C650.555 22.8 650.368 22.464 650.102 22.24C649.846 22.016 649.472 21.904 648.982 21.904C648.246 21.904 647.702 22.2027 647.35 22.8C647.008 23.3867 646.832 24.3467 646.822 25.68C647.078 25.2533 647.451 24.9227 647.942 24.688C648.432 24.4427 648.966 24.32 649.542 24.32C650.235 24.32 650.848 24.4693 651.382 24.768C651.915 25.0667 652.331 25.504 652.63 26.08C652.928 26.6453 653.078 27.328 653.078 28.128C653.078 28.8853 652.923 29.5627 652.614 30.16C652.315 30.7467 651.872 31.2053 651.286 31.536C650.699 31.8667 650 32.032 649.19 32.032C648.08 32.032 647.206 31.7867 646.566 31.296C645.936 30.8053 645.494 30.1227 645.238 29.248C644.992 28.3627 644.87 27.2747 644.87 25.984C644.87 24.032 645.206 22.56 645.878 21.568C646.55 20.5653 647.611 20.064 649.062 20.064C650.182 20.064 651.051 20.368 651.67 20.976C652.288 21.584 652.646 22.3413 652.742 23.248H650.662ZM649.03 26.16C648.464 26.16 647.99 26.3253 647.606 26.656C647.222 26.9867 647.03 27.4667 647.03 28.096C647.03 28.7253 647.206 29.2213 647.558 29.584C647.92 29.9467 648.427 30.128 649.078 30.128C649.654 30.128 650.107 29.952 650.438 29.6C650.779 29.248 650.95 28.7733 650.95 28.176C650.95 27.5573 650.784 27.0667 650.454 26.704C650.134 26.3413 649.659 26.16 649.03 26.16Z" fill="#464E5F"/>
<path d="M654.848 26.016C654.848 24.1707 655.179 22.7253 655.84 21.68C656.512 20.6347 657.621 20.112 659.168 20.112C660.715 20.112 661.819 20.6347 662.48 21.68C663.152 22.7253 663.488 24.1707 663.488 26.016C663.488 27.872 663.152 29.328 662.48 30.384C661.819 31.44 660.715 31.968 659.168 31.968C657.621 31.968 656.512 31.44 655.84 30.384C655.179 29.328 654.848 27.872 654.848 26.016ZM661.28 26.016C661.28 25.2267 661.227 24.5653 661.12 24.032C661.024 23.488 660.821 23.0453 660.512 22.704C660.213 22.3627 659.765 22.192 659.168 22.192C658.571 22.192 658.117 22.3627 657.808 22.704C657.509 23.0453 657.307 23.488 657.2 24.032C657.104 24.5653 657.056 25.2267 657.056 26.016C657.056 26.8267 657.104 27.5093 657.2 28.064C657.296 28.608 657.499 29.0507 657.808 29.392C658.117 29.7227 658.571 29.888 659.168 29.888C659.765 29.888 660.219 29.7227 660.528 29.392C660.837 29.0507 661.04 28.608 661.136 28.064C661.232 27.5093 661.28 26.8267 661.28 26.016Z" fill="#464E5F"/>
<path d="M665.224 23.408C665.277 22.3413 665.65 21.52 666.344 20.944C667.048 20.3573 667.97 20.064 669.112 20.064C669.89 20.064 670.557 20.2027 671.112 20.48C671.666 20.7467 672.082 21.1147 672.36 21.584C672.648 22.0427 672.792 22.5653 672.792 23.152C672.792 23.824 672.616 24.3947 672.264 24.864C671.922 25.3227 671.512 25.632 671.032 25.792V25.856C671.65 26.048 672.13 26.3893 672.472 26.88C672.824 27.3707 673 28 673 28.768C673 29.408 672.85 29.9787 672.552 30.48C672.264 30.9813 671.832 31.376 671.256 31.664C670.69 31.9413 670.008 32.08 669.208 32.08C668.002 32.08 667.021 31.776 666.264 31.168C665.506 30.56 665.106 29.664 665.064 28.48H667.24C667.261 29.0027 667.437 29.424 667.768 29.744C668.109 30.0533 668.573 30.208 669.16 30.208C669.704 30.208 670.12 30.0587 670.408 29.76C670.706 29.4507 670.856 29.056 670.856 28.576C670.856 27.936 670.653 27.4773 670.248 27.2C669.842 26.9227 669.213 26.784 668.36 26.784H667.896V24.944H668.36C669.874 24.944 670.632 24.4373 670.632 23.424C670.632 22.9653 670.493 22.608 670.216 22.352C669.949 22.096 669.56 21.968 669.048 21.968C668.546 21.968 668.157 22.1067 667.88 22.384C667.613 22.6507 667.458 22.992 667.416 23.408H665.224Z" fill="#464E5F"/>
<path d="M674.45 35.152V34.928C675.527 33.8187 676.354 32.512 676.93 31.008C677.517 29.4933 677.81 27.9253 677.81 26.304C677.81 24.64 677.501 23.024 676.882 21.456C676.274 19.888 675.383 18.544 674.21 17.424V17.216H676.466C677.607 18.24 678.477 19.5573 679.074 21.168C679.671 22.768 679.97 24.48 679.97 26.304C679.97 28.0853 679.682 29.7547 679.106 31.312C678.541 32.8693 677.741 34.1493 676.706 35.152H674.45Z" fill="#464E5F"/>
<path d="M694.188 22.272H689.004V25.008C689.228 24.7307 689.548 24.5067 689.964 24.336C690.38 24.1547 690.823 24.064 691.292 24.064C692.145 24.064 692.844 24.2507 693.388 24.624C693.932 24.9973 694.327 25.4773 694.572 26.064C694.817 26.64 694.94 27.2587 694.94 27.92C694.94 29.1467 694.588 30.1333 693.884 30.88C693.191 31.6267 692.199 32 690.908 32C689.692 32 688.721 31.696 687.996 31.088C687.271 30.48 686.86 29.6853 686.764 28.704H688.94C689.036 29.1307 689.249 29.472 689.58 29.728C689.921 29.984 690.353 30.112 690.876 30.112C691.505 30.112 691.98 29.9147 692.3 29.52C692.62 29.1253 692.78 28.6027 692.78 27.952C692.78 27.2907 692.615 26.7893 692.284 26.448C691.964 26.096 691.489 25.92 690.86 25.92C690.412 25.92 690.039 26.032 689.74 26.256C689.441 26.48 689.228 26.7787 689.1 27.152H686.956V20.304H694.188V22.272Z" fill="#464E5F"/>
<path d="M704.485 22.272H699.301V25.008C699.525 24.7307 699.845 24.5067 700.261 24.336C700.677 24.1547 701.12 24.064 701.589 24.064C702.442 24.064 703.141 24.2507 703.685 24.624C704.229 24.9973 704.624 25.4773 704.869 26.064C705.114 26.64 705.237 27.2587 705.237 27.92C705.237 29.1467 704.885 30.1333 704.181 30.88C703.487 31.6267 702.496 32 701.205 32C699.989 32 699.018 31.696 698.293 31.088C697.568 30.48 697.157 29.6853 697.061 28.704H699.237C699.333 29.1307 699.546 29.472 699.877 29.728C700.218 29.984 700.65 30.112 701.173 30.112C701.802 30.112 702.277 29.9147 702.597 29.52C702.917 29.1253 703.077 28.6027 703.077 27.952C703.077 27.2907 702.912 26.7893 702.581 26.448C702.261 26.096 701.786 25.92 701.157 25.92C700.709 25.92 700.336 26.032 700.037 26.256C699.738 26.48 699.525 26.7787 699.397 27.152H697.253V20.304H704.485V22.272Z" fill="#464E5F"/>
<path d="M714.782 22.272H709.598V25.008C709.822 24.7307 710.142 24.5067 710.558 24.336C710.974 24.1547 711.416 24.064 711.886 24.064C712.739 24.064 713.438 24.2507 713.982 24.624C714.526 24.9973 714.92 25.4773 715.166 26.064C715.411 26.64 715.534 27.2587 715.534 27.92C715.534 29.1467 715.182 30.1333 714.478 30.88C713.784 31.6267 712.792 32 711.502 32C710.286 32 709.315 31.696 708.59 31.088C707.864 30.48 707.454 29.6853 707.358 28.704H709.534C709.63 29.1307 709.843 29.472 710.174 29.728C710.515 29.984 710.947 30.112 711.47 30.112C712.099 30.112 712.574 29.9147 712.894 29.52C713.214 29.1253 713.374 28.6027 713.374 27.952C713.374 27.2907 713.208 26.7893 712.878 26.448C712.558 26.096 712.083 25.92 711.454 25.92C711.006 25.92 710.632 26.032 710.334 26.256C710.035 26.48 709.822 26.7787 709.694 27.152H707.55V20.304H714.782V22.272Z" fill="#464E5F"/>
<path d="M724.311 25.344V27.232H717.527V25.344H724.311Z" fill="#464E5F"/>
<path d="M726.567 26.016C726.567 24.1707 726.897 22.7253 727.559 21.68C728.231 20.6347 729.34 20.112 730.887 20.112C732.433 20.112 733.537 20.6347 734.199 21.68C734.871 22.7253 735.207 24.1707 735.207 26.016C735.207 27.872 734.871 29.328 734.199 30.384C733.537 31.44 732.433 31.968 730.887 31.968C729.34 31.968 728.231 31.44 727.559 30.384C726.897 29.328 726.567 27.872 726.567 26.016ZM732.999 26.016C732.999 25.2267 732.945 24.5653 732.839 24.032C732.743 23.488 732.54 23.0453 732.231 22.704C731.932 22.3627 731.484 22.192 730.887 22.192C730.289 22.192 729.836 22.3627 729.527 22.704C729.228 23.0453 729.025 23.488 728.919 24.032C728.823 24.5653 728.775 25.2267 728.775 26.016C728.775 26.8267 728.823 27.5093 728.919 28.064C729.015 28.608 729.217 29.0507 729.527 29.392C729.836 29.7227 730.289 29.888 730.887 29.888C731.484 29.888 731.937 29.7227 732.247 29.392C732.556 29.0507 732.759 28.608 732.855 28.064C732.951 27.5093 732.999 26.8267 732.999 26.016Z" fill="#464E5F"/>
<path d="M736.638 22.4V20.336H740.495V32H738.19V22.4H736.638Z" fill="#464E5F"/>
<path d="M743.411 29.472C744.435 28.6187 745.251 27.9093 745.859 27.344C746.467 26.768 746.974 26.1707 747.379 25.552C747.785 24.9333 747.987 24.3253 747.987 23.728C747.987 23.184 747.859 22.7573 747.603 22.448C747.347 22.1387 746.953 21.984 746.419 21.984C745.886 21.984 745.475 22.1653 745.187 22.528C744.899 22.88 744.75 23.3653 744.739 23.984H742.563C742.606 22.704 742.985 21.7333 743.699 21.072C744.425 20.4107 745.342 20.08 746.451 20.08C747.667 20.08 748.601 20.4053 749.251 21.056C749.902 21.696 750.227 22.544 750.227 23.6C750.227 24.432 750.003 25.2267 749.555 25.984C749.107 26.7413 748.595 27.4027 748.019 27.968C747.443 28.5227 746.691 29.1947 745.763 29.984H750.483V31.84H742.579V30.176L743.411 29.472Z" fill="#464E5F"/>
<path d="M751.927 23.408C751.98 22.3413 752.354 21.52 753.047 20.944C753.751 20.3573 754.674 20.064 755.815 20.064C756.594 20.064 757.26 20.2027 757.815 20.48C758.37 20.7467 758.786 21.1147 759.063 21.584C759.351 22.0427 759.495 22.5653 759.495 23.152C759.495 23.824 759.319 24.3947 758.967 24.864C758.626 25.3227 758.215 25.632 757.735 25.792V25.856C758.354 26.048 758.834 26.3893 759.175 26.88C759.527 27.3707 759.703 28 759.703 28.768C759.703 29.408 759.554 29.9787 759.255 30.48C758.967 30.9813 758.535 31.376 757.959 31.664C757.394 31.9413 756.711 32.08 755.911 32.08C754.706 32.08 753.724 31.776 752.967 31.168C752.21 30.56 751.81 29.664 751.767 28.48H753.943C753.964 29.0027 754.14 29.424 754.471 29.744C754.812 30.0533 755.276 30.208 755.863 30.208C756.407 30.208 756.823 30.0587 757.111 29.76C757.41 29.4507 757.559 29.056 757.559 28.576C757.559 27.936 757.356 27.4773 756.951 27.2C756.546 26.9227 755.916 26.784 755.063 26.784H754.599V24.944H755.063C756.578 24.944 757.335 24.4373 757.335 23.424C757.335 22.9653 757.196 22.608 756.919 22.352C756.652 22.096 756.263 21.968 755.751 21.968C755.25 21.968 754.86 22.1067 754.583 22.384C754.316 22.6507 754.162 22.992 754.119 23.408H751.927Z" fill="#464E5F"/>
<path d="M0 6C0 2.68629 2.68629 0 6 0H44C47.3137 0 50 2.68629 50 6V44C50 47.3137 47.3137 50 44 50H6C2.68629 50 0 47.3137 0 44V6Z" fill="#F3F6F9"/>
<path d="M38.5024 47.6743L37.6294 40.6905C37.4976 39.6364 36.7723 38.7516 35.7645 38.4156L32.3984 37.2936C31.9362 37.1394 31.4291 37.2376 31.0726 37.5413L30.0811 37.2108C29.5179 37.023 29.138 36.496 29.138 35.9023V33.678L32.1088 32.4401C33.6507 31.7978 34.6551 30.2912 34.6551 28.6207V27.931C35.7978 27.931 36.7241 27.0047 36.7241 25.862C36.7241 25.3466 36.5352 24.8756 36.2234 24.5133C36.8088 22.3825 38.4543 15.6421 36.7241 12.7586L37.4137 10C37.4137 10 30.1724 10.1724 26.3793 11.3793L27.7586 10C27.7586 10 18.0603 10 16.0351 13.4477C16.0351 13.4477 12.5862 13.4196 12.5862 17.5862C12.5862 19.1112 13.4368 22.9191 13.802 24.484C13.475 24.8499 13.2759 25.3326 13.2759 25.862C13.2759 27.0047 14.2022 27.931 15.3448 27.931V28.6207C15.3448 30.2911 16.3492 31.7977 17.8912 32.4403L20.8621 33.6781V35.9024C20.8621 36.4961 20.4821 37.0231 19.919 37.2109L18.9274 37.5414C18.5709 37.2377 18.0639 37.1395 17.6016 37.2937L14.2355 38.4157C13.2277 38.7517 12.5023 39.6365 12.3706 40.6906L11.4977 47.6744C11.3433 48.9092 12.3061 49.9999 13.5506 49.9999H36.4494C37.6938 49.9999 38.6568 48.9092 38.5024 47.6743Z" fill="#FFD7A3"/>
<path d="M29.138 33.678L20.8621 33.6781V35.9024C20.8621 36.3988 20.5874 36.8361 20.1709 37.0799C25.9549 38.0922 29.138 33.678 29.138 33.678Z" fill="#FDC88E"/>
<path d="M13.9656 25.1724C13.9656 25.1724 12.5862 19.5281 12.5862 17.5862C12.5862 13.4196 16.0351 13.4477 16.0351 13.4477C18.0603 10 27.7586 10 27.7586 10L26.3793 11.3793C30.1724 10.1724 37.4137 10 37.4137 10L36.7241 12.7586C38.7931 16.2069 36.0345 25.1724 36.0345 25.1724H13.9656Z" fill="#734A3E"/>
<path d="M27.7586 10C27.7586 10 18.0603 10 16.0351 13.4477C16.0351 13.4477 12.5862 13.4196 12.5862 17.5862C12.5862 19.5281 13.9656 25.1724 13.9656 25.1724C13.9656 25.1724 28.3046 18.7644 37.4137 10C37.4137 10 30.1724 10.1724 26.3793 11.3793L27.7586 10Z" fill="#623F33"/>
<path d="M34.6552 23.7931V22.4138C34.6552 20.5094 33.1113 18.9655 31.2069 18.9655H18.7931C16.8887 18.9655 15.3449 20.5094 15.3449 22.4138V23.7931C14.2022 23.7931 13.2759 24.7194 13.2759 25.862C13.2759 27.0047 14.2022 27.931 15.3448 27.931V28.6207C15.3448 30.2911 16.3492 31.7977 17.8912 32.4403L22.3473 34.2971C23.1879 34.6473 24.0894 34.8276 24.9999 34.8276C25.9104 34.8276 26.8119 34.6472 27.6524 34.2971L32.1088 32.4401C33.6507 31.7978 34.6551 30.2912 34.6551 28.6207V27.931C35.7978 27.931 36.7241 27.0047 36.7241 25.862C36.7241 24.7194 35.7978 23.7931 34.6552 23.7931Z" fill="#FFE1B2"/>
<path d="M20.1724 26.5517C19.7931 26.5517 19.4828 26.2413 19.4828 25.862V25.1724C19.4828 24.7931 19.7931 24.4827 20.1724 24.4827C20.5518 24.4827 20.8621 24.7931 20.8621 25.1724V25.862C20.8621 26.2413 20.5518 26.5517 20.1724 26.5517Z" fill="#623F33"/>
<path d="M29.8275 26.5517C29.4482 26.5517 29.1379 26.2413 29.1379 25.862V25.1724C29.1379 24.7931 29.4482 24.4827 29.8275 24.4827C30.2069 24.4827 30.5172 24.7931 30.5172 25.1724V25.862C30.5172 26.2413 30.2069 26.5517 29.8275 26.5517Z" fill="#623F33"/>
<path d="M25 31.3982C23.7739 31.3982 22.627 31.0965 21.8535 30.5702C21.5387 30.3561 21.4568 29.927 21.6713 29.6122C21.8851 29.2977 22.3145 29.2158 22.6293 29.43C23.1715 29.7988 24.0578 30.019 25 30.019C25.9423 30.019 26.8286 29.7988 27.3707 29.43C27.6862 29.2152 28.1146 29.2974 28.3287 29.6122C28.5432 29.927 28.4614 30.3561 28.1466 30.5702C27.3731 31.0965 26.2262 31.3982 25 31.3982Z" fill="#E4B07B"/>
<path d="M38.5024 47.6743L37.6294 40.6905C37.4976 39.6364 36.7723 38.7516 35.7645 38.4156L32.3984 37.2936C31.8122 37.0981 31.1527 37.3068 30.8216 37.8286C29.599 39.7548 27.4503 41.0343 25 41.0343C22.5497 41.0343 20.401 39.7547 19.1785 37.8286C18.8473 37.3068 18.1878 37.0982 17.6016 37.2937L14.2355 38.4157C13.2277 38.7517 12.5023 39.6365 12.3706 40.6906L11.4977 47.6744C11.3433 48.9092 12.3061 49.9999 13.5506 49.9999H36.4494C37.6938 49.9999 38.6568 48.9092 38.5024 47.6743Z" fill="#00BEA4"/>
<path d="M12.9455 39.3248C12.6393 39.7125 12.4343 40.1809 12.3706 40.6906L11.4977 47.6744C11.3433 48.9092 12.3061 49.9999 13.5506 49.9999L17.4138 50V45.5114C17.4138 44.8479 17.1747 44.2067 16.7403 43.7051L12.9455 39.3248Z" fill="#00AB9A"/>
<path d="M37.0545 39.3248C37.3607 39.7125 37.5657 40.1808 37.6294 40.6905L38.5024 47.6743C38.6568 48.9092 37.6938 49.9999 36.4494 49.9999L32.5862 50V45.5114C32.5862 44.8479 32.8253 44.2067 33.2597 43.7051L37.0545 39.3248Z" fill="#00AB9A"/>
<path d="M18.9652 31.0106C18.4064 30.4115 18.1036 29.6209 18.1036 28.8016V20.9861C20.2986 20.8215 27.2193 20.223 31.2069 18.9655H18.7931C18.5557 18.9655 18.3258 18.9932 18.1035 19.0415V19.035C16.5296 19.3546 15.3449 20.7456 15.3449 22.4138V23.7931C14.2022 23.7931 13.2759 24.7194 13.2759 25.862C13.2759 27.0047 14.2022 27.931 15.3448 27.931V28.6207C15.3448 30.2911 16.3492 31.7977 17.8912 32.4403L22.3473 34.2971C22.5655 34.3879 22.788 34.4662 23.0134 34.534C21.0441 33.0934 19.7332 31.834 18.9652 31.0106Z" fill="#FFD7A3"/>
<path d="M72.44 15.272C73.0693 15.3893 73.5867 15.704 73.992 16.216C74.3973 16.728 74.6 17.3147 74.6 17.976C74.6 18.5733 74.4507 19.1013 74.152 19.56C73.864 20.008 73.4427 20.36 72.888 20.616C72.3333 20.872 71.6773 21 70.92 21H66.104V9.832H70.712C71.4693 9.832 72.12 9.95467 72.664 10.2C73.2187 10.4453 73.6347 10.7867 73.912 11.224C74.2 11.6613 74.344 12.1573 74.344 12.712C74.344 13.3627 74.168 13.9067 73.816 14.344C73.4747 14.7813 73.016 15.0907 72.44 15.272ZM68.344 14.44H70.392C70.9253 14.44 71.336 14.3227 71.624 14.088C71.912 13.8427 72.056 13.496 72.056 13.048C72.056 12.6 71.912 12.2533 71.624 12.008C71.336 11.7627 70.9253 11.64 70.392 11.64H68.344V14.44ZM70.6 19.176C71.144 19.176 71.5653 19.048 71.864 18.792C72.1733 18.536 72.328 18.1733 72.328 17.704C72.328 17.224 72.168 16.8507 71.848 16.584C71.528 16.3067 71.096 16.168 70.552 16.168H68.344V19.176H70.6Z" fill="#464E5F"/>
<path d="M78.6253 13.512C78.9133 13.0427 79.2866 12.6747 79.7452 12.408C80.2146 12.1413 80.7479 12.008 81.3453 12.008V14.36H80.7533C80.0492 14.36 79.5159 14.5253 79.1533 14.856C78.8013 15.1867 78.6253 15.7627 78.6253 16.584V21H76.3853V12.136H78.6253V13.512Z" fill="#464E5F"/>
<path d="M86.79 21.144C85.9367 21.144 85.1687 20.9573 84.486 20.584C83.8033 20.2 83.2647 19.6613 82.87 18.968C82.486 18.2747 82.294 17.4747 82.294 16.568C82.294 15.6613 82.4913 14.8613 82.886 14.168C83.2913 13.4747 83.8407 12.9413 84.534 12.568C85.2273 12.184 86.0007 11.992 86.854 11.992C87.7073 11.992 88.4807 12.184 89.174 12.568C89.8673 12.9413 90.4113 13.4747 90.806 14.168C91.2113 14.8613 91.414 15.6613 91.414 16.568C91.414 17.4747 91.206 18.2747 90.79 18.968C90.3847 19.6613 89.83 20.2 89.126 20.584C88.4327 20.9573 87.654 21.144 86.79 21.144ZM86.79 19.192C87.1953 19.192 87.574 19.096 87.926 18.904C88.2887 18.7013 88.5767 18.4027 88.79 18.008C89.0033 17.6133 89.11 17.1333 89.11 16.568C89.11 15.7253 88.886 15.08 88.438 14.632C88.0007 14.1733 87.462 13.944 86.822 13.944C86.182 13.944 85.6433 14.1733 85.206 14.632C84.7793 15.08 84.566 15.7253 84.566 16.568C84.566 17.4107 84.774 18.0613 85.19 18.52C85.6167 18.968 86.15 19.192 86.79 19.192Z" fill="#464E5F"/>
<path d="M96.9931 21.144C96.1398 21.144 95.3718 20.9573 94.6891 20.584C94.0065 20.2 93.4678 19.6613 93.0731 18.968C92.6891 18.2747 92.4971 17.4747 92.4971 16.568C92.4971 15.6613 92.6945 14.8613 93.0891 14.168C93.4945 13.4747 94.0438 12.9413 94.7371 12.568C95.4305 12.184 96.2038 11.992 97.0571 11.992C97.9105 11.992 98.6838 12.184 99.3771 12.568C100.07 12.9413 100.614 13.4747 101.009 14.168C101.414 14.8613 101.617 15.6613 101.617 16.568C101.617 17.4747 101.409 18.2747 100.993 18.968C100.588 19.6613 100.033 20.2 99.3291 20.584C98.6358 20.9573 97.8571 21.144 96.9931 21.144ZM96.9931 19.192C97.3985 19.192 97.7771 19.096 98.1291 18.904C98.4918 18.7013 98.7798 18.4027 98.9931 18.008C99.2065 17.6133 99.3131 17.1333 99.3131 16.568C99.3131 15.7253 99.0891 15.08 98.6411 14.632C98.2038 14.1733 97.6651 13.944 97.0251 13.944C96.3851 13.944 95.8465 14.1733 95.4091 14.632C94.9825 15.08 94.7691 15.7253 94.7691 16.568C94.7691 17.4107 94.9771 18.0613 95.3931 18.52C95.8198 18.968 96.3531 19.192 96.9931 19.192Z" fill="#464E5F"/>
<path d="M108.508 21L105.5 17.224V21H103.26V9.16H105.5V15.896L108.476 12.136H111.388L107.484 16.584L111.42 21H108.508Z" fill="#464E5F"/>
<path d="M114.844 9.16V21H112.604V9.16H114.844Z" fill="#464E5F"/>
<path d="M125.537 12.136L120.049 25.192H117.665L119.585 20.776L116.033 12.136H118.545L120.833 18.328L123.153 12.136H125.537Z" fill="#464E5F"/>
<path d="M131.657 12.008C132.713 12.008 133.566 12.344 134.217 13.016C134.867 13.6773 135.193 14.6053 135.193 15.8V21H132.953V16.104C132.953 15.4 132.777 14.8613 132.425 14.488C132.073 14.104 131.593 13.912 130.985 13.912C130.366 13.912 129.875 14.104 129.513 14.488C129.161 14.8613 128.985 15.4 128.985 16.104V21H126.745V12.136H128.985V13.24C129.283 12.856 129.662 12.5573 130.121 12.344C130.59 12.12 131.102 12.008 131.657 12.008Z" fill="#464E5F"/>
<path d="M68.926 32.965C69.888 32.965 70.7287 33.1513 71.448 33.524C72.176 33.888 72.735 34.4167 73.125 35.11C73.5237 35.7947 73.723 36.5963 73.723 37.515C73.723 38.4337 73.5237 39.231 73.125 39.907C72.735 40.583 72.176 41.103 71.448 41.467C70.7287 41.8223 69.888 42 68.926 42H65.975V32.965H68.926ZM68.926 40.791C69.9833 40.791 70.7937 40.505 71.357 39.933C71.9203 39.361 72.202 38.555 72.202 37.515C72.202 36.4663 71.9203 35.6473 71.357 35.058C70.7937 34.4687 69.9833 34.174 68.926 34.174H67.457V40.791H68.926Z" fill="#B5B5C3"/>
<path d="M81.6788 34.837V42H80.1968V41.155C79.9628 41.4497 79.6551 41.6837 79.2738 41.857C78.9011 42.0217 78.5025 42.104 78.0778 42.104C77.5145 42.104 77.0075 41.987 76.5568 41.753C76.1148 41.519 75.7638 41.1723 75.5038 40.713C75.2525 40.2537 75.1268 39.699 75.1268 39.049V34.837H76.5958V38.828C76.5958 39.4693 76.7561 39.9633 77.0768 40.31C77.3975 40.648 77.8351 40.817 78.3898 40.817C78.9445 40.817 79.3821 40.648 79.7028 40.31C80.0321 39.9633 80.1968 39.4693 80.1968 38.828V34.837H81.6788Z" fill="#B5B5C3"/>
<path d="M85.3632 36.046V40.011C85.3632 40.2797 85.4239 40.4747 85.5452 40.596C85.6752 40.7087 85.8918 40.765 86.1952 40.765H87.1052V42H85.9352C85.2678 42 84.7565 41.844 84.4012 41.532C84.0458 41.22 83.8682 40.713 83.8682 40.011V36.046H83.0232V34.837H83.8682V33.056H85.3632V34.837H87.1052V36.046H85.3632Z" fill="#B5B5C3"/>
<path d="M94.9191 34.837L90.5251 45.367H88.9911L90.4471 41.883L87.6261 34.837H89.2771L91.2921 40.297L93.3851 34.837H94.9191Z" fill="#B5B5C3"/>
<path d="M102.365 32.965C103.327 32.965 104.168 33.1513 104.887 33.524C105.615 33.888 106.174 34.4167 106.564 35.11C106.963 35.7947 107.162 36.5963 107.162 37.515C107.162 38.4337 106.963 39.231 106.564 39.907C106.174 40.583 105.615 41.103 104.887 41.467C104.168 41.8223 103.327 42 102.365 42H99.4145V32.965H102.365ZM102.365 40.791C103.423 40.791 104.233 40.505 104.796 39.933C105.36 39.361 105.641 38.555 105.641 37.515C105.641 36.4663 105.36 35.6473 104.796 35.058C104.233 34.4687 103.423 34.174 102.365 34.174H100.896V40.791H102.365Z" fill="#B5B5C3"/>
<path d="M111.738 42.117C111.062 42.117 110.451 41.9653 109.905 41.662C109.359 41.35 108.93 40.9167 108.618 40.362C108.306 39.7987 108.15 39.1487 108.15 38.412C108.15 37.684 108.311 37.0383 108.631 36.475C108.952 35.9117 109.39 35.4783 109.944 35.175C110.499 34.8717 111.119 34.72 111.803 34.72C112.488 34.72 113.108 34.8717 113.662 35.175C114.217 35.4783 114.655 35.9117 114.975 36.475C115.296 37.0383 115.456 37.684 115.456 38.412C115.456 39.14 115.292 39.7857 114.962 40.349C114.633 40.9123 114.182 41.35 113.61 41.662C113.047 41.9653 112.423 42.117 111.738 42.117ZM111.738 40.83C112.12 40.83 112.475 40.739 112.804 40.557C113.142 40.375 113.415 40.102 113.623 39.738C113.831 39.374 113.935 38.932 113.935 38.412C113.935 37.892 113.836 37.4543 113.636 37.099C113.437 36.735 113.173 36.462 112.843 36.28C112.514 36.098 112.159 36.007 111.777 36.007C111.396 36.007 111.041 36.098 110.711 36.28C110.391 36.462 110.135 36.735 109.944 37.099C109.754 37.4543 109.658 37.892 109.658 38.412C109.658 39.1833 109.853 39.7813 110.243 40.206C110.642 40.622 111.14 40.83 111.738 40.83Z" fill="#B5B5C3"/>
<path d="M116.427 38.412C116.427 37.6753 116.575 37.0297 116.869 36.475C117.173 35.9117 117.589 35.4783 118.117 35.175C118.646 34.8717 119.253 34.72 119.937 34.72C120.804 34.72 121.519 34.928 122.082 35.344C122.654 35.7513 123.04 36.3363 123.239 37.099H121.64C121.51 36.7437 121.302 36.4663 121.016 36.267C120.73 36.0677 120.371 35.968 119.937 35.968C119.331 35.968 118.845 36.1847 118.481 36.618C118.126 37.0427 117.948 37.6407 117.948 38.412C117.948 39.1833 118.126 39.7857 118.481 40.219C118.845 40.6523 119.331 40.869 119.937 40.869C120.795 40.869 121.363 40.492 121.64 39.738H123.239C123.031 40.466 122.641 41.0467 122.069 41.48C121.497 41.9047 120.787 42.117 119.937 42.117C119.253 42.117 118.646 41.9653 118.117 41.662C117.589 41.35 117.173 40.9167 116.869 40.362C116.575 39.7987 116.427 39.1487 116.427 38.412Z" fill="#B5B5C3"/>
<path d="M126.445 36.046V40.011C126.445 40.2797 126.506 40.4747 126.627 40.596C126.757 40.7087 126.974 40.765 127.277 40.765H128.187V42H127.017C126.35 42 125.839 41.844 125.483 41.532C125.128 41.22 124.95 40.713 124.95 40.011V36.046H124.105V34.837H124.95V33.056H126.445V34.837H128.187V36.046H126.445Z" fill="#B5B5C3"/>
<path d="M132.66 42.117C131.984 42.117 131.373 41.9653 130.827 41.662C130.281 41.35 129.852 40.9167 129.54 40.362C129.228 39.7987 129.072 39.1487 129.072 38.412C129.072 37.684 129.232 37.0383 129.553 36.475C129.874 35.9117 130.311 35.4783 130.866 35.175C131.421 34.8717 132.04 34.72 132.725 34.72C133.41 34.72 134.029 34.8717 134.584 35.175C135.139 35.4783 135.576 35.9117 135.897 36.475C136.218 37.0383 136.378 37.684 136.378 38.412C136.378 39.14 136.213 39.7857 135.884 40.349C135.555 40.9123 135.104 41.35 134.532 41.662C133.969 41.9653 133.345 42.117 132.66 42.117ZM132.66 40.83C133.041 40.83 133.397 40.739 133.726 40.557C134.064 40.375 134.337 40.102 134.545 39.738C134.753 39.374 134.857 38.932 134.857 38.412C134.857 37.892 134.757 37.4543 134.558 37.099C134.359 36.735 134.094 36.462 133.765 36.28C133.436 36.098 133.08 36.007 132.699 36.007C132.318 36.007 131.962 36.098 131.633 36.28C131.312 36.462 131.057 36.735 130.866 37.099C130.675 37.4543 130.58 37.892 130.58 38.412C130.58 39.1833 130.775 39.7813 131.165 40.206C131.564 40.622 132.062 40.83 132.66 40.83Z" fill="#B5B5C3"/>
<path d="M139.325 35.877C139.542 35.513 139.828 35.2313 140.183 35.032C140.547 34.824 140.976 34.72 141.47 34.72V36.254H141.093C140.512 36.254 140.07 36.4013 139.767 36.696C139.473 36.9907 139.325 37.502 139.325 38.23V42H137.843V34.837H139.325V35.877Z" fill="#B5B5C3"/>
</svg>
