<svg width="10" height="10" viewBox="0 0 10 10" fill="none" xmlns="http://www.w3.org/2000/svg">
<path fill-rule="evenodd" clip-rule="evenodd" d="M5 0C2.23864 0 0 2.23864 0 5C0 7.76136 2.23864 10 5 10C7.76136 10 10 7.76136 10 5C10 2.23864 7.76136 0 5 0ZM5.45455 6.81818C5.45455 6.93874 5.40666 7.05435 5.32141 7.13959C5.23617 7.22484 5.12055 7.27273 5 7.27273C4.87945 7.27273 4.76383 7.22484 4.67859 7.13959C4.59334 7.05435 4.54545 6.93874 4.54545 6.81818V5.45455H3.18182C3.06127 5.45455 2.94565 5.40666 2.86041 5.32141C2.77516 5.23617 2.72727 5.12055 2.72727 5C2.72727 4.87945 2.77516 4.76383 2.86041 4.67859C2.94565 4.59334 3.06127 4.54545 3.18182 4.54545H4.54545V3.18182C4.54545 3.06127 4.59334 2.94565 4.67859 2.86041C4.76383 2.77516 4.87945 2.72727 5 2.72727C5.12055 2.72727 5.23617 2.77516 5.32141 2.86041C5.40666 2.94565 5.45455 3.06127 5.45455 3.18182V4.54545H6.81818C6.93874 4.54545 7.05435 4.59334 7.13959 4.67859C7.22484 4.76383 7.27273 4.87945 7.27273 5C7.27273 5.12055 7.22484 5.23617 7.13959 5.32141C7.05435 5.40666 6.93874 5.45455 6.81818 5.45455H5.45455V6.81818Z" fill="black"/>
</svg>
