<svg width="8" height="8" viewBox="0 0 8 8" fill="none" xmlns="http://www.w3.org/2000/svg">
<path d="M5.35976 5.17107C5.80171 4.51042 5.99966 3.69132 5.914 2.87765C5.82833 2.06398 5.46538 1.31574 4.89775 0.782639C4.33011 0.249534 3.59967 -0.0291245 2.85254 0.00241204C2.10541 0.0339486 1.3967 0.373355 0.868197 0.952727C0.339694 1.5321 0.0303744 2.30871 0.0021208 3.12719C-0.0261328 3.94567 0.228764 4.74565 0.715815 5.3671C1.20287 5.98854 1.88615 6.38561 2.62897 6.47887C3.37179 6.57212 4.11937 6.35469 4.72213 5.87007H4.72167C4.73537 5.89007 4.74997 5.90907 4.7664 5.92757L6.52364 7.85257C6.60922 7.94639 6.72533 7.99913 6.8464 7.99917C6.96748 7.99922 7.08361 7.94658 7.16926 7.85282C7.2549 7.75907 7.30304 7.63189 7.30308 7.49925C7.30312 7.36662 7.25507 7.23939 7.16948 7.14557L5.41225 5.22057C5.39593 5.20248 5.37838 5.18576 5.35976 5.17057V5.17107ZM5.47751 3.24907C5.47751 3.61021 5.41258 3.96781 5.28643 4.30145C5.16027 4.6351 4.97536 4.93826 4.74225 5.19362C4.50915 5.44898 4.23241 5.65154 3.92784 5.78974C3.62327 5.92794 3.29684 5.99907 2.96718 5.99907C2.63751 5.99907 2.31108 5.92794 2.00651 5.78974C1.70194 5.65154 1.4252 5.44898 1.1921 5.19362C0.95899 4.93826 0.77408 4.6351 0.647923 4.30145C0.521767 3.96781 0.456835 3.61021 0.456835 3.24907C0.456835 2.51973 0.721317 1.82026 1.1921 1.30453C1.66288 0.788805 2.30139 0.499074 2.96718 0.499074C3.63296 0.499074 4.27147 0.788805 4.74225 1.30453C5.21303 1.82026 5.47751 2.51973 5.47751 3.24907Z" fill="black" fill-opacity="0.5"/>
</svg>
