<svg width="50" height="50" viewBox="0 0 50 50" fill="none" xmlns="http://www.w3.org/2000/svg">
<rect width="50" height="50" rx="6" fill="#F3F6F9"/>
<path d="M41.5512 23.7931C41.5512 23.7931 38.7064 24.1379 37.4132 19.6552C35.6291 13.47 31.6649 10 24.9995 10C18.334 10 14.3698 13.47 12.5857 19.6552C11.2926 24.1379 8.44773 23.7931 8.44773 23.7931C8.44773 23.7931 6.89601 27.2414 10.5167 29.3103H9.13739C9.13739 29.3103 9.97584 33.4977 14.198 34.0669C14.7346 35.2794 16.4133 36.8966 21.5512 36.8966H24.9995H28.4477C33.5856 36.8966 35.2643 35.2793 35.8009 34.0669C40.0231 33.4977 40.8615 29.3103 40.8615 29.3103H39.4822C43.1029 27.2414 41.5512 23.7931 41.5512 23.7931Z" fill="#9D6E48"/>
<path d="M31.896 23.7931C23.3615 19.4828 23.8788 11.8966 24.9995 10C18.3341 10 14.3698 13.47 12.5857 19.6552C11.2926 24.1379 8.44773 23.7931 8.44773 23.7931C8.44773 23.7931 6.89601 27.2414 10.5167 29.3103H9.13739C9.13739 29.3103 9.97584 33.4977 14.198 34.0669C14.7346 35.2794 16.4133 36.8966 21.5512 36.8966L31.896 23.7931Z" fill="#8D5F3D"/>
<path d="M37.7902 47.657L36.9981 41.7167C36.829 40.4484 35.9716 39.378 34.7708 38.9362L30.0801 37.2104C29.5169 37.0226 29.137 36.4955 29.137 35.9018V33.6775L32.1078 32.4397C33.6498 31.7972 34.6542 30.2905 34.6542 28.62V27.9304C35.7969 27.9304 36.7232 27.0041 36.7232 25.8614C36.7232 24.7187 35.7969 23.7924 34.6542 23.7924V22.4131C34.6542 20.5086 33.1104 18.9648 31.206 18.9648H18.7922C16.8877 18.9648 15.3439 20.5087 15.3439 22.4131V23.7924C14.2012 23.7924 13.2749 24.7187 13.2749 25.8614C13.2749 27.0041 14.2012 27.9304 15.3439 27.9304V28.62C15.3439 30.2905 16.3483 31.7972 17.8903 32.4397L20.8611 33.6775V35.9017C20.8611 36.4954 20.4812 37.0225 19.918 37.2103L15.2273 38.9361C14.0266 39.3779 13.1691 40.4483 13 41.7166L12.2079 47.6569C12.0426 48.8973 13.0074 49.9993 14.2587 49.9993H24.9991H35.7394C36.9907 49.9993 37.9556 48.8973 37.7902 47.657Z" fill="#F6B47B"/>
<path d="M20.8616 33.7071V35.9026C20.8616 36.3934 20.6015 36.8381 20.1934 37.0837C25.6893 38.0333 28.8307 34.0837 29.1161 33.707H20.8616V33.7071Z" fill="#E2A071"/>
<path d="M34.6547 23.7924V22.4131C34.6547 20.5086 33.1108 18.9648 31.2064 18.9648H18.7926C16.8881 18.9648 15.3444 20.5087 15.3444 22.4131V23.7924C14.2017 23.7924 13.2754 24.7187 13.2754 25.8614C13.2754 27.0041 14.2017 27.9304 15.3444 27.9304V28.62C15.3444 30.2905 16.3488 31.7972 17.8907 32.4397L22.3469 34.2964C23.1874 34.6467 24.0889 34.8269 24.9994 34.8269C25.91 34.8269 26.8114 34.6467 27.6519 34.2964L32.1083 32.4396C33.6503 31.7972 34.6547 30.2905 34.6547 28.62V27.9304C35.7974 27.9304 36.7237 27.0041 36.7237 25.8614C36.7237 24.7187 35.7974 23.7924 34.6547 23.7924Z" fill="#FDC88E"/>
<path d="M20.1721 26.5533C19.7928 26.5533 19.4824 26.243 19.4824 25.8637V25.174C19.4824 24.7947 19.7928 24.4844 20.1721 24.4844C20.5514 24.4844 20.8617 24.7947 20.8617 25.174V25.8637C20.8617 26.243 20.5514 26.5533 20.1721 26.5533Z" fill="#623F33"/>
<path d="M24.9992 31.3966C23.773 31.3966 22.6261 31.0948 21.8526 30.5685C21.5378 30.3544 21.4559 29.9254 21.6705 29.6105C21.8842 29.2961 22.3136 29.2142 22.6285 29.4284C23.1706 29.7971 24.0569 30.0173 24.9992 30.0173C25.9414 30.0173 26.8277 29.7971 27.3698 29.4284C27.6854 29.2136 28.1137 29.2957 28.3279 29.6105C28.5423 29.9254 28.4605 30.3544 28.1457 30.5685C27.3723 31.0948 26.2253 31.3966 24.9992 31.3966Z" fill="#E2A071"/>
<path d="M32.9168 38.1602L30.4351 42.1307C30.057 42.7356 29.394 43.1031 28.6807 43.1031H21.3189C20.6056 43.1031 19.9426 42.7356 19.5645 42.1307L17.0829 38.1602C16.8836 37.8413 16.4657 37.7409 16.1432 37.9343L13.8779 39.2935C13.5471 39.492 13.4434 39.9233 13.6479 40.2504L16.7239 45.1721H33.2757L36.3517 40.2504C36.5562 39.9232 36.4525 39.492 36.1217 39.2935L33.8563 37.9342C33.534 37.7409 33.116 37.8414 32.9168 38.1602Z" fill="#F23F44"/>
<path d="M33.2744 45.1719H16.7227V49.9995H33.2744V45.1719Z" fill="#FF4F4F"/>
<path d="M18.9647 31.0099C18.4059 30.4108 18.1031 29.6202 18.1031 28.8009V21.4852C20.499 23.1643 23.8134 24.4774 29.9996 24.8269L29.3962 22.7579C29.3962 22.7579 25.1066 20.3464 23.0168 18.9648H18.7926C18.5563 18.9648 18.3259 18.9897 18.103 19.035V19.0343C18.0499 19.0451 17.9974 19.0573 17.9452 19.0705C17.9404 19.0717 17.9354 19.0726 17.9306 19.0738C17.9294 19.0742 17.9283 19.0751 17.927 19.0754C16.4418 19.4596 15.3444 20.8078 15.3444 22.4131V23.7924C14.2017 23.7924 13.2754 24.7187 13.2754 25.8614C13.2754 27.0041 14.2017 27.9304 15.3444 27.9304V28.62C15.3444 30.2905 16.3488 31.7972 17.8907 32.4397L22.3468 34.2964C22.5649 34.3873 22.7875 34.4655 23.0129 34.5334C21.0436 33.0927 19.7327 31.8334 18.9647 31.0099Z" fill="#F6B47B"/>
<path d="M29.8264 26.5533C29.4471 26.5533 29.1367 26.243 29.1367 25.8637V25.174C29.1367 24.7947 29.4471 24.4844 29.8264 24.4844C30.2057 24.4844 30.516 24.7947 30.516 25.174V25.8637C30.516 26.243 30.2057 26.5533 29.8264 26.5533Z" fill="#623F33"/>
<path d="M31.896 23.7935L31.2064 22.4142C31.2064 22.4142 33.3885 23.7909 34.7408 23.7909V18.6211H18.4609C21.0668 21.116 24.3157 23.7935 31.896 23.7935Z" fill="#9D6E48"/>
<path d="M31.8961 23.7935C28.9984 22.3301 27.1452 20.4889 26.0037 18.6211H18.4609C21.0669 21.116 24.3158 23.7935 31.8961 23.7935Z" fill="#8D5F3D"/>
</svg>
