<svg width="39" height="38" viewBox="0 0 39 38" fill="none" xmlns="http://www.w3.org/2000/svg">
<path d="M29.593 36.2866H12.5038C11.9792 36.2866 11.5055 35.9651 11.3194 35.4575C11.1332 34.9499 11.2686 34.4085 11.6747 34.0531C12.8591 33.0041 13.5528 31.4982 13.5528 29.9247C13.5528 26.896 11.0825 24.4256 8.05378 24.4256C6.8017 24.4256 5.6173 24.8487 4.61902 25.6439C4.22986 25.9485 3.72227 25.9992 3.28235 25.7962C2.84243 25.5931 2.57171 25.1363 2.57171 24.6456V17.2516C2.57171 13.0385 5.98955 9.62062 10.2026 9.62062H29.6268C33.8399 9.62062 37.2578 13.0385 37.2578 17.2516V19.6881C37.2578 20.3818 36.6825 20.9571 35.9888 20.9571H32.5709C31.9787 20.9571 31.4373 21.177 31.0481 21.5831L31.0312 21.6C30.5574 22.0569 30.3375 22.6829 30.3882 23.3259C30.4898 24.4426 31.5557 25.3394 32.7739 25.3394H35.9888C36.6825 25.3394 37.2578 25.9147 37.2578 26.6084V28.6218C37.2239 32.8687 33.8061 36.2866 29.593 36.2866ZM15.1094 33.7486H29.593C32.4017 33.7486 34.6859 31.4644 34.6859 28.6557V27.9112H32.7401C30.1852 27.9112 28.0194 26.0161 27.8164 23.5796C27.681 22.1922 28.1886 20.8217 29.2038 19.8234C30.0837 18.9267 31.2681 18.436 32.5371 18.436H34.6859V17.2685C34.6859 14.4598 32.4017 12.1756 29.593 12.1756H10.1688C7.36006 12.1756 5.07587 14.4598 5.07587 17.2685V22.4799C6.02339 22.1077 7.02167 21.9046 8.03687 21.9046C12.4699 21.9046 16.0739 25.5085 16.0739 29.9416C16.0739 31.2783 15.7355 32.598 15.1094 33.7486Z" fill="white"/>
<path d="M3.80701 18.537C3.11328 18.537 2.538 17.9617 2.538 17.268V11.0584C2.538 8.53728 4.11158 6.23606 6.46346 5.35622L19.8979 0.280211C21.2854 -0.22739 22.842 -0.0411708 24.0434 0.804831C25.2447 1.65083 25.9723 3.02133 25.9723 4.47645V10.906C25.9723 11.5998 25.397 12.175 24.7032 12.175C24.0095 12.175 23.4342 11.5998 23.4342 10.906V4.47645C23.4342 3.83349 23.1297 3.2582 22.6052 2.88596C22.0637 2.51372 21.4038 2.4291 20.7947 2.64906L7.36022 7.72506C5.97278 8.24958 5.07601 9.55248 5.07601 11.0584V17.268C5.07601 17.9617 4.50073 18.537 3.80701 18.537Z" fill="white"/>
<path d="M32.7404 27.9114C30.1855 27.9114 28.0197 26.0164 27.8166 23.5799C27.6813 22.1755 28.1889 20.805 29.2041 19.8067C30.067 18.9269 31.2514 18.4362 32.5204 18.4362H36.0398C37.7149 18.487 39.0008 19.8067 39.0008 21.431V24.9166C39.0008 26.5409 37.7149 27.8606 36.0905 27.9114H32.7404ZM36.0059 20.9742H32.5373C31.9451 20.9742 31.4037 21.1942 31.0145 21.6003C30.5238 22.074 30.287 22.7169 30.3546 23.3599C30.4562 24.4766 31.5221 25.3734 32.7404 25.3734H36.0567C36.2766 25.3734 36.4797 25.1704 36.4797 24.9166V21.431C36.4797 21.1772 36.2767 20.9911 36.0059 20.9742Z" fill="white"/>
<path d="M23.265 19.3662H11.421C10.7273 19.3662 10.152 18.7909 10.152 18.0972C10.152 17.4034 10.7273 16.8282 11.421 16.8282H23.265C23.9588 16.8282 24.534 17.4034 24.534 18.0972C24.534 18.7909 23.9588 19.3662 23.265 19.3662Z" fill="white"/>
<path d="M8.03701 37.9782C3.60397 37.9782 0 34.3742 0 29.9412C0 27.4709 1.0998 25.1866 3.01176 23.6638C4.43304 22.5302 6.22657 21.9042 8.03701 21.9042C12.4701 21.9042 16.074 25.5081 16.074 29.9412C16.074 32.2423 15.0757 34.4419 13.3499 35.9647C11.8609 37.2675 9.98282 37.9782 8.03701 37.9782ZM8.03701 24.4422C6.78493 24.4422 5.60053 24.8651 4.60225 25.6604C3.29941 26.6925 2.538 28.2661 2.538 29.9412C2.538 32.9699 5.00833 35.4402 8.03701 35.4402C9.35677 35.4402 10.6427 34.9495 11.6748 34.0697C12.8592 33.0206 13.536 31.5317 13.536 29.9412C13.536 26.9125 11.0657 24.4422 8.03701 24.4422Z" fill="white"/>
<path d="M6.34613 32.9028C5.92313 32.9028 5.50013 32.6829 5.26325 32.2937C4.90793 31.6846 5.09404 30.9063 5.70316 30.5509L7.20905 29.6542V27.8268C7.20905 27.1331 7.78433 26.5578 8.47805 26.5578C9.17177 26.5578 9.74705 27.1331 9.74705 27.8268V30.3648C9.74705 30.8048 9.51017 31.2278 9.13793 31.4477L7.02292 32.7167C6.80296 32.8521 6.56609 32.9028 6.34613 32.9028Z" fill="white"/>
</svg>
