<svg width="36" height="36" viewBox="0 0 36 36" fill="none" xmlns="http://www.w3.org/2000/svg">
<path d="M22.9803 35.9328H12.9525C3.8774 35.9328 0 32.0554 0 22.9803V12.9525C0 3.8774 3.8774 0 12.9525 0H22.9803C32.0554 0 35.9328 3.8774 35.9328 12.9525V22.9803C35.9328 32.0554 32.0721 35.9328 22.9803 35.9328ZM12.9525 2.50694C5.24785 2.50694 2.50694 5.24785 2.50694 12.9525V22.9803C2.50694 30.6849 5.24785 33.4258 12.9525 33.4258H22.9803C30.6849 33.4258 33.4258 30.6849 33.4258 22.9803V12.9525C33.4258 5.24785 30.6849 2.50694 22.9803 2.50694H12.9525Z" fill="white"/>
<path d="M17.0972 28.0939C16.6961 28.0939 15.7267 27.9435 15.1585 26.4894L13.2532 21.6761C12.9858 20.9909 12.0332 20.3558 11.3145 20.3558L1.28676 20.3892C0.601534 20.3892 0.0332953 19.8377 0.0332953 19.1358C0.0332953 18.4505 0.584821 17.8823 1.28676 17.8823L11.3145 17.8489H11.3312C13.0861 17.8489 14.9579 19.1191 15.6097 20.7569L17.1306 24.6009L20.5735 15.8767C21.0916 14.5731 22.0108 14.3893 22.3952 14.3559C22.7796 14.3392 23.7155 14.4227 24.3673 15.6595L26.1054 18.9519C26.4063 19.5202 27.3088 20.0717 27.9606 20.0717H34.746C35.4312 20.0717 35.9995 20.6399 35.9995 21.3252C35.9995 22.0104 35.4312 22.5786 34.746 22.5786H27.9606C26.3728 22.5786 24.6347 21.5257 23.8993 20.1218L22.5957 17.6483L19.086 26.4894C18.4676 27.9268 17.4816 28.0939 17.0972 28.0939Z" fill="white"/>
</svg>
