<svg width="9" height="10" viewBox="0 0 9 10" fill="none" xmlns="http://www.w3.org/2000/svg">
<path d="M4.48015 9.98943C3.701 9.98943 2.96323 9.7419 2.26929 9.24685C1.58023 8.74738 1.02751 8.11309 0.613586 7.34621C0.204529 6.58153 0 5.83011 0 5.09196C0 3.92063 0.224008 2.95263 0.672023 2.19237C1.12004 1.42769 1.69954 0.87076 2.41539 0.521572C3.13611 0.174594 3.91039 0 4.74312 0C5.62454 0 6.38422 0.209955 7.02215 0.627654C7.66496 1.04093 8.15436 1.63102 8.49281 2.39569C8.82882 3.16258 8.99926 4.06207 8.99926 5.09196C8.99926 6.02902 8.78499 6.87326 8.35646 7.62025C7.92792 8.36946 7.36547 8.95291 6.67153 9.37061C5.98246 9.78168 5.252 9.98943 4.48015 9.98943ZM7.53834 4.99471C7.53834 4.40021 7.42634 3.8698 7.2072 3.40348C6.99293 2.93937 6.69101 2.57692 6.30143 2.31613C5.91672 2.05756 5.48819 1.92716 5.01582 1.92716C4.42415 1.92716 3.85196 2.03988 3.30168 2.26309C2.75627 2.48852 2.30825 2.82444 1.95763 3.27087C1.60701 3.71288 1.4317 4.24993 1.4317 4.87979C1.4317 5.40578 1.57049 5.91851 1.8505 6.41799C2.13538 6.91967 2.50548 7.32853 2.9608 7.64677C3.41368 7.9606 3.88118 8.1153 4.36328 8.1153C4.91356 8.1153 5.43462 7.99154 5.92159 7.74402C6.40857 7.49207 6.79814 7.13183 7.09033 6.66551C7.38738 6.19477 7.53834 5.63784 7.53834 4.99471Z" fill="black"/>
</svg>
