<svg width="4" height="14" viewBox="0 0 4 14" fill="none" xmlns="http://www.w3.org/2000/svg">
<path d="M2.82117 11.8094C3.00652 11.8094 3.14892 11.8976 3.24612 12.072C3.34783 12.2485 3.39982 12.4557 3.39982 12.6957C3.39982 12.9378 3.31845 13.1594 3.1557 13.3605C2.99295 13.5636 2.79404 13.7216 2.55896 13.8365C2.3284 13.9473 2.12045 14.0006 1.9351 14.0006C1.25925 14.0006 0.764225 13.8036 0.452293 13.4097C0.144882 13.0158 -0.00656327 12.4372 0.000217996 11.6699L0.13584 1.37872C0.13584 0.964286 0.19461 0.629863 0.31667 0.377507C0.443251 0.127204 0.635383 0 0.895326 0C1.06938 0 1.21404 0.0943771 1.32932 0.279027C1.44234 0.459574 1.50111 0.656535 1.50111 0.869909L1.36548 9.88905V10.2091C1.36548 10.7959 1.41069 11.2821 1.50111 11.6699C1.59604 12.0597 1.74749 12.2526 1.95318 12.2526C2.0436 12.2526 2.11819 12.2341 2.17922 12.1951C2.24477 12.1582 2.3171 12.1028 2.39622 12.031C2.47985 11.9551 2.54992 11.8997 2.60417 11.8669C2.66294 11.8299 2.73527 11.8094 2.82117 11.8094Z" fill="black"/>
</svg>
