<svg width="8" height="10" viewBox="0 0 8 10" fill="none" xmlns="http://www.w3.org/2000/svg">
<path d="M3.28152 9.99995C2.58644 9.99995 1.9481 9.87334 1.36178 9.62227C0.780187 9.3712 0.491754 8.89695 0.491754 8.19739C0.491754 8.09009 0.524854 7.95275 0.595779 7.78537C0.664341 7.6137 0.751817 7.46778 0.86057 7.34761C0.974052 7.22743 1.08281 7.16735 1.19156 7.16735C1.22939 7.16735 1.31686 7.22743 1.45635 7.34761C1.64549 7.56005 1.82753 7.72099 2.00485 7.82829C2.1798 7.93773 2.37839 8.01284 2.60062 8.05147C2.82759 8.0858 3.13021 8.10297 3.50848 8.10297C3.87966 8.10297 4.28394 8.06005 4.71895 7.97421C5.15397 7.88408 5.52278 7.78108 5.8254 7.6652C6.12802 7.54503 6.27933 7.44846 6.27933 7.37336C6.27933 7.19739 6.18476 7.05147 5.99562 6.93559C5.81121 6.82186 5.58189 6.73387 5.30527 6.6695C5.03339 6.60083 4.62911 6.51928 4.0948 6.42057C3.25551 6.27894 2.5628 6.12658 2.0143 5.96564C1.47054 5.80684 0.997695 5.54933 0.595779 5.19311C0.198593 4.8326 0 4.34977 0 3.74247C0 2.98711 0.226964 2.33046 0.680891 1.76823C1.13482 1.20171 1.71168 0.768237 2.41149 0.463517C3.11602 0.154506 3.82528 0 4.53927 0C5.01211 0 5.43058 0.0858365 5.79703 0.25751C6.16821 0.429183 6.45901 0.656649 6.66706 0.935618C6.87511 1.21029 6.97913 1.50858 6.97913 1.82832C6.97913 2.34334 6.93421 2.76823 6.84674 3.0987C6.7569 3.42488 6.55357 3.58797 6.23204 3.58797C6.07364 3.58797 5.96962 3.5193 5.91997 3.38196C5.86795 3.24462 5.84431 3.03003 5.84431 2.73818C5.84431 2.42917 5.71192 2.21887 5.44713 2.10299C5.18706 1.98282 4.79934 1.92274 4.28394 1.92274C3.92458 1.92274 3.52266 2.00643 3.08292 2.17166C2.64082 2.33261 2.26491 2.54505 1.95756 2.80685C1.64785 3.0708 1.49418 3.34333 1.49418 3.6223C1.49418 3.90985 1.61002 4.14376 1.84408 4.32616C2.08286 4.50427 2.37839 4.64161 2.73302 4.73818C3.08529 4.83689 3.57468 4.93989 4.19883 5.04719C4.9601 5.18453 5.57479 5.32186 6.04291 5.4592C6.51575 5.59654 6.9153 5.81113 7.24392 6.10298C7.57018 6.39482 7.73568 6.78752 7.73568 7.27894C7.73568 7.89696 7.47089 8.41198 6.9413 8.82399C6.41645 9.23172 5.80176 9.52785 5.09722 9.71669C4.39742 9.90553 3.79218 9.99995 3.28152 9.99995Z" fill="black"/>
</svg>
