<svg width="13" height="10" viewBox="0 0 13 10" fill="none" xmlns="http://www.w3.org/2000/svg">
<path d="M7.85989 9.63609C7.3732 9.63609 6.93654 9.42347 6.54991 9.00029C6.16101 8.57092 5.8699 7.98879 5.67659 7.24977C5.51739 7.75759 5.28086 8.22205 4.96701 8.64523C4.65771 9.06428 4.31202 9.3925 3.92995 9.63609C3.55242 9.87761 3.19308 9.9994 2.84739 9.9994C2.00364 9.9994 1.36911 9.55352 0.946098 8.66175C0.520809 7.76585 0.256993 6.83279 0.154651 5.86257C0.0500343 4.88823 0 4.01297 0 3.2368C0 2.52669 0.0545826 1.95281 0.163748 1.51106C0.272913 1.07136 0.402546 0.757593 0.554923 0.569743C0.705025 0.377765 0.848304 0.280743 0.982486 0.280743C1.18717 0.280743 1.33045 0.3468 1.41005 0.478914C1.48738 0.611029 1.52831 0.813329 1.52831 1.08169V1.19729C1.52831 1.35211 1.52149 1.52757 1.51012 1.72574C1.49647 1.92392 1.49192 2.07048 1.49192 2.16337C1.47373 2.44412 1.46463 2.70628 1.46463 2.9478C1.46463 3.95517 1.5738 4.95016 1.79213 5.92863C2.01501 6.90917 2.38344 7.61102 2.89288 8.0342C3.26131 8.00117 3.62974 7.81126 3.99363 7.46446C4.36206 7.11353 4.66681 6.67177 4.90333 6.14332C5.13986 5.61486 5.26267 5.08434 5.27632 4.54969L5.23993 4.07903C5.2331 3.95311 5.21491 3.67237 5.18535 3.2368C5.16033 2.8033 5.14896 2.44824 5.14896 2.17163C5.14896 2.01887 5.1808 1.8496 5.24902 1.66794C5.3218 1.48216 5.42642 1.32114 5.56742 1.18903C5.71298 1.05691 5.88582 0.990858 6.08596 0.990858C6.28609 0.990858 6.43392 1.08994 6.53172 1.28811C6.62723 1.48216 6.68864 1.734 6.71366 2.04777C6.74322 2.36154 6.75914 2.77853 6.75914 3.2946V4.24417C6.75914 4.9708 6.77961 5.56325 6.82282 6.01946C6.86376 6.47154 6.96838 6.85137 7.13212 7.15895C7.30042 7.46859 7.56196 7.62135 7.91447 7.62135C8.40572 7.62135 8.90833 7.49336 9.42459 7.23326C9.9454 6.97522 10.3752 6.60365 10.7164 6.11855C11.0621 5.62931 11.2349 5.05337 11.2349 4.3928C11.2349 3.34827 11.1348 2.56591 10.9347 2.04777C10.9097 1.99823 10.8665 1.91359 10.8074 1.7918C10.7528 1.67207 10.7027 1.55234 10.6618 1.43674C10.6254 1.31702 10.6072 1.20348 10.6072 1.0982C10.6072 0.767915 10.6732 0.503686 10.8074 0.305514C10.9461 0.103214 11.1485 0 11.4169 0C11.5852 0 11.7489 0.0805073 11.9081 0.239457C12.065 0.400471 12.1628 0.6647 12.1992 1.03214C12.1992 1.23031 12.2106 1.42849 12.2356 1.62666C12.2652 1.8207 12.3084 2.07874 12.363 2.40283C12.4289 2.73312 12.4767 3.01799 12.5085 3.25332C12.5381 3.48452 12.554 3.71984 12.554 3.95517C12.554 4.95842 12.3288 5.8956 11.8808 6.77086C11.4373 7.64612 10.8528 8.34385 10.1251 8.85992C9.40185 9.37599 8.64679 9.63609 7.85989 9.63609Z" fill="black"/>
</svg>
