<svg width="15" height="16" viewBox="0 0 15 16" fill="none" xmlns="http://www.w3.org/2000/svg">
<g clip-path="url(#clip0_1239_234028)">
<path d="M11.6248 6.5455C11.2998 6.4055 10.9061 6.37884 10.6623 6.6455L6.24371 11.352C5.99996 11.612 6.01871 12.0387 6.14996 12.3787C6.22496 12.5787 6.24996 12.7787 6.24996 12.9987C6.24996 13.4407 6.08534 13.8646 5.79232 14.1771C5.4993 14.4897 5.10189 14.6653 4.6875 14.6653C4.27311 14.6653 3.87569 14.4897 3.58267 14.1771C3.28966 13.8646 3.12504 13.4407 3.12504 12.9987C3.12504 12.8253 2.97505 12.6653 2.81255 12.6653C2.58303 12.6625 2.35691 12.6057 2.15028 12.4991C1.94365 12.3925 1.76158 12.2386 1.61702 12.0485C1.47245 11.8583 1.36895 11.6365 1.31386 11.3988C1.25877 11.1611 1.25346 10.9134 1.2983 10.6733C1.34313 10.4332 1.43702 10.2065 1.57327 10.0095C1.70953 9.81245 1.88481 9.64986 2.08666 9.53327C2.2885 9.41669 2.51195 9.34897 2.74111 9.33494C2.97027 9.32091 3.19951 9.3609 3.41253 9.45208C3.72503 9.59208 4.12501 9.61875 4.36876 9.35209L8.78738 4.64555C9.03113 4.38556 9.01238 3.9589 8.88113 3.61891C8.80613 3.41892 8.74989 3.21892 8.74989 2.99893C8.74989 2.55691 8.9145 2.133 9.20752 1.82045C9.50054 1.5079 9.89795 1.33231 10.3123 1.33231C10.7267 1.33231 11.1241 1.5079 11.4172 1.82045C11.7102 2.133 11.8748 2.55691 11.8748 2.99893C11.881 3.17226 12.0248 3.32559 12.1873 3.33225C12.4184 3.3292 12.6472 3.38087 12.8574 3.48354C13.0675 3.58621 13.2536 3.73732 13.4024 3.92598C13.5512 4.11464 13.6588 4.33616 13.7177 4.57456C13.7765 4.81297 13.785 5.06232 13.7426 5.30465C13.7001 5.54699 13.6078 5.77627 13.4723 5.97596C13.3368 6.17566 13.1615 6.34081 12.9589 6.45949C12.7563 6.57818 12.5316 6.64746 12.3009 6.66233C12.0702 6.6772 11.8393 6.6373 11.6248 6.5455V6.5455Z" stroke="#003482" stroke-width="2" stroke-linecap="round" stroke-linejoin="round"/>
</g>
<defs>
<clipPath id="clip0_1239_234028">
<rect width="14.6226" height="15.5975" fill="white" transform="scale(1.02578)"/>
</clipPath>
</defs>
</svg>
