<svg width="8" height="14" viewBox="0 0 8 14" fill="none" xmlns="http://www.w3.org/2000/svg">
<path d="M5.06088 11.5941C5.38448 11.5941 5.62944 11.4575 5.79798 11.1862C5.97102 10.9128 6.08788 10.5865 6.14856 10.2071C6.21373 9.83176 6.26991 9.32794 6.31935 8.69764C6.34182 8.26317 6.36879 7.94292 6.40025 7.73486C6.3216 8.01839 6.13508 8.26929 5.84293 8.48551C5.55528 8.70376 5.21818 8.86898 4.83615 8.98321C4.45186 9.09744 4.09454 9.15455 3.76644 9.15455C2.53044 9.15455 1.59332 8.81187 0.952847 8.1265C0.316866 7.44114 0 6.4192 0 5.05867C0 4.17748 0.143826 3.35137 0.431478 2.57829C0.71913 1.80725 1.15285 1.18308 1.7349 0.709845C2.32144 0.236615 3.04282 0 3.90128 0C4.57097 0 5.22493 0.203978 5.86091 0.611935C6.50138 1.01989 7.01601 1.52576 7.40704 2.12954C7.80256 2.72923 8.00032 3.29629 8.00032 3.8348L7.81155 8.24889L7.80256 8.37944C7.7666 8.54874 7.70817 8.93222 7.63176 9.52987C7.52389 10.3662 7.40029 11.0434 7.26321 11.5615C7.12388 12.0837 6.87218 12.5263 6.50812 12.8914C6.14182 13.2606 5.62045 13.4463 4.94402 13.4463C4.67434 13.4463 4.32601 13.4014 3.90128 13.3157C3.4743 13.2341 3.09226 13.0913 2.75067 12.8914C2.41358 12.6956 2.24728 12.4345 2.24728 12.1082C2.24728 11.792 2.29223 11.5533 2.38212 11.3902C2.4765 11.2311 2.6473 11.1535 2.8945 11.1535C2.95293 11.1535 3.01136 11.1617 3.06529 11.178C3.11922 11.1984 3.16867 11.227 3.21811 11.2596C3.3844 11.3575 3.59565 11.435 3.84734 11.4962C4.10353 11.5615 4.50804 11.5941 5.06088 11.5941ZM3.99117 7.42482C4.41591 7.42482 4.80469 7.28611 5.15976 7.0087C5.51932 6.72721 5.81821 6.38045 6.05867 5.97249C6.29688 5.56453 6.47441 5.1627 6.58903 4.76494C6.51037 4.22235 6.39351 3.74097 6.23845 3.32077C6.08788 2.89649 5.84293 2.53749 5.50134 2.24376C5.15976 1.95003 4.70131 1.80317 4.12601 1.80317C3.19114 1.80317 2.51021 2.0969 2.08548 2.68436C1.65849 3.26774 1.44051 4.01838 1.42927 4.93628C1.42927 5.85622 1.6495 6.50079 2.09447 6.87C2.53718 7.24124 3.16867 7.42482 3.99117 7.42482Z" fill="black"/>
</svg>
