<svg width="29" height="34" viewBox="0 0 29 34" fill="none" xmlns="http://www.w3.org/2000/svg">
<path d="M20.81 33.7029H8.18674C5.40962 33.7029 3.09535 33.4294 1.13875 32.8404C0.423426 32.63 -0.0394292 31.9356 0.00264839 31.1993C0.528618 24.9087 6.90337 19.9645 14.4984 19.9645C22.0934 19.9645 28.4471 24.8876 28.9941 31.1993C29.0572 31.9567 28.5944 32.63 27.858 32.8404C25.9014 33.4294 23.5871 33.7029 20.81 33.7029ZM3.3899 30.1473C4.77846 30.4208 6.35636 30.5471 8.18674 30.5471H20.81C22.6404 30.5471 24.2183 30.4208 25.6069 30.1473C24.4918 26.1079 19.8843 23.1203 14.4984 23.1203C9.11244 23.1203 4.50495 26.1079 3.3899 30.1473Z" fill="#E3F5FF"/>
<path d="M14.4964 18.2406C9.46812 18.2406 5.38659 14.1381 5.38659 9.10983C5.38659 4.08156 9.46812 0 14.4964 0C19.5247 0 23.6062 4.08156 23.6062 9.10983C23.6062 14.1381 19.5247 18.2406 14.4964 18.2406ZM14.4964 3.15582C11.2143 3.15582 8.54241 5.82778 8.54241 9.10983C8.54241 12.4129 11.2143 15.0848 14.4964 15.0848C17.7784 15.0848 20.4504 12.4129 20.4504 9.10983C20.4504 5.82778 17.7784 3.15582 14.4964 3.15582Z" fill="#E3F5FF"/>
</svg>
