<svg width="1240" height="50" viewBox="0 0 1240 50" fill="none" xmlns="http://www.w3.org/2000/svg">
<path d="M1208 15C1208 11.6863 1210.69 9 1214 9H1234C1237.31 9 1240 11.6863 1240 15V35C1240 38.3137 1237.31 41 1234 41H1214C1210.69 41 1208 38.3137 1208 35V15Z" fill="#FAFAFA"/>
<path d="M1218.26 25.8205C1217.8 25.8205 1217.44 25.4531 1217.44 25C1217.44 24.5468 1217.8 24.1795 1218.26 24.1795H1224C1224.45 24.1795 1224.82 24.5468 1224.82 25C1224.82 25.4531 1224.45 25.8205 1224 25.8205H1218.26Z" fill="#181C32"/>
<path d="M1223.42 29.3429C1223.1 29.6633 1223.1 30.1828 1223.42 30.5032C1223.74 30.8237 1224.26 30.8237 1224.58 30.5032L1229.5 25.5802C1229.81 25.2695 1229.82 24.7694 1229.53 24.4455L1225.02 19.5225C1224.71 19.1884 1224.19 19.1658 1223.86 19.4721C1223.52 19.7783 1223.5 20.2973 1223.81 20.6313L1227.79 24.9753L1223.42 29.3429Z" fill="#181C32"/>
<path d="M848.552 16.972C849.576 16.1187 850.392 15.4093 851 14.844C851.608 14.268 852.115 13.6707 852.52 13.052C852.925 12.4333 853.128 11.8253 853.128 11.228C853.128 10.684 853 10.2573 852.744 9.948C852.488 9.63867 852.093 9.484 851.56 9.484C851.027 9.484 850.616 9.66533 850.328 10.028C850.04 10.38 849.891 10.8653 849.88 11.484H847.704C847.747 10.204 848.125 9.23333 848.84 8.572C849.565 7.91067 850.483 7.58 851.592 7.58C852.808 7.58 853.741 7.90533 854.392 8.556C855.043 9.196 855.368 10.044 855.368 11.1C855.368 11.932 855.144 12.7267 854.696 13.484C854.248 14.2413 853.736 14.9027 853.16 15.468C852.584 16.0227 851.832 16.6947 850.904 17.484H855.624V19.34H847.72V17.676L848.552 16.972Z" fill="#464E5F"/>
<path d="M857.74 16.972C858.763 16.1187 859.58 15.4093 860.188 14.844C860.795 14.268 861.302 13.6707 861.708 13.052C862.113 12.4333 862.315 11.8253 862.315 11.228C862.315 10.684 862.188 10.2573 861.932 9.948C861.676 9.63867 861.281 9.484 860.747 9.484C860.214 9.484 859.804 9.66533 859.516 10.028C859.227 10.38 859.078 10.8653 859.068 11.484H856.891C856.934 10.204 857.313 9.23333 858.028 8.572C858.753 7.91067 859.67 7.58 860.779 7.58C861.995 7.58 862.929 7.90533 863.58 8.556C864.23 9.196 864.555 10.044 864.555 11.1C864.555 11.932 864.331 12.7267 863.883 13.484C863.435 14.2413 862.923 14.9027 862.347 15.468C861.771 16.0227 861.019 16.6947 860.091 17.484H864.812V19.34H856.907V17.676L857.74 16.972Z" fill="#464E5F"/>
<path d="M872.479 4.348L868.159 22.396H865.967L870.287 4.348H872.479Z" fill="#464E5F"/>
<path d="M873.732 9.9V7.836H877.588V19.5H875.284V9.9H873.732Z" fill="#464E5F"/>
<path d="M880.505 16.972C881.529 16.1187 882.345 15.4093 882.953 14.844C883.561 14.268 884.068 13.6707 884.473 13.052C884.878 12.4333 885.081 11.8253 885.081 11.228C885.081 10.684 884.953 10.2573 884.697 9.948C884.441 9.63867 884.046 9.484 883.513 9.484C882.98 9.484 882.569 9.66533 882.281 10.028C881.993 10.38 881.844 10.8653 881.833 11.484H879.657C879.7 10.204 880.078 9.23333 880.793 8.572C881.518 7.91067 882.436 7.58 883.545 7.58C884.761 7.58 885.694 7.90533 886.345 8.556C886.996 9.196 887.321 10.044 887.321 11.1C887.321 11.932 887.097 12.7267 886.649 13.484C886.201 14.2413 885.689 14.9027 885.113 15.468C884.537 16.0227 883.785 16.6947 882.857 17.484H887.577V19.34H879.673V17.676L880.505 16.972Z" fill="#464E5F"/>
<path d="M895.245 4.348L890.925 22.396H888.733L893.053 4.348H895.245Z" fill="#464E5F"/>
<path d="M897.474 16.972C898.498 16.1187 899.314 15.4093 899.922 14.844C900.53 14.268 901.037 13.6707 901.442 13.052C901.847 12.4333 902.05 11.8253 902.05 11.228C902.05 10.684 901.922 10.2573 901.666 9.948C901.41 9.63867 901.015 9.484 900.482 9.484C899.949 9.484 899.538 9.66533 899.25 10.028C898.962 10.38 898.813 10.8653 898.802 11.484H896.626C896.669 10.204 897.047 9.23333 897.762 8.572C898.487 7.91067 899.405 7.58 900.514 7.58C901.73 7.58 902.663 7.90533 903.314 8.556C903.965 9.196 904.29 10.044 904.29 11.1C904.29 11.932 904.066 12.7267 903.618 13.484C903.17 14.2413 902.658 14.9027 902.082 15.468C901.506 16.0227 900.754 16.6947 899.826 17.484H904.546V19.34H896.642V17.676L897.474 16.972Z" fill="#464E5F"/>
<path d="M905.957 13.516C905.957 11.6707 906.288 10.2253 906.949 9.18C907.621 8.13467 908.731 7.612 910.277 7.612C911.824 7.612 912.928 8.13467 913.589 9.18C914.261 10.2253 914.597 11.6707 914.597 13.516C914.597 15.372 914.261 16.828 913.589 17.884C912.928 18.94 911.824 19.468 910.277 19.468C908.731 19.468 907.621 18.94 906.949 17.884C906.288 16.828 905.957 15.372 905.957 13.516ZM912.389 13.516C912.389 12.7267 912.336 12.0653 912.229 11.532C912.133 10.988 911.931 10.5453 911.621 10.204C911.323 9.86267 910.875 9.692 910.277 9.692C909.68 9.692 909.227 9.86267 908.917 10.204C908.619 10.5453 908.416 10.988 908.309 11.532C908.213 12.0653 908.165 12.7267 908.165 13.516C908.165 14.3267 908.213 15.0093 908.309 15.564C908.405 16.108 908.608 16.5507 908.917 16.892C909.227 17.2227 909.68 17.388 910.277 17.388C910.875 17.388 911.328 17.2227 911.637 16.892C911.947 16.5507 912.149 16.108 912.245 15.564C912.341 15.0093 912.389 14.3267 912.389 13.516Z" fill="#464E5F"/>
<path d="M917.005 16.972C918.029 16.1187 918.845 15.4093 919.453 14.844C920.061 14.268 920.568 13.6707 920.973 13.052C921.378 12.4333 921.581 11.8253 921.581 11.228C921.581 10.684 921.453 10.2573 921.197 9.948C920.941 9.63867 920.546 9.484 920.013 9.484C919.48 9.484 919.069 9.66533 918.781 10.028C918.493 10.38 918.344 10.8653 918.333 11.484H916.157C916.2 10.204 916.578 9.23333 917.293 8.572C918.018 7.91067 918.936 7.58 920.045 7.58C921.261 7.58 922.194 7.90533 922.845 8.556C923.496 9.196 923.821 10.044 923.821 11.1C923.821 11.932 923.597 12.7267 923.149 13.484C922.701 14.2413 922.189 14.9027 921.613 15.468C921.037 16.0227 920.285 16.6947 919.357 17.484H924.077V19.34H916.173V17.676L917.005 16.972Z" fill="#464E5F"/>
<path d="M926.193 16.972C927.217 16.1187 928.033 15.4093 928.641 14.844C929.249 14.268 929.755 13.6707 930.161 13.052C930.566 12.4333 930.769 11.8253 930.769 11.228C930.769 10.684 930.641 10.2573 930.385 9.948C930.129 9.63867 929.734 9.484 929.201 9.484C928.667 9.484 928.257 9.66533 927.969 10.028C927.681 10.38 927.531 10.8653 927.521 11.484H925.345C925.387 10.204 925.766 9.23333 926.481 8.572C927.206 7.91067 928.123 7.58 929.233 7.58C930.449 7.58 931.382 7.90533 932.033 8.556C932.683 9.196 933.009 10.044 933.009 11.1C933.009 11.932 932.785 12.7267 932.337 13.484C931.889 14.2413 931.377 14.9027 930.801 15.468C930.225 16.0227 929.473 16.6947 928.545 17.484H933.265V19.34H925.361V17.676L926.193 16.972Z" fill="#464E5F"/>
<path d="M847.78 35.638C847.78 34.1387 848.031 32.9687 848.534 32.128C849.045 31.2787 849.921 30.854 851.16 30.854C852.399 30.854 853.27 31.2787 853.773 32.128C854.284 32.9687 854.54 34.1387 854.54 35.638C854.54 37.1547 854.284 38.342 853.773 39.2C853.27 40.0493 852.399 40.474 851.16 40.474C849.921 40.474 849.045 40.0493 848.534 39.2C848.031 38.342 847.78 37.1547 847.78 35.638ZM853.084 35.638C853.084 34.936 853.036 34.3423 852.941 33.857C852.854 33.3717 852.672 32.9773 852.395 32.674C852.118 32.362 851.706 32.206 851.16 32.206C850.614 32.206 850.202 32.362 849.925 32.674C849.648 32.9773 849.461 33.3717 849.366 33.857C849.279 34.3423 849.236 34.936 849.236 35.638C849.236 36.366 849.279 36.977 849.366 37.471C849.453 37.965 849.635 38.3637 849.912 38.667C850.198 38.9703 850.614 39.122 851.16 39.122C851.706 39.122 852.118 38.9703 852.395 38.667C852.681 38.3637 852.867 37.965 852.954 37.471C853.041 36.977 853.084 36.366 853.084 35.638Z" fill="#B5B5C3"/>
<path d="M862.218 32.297H857.863V34.884C858.045 34.6413 858.314 34.4377 858.669 34.273C859.033 34.1083 859.419 34.026 859.826 34.026C860.554 34.026 861.143 34.182 861.594 34.494C862.053 34.806 862.378 35.2003 862.569 35.677C862.768 36.1537 862.868 36.6563 862.868 37.185C862.868 37.8263 862.742 38.3983 862.491 38.901C862.248 39.395 861.88 39.785 861.386 40.071C860.901 40.357 860.303 40.5 859.592 40.5C858.647 40.5 857.889 40.266 857.317 39.798C856.745 39.33 856.403 38.7103 856.29 37.939H857.733C857.828 38.3463 858.041 38.6713 858.37 38.914C858.699 39.148 859.111 39.265 859.605 39.265C860.22 39.265 860.68 39.0787 860.983 38.706C861.295 38.3333 861.451 37.8393 861.451 37.224C861.451 36.6 861.295 36.1233 860.983 35.794C860.671 35.456 860.212 35.287 859.605 35.287C859.18 35.287 858.821 35.3953 858.526 35.612C858.24 35.82 858.032 36.106 857.902 36.47H856.498V30.997H862.218V32.297Z" fill="#B5B5C3"/>
<path d="M865.204 40.591C864.935 40.591 864.71 40.5 864.528 40.318C864.346 40.136 864.255 39.9107 864.255 39.642C864.255 39.3733 864.346 39.148 864.528 38.966C864.71 38.784 864.935 38.693 865.204 38.693C865.464 38.693 865.685 38.784 865.867 38.966C866.049 39.148 866.14 39.3733 866.14 39.642C866.14 39.9107 866.049 40.136 865.867 40.318C865.685 40.5 865.464 40.591 865.204 40.591ZM865.204 35.131C864.935 35.131 864.71 35.04 864.528 34.858C864.346 34.676 864.255 34.4507 864.255 34.182C864.255 33.9133 864.346 33.688 864.528 33.506C864.71 33.324 864.935 33.233 865.204 33.233C865.464 33.233 865.685 33.324 865.867 33.506C866.049 33.688 866.14 33.9133 866.14 34.182C866.14 34.4507 866.049 34.676 865.867 34.858C865.685 35.04 865.464 35.131 865.204 35.131Z" fill="#B5B5C3"/>
<path d="M868.416 38.485C869.248 37.7657 869.903 37.1763 870.379 36.717C870.865 36.249 871.268 35.7637 871.588 35.261C871.909 34.7583 872.069 34.2557 872.069 33.753C872.069 33.233 871.944 32.8257 871.692 32.531C871.45 32.2363 871.064 32.089 870.535 32.089C870.024 32.089 869.625 32.2537 869.339 32.583C869.062 32.9037 868.915 33.337 868.897 33.883H867.467C867.493 32.895 867.788 32.141 868.351 31.621C868.923 31.0923 869.647 30.828 870.522 30.828C871.467 30.828 872.204 31.088 872.732 31.608C873.27 32.128 873.538 32.8213 873.538 33.688C873.538 34.312 873.378 34.9143 873.057 35.495C872.745 36.067 872.368 36.5827 871.926 37.042C871.493 37.4927 870.938 38.017 870.262 38.615L869.677 39.135H873.798V40.37H867.48V39.291L868.416 38.485Z" fill="#B5B5C3"/>
<path d="M875.1 35.638C875.1 34.1387 875.352 32.9687 875.854 32.128C876.366 31.2787 877.241 30.854 878.48 30.854C879.72 30.854 880.591 31.2787 881.093 32.128C881.605 32.9687 881.86 34.1387 881.86 35.638C881.86 37.1547 881.605 38.342 881.093 39.2C880.591 40.0493 879.72 40.474 878.48 40.474C877.241 40.474 876.366 40.0493 875.854 39.2C875.352 38.342 875.1 37.1547 875.1 35.638ZM880.404 35.638C880.404 34.936 880.357 34.3423 880.261 33.857C880.175 33.3717 879.993 32.9773 879.715 32.674C879.438 32.362 879.026 32.206 878.48 32.206C877.934 32.206 877.523 32.362 877.245 32.674C876.968 32.9773 876.782 33.3717 876.686 33.857C876.6 34.3423 876.556 34.936 876.556 35.638C876.556 36.366 876.6 36.977 876.686 37.471C876.773 37.965 876.955 38.3637 877.232 38.667C877.518 38.9703 877.934 39.122 878.48 39.122C879.026 39.122 879.438 38.9703 879.715 38.667C880.001 38.3637 880.188 37.965 880.274 37.471C880.361 36.977 880.404 36.366 880.404 35.638Z" fill="#B5B5C3"/>
<path d="M893.318 34.156C893.318 34.6153 893.21 35.0487 892.993 35.456C892.777 35.8633 892.43 36.197 891.953 36.457C891.477 36.7083 890.866 36.834 890.12 36.834H888.482V40.5H887V31.465H890.12C890.814 31.465 891.399 31.5863 891.875 31.829C892.361 32.063 892.72 32.3837 892.954 32.791C893.197 33.1983 893.318 33.6533 893.318 34.156ZM890.12 35.625C890.684 35.625 891.104 35.4993 891.381 35.248C891.659 34.988 891.797 34.624 891.797 34.156C891.797 33.168 891.238 32.674 890.12 32.674H888.482V35.625H890.12Z" fill="#B5B5C3"/>
<path d="M904.248 31.465V40.5H902.766V34.312L900.01 40.5H898.983L896.214 34.312V40.5H894.732V31.465H896.331L899.503 38.55L902.662 31.465H904.248Z" fill="#B5B5C3"/>
<path d="M275.44 28.72C275.525 29.1893 275.717 29.552 276.016 29.808C276.325 30.0533 276.736 30.176 277.248 30.176C277.909 30.176 278.389 29.904 278.688 29.36C278.987 28.8053 279.136 27.8773 279.136 26.576C278.891 26.9173 278.544 27.184 278.096 27.376C277.659 27.568 277.184 27.664 276.672 27.664C275.989 27.664 275.371 27.5253 274.816 27.248C274.272 26.96 273.84 26.5387 273.52 25.984C273.2 25.4187 273.04 24.736 273.04 23.936C273.04 22.752 273.392 21.8133 274.096 21.12C274.8 20.416 275.76 20.064 276.976 20.064C278.491 20.064 279.557 20.5493 280.176 21.52C280.805 22.4907 281.12 23.952 281.12 25.904C281.12 27.2907 280.997 28.4267 280.752 29.312C280.517 30.1973 280.107 30.8693 279.52 31.328C278.944 31.7867 278.155 32.016 277.152 32.016C276.363 32.016 275.691 31.8667 275.136 31.568C274.581 31.2587 274.155 30.8587 273.856 30.368C273.568 29.8667 273.403 29.3173 273.36 28.72H275.44ZM277.136 25.84C277.691 25.84 278.128 25.6693 278.448 25.328C278.768 24.9867 278.928 24.528 278.928 23.952C278.928 23.3227 278.757 22.8373 278.416 22.496C278.085 22.144 277.632 21.968 277.056 21.968C276.48 21.968 276.021 22.1493 275.68 22.512C275.349 22.864 275.184 23.3333 275.184 23.92C275.184 24.4853 275.344 24.9493 275.664 25.312C275.995 25.664 276.485 25.84 277.136 25.84Z" fill="#464E5F"/>
<path d="M282.896 23.408C282.949 22.3413 283.322 21.52 284.016 20.944C284.72 20.3573 285.642 20.064 286.784 20.064C287.562 20.064 288.229 20.2027 288.784 20.48C289.338 20.7467 289.754 21.1147 290.032 21.584C290.32 22.0427 290.464 22.5653 290.464 23.152C290.464 23.824 290.288 24.3947 289.936 24.864C289.594 25.3227 289.184 25.632 288.704 25.792V25.856C289.322 26.048 289.802 26.3893 290.144 26.88C290.496 27.3707 290.672 28 290.672 28.768C290.672 29.408 290.522 29.9787 290.224 30.48C289.936 30.9813 289.504 31.376 288.928 31.664C288.362 31.9413 287.68 32.08 286.88 32.08C285.674 32.08 284.693 31.776 283.936 31.168C283.178 30.56 282.778 29.664 282.736 28.48H284.912C284.933 29.0027 285.109 29.424 285.44 29.744C285.781 30.0533 286.245 30.208 286.832 30.208C287.376 30.208 287.792 30.0587 288.08 29.76C288.378 29.4507 288.528 29.056 288.528 28.576C288.528 27.936 288.325 27.4773 287.92 27.2C287.514 26.9227 286.885 26.784 286.032 26.784H285.568V24.944H286.032C287.546 24.944 288.304 24.4373 288.304 23.424C288.304 22.9653 288.165 22.608 287.888 22.352C287.621 22.096 287.232 21.968 286.72 21.968C286.218 21.968 285.829 22.1067 285.552 22.384C285.285 22.6507 285.13 22.992 285.088 23.408H282.896Z" fill="#464E5F"/>
<path d="M294.394 25.824C293.327 25.2693 292.794 24.4107 292.794 23.248C292.794 22.672 292.938 22.1493 293.226 21.68C293.524 21.2 293.967 20.8213 294.554 20.544C295.151 20.256 295.876 20.112 296.73 20.112C297.583 20.112 298.303 20.256 298.89 20.544C299.487 20.8213 299.93 21.2 300.218 21.68C300.516 22.1493 300.666 22.672 300.666 23.248C300.666 23.8347 300.522 24.352 300.234 24.8C299.946 25.2373 299.562 25.5787 299.082 25.824C299.668 26.08 300.127 26.4533 300.458 26.944C300.788 27.4347 300.954 28.016 300.954 28.688C300.954 29.4133 300.767 30.048 300.394 30.592C300.031 31.1253 299.53 31.536 298.89 31.824C298.25 32.112 297.53 32.256 296.73 32.256C295.93 32.256 295.21 32.112 294.57 31.824C293.94 31.536 293.439 31.1253 293.066 30.592C292.703 30.048 292.522 29.4133 292.522 28.688C292.522 28.016 292.687 27.4347 293.018 26.944C293.348 26.4427 293.807 26.0693 294.394 25.824ZM298.49 23.568C298.49 23.0453 298.33 22.64 298.01 22.352C297.7 22.064 297.274 21.92 296.73 21.92C296.196 21.92 295.77 22.064 295.45 22.352C295.14 22.64 294.986 23.0507 294.986 23.584C294.986 24.064 295.146 24.448 295.466 24.736C295.796 25.024 296.218 25.168 296.73 25.168C297.242 25.168 297.663 25.024 297.994 24.736C298.324 24.4373 298.49 24.048 298.49 23.568ZM296.73 26.8C296.122 26.8 295.626 26.9547 295.242 27.264C294.868 27.5733 294.682 28.016 294.682 28.592C294.682 29.1253 294.863 29.5627 295.226 29.904C295.599 30.2347 296.1 30.4 296.73 30.4C297.359 30.4 297.855 30.2293 298.218 29.888C298.58 29.5467 298.762 29.1147 298.762 28.592C298.762 28.0267 298.575 27.5893 298.202 27.28C297.828 26.96 297.338 26.8 296.73 26.8Z" fill="#464E5F"/>
<path d="M310.147 22.032L305.891 32H303.619L307.907 22.288H302.435V20.368H310.147V22.032Z" fill="#464E5F"/>
<path d="M311.393 29.728V27.968L316.625 20.48H319.233V27.776H320.641V29.728H319.233V32H316.993V29.728H311.393ZM317.137 22.88L313.857 27.776H317.137V22.88Z" fill="#464E5F"/>
<path d="M329.907 22.272H324.723V25.008C324.947 24.7307 325.267 24.5067 325.683 24.336C326.099 24.1547 326.541 24.064 327.011 24.064C327.864 24.064 328.563 24.2507 329.107 24.624C329.651 24.9973 330.045 25.4773 330.291 26.064C330.536 26.64 330.659 27.2587 330.659 27.92C330.659 29.1467 330.307 30.1333 329.603 30.88C328.909 31.6267 327.917 32 326.627 32C325.411 32 324.44 31.696 323.715 31.088C322.989 30.48 322.579 29.6853 322.483 28.704H324.659C324.755 29.1307 324.968 29.472 325.299 29.728C325.64 29.984 326.072 30.112 326.595 30.112C327.224 30.112 327.699 29.9147 328.019 29.52C328.339 29.1253 328.499 28.6027 328.499 27.952C328.499 27.2907 328.333 26.7893 328.003 26.448C327.683 26.096 327.208 25.92 326.579 25.92C326.131 25.92 325.757 26.032 325.459 26.256C325.16 26.48 324.947 26.7787 324.819 27.152H322.675V20.304H329.907V22.272Z" fill="#464E5F"/>
<path d="M338.412 23.248C338.305 22.8 338.118 22.464 337.852 22.24C337.596 22.016 337.222 21.904 336.732 21.904C335.996 21.904 335.452 22.2027 335.1 22.8C334.758 23.3867 334.582 24.3467 334.572 25.68C334.828 25.2533 335.201 24.9227 335.692 24.688C336.182 24.4427 336.716 24.32 337.292 24.32C337.985 24.32 338.598 24.4693 339.132 24.768C339.665 25.0667 340.081 25.504 340.38 26.08C340.678 26.6453 340.828 27.328 340.828 28.128C340.828 28.8853 340.673 29.5627 340.364 30.16C340.065 30.7467 339.622 31.2053 339.036 31.536C338.449 31.8667 337.75 32.032 336.94 32.032C335.83 32.032 334.956 31.7867 334.316 31.296C333.686 30.8053 333.244 30.1227 332.988 29.248C332.742 28.3627 332.62 27.2747 332.62 25.984C332.62 24.032 332.956 22.56 333.628 21.568C334.3 20.5653 335.361 20.064 336.812 20.064C337.932 20.064 338.801 20.368 339.42 20.976C340.038 21.584 340.396 22.3413 340.492 23.248H338.412ZM336.78 26.16C336.214 26.16 335.74 26.3253 335.356 26.656C334.972 26.9867 334.78 27.4667 334.78 28.096C334.78 28.7253 334.956 29.2213 335.308 29.584C335.67 29.9467 336.177 30.128 336.828 30.128C337.404 30.128 337.857 29.952 338.188 29.6C338.529 29.248 338.7 28.7733 338.7 28.176C338.7 27.5573 338.534 27.0667 338.204 26.704C337.884 26.3413 337.409 26.16 336.78 26.16Z" fill="#464E5F"/>
<path d="M342.63 23.408C342.683 22.3413 343.057 21.52 343.75 20.944C344.454 20.3573 345.377 20.064 346.518 20.064C347.297 20.064 347.963 20.2027 348.518 20.48C349.073 20.7467 349.489 21.1147 349.766 21.584C350.054 22.0427 350.198 22.5653 350.198 23.152C350.198 23.824 350.022 24.3947 349.67 24.864C349.329 25.3227 348.918 25.632 348.438 25.792V25.856C349.057 26.048 349.537 26.3893 349.878 26.88C350.23 27.3707 350.406 28 350.406 28.768C350.406 29.408 350.257 29.9787 349.958 30.48C349.67 30.9813 349.238 31.376 348.662 31.664C348.097 31.9413 347.414 32.08 346.614 32.08C345.409 32.08 344.427 31.776 343.67 31.168C342.913 30.56 342.513 29.664 342.47 28.48H344.646C344.667 29.0027 344.843 29.424 345.174 29.744C345.515 30.0533 345.979 30.208 346.566 30.208C347.11 30.208 347.526 30.0587 347.814 29.76C348.113 29.4507 348.262 29.056 348.262 28.576C348.262 27.936 348.059 27.4773 347.654 27.2C347.249 26.9227 346.619 26.784 345.766 26.784H345.302V24.944H345.766C347.281 24.944 348.038 24.4373 348.038 23.424C348.038 22.9653 347.899 22.608 347.622 22.352C347.355 22.096 346.966 21.968 346.454 21.968C345.953 21.968 345.563 22.1067 345.286 22.384C345.019 22.6507 344.865 22.992 344.822 23.408H342.63Z" fill="#464E5F"/>
<path d="M420.352 32L417.344 28.224V32H415.104V20.16H417.344V26.896L420.32 23.136H423.232L419.328 27.584L423.264 32H420.352Z" fill="#464E5F"/>
<path d="M426.688 24.512C426.976 24.0427 427.349 23.6747 427.808 23.408C428.277 23.1413 428.81 23.008 429.408 23.008V25.36H428.816C428.112 25.36 427.578 25.5253 427.216 25.856C426.864 26.1867 426.688 26.7627 426.688 27.584V32H424.448V23.136H426.688V24.512Z" fill="#464E5F"/>
<path d="M432.052 22.08C431.658 22.08 431.327 21.9573 431.06 21.712C430.804 21.456 430.677 21.1413 430.677 20.768C430.677 20.3947 430.804 20.0853 431.06 19.84C431.327 19.584 431.658 19.456 432.052 19.456C432.447 19.456 432.772 19.584 433.029 19.84C433.295 20.0853 433.428 20.3947 433.428 20.768C433.428 21.1413 433.295 21.456 433.029 21.712C432.772 21.9573 432.447 22.08 432.052 22.08ZM433.156 23.136V32H430.917V23.136H433.156Z" fill="#464E5F"/>
<path d="M438.762 32.144C438.036 32.144 437.386 32.016 436.81 31.76C436.234 31.4933 435.775 31.136 435.434 30.688C435.103 30.24 434.922 29.744 434.89 29.2H437.146C437.188 29.5413 437.354 29.824 437.642 30.048C437.94 30.272 438.308 30.384 438.746 30.384C439.172 30.384 439.503 30.2987 439.738 30.128C439.983 29.9573 440.106 29.7387 440.106 29.472C440.106 29.184 439.956 28.9707 439.658 28.832C439.37 28.6827 438.906 28.5227 438.266 28.352C437.604 28.192 437.06 28.0267 436.634 27.856C436.218 27.6853 435.855 27.424 435.546 27.072C435.247 26.72 435.098 26.2453 435.098 25.648C435.098 25.1573 435.236 24.7093 435.514 24.304C435.802 23.8987 436.207 23.5787 436.73 23.344C437.263 23.1093 437.887 22.992 438.602 22.992C439.658 22.992 440.5 23.2587 441.13 23.792C441.759 24.3147 442.106 25.024 442.17 25.92H440.026C439.994 25.568 439.844 25.2907 439.578 25.088C439.322 24.8747 438.975 24.768 438.538 24.768C438.132 24.768 437.818 24.8427 437.594 24.992C437.38 25.1413 437.274 25.3493 437.274 25.616C437.274 25.9147 437.423 26.144 437.722 26.304C438.02 26.4533 438.484 26.608 439.114 26.768C439.754 26.928 440.282 27.0933 440.698 27.264C441.114 27.4347 441.471 27.7013 441.77 28.064C442.079 28.416 442.239 28.8853 442.25 29.472C442.25 29.984 442.106 30.4427 441.818 30.848C441.54 31.2533 441.135 31.5733 440.602 31.808C440.079 32.032 439.466 32.144 438.762 32.144Z" fill="#464E5F"/>
<path d="M446.696 24.976V29.264C446.696 29.5627 446.766 29.7813 446.904 29.92C447.054 30.048 447.299 30.112 447.64 30.112H448.68V32H447.272C445.384 32 444.44 31.0827 444.44 29.248V24.976H443.384V23.136H444.44V20.944H446.696V23.136H448.68V24.976H446.696Z" fill="#464E5F"/>
<path d="M451.427 22.08C451.033 22.08 450.702 21.9573 450.435 21.712C450.179 21.456 450.052 21.1413 450.052 20.768C450.052 20.3947 450.179 20.0853 450.435 19.84C450.702 19.584 451.033 19.456 451.427 19.456C451.822 19.456 452.147 19.584 452.404 19.84C452.67 20.0853 452.803 20.3947 452.803 20.768C452.803 21.1413 452.67 21.456 452.404 21.712C452.147 21.9573 451.822 22.08 451.427 22.08ZM452.531 23.136V32H450.292V23.136H452.531Z" fill="#464E5F"/>
<path d="M459.657 23.008C460.713 23.008 461.566 23.344 462.217 24.016C462.867 24.6773 463.193 25.6053 463.193 26.8V32H460.953V27.104C460.953 26.4 460.777 25.8613 460.425 25.488C460.073 25.104 459.593 24.912 458.985 24.912C458.366 24.912 457.875 25.104 457.513 25.488C457.161 25.8613 456.985 26.4 456.985 27.104V32H454.745V23.136H456.985V24.24C457.283 23.856 457.662 23.5573 458.121 23.344C458.59 23.12 459.102 23.008 459.657 23.008Z" fill="#464E5F"/>
<path d="M477.611 23.136L475.019 32H472.603L470.987 25.808L469.371 32H466.939L464.331 23.136H466.603L468.171 29.888L469.867 23.136H472.235L473.899 29.872L475.467 23.136H477.611Z" fill="#464E5F"/>
<path d="M487.351 21.504C488.588 21.504 489.66 21.7333 490.567 22.192C491.473 22.6507 492.167 23.296 492.647 24.128C493.137 24.96 493.383 25.92 493.383 27.008C493.383 27.8827 493.228 28.7093 492.919 29.488C492.62 30.2667 492.183 30.896 491.607 31.376C491.031 31.856 490.348 32.096 489.559 32.096C489.004 32.096 488.556 31.984 488.215 31.76C487.873 31.5253 487.655 31.1947 487.559 30.768C487.249 31.184 486.849 31.5147 486.359 31.76C485.868 31.9947 485.351 32.112 484.807 32.112C483.996 32.112 483.361 31.872 482.903 31.392C482.444 30.9013 482.215 30.2347 482.215 29.392C482.215 28.592 482.38 27.8453 482.711 27.152C483.041 26.4587 483.5 25.904 484.087 25.488C484.673 25.0613 485.335 24.848 486.071 24.848C486.988 24.848 487.617 25.168 487.959 25.808L488.103 24.976H489.975L489.223 29.296C489.191 29.4987 489.175 29.6853 489.175 29.856C489.175 30.112 489.228 30.304 489.335 30.432C489.441 30.56 489.623 30.624 489.879 30.624C490.263 30.624 490.583 30.4427 490.839 30.08C491.105 29.7173 491.303 29.264 491.431 28.72C491.569 28.176 491.639 27.632 491.639 27.088C491.639 25.7973 491.244 24.8 490.455 24.096C489.665 23.3813 488.551 23.024 487.111 23.024C485.884 23.024 484.775 23.3227 483.783 23.92C482.791 24.5067 482.012 25.312 481.447 26.336C480.892 27.3493 480.615 28.48 480.615 29.728C480.615 31.0507 481.004 32.0693 481.783 32.784C482.572 33.4987 483.687 33.856 485.127 33.856C486.161 33.856 487.073 33.6693 487.863 33.296L488.183 34.768C487.169 35.1947 486.044 35.408 484.807 35.408C483.612 35.408 482.567 35.1787 481.671 34.72C480.775 34.272 480.081 33.632 479.591 32.8C479.1 31.968 478.855 31.0027 478.855 29.904C478.855 28.336 479.217 26.912 479.943 25.632C480.679 24.352 481.692 23.344 482.983 22.608C484.284 21.872 485.74 21.504 487.351 21.504ZM485.511 30.448C485.895 30.448 486.247 30.336 486.567 30.112C486.887 29.888 487.137 29.5893 487.319 29.216C487.511 28.8427 487.607 28.4427 487.607 28.016C487.607 27.568 487.484 27.2053 487.239 26.928C486.993 26.6507 486.652 26.512 486.215 26.512C485.82 26.512 485.473 26.6347 485.175 26.88C484.876 27.1147 484.641 27.424 484.471 27.808C484.311 28.192 484.231 28.5973 484.231 29.024C484.231 29.4613 484.337 29.808 484.551 30.064C484.764 30.32 485.084 30.448 485.511 30.448Z" fill="#464E5F"/>
<path d="M506.643 23.008C507.731 23.008 508.606 23.344 509.267 24.016C509.939 24.6773 510.275 25.6053 510.275 26.8V32H508.035V27.104C508.035 26.4107 507.859 25.8827 507.507 25.52C507.155 25.1467 506.675 24.96 506.067 24.96C505.459 24.96 504.974 25.1467 504.611 25.52C504.259 25.8827 504.083 26.4107 504.083 27.104V32H501.843V27.104C501.843 26.4107 501.667 25.8827 501.315 25.52C500.963 25.1467 500.483 24.96 499.875 24.96C499.257 24.96 498.766 25.1467 498.403 25.52C498.051 25.8827 497.875 26.4107 497.875 27.104V32H495.635V23.136H497.875V24.208C498.163 23.8347 498.531 23.5413 498.979 23.328C499.438 23.1147 499.939 23.008 500.483 23.008C501.177 23.008 501.795 23.1573 502.339 23.456C502.883 23.744 503.305 24.16 503.603 24.704C503.891 24.192 504.307 23.7813 504.851 23.472C505.406 23.1627 506.003 23.008 506.643 23.008Z" fill="#464E5F"/>
<path d="M511.825 27.536C511.825 26.64 512.001 25.8453 512.353 25.152C512.716 24.4587 513.201 23.9253 513.809 23.552C514.428 23.1787 515.116 22.992 515.873 22.992C516.534 22.992 517.11 23.1253 517.601 23.392C518.102 23.6587 518.502 23.9947 518.801 24.4V23.136H521.057V32H518.801V30.704C518.513 31.12 518.113 31.4667 517.601 31.744C517.1 32.0107 516.518 32.144 515.857 32.144C515.11 32.144 514.428 31.952 513.809 31.568C513.201 31.184 512.716 30.6453 512.353 29.952C512.001 29.248 511.825 28.4427 511.825 27.536ZM518.801 27.568C518.801 27.024 518.694 26.56 518.481 26.176C518.268 25.7813 517.98 25.4827 517.617 25.28C517.254 25.0667 516.865 24.96 516.449 24.96C516.033 24.96 515.649 25.0613 515.297 25.264C514.945 25.4667 514.657 25.7653 514.433 26.16C514.22 26.544 514.113 27.0027 514.113 27.536C514.113 28.0693 514.22 28.5387 514.433 28.944C514.657 29.3387 514.945 29.6427 515.297 29.856C515.66 30.0693 516.044 30.176 516.449 30.176C516.865 30.176 517.254 30.0747 517.617 29.872C517.98 29.6587 518.268 29.36 518.481 28.976C518.694 28.5813 518.801 28.112 518.801 27.568Z" fill="#464E5F"/>
<path d="M524.381 22.08C523.986 22.08 523.655 21.9573 523.389 21.712C523.133 21.456 523.005 21.1413 523.005 20.768C523.005 20.3947 523.133 20.0853 523.389 19.84C523.655 19.584 523.986 19.456 524.381 19.456C524.775 19.456 525.101 19.584 525.357 19.84C525.623 20.0853 525.757 20.3947 525.757 20.768C525.757 21.1413 525.623 21.456 525.357 21.712C525.101 21.9573 524.775 22.08 524.381 22.08ZM525.485 23.136V32H523.245V23.136H525.485Z" fill="#464E5F"/>
<path d="M529.938 20.16V32H527.698V20.16H529.938Z" fill="#464E5F"/>
<path d="M533.143 32.112C532.738 32.112 532.402 31.9893 532.135 31.744C531.879 31.488 531.751 31.1733 531.751 30.8C531.751 30.4267 531.879 30.1173 532.135 29.872C532.402 29.616 532.738 29.488 533.143 29.488C533.538 29.488 533.863 29.616 534.119 29.872C534.375 30.1173 534.503 30.4267 534.503 30.8C534.503 31.1733 534.375 31.488 534.119 31.744C533.863 31.9893 533.538 32.112 533.143 32.112Z" fill="#464E5F"/>
<path d="M535.731 27.568C535.731 26.6507 535.918 25.8507 536.291 25.168C536.664 24.4747 537.182 23.9413 537.843 23.568C538.504 23.184 539.262 22.992 540.115 22.992C541.214 22.992 542.12 23.2693 542.835 23.824C543.56 24.368 544.046 25.136 544.291 26.128H541.875C541.747 25.744 541.528 25.4453 541.219 25.232C540.92 25.008 540.547 24.896 540.099 24.896C539.459 24.896 538.952 25.1307 538.579 25.6C538.206 26.0587 538.019 26.7147 538.019 27.568C538.019 28.4107 538.206 29.0667 538.579 29.536C538.952 29.9947 539.459 30.224 540.099 30.224C541.006 30.224 541.598 29.8187 541.875 29.008H544.291C544.046 29.968 543.56 30.7307 542.835 31.296C542.11 31.8613 541.203 32.144 540.115 32.144C539.262 32.144 538.504 31.9573 537.843 31.584C537.182 31.2 536.664 30.6667 536.291 29.984C535.918 29.2907 535.731 28.4853 535.731 27.568Z" fill="#464E5F"/>
<path d="M549.868 32.144C549.015 32.144 548.247 31.9573 547.564 31.584C546.881 31.2 546.343 30.6613 545.948 29.968C545.564 29.2747 545.372 28.4747 545.372 27.568C545.372 26.6613 545.569 25.8613 545.964 25.168C546.369 24.4747 546.919 23.9413 547.612 23.568C548.305 23.184 549.079 22.992 549.932 22.992C550.785 22.992 551.559 23.184 552.252 23.568C552.945 23.9413 553.49 24.4747 553.884 25.168C554.289 25.8613 554.492 26.6613 554.492 27.568C554.492 28.4747 554.284 29.2747 553.868 29.968C553.463 30.6613 552.908 31.2 552.204 31.584C551.511 31.9573 550.732 32.144 549.868 32.144ZM549.868 30.192C550.273 30.192 550.652 30.096 551.004 29.904C551.367 29.7013 551.655 29.4027 551.868 29.008C552.081 28.6133 552.188 28.1333 552.188 27.568C552.188 26.7253 551.964 26.08 551.516 25.632C551.079 25.1733 550.54 24.944 549.9 24.944C549.26 24.944 548.721 25.1733 548.284 25.632C547.857 26.08 547.644 26.7253 547.644 27.568C547.644 28.4107 547.852 29.0613 548.268 29.52C548.695 29.968 549.228 30.192 549.868 30.192Z" fill="#464E5F"/>
<path d="M567.143 23.008C568.231 23.008 569.106 23.344 569.767 24.016C570.439 24.6773 570.775 25.6053 570.775 26.8V32H568.535V27.104C568.535 26.4107 568.359 25.8827 568.007 25.52C567.655 25.1467 567.175 24.96 566.567 24.96C565.959 24.96 565.474 25.1467 565.111 25.52C564.759 25.8827 564.583 26.4107 564.583 27.104V32H562.343V27.104C562.343 26.4107 562.167 25.8827 561.815 25.52C561.463 25.1467 560.983 24.96 560.375 24.96C559.757 24.96 559.266 25.1467 558.903 25.52C558.551 25.8827 558.375 26.4107 558.375 27.104V32H556.135V23.136H558.375V24.208C558.663 23.8347 559.031 23.5413 559.479 23.328C559.938 23.1147 560.439 23.008 560.983 23.008C561.677 23.008 562.295 23.1573 562.839 23.456C563.383 23.744 563.805 24.16 564.103 24.704C564.391 24.192 564.807 23.7813 565.351 23.472C565.906 23.1627 566.503 23.008 567.143 23.008Z" fill="#464E5F"/>
<path d="M640.976 35.152C639.941 34.1493 639.136 32.8693 638.56 31.312C637.995 29.7547 637.712 28.0853 637.712 26.304C637.712 24.48 638.011 22.768 638.608 21.168C639.205 19.5573 640.075 18.24 641.216 17.216H643.472V17.424C642.299 18.544 641.403 19.888 640.784 21.456C640.176 23.024 639.872 24.64 639.872 26.304C639.872 27.9253 640.16 29.4933 640.736 31.008C641.323 32.512 642.155 33.8187 643.232 34.928V35.152H640.976Z" fill="#464E5F"/>
<path d="M645.318 29.472C646.342 28.6187 647.158 27.9093 647.766 27.344C648.374 26.768 648.88 26.1707 649.286 25.552C649.691 24.9333 649.894 24.3253 649.894 23.728C649.894 23.184 649.766 22.7573 649.51 22.448C649.254 22.1387 648.859 21.984 648.326 21.984C647.792 21.984 647.382 22.1653 647.094 22.528C646.806 22.88 646.656 23.3653 646.646 23.984H644.47C644.512 22.704 644.891 21.7333 645.606 21.072C646.331 20.4107 647.248 20.08 648.358 20.08C649.574 20.08 650.507 20.4053 651.158 21.056C651.808 21.696 652.134 22.544 652.134 23.6C652.134 24.432 651.91 25.2267 651.462 25.984C651.014 26.7413 650.502 27.4027 649.926 27.968C649.35 28.5227 648.598 29.1947 647.67 29.984H652.39V31.84H644.486V30.176L645.318 29.472Z" fill="#464E5F"/>
<path d="M653.529 22.4V20.336H657.385V32H655.081V22.4H653.529Z" fill="#464E5F"/>
<path d="M662.19 28.72C662.275 29.1893 662.467 29.552 662.766 29.808C663.075 30.0533 663.486 30.176 663.998 30.176C664.659 30.176 665.139 29.904 665.438 29.36C665.737 28.8053 665.886 27.8773 665.886 26.576C665.641 26.9173 665.294 27.184 664.846 27.376C664.409 27.568 663.934 27.664 663.422 27.664C662.739 27.664 662.121 27.5253 661.566 27.248C661.022 26.96 660.59 26.5387 660.27 25.984C659.95 25.4187 659.79 24.736 659.79 23.936C659.79 22.752 660.142 21.8133 660.846 21.12C661.55 20.416 662.51 20.064 663.726 20.064C665.241 20.064 666.307 20.5493 666.926 21.52C667.555 22.4907 667.87 23.952 667.87 25.904C667.87 27.2907 667.747 28.4267 667.502 29.312C667.267 30.1973 666.857 30.8693 666.27 31.328C665.694 31.7867 664.905 32.016 663.902 32.016C663.113 32.016 662.441 31.8667 661.886 31.568C661.331 31.2587 660.905 30.8587 660.606 30.368C660.318 29.8667 660.153 29.3173 660.11 28.72H662.19ZM663.886 25.84C664.441 25.84 664.878 25.6693 665.198 25.328C665.518 24.9867 665.678 24.528 665.678 23.952C665.678 23.3227 665.507 22.8373 665.166 22.496C664.835 22.144 664.382 21.968 663.806 21.968C663.23 21.968 662.771 22.1493 662.43 22.512C662.099 22.864 661.934 23.3333 661.934 23.92C661.934 24.4853 662.094 24.9493 662.414 25.312C662.745 25.664 663.235 25.84 663.886 25.84Z" fill="#464E5F"/>
<path d="M669.294 35.152V34.928C670.371 33.8187 671.198 32.512 671.774 31.008C672.36 29.4933 672.654 27.9253 672.654 26.304C672.654 24.64 672.344 23.024 671.726 21.456C671.118 19.888 670.227 18.544 669.054 17.424V17.216H671.31C672.451 18.24 673.32 19.5573 673.918 21.168C674.515 22.768 674.814 24.48 674.814 26.304C674.814 28.0853 674.526 29.7547 673.95 31.312C673.384 32.8693 672.584 34.1493 671.55 35.152H669.294Z" fill="#464E5F"/>
<path d="M689.032 22.272H683.848V25.008C684.072 24.7307 684.392 24.5067 684.808 24.336C685.224 24.1547 685.666 24.064 686.136 24.064C686.989 24.064 687.688 24.2507 688.232 24.624C688.776 24.9973 689.17 25.4773 689.416 26.064C689.661 26.64 689.784 27.2587 689.784 27.92C689.784 29.1467 689.432 30.1333 688.728 30.88C688.034 31.6267 687.042 32 685.752 32C684.536 32 683.565 31.696 682.84 31.088C682.114 30.48 681.704 29.6853 681.608 28.704H683.784C683.88 29.1307 684.093 29.472 684.424 29.728C684.765 29.984 685.197 30.112 685.72 30.112C686.349 30.112 686.824 29.9147 687.144 29.52C687.464 29.1253 687.624 28.6027 687.624 27.952C687.624 27.2907 687.458 26.7893 687.128 26.448C686.808 26.096 686.333 25.92 685.704 25.92C685.256 25.92 684.882 26.032 684.584 26.256C684.285 26.48 684.072 26.7787 683.944 27.152H681.8V20.304H689.032V22.272Z" fill="#464E5F"/>
<path d="M699.329 22.272H694.145V25.008C694.369 24.7307 694.689 24.5067 695.105 24.336C695.521 24.1547 695.963 24.064 696.433 24.064C697.286 24.064 697.985 24.2507 698.529 24.624C699.073 24.9973 699.467 25.4773 699.713 26.064C699.958 26.64 700.081 27.2587 700.081 27.92C700.081 29.1467 699.729 30.1333 699.025 30.88C698.331 31.6267 697.339 32 696.049 32C694.833 32 693.862 31.696 693.137 31.088C692.411 30.48 692.001 29.6853 691.905 28.704H694.081C694.177 29.1307 694.39 29.472 694.721 29.728C695.062 29.984 695.494 30.112 696.017 30.112C696.646 30.112 697.121 29.9147 697.441 29.52C697.761 29.1253 697.921 28.6027 697.921 27.952C697.921 27.2907 697.755 26.7893 697.425 26.448C697.105 26.096 696.63 25.92 696.001 25.92C695.553 25.92 695.179 26.032 694.881 26.256C694.582 26.48 694.369 26.7787 694.241 27.152H692.097V20.304H699.329V22.272Z" fill="#464E5F"/>
<path d="M709.625 22.272H704.442V25.008C704.666 24.7307 704.985 24.5067 705.401 24.336C705.818 24.1547 706.26 24.064 706.729 24.064C707.583 24.064 708.281 24.2507 708.826 24.624C709.37 24.9973 709.764 25.4773 710.01 26.064C710.255 26.64 710.378 27.2587 710.378 27.92C710.378 29.1467 710.025 30.1333 709.321 30.88C708.628 31.6267 707.636 32 706.346 32C705.13 32 704.159 31.696 703.433 31.088C702.708 30.48 702.297 29.6853 702.201 28.704H704.378C704.474 29.1307 704.687 29.472 705.018 29.728C705.359 29.984 705.791 30.112 706.313 30.112C706.943 30.112 707.417 29.9147 707.737 29.52C708.057 29.1253 708.218 28.6027 708.218 27.952C708.218 27.2907 708.052 26.7893 707.721 26.448C707.401 26.096 706.927 25.92 706.297 25.92C705.849 25.92 705.476 26.032 705.177 26.256C704.879 26.48 704.665 26.7787 704.537 27.152H702.393V20.304H709.625V22.272Z" fill="#464E5F"/>
<path d="M719.154 25.344V27.232H712.37V25.344H719.154Z" fill="#464E5F"/>
<path d="M721.411 26.016C721.411 24.1707 721.741 22.7253 722.403 21.68C723.075 20.6347 724.184 20.112 725.731 20.112C727.277 20.112 728.381 20.6347 729.042 21.68C729.714 22.7253 730.05 24.1707 730.05 26.016C730.05 27.872 729.714 29.328 729.042 30.384C728.381 31.44 727.277 31.968 725.731 31.968C724.184 31.968 723.075 31.44 722.403 30.384C721.741 29.328 721.411 27.872 721.411 26.016ZM727.843 26.016C727.843 25.2267 727.789 24.5653 727.682 24.032C727.586 23.488 727.384 23.0453 727.075 22.704C726.776 22.3627 726.328 22.192 725.731 22.192C725.133 22.192 724.68 22.3627 724.37 22.704C724.072 23.0453 723.869 23.488 723.763 24.032C723.667 24.5653 723.619 25.2267 723.619 26.016C723.619 26.8267 723.667 27.5093 723.763 28.064C723.859 28.608 724.061 29.0507 724.37 29.392C724.68 29.7227 725.133 29.888 725.731 29.888C726.328 29.888 726.781 29.7227 727.091 29.392C727.4 29.0507 727.602 28.608 727.698 28.064C727.794 27.5093 727.843 26.8267 727.843 26.016Z" fill="#464E5F"/>
<path d="M731.482 22.4V20.336H735.338V32H733.034V22.4H731.482Z" fill="#464E5F"/>
<path d="M737.279 22.4V20.336H741.135V32H738.831V22.4H737.279Z" fill="#464E5F"/>
<path d="M743.252 29.728V27.968L748.484 20.48H751.092V27.776H752.5V29.728H751.092V32H748.852V29.728H743.252ZM748.996 22.88L745.716 27.776H748.996V22.88Z" fill="#464E5F"/>
<path d="M0 6C0 2.68629 2.68629 0 6 0H44C47.3137 0 50 2.68629 50 6V44C50 47.3137 47.3137 50 44 50H6C2.68629 50 0 47.3137 0 44V6Z" fill="#F3F6F9"/>
<path d="M41.5518 23.7931C41.5518 23.7931 38.7069 24.1379 37.4138 19.6552C35.6297 13.47 31.6655 10 25 10C18.3346 10 14.3704 13.47 12.5862 19.6552C11.2931 24.1379 8.4483 23.7931 8.4483 23.7931C8.4483 23.7931 6.89658 27.2414 10.5173 29.3103H9.13796C9.13796 29.3103 9.97641 33.4977 14.1986 34.0669C14.7352 35.2794 16.4139 36.8966 21.5518 36.8966H28.4483C33.5862 36.8966 35.2649 35.2793 35.8015 34.0669C40.0237 33.4977 40.8621 29.3103 40.8621 29.3103H39.4828C43.1035 27.2414 41.5518 23.7931 41.5518 23.7931Z" fill="#9D6E48"/>
<path d="M31.8966 23.7931C23.3621 19.4828 23.8793 11.8966 25 10C18.3346 10 14.3704 13.47 12.5862 19.6552C11.2931 24.1379 8.4483 23.7931 8.4483 23.7931C8.4483 23.7931 6.89658 27.2414 10.5173 29.3103H9.13796C9.13796 29.3103 9.97641 33.4977 14.1986 34.0669C14.7352 35.2794 16.4139 36.8966 21.5518 36.8966L31.8966 23.7931Z" fill="#8D5F3D"/>
<path d="M37.7911 47.6577L36.999 41.7173C36.8299 40.4491 35.9725 39.3787 34.7717 38.9369L30.081 37.211C29.5178 37.0233 29.1379 36.4962 29.1379 35.9025V33.6782L32.1087 32.4403C33.6508 31.7978 34.6552 30.2912 34.6552 28.6207V27.931C35.7978 27.931 36.7241 27.0047 36.7241 25.8621C36.7241 24.7194 35.7978 23.7931 34.6552 23.7931V22.4138C34.6552 20.5093 33.1113 18.9655 31.2069 18.9655H18.7931C16.8886 18.9655 15.3448 20.5094 15.3448 22.4138V23.7931C14.2021 23.7931 13.2758 24.7194 13.2758 25.8621C13.2758 27.0047 14.2021 27.931 15.3448 27.931V28.6207C15.3448 30.2912 16.3492 31.7978 17.8912 32.4403L20.8621 33.6782V35.9024C20.8621 36.4961 20.4821 37.0232 19.919 37.2109L15.2283 38.9368C14.0275 39.3786 13.1701 40.449 13.0009 41.7172L12.2089 47.6576C12.0435 48.8979 13.0083 50 14.2596 50H35.7403C36.9916 50 37.9565 48.8979 37.7911 47.6577Z" fill="#F6B47B"/>
<path d="M20.8621 33.7069L20.8621 35.9024C20.8621 36.3932 20.6021 36.8379 20.1939 37.0835C25.6898 38.0331 28.8312 34.0834 29.1166 33.7068L20.8621 33.7069Z" fill="#E2A071"/>
<path d="M34.6552 23.7931V22.4138C34.6552 20.5093 33.1113 18.9655 31.2069 18.9655H18.7931C16.8886 18.9655 15.3448 20.5094 15.3448 22.4138V23.7931C14.2021 23.7931 13.2758 24.7194 13.2758 25.8621C13.2758 27.0047 14.2021 27.931 15.3448 27.931V28.6207C15.3448 30.2912 16.3492 31.7978 17.8912 32.4403L22.3473 34.2971C23.1878 34.6473 24.0894 34.8276 24.9999 34.8276C25.9104 34.8276 26.8119 34.6473 27.6524 34.2971L32.1087 32.4403C33.6508 31.7978 34.6552 30.2912 34.6552 28.6207V27.931C35.7978 27.931 36.7241 27.0047 36.7241 25.8621C36.7241 24.7194 35.7978 23.7931 34.6552 23.7931Z" fill="#FDC88E"/>
<path d="M20.1724 26.5517C19.7931 26.5517 19.4828 26.2414 19.4828 25.8621V25.1724C19.4828 24.7931 19.7931 24.4828 20.1724 24.4828C20.5517 24.4828 20.8621 24.7931 20.8621 25.1724V25.8621C20.8621 26.2414 20.5517 26.5517 20.1724 26.5517Z" fill="#623F33"/>
<path d="M25 31.3981C23.7739 31.3981 22.627 31.0964 21.8535 30.5701C21.5386 30.356 21.4567 29.9269 21.6713 29.6121C21.8851 29.2976 22.3145 29.2157 22.6293 29.4299C23.1715 29.7986 24.0578 30.0189 25 30.0189C25.9423 30.0189 26.8285 29.7986 27.3707 29.4299C27.6862 29.2151 28.1146 29.2973 28.3287 29.6121C28.5432 29.9269 28.4614 30.356 28.1466 30.5701C27.3731 31.0964 26.2261 31.3981 25 31.3981Z" fill="#E2A071"/>
<path d="M32.917 38.1604L30.4353 42.1309C30.0572 42.7358 29.3942 43.1033 28.6808 43.1033H21.3191C20.6058 43.1033 19.9427 42.7358 19.5646 42.1309L17.0831 38.1604C16.8838 37.8415 16.4658 37.7411 16.1434 37.9345L13.8781 39.2937C13.5473 39.4922 13.4436 39.9235 13.6481 40.2506L16.7241 45.1723H33.2758L36.3519 40.2505C36.5564 39.9234 36.4527 39.4922 36.1219 39.2937L33.8565 37.9344C33.5342 37.7411 33.1162 37.8416 32.917 38.1604Z" fill="#F23F44"/>
<path d="M33.2758 45.1723H16.7241L16.7241 50H33.2759L33.2758 45.1723Z" fill="#FF4F4F"/>
<path d="M18.9652 31.0106C18.4064 30.4115 18.1035 29.6209 18.1035 28.8016V21.4859C20.4995 23.165 23.8139 24.4781 30.0001 24.8276L29.3966 22.7586C29.3966 22.7586 25.1071 20.3471 23.0172 18.9655H18.7931C18.5567 18.9655 18.3264 18.9903 18.1034 19.0357C18.0503 19.0465 17.9978 19.058 17.9457 19.0712C17.9409 19.0724 17.9359 19.0733 17.931 19.0745C17.9298 19.0748 17.9288 19.0758 17.9275 19.0761C16.4422 19.4603 15.3448 20.8084 15.3448 22.4138V23.7931C14.2021 23.7931 13.2758 24.7194 13.2758 25.8621C13.2758 27.0047 14.2021 27.931 15.3448 27.931V28.6207C15.3448 30.2912 16.3492 31.7978 17.8912 32.4403L22.3473 34.2971C22.5654 34.3879 22.7879 34.4662 23.0134 34.5341C21.0441 33.0934 19.7332 31.8341 18.9652 31.0106Z" fill="#F6B47B"/>
<path d="M29.8276 26.5517C29.4483 26.5517 29.1379 26.2414 29.1379 25.8621V25.1724C29.1379 24.7931 29.4483 24.4828 29.8276 24.4828C30.2069 24.4828 30.5172 24.7931 30.5172 25.1724V25.8621C30.5172 26.2414 30.2069 26.5517 29.8276 26.5517Z" fill="#623F33"/>
<path d="M31.8966 23.7931L31.2069 22.4138C31.2069 22.4138 33.3891 23.7905 34.7414 23.7905V18.6207H18.4615C21.0674 21.1156 24.3162 23.7931 31.8966 23.7931Z" fill="#9D6E48"/>
<path d="M31.8966 23.7931C28.9989 22.3297 27.1456 20.4885 26.0041 18.6207H18.4615C21.0674 21.1156 24.3162 23.7931 31.8966 23.7931Z" fill="#8D5F3D"/>
<path d="M72.408 21L68.344 16.024V21H66.104V9.832H68.344V14.84L72.408 9.832H75.112L70.504 15.368L75.24 21H72.408Z" fill="#464E5F"/>
<path d="M78.9534 13.512C79.2414 13.0427 79.6147 12.6747 80.0734 12.408C80.5427 12.1413 81.076 12.008 81.6734 12.008V14.36H81.0814C80.3774 14.36 79.844 14.5253 79.4814 14.856C79.1294 15.1867 78.9534 15.7627 78.9534 16.584V21H76.7134V12.136H78.9534V13.512Z" fill="#464E5F"/>
<path d="M84.3181 11.08C83.9235 11.08 83.5928 10.9573 83.3261 10.712C83.0701 10.456 82.9421 10.1413 82.9421 9.768C82.9421 9.39467 83.0701 9.08533 83.3261 8.84C83.5928 8.584 83.9235 8.456 84.3181 8.456C84.7128 8.456 85.0381 8.584 85.2941 8.84C85.5608 9.08533 85.6941 9.39467 85.6941 9.768C85.6941 10.1413 85.5608 10.456 85.2941 10.712C85.0381 10.9573 84.7128 11.08 84.3181 11.08ZM85.4221 12.136V21H83.1821V12.136H85.4221Z" fill="#464E5F"/>
<path d="M91.0273 21.144C90.3019 21.144 89.6512 21.016 89.0752 20.76C88.4993 20.4933 88.0406 20.136 87.6992 19.688C87.3686 19.24 87.1872 18.744 87.1553 18.2H89.4112C89.4539 18.5413 89.6192 18.824 89.9072 19.048C90.2059 19.272 90.5739 19.384 91.0113 19.384C91.4379 19.384 91.7686 19.2987 92.0033 19.128C92.2486 18.9573 92.3712 18.7387 92.3712 18.472C92.3712 18.184 92.2219 17.9707 91.9232 17.832C91.6352 17.6827 91.1712 17.5227 90.5312 17.352C89.8699 17.192 89.3259 17.0267 88.8992 16.856C88.4832 16.6853 88.1206 16.424 87.8112 16.072C87.5126 15.72 87.3633 15.2453 87.3633 14.648C87.3633 14.1573 87.5019 13.7093 87.7793 13.304C88.0673 12.8987 88.4726 12.5787 88.9952 12.344C89.5286 12.1093 90.1526 11.992 90.8672 11.992C91.9232 11.992 92.7659 12.2587 93.3952 12.792C94.0246 13.3147 94.3712 14.024 94.4352 14.92H92.2913C92.2593 14.568 92.1099 14.2907 91.8432 14.088C91.5872 13.8747 91.2406 13.768 90.8033 13.768C90.3979 13.768 90.0833 13.8427 89.8593 13.992C89.6459 14.1413 89.5393 14.3493 89.5393 14.616C89.5393 14.9147 89.6886 15.144 89.9873 15.304C90.2859 15.4533 90.7499 15.608 91.3792 15.768C92.0192 15.928 92.5472 16.0933 92.9632 16.264C93.3792 16.4347 93.7366 16.7013 94.0352 17.064C94.3446 17.416 94.5046 17.8853 94.5153 18.472C94.5153 18.984 94.3713 19.4427 94.0833 19.848C93.8059 20.2533 93.4006 20.5733 92.8672 20.808C92.3446 21.032 91.7313 21.144 91.0273 21.144Z" fill="#464E5F"/>
<path d="M98.962 13.976V18.264C98.962 18.5627 99.0313 18.7813 99.17 18.92C99.3193 19.048 99.5647 19.112 99.906 19.112H100.946V21H99.538C97.65 21 96.706 20.0827 96.706 18.248V13.976H95.65V12.136H96.706V9.944H98.962V12.136H100.946V13.976H98.962Z" fill="#464E5F"/>
<path d="M103.693 11.08C103.298 11.08 102.968 10.9573 102.701 10.712C102.445 10.456 102.317 10.1413 102.317 9.768C102.317 9.39467 102.445 9.08533 102.701 8.84C102.968 8.584 103.298 8.456 103.693 8.456C104.088 8.456 104.413 8.584 104.669 8.84C104.936 9.08533 105.069 9.39467 105.069 9.768C105.069 10.1413 104.936 10.456 104.669 10.712C104.413 10.9573 104.088 11.08 103.693 11.08ZM104.797 12.136V21H102.557V12.136H104.797Z" fill="#464E5F"/>
<path d="M111.922 12.008C112.978 12.008 113.832 12.344 114.482 13.016C115.133 13.6773 115.458 14.6053 115.458 15.8V21H113.218V16.104C113.218 15.4 113.042 14.8613 112.69 14.488C112.338 14.104 111.858 13.912 111.25 13.912C110.632 13.912 110.141 14.104 109.778 14.488C109.426 14.8613 109.25 15.4 109.25 16.104V21H107.01V12.136H109.25V13.24C109.549 12.856 109.928 12.5573 110.386 12.344C110.856 12.12 111.368 12.008 111.922 12.008Z" fill="#464E5F"/>
<path d="M136.329 9.832L133.209 21H130.569L128.473 13.048L126.281 21L123.657 21.016L120.649 9.832H123.049L125.017 18.504L127.289 9.832H129.785L131.929 18.456L133.913 9.832H136.329Z" fill="#464E5F"/>
<path d="M137.215 16.536C137.215 15.64 137.391 14.8453 137.743 14.152C138.106 13.4587 138.591 12.9253 139.199 12.552C139.818 12.1787 140.506 11.992 141.264 11.992C141.925 11.992 142.501 12.1253 142.992 12.392C143.493 12.6587 143.893 12.9947 144.191 13.4V12.136H146.447V21H144.191V19.704C143.904 20.12 143.503 20.4667 142.992 20.744C142.49 21.0107 141.909 21.144 141.247 21.144C140.501 21.144 139.818 20.952 139.199 20.568C138.591 20.184 138.106 19.6453 137.743 18.952C137.391 18.248 137.215 17.4427 137.215 16.536ZM144.191 16.568C144.191 16.024 144.085 15.56 143.872 15.176C143.658 14.7813 143.37 14.4827 143.008 14.28C142.645 14.0667 142.256 13.96 141.84 13.96C141.424 13.96 141.04 14.0613 140.688 14.264C140.335 14.4667 140.048 14.7653 139.824 15.16C139.61 15.544 139.503 16.0027 139.503 16.536C139.503 17.0693 139.61 17.5387 139.824 17.944C140.048 18.3387 140.335 18.6427 140.688 18.856C141.05 19.0693 141.434 19.176 141.84 19.176C142.256 19.176 142.645 19.0747 143.008 18.872C143.37 18.6587 143.658 18.36 143.872 17.976C144.085 17.5813 144.191 17.112 144.191 16.568Z" fill="#464E5F"/>
<path d="M151.243 13.976V18.264C151.243 18.5627 151.313 18.7813 151.451 18.92C151.601 19.048 151.846 19.112 152.187 19.112H153.227V21H151.819C149.931 21 148.987 20.0827 148.987 18.248V13.976H147.931V12.136H148.987V9.944H151.243V12.136H153.227V13.976H151.243Z" fill="#464E5F"/>
<path d="M158.23 21.144C157.505 21.144 156.854 21.016 156.278 20.76C155.702 20.4933 155.244 20.136 154.902 19.688C154.572 19.24 154.39 18.744 154.358 18.2H156.614C156.657 18.5413 156.822 18.824 157.11 19.048C157.409 19.272 157.777 19.384 158.214 19.384C158.641 19.384 158.972 19.2987 159.206 19.128C159.452 18.9573 159.574 18.7387 159.574 18.472C159.574 18.184 159.425 17.9707 159.126 17.832C158.838 17.6827 158.374 17.5227 157.734 17.352C157.073 17.192 156.529 17.0267 156.102 16.856C155.686 16.6853 155.324 16.424 155.014 16.072C154.716 15.72 154.566 15.2453 154.566 14.648C154.566 14.1573 154.705 13.7093 154.982 13.304C155.27 12.8987 155.676 12.5787 156.198 12.344C156.732 12.1093 157.356 11.992 158.07 11.992C159.126 11.992 159.969 12.2587 160.598 12.792C161.228 13.3147 161.574 14.024 161.638 14.92H159.494C159.462 14.568 159.313 14.2907 159.046 14.088C158.79 13.8747 158.444 13.768 158.006 13.768C157.601 13.768 157.286 13.8427 157.062 13.992C156.849 14.1413 156.742 14.3493 156.742 14.616C156.742 14.9147 156.892 15.144 157.19 15.304C157.489 15.4533 157.953 15.608 158.582 15.768C159.222 15.928 159.75 16.0933 160.166 16.264C160.582 16.4347 160.94 16.7013 161.238 17.064C161.548 17.416 161.708 17.8853 161.718 18.472C161.718 18.984 161.574 19.4427 161.286 19.848C161.009 20.2533 160.604 20.5733 160.07 20.808C159.548 21.032 158.934 21.144 158.23 21.144Z" fill="#464E5F"/>
<path d="M167.493 21.144C166.64 21.144 165.872 20.9573 165.189 20.584C164.506 20.2 163.968 19.6613 163.573 18.968C163.189 18.2747 162.997 17.4747 162.997 16.568C162.997 15.6613 163.194 14.8613 163.589 14.168C163.994 13.4747 164.544 12.9413 165.237 12.568C165.93 12.184 166.704 11.992 167.557 11.992C168.41 11.992 169.184 12.184 169.877 12.568C170.57 12.9413 171.114 13.4747 171.509 14.168C171.914 14.8613 172.117 15.6613 172.117 16.568C172.117 17.4747 171.909 18.2747 171.493 18.968C171.088 19.6613 170.533 20.2 169.829 20.584C169.136 20.9573 168.357 21.144 167.493 21.144ZM167.493 19.192C167.898 19.192 168.277 19.096 168.629 18.904C168.992 18.7013 169.28 18.4027 169.493 18.008C169.706 17.6133 169.813 17.1333 169.813 16.568C169.813 15.7253 169.589 15.08 169.141 14.632C168.704 14.1733 168.165 13.944 167.525 13.944C166.885 13.944 166.346 14.1733 165.909 14.632C165.482 15.08 165.269 15.7253 165.269 16.568C165.269 17.4107 165.477 18.0613 165.893 18.52C166.32 18.968 166.853 19.192 167.493 19.192Z" fill="#464E5F"/>
<path d="M178.672 12.008C179.728 12.008 180.582 12.344 181.232 13.016C181.883 13.6773 182.208 14.6053 182.208 15.8V21H179.968V16.104C179.968 15.4 179.792 14.8613 179.44 14.488C179.088 14.104 178.608 13.912 178 13.912C177.382 13.912 176.891 14.104 176.528 14.488C176.176 14.8613 176 15.4 176 16.104V21H173.76V12.136H176V13.24C176.299 12.856 176.678 12.5573 177.136 12.344C177.606 12.12 178.118 12.008 178.672 12.008Z" fill="#464E5F"/>
<path d="M67.457 32.965V42H65.975V32.965H67.457Z" fill="#B5B5C3"/>
<path d="M73.0167 34.72C73.5801 34.72 74.0827 34.837 74.5247 35.071C74.9754 35.305 75.3264 35.6517 75.5777 36.111C75.8291 36.5703 75.9547 37.125 75.9547 37.775V42H74.4857V37.996C74.4857 37.3547 74.3254 36.865 74.0047 36.527C73.6841 36.1803 73.2464 36.007 72.6917 36.007C72.1371 36.007 71.6951 36.1803 71.3657 36.527C71.0451 36.865 70.8847 37.3547 70.8847 37.996V42H69.4027V34.837H70.8847V35.656C71.1274 35.3613 71.4351 35.1317 71.8077 34.967C72.1891 34.8023 72.5921 34.72 73.0167 34.72Z" fill="#B5B5C3"/>
<path d="M80.8481 36.046H79.5221V42H78.0271V36.046H77.1821V34.837H78.0271V34.33C78.0271 33.5067 78.2438 32.9087 78.6771 32.536C79.1191 32.1547 79.8081 31.964 80.7441 31.964V33.199C80.2934 33.199 79.9771 33.2857 79.7951 33.459C79.6131 33.6237 79.5221 33.914 79.5221 34.33V34.837H80.8481V36.046Z" fill="#B5B5C3"/>
<path d="M88.7265 38.243C88.7265 38.5117 88.7092 38.7543 88.6745 38.971H83.2015C83.2449 39.543 83.4572 40.0023 83.8385 40.349C84.2199 40.6957 84.6879 40.869 85.2425 40.869C86.0399 40.869 86.6032 40.5353 86.9325 39.868H88.5315C88.3149 40.5267 87.9205 41.0683 87.3485 41.493C86.7852 41.909 86.0832 42.117 85.2425 42.117C84.5579 42.117 83.9425 41.9653 83.3965 41.662C82.8592 41.35 82.4345 40.9167 82.1225 40.362C81.8192 39.7987 81.6675 39.1487 81.6675 38.412C81.6675 37.6753 81.8148 37.0297 82.1095 36.475C82.4129 35.9117 82.8332 35.4783 83.3705 35.175C83.9165 34.8717 84.5405 34.72 85.2425 34.72C85.9185 34.72 86.5209 34.8673 87.0495 35.162C87.5782 35.4567 87.9899 35.8727 88.2845 36.41C88.5792 36.9387 88.7265 37.5497 88.7265 38.243ZM87.1795 37.775C87.1709 37.229 86.9759 36.7913 86.5945 36.462C86.2132 36.1327 85.7409 35.968 85.1775 35.968C84.6662 35.968 84.2285 36.1327 83.8645 36.462C83.5005 36.7827 83.2839 37.2203 83.2145 37.775H87.1795Z" fill="#B5B5C3"/>
<path d="M89.691 38.412C89.691 37.6753 89.8383 37.0297 90.133 36.475C90.4363 35.9117 90.8523 35.4783 91.381 35.175C91.9096 34.8717 92.5163 34.72 93.201 34.72C94.0676 34.72 94.7826 34.928 95.346 35.344C95.918 35.7513 96.3036 36.3363 96.503 37.099H94.904C94.774 36.7437 94.566 36.4663 94.28 36.267C93.994 36.0677 93.6343 35.968 93.201 35.968C92.5943 35.968 92.109 36.1847 91.745 36.618C91.3896 37.0427 91.212 37.6407 91.212 38.412C91.212 39.1833 91.3896 39.7857 91.745 40.219C92.109 40.6523 92.5943 40.869 93.201 40.869C94.059 40.869 94.6266 40.492 94.904 39.738H96.503C96.295 40.466 95.905 41.0467 95.333 41.48C94.761 41.9047 94.0503 42.117 93.201 42.117C92.5163 42.117 91.9096 41.9653 91.381 41.662C90.8523 41.35 90.4363 40.9167 90.133 40.362C89.8383 39.7987 89.691 39.1487 89.691 38.412Z" fill="#B5B5C3"/>
<path d="M99.7089 36.046V40.011C99.7089 40.2797 99.7696 40.4747 99.8909 40.596C100.021 40.7087 100.238 40.765 100.541 40.765H101.451V42H100.281C99.6135 42 99.1022 41.844 98.7469 41.532C98.3915 41.22 98.2139 40.713 98.2139 40.011V36.046H97.3689V34.837H98.2139V33.056H99.7089V34.837H101.451V36.046H99.7089Z" fill="#B5B5C3"/>
<path d="M103.571 33.888C103.302 33.888 103.077 33.797 102.895 33.615C102.713 33.433 102.622 33.2077 102.622 32.939C102.622 32.6703 102.713 32.445 102.895 32.263C103.077 32.081 103.302 31.99 103.571 31.99C103.831 31.99 104.052 32.081 104.234 32.263C104.416 32.445 104.507 32.6703 104.507 32.939C104.507 33.2077 104.416 33.433 104.234 33.615C104.052 33.797 103.831 33.888 103.571 33.888ZM104.299 34.837V42H102.817V34.837H104.299Z" fill="#B5B5C3"/>
<path d="M109.352 42.117C108.676 42.117 108.065 41.9653 107.519 41.662C106.973 41.35 106.544 40.9167 106.232 40.362C105.92 39.7987 105.764 39.1487 105.764 38.412C105.764 37.684 105.924 37.0383 106.245 36.475C106.565 35.9117 107.003 35.4783 107.558 35.175C108.112 34.8717 108.732 34.72 109.417 34.72C110.101 34.72 110.721 34.8717 111.276 35.175C111.83 35.4783 112.268 35.9117 112.589 36.475C112.909 37.0383 113.07 37.684 113.07 38.412C113.07 39.14 112.905 39.7857 112.576 40.349C112.246 40.9123 111.796 41.35 111.224 41.662C110.66 41.9653 110.036 42.117 109.352 42.117ZM109.352 40.83C109.733 40.83 110.088 40.739 110.418 40.557C110.756 40.375 111.029 40.102 111.237 39.738C111.445 39.374 111.549 38.932 111.549 38.412C111.549 37.892 111.449 37.4543 111.25 37.099C111.05 36.735 110.786 36.462 110.457 36.28C110.127 36.098 109.772 36.007 109.391 36.007C109.009 36.007 108.654 36.098 108.325 36.28C108.004 36.462 107.748 36.735 107.558 37.099C107.367 37.4543 107.272 37.892 107.272 38.412C107.272 39.1833 107.467 39.7813 107.857 40.206C108.255 40.622 108.754 40.83 109.352 40.83Z" fill="#B5B5C3"/>
<path d="M121.022 34.837V42H119.54V41.155C119.306 41.4497 118.998 41.6837 118.617 41.857C118.244 42.0217 117.845 42.104 117.421 42.104C116.857 42.104 116.35 41.987 115.9 41.753C115.458 41.519 115.107 41.1723 114.847 40.713C114.595 40.2537 114.47 39.699 114.47 39.049V34.837H115.939V38.828C115.939 39.4693 116.099 39.9633 116.42 40.31C116.74 40.648 117.178 40.817 117.733 40.817C118.287 40.817 118.725 40.648 119.046 40.31C119.375 39.9633 119.54 39.4693 119.54 38.828V34.837H121.022Z" fill="#B5B5C3"/>
<path d="M125.577 42.117C125.014 42.117 124.507 42.0173 124.056 41.818C123.614 41.61 123.263 41.3327 123.003 40.986C122.743 40.6307 122.604 40.2363 122.587 39.803H124.121C124.147 40.1063 124.29 40.362 124.55 40.57C124.819 40.7693 125.152 40.869 125.551 40.869C125.967 40.869 126.288 40.791 126.513 40.635C126.747 40.4703 126.864 40.2623 126.864 40.011C126.864 39.7423 126.734 39.543 126.474 39.413C126.223 39.283 125.82 39.14 125.265 38.984C124.728 38.8367 124.29 38.6937 123.952 38.555C123.614 38.4163 123.319 38.204 123.068 37.918C122.825 37.632 122.704 37.255 122.704 36.787C122.704 36.4057 122.817 36.059 123.042 35.747C123.267 35.4263 123.588 35.175 124.004 34.993C124.429 34.811 124.914 34.72 125.46 34.72C126.275 34.72 126.929 34.928 127.423 35.344C127.926 35.7513 128.194 36.3103 128.229 37.021H126.747C126.721 36.7003 126.591 36.4447 126.357 36.254C126.123 36.0633 125.807 35.968 125.408 35.968C125.018 35.968 124.719 36.0417 124.511 36.189C124.303 36.3363 124.199 36.5313 124.199 36.774C124.199 36.9647 124.268 37.125 124.407 37.255C124.546 37.385 124.715 37.489 124.914 37.567C125.113 37.6363 125.408 37.7273 125.798 37.84C126.318 37.9787 126.743 38.1217 127.072 38.269C127.41 38.4077 127.7 38.6157 127.943 38.893C128.186 39.1703 128.311 39.5387 128.32 39.998C128.32 40.4053 128.207 40.7693 127.982 41.09C127.757 41.4107 127.436 41.662 127.02 41.844C126.613 42.026 126.132 42.117 125.577 42.117Z" fill="#B5B5C3"/>
<path d="M132.804 38.386C132.804 37.6667 132.952 37.0297 133.246 36.475C133.55 35.9203 133.957 35.4913 134.468 35.188C134.988 34.876 135.565 34.72 136.197 34.72C136.665 34.72 137.125 34.824 137.575 35.032C138.035 35.2313 138.399 35.5 138.667 35.838V32.38H140.162V42H138.667V40.921C138.425 41.2677 138.087 41.5537 137.653 41.779C137.229 42.0043 136.739 42.117 136.184 42.117C135.56 42.117 134.988 41.961 134.468 41.649C133.957 41.3283 133.55 40.8863 133.246 40.323C132.952 39.751 132.804 39.1053 132.804 38.386ZM138.667 38.412C138.667 37.918 138.563 37.489 138.355 37.125C138.156 36.761 137.892 36.4837 137.562 36.293C137.233 36.1023 136.878 36.007 136.496 36.007C136.115 36.007 135.76 36.1023 135.43 36.293C135.101 36.475 134.832 36.748 134.624 37.112C134.425 37.4673 134.325 37.892 134.325 38.386C134.325 38.88 134.425 39.3133 134.624 39.686C134.832 40.0587 135.101 40.3447 135.43 40.544C135.768 40.7347 136.124 40.83 136.496 40.83C136.878 40.83 137.233 40.7347 137.562 40.544C137.892 40.3533 138.156 40.076 138.355 39.712C138.563 39.3393 138.667 38.906 138.667 38.412Z" fill="#B5B5C3"/>
<path d="M142.863 33.888C142.594 33.888 142.369 33.797 142.187 33.615C142.005 33.433 141.914 33.2077 141.914 32.939C141.914 32.6703 142.005 32.445 142.187 32.263C142.369 32.081 142.594 31.99 142.863 31.99C143.123 31.99 143.344 32.081 143.526 32.263C143.708 32.445 143.799 32.6703 143.799 32.939C143.799 33.2077 143.708 33.433 143.526 33.615C143.344 33.797 143.123 33.888 142.863 33.888ZM143.591 34.837V42H142.109V34.837H143.591Z" fill="#B5B5C3"/>
<path d="M148.137 42.117C147.573 42.117 147.066 42.0173 146.616 41.818C146.174 41.61 145.823 41.3327 145.563 40.986C145.303 40.6307 145.164 40.2363 145.147 39.803H146.681C146.707 40.1063 146.85 40.362 147.11 40.57C147.378 40.7693 147.712 40.869 148.111 40.869C148.527 40.869 148.847 40.791 149.073 40.635C149.307 40.4703 149.424 40.2623 149.424 40.011C149.424 39.7423 149.294 39.543 149.034 39.413C148.782 39.283 148.379 39.14 147.825 38.984C147.287 38.8367 146.85 38.6937 146.512 38.555C146.174 38.4163 145.879 38.204 145.628 37.918C145.385 37.632 145.264 37.255 145.264 36.787C145.264 36.4057 145.376 36.059 145.602 35.747C145.827 35.4263 146.148 35.175 146.564 34.993C146.988 34.811 147.474 34.72 148.02 34.72C148.834 34.72 149.489 34.928 149.983 35.344C150.485 35.7513 150.754 36.3103 150.789 37.021H149.307C149.281 36.7003 149.151 36.4447 148.917 36.254C148.683 36.0633 148.366 35.968 147.968 35.968C147.578 35.968 147.279 36.0417 147.071 36.189C146.863 36.3363 146.759 36.5313 146.759 36.774C146.759 36.9647 146.828 37.125 146.967 37.255C147.105 37.385 147.274 37.489 147.474 37.567C147.673 37.6363 147.968 37.7273 148.358 37.84C148.878 37.9787 149.302 38.1217 149.632 38.269C149.97 38.4077 150.26 38.6157 150.503 38.893C150.745 39.1703 150.871 39.5387 150.88 39.998C150.88 40.4053 150.767 40.7693 150.542 41.09C150.316 41.4107 149.996 41.662 149.58 41.844C149.172 42.026 148.691 42.117 148.137 42.117Z" fill="#B5B5C3"/>
<path d="M159.046 38.243C159.046 38.5117 159.029 38.7543 158.994 38.971H153.521C153.564 39.543 153.777 40.0023 154.158 40.349C154.539 40.6957 155.007 40.869 155.562 40.869C156.359 40.869 156.923 40.5353 157.252 39.868H158.851C158.634 40.5267 158.24 41.0683 157.668 41.493C157.105 41.909 156.403 42.117 155.562 42.117C154.877 42.117 154.262 41.9653 153.716 41.662C153.179 41.35 152.754 40.9167 152.442 40.362C152.139 39.7987 151.987 39.1487 151.987 38.412C151.987 37.6753 152.134 37.0297 152.429 36.475C152.732 35.9117 153.153 35.4783 153.69 35.175C154.236 34.8717 154.86 34.72 155.562 34.72C156.238 34.72 156.84 34.8673 157.369 35.162C157.898 35.4567 158.309 35.8727 158.604 36.41C158.899 36.9387 159.046 37.5497 159.046 38.243ZM157.499 37.775C157.49 37.229 157.295 36.7913 156.914 36.462C156.533 36.1327 156.06 35.968 155.497 35.968C154.986 35.968 154.548 36.1327 154.184 36.462C153.82 36.7827 153.603 37.2203 153.534 37.775H157.499Z" fill="#B5B5C3"/>
<path d="M160.01 38.386C160.01 37.6667 160.158 37.0297 160.452 36.475C160.756 35.9203 161.163 35.4913 161.674 35.188C162.194 34.876 162.766 34.72 163.39 34.72C163.954 34.72 164.443 34.8327 164.859 35.058C165.284 35.2747 165.622 35.5477 165.873 35.877V34.837H167.368V42H165.873V40.934C165.622 41.272 165.28 41.5537 164.846 41.779C164.413 42.0043 163.919 42.117 163.364 42.117C162.749 42.117 162.186 41.961 161.674 41.649C161.163 41.3283 160.756 40.8863 160.452 40.323C160.158 39.751 160.01 39.1053 160.01 38.386ZM165.873 38.412C165.873 37.918 165.769 37.489 165.561 37.125C165.362 36.761 165.098 36.4837 164.768 36.293C164.439 36.1023 164.084 36.007 163.702 36.007C163.321 36.007 162.966 36.1023 162.636 36.293C162.307 36.475 162.038 36.748 161.83 37.112C161.631 37.4673 161.531 37.892 161.531 38.386C161.531 38.88 161.631 39.3133 161.83 39.686C162.038 40.0587 162.307 40.3447 162.636 40.544C162.974 40.7347 163.33 40.83 163.702 40.83C164.084 40.83 164.439 40.7347 164.768 40.544C165.098 40.3533 165.362 40.076 165.561 39.712C165.769 39.3393 165.873 38.906 165.873 38.412Z" fill="#B5B5C3"/>
<path d="M171.915 42.117C171.352 42.117 170.845 42.0173 170.394 41.818C169.952 41.61 169.601 41.3327 169.341 40.986C169.081 40.6307 168.942 40.2363 168.925 39.803H170.459C170.485 40.1063 170.628 40.362 170.888 40.57C171.157 40.7693 171.49 40.869 171.889 40.869C172.305 40.869 172.626 40.791 172.851 40.635C173.085 40.4703 173.202 40.2623 173.202 40.011C173.202 39.7423 173.072 39.543 172.812 39.413C172.561 39.283 172.158 39.14 171.603 38.984C171.066 38.8367 170.628 38.6937 170.29 38.555C169.952 38.4163 169.657 38.204 169.406 37.918C169.163 37.632 169.042 37.255 169.042 36.787C169.042 36.4057 169.155 36.059 169.38 35.747C169.605 35.4263 169.926 35.175 170.342 34.993C170.767 34.811 171.252 34.72 171.798 34.72C172.613 34.72 173.267 34.928 173.761 35.344C174.264 35.7513 174.532 36.3103 174.567 37.021H173.085C173.059 36.7003 172.929 36.4447 172.695 36.254C172.461 36.0633 172.145 35.968 171.746 35.968C171.356 35.968 171.057 36.0417 170.849 36.189C170.641 36.3363 170.537 36.5313 170.537 36.774C170.537 36.9647 170.606 37.125 170.745 37.255C170.884 37.385 171.053 37.489 171.252 37.567C171.451 37.6363 171.746 37.7273 172.136 37.84C172.656 37.9787 173.081 38.1217 173.41 38.269C173.748 38.4077 174.038 38.6157 174.281 38.893C174.523 39.1703 174.649 39.5387 174.658 39.998C174.658 40.4053 174.545 40.7693 174.32 41.09C174.095 41.4107 173.774 41.662 173.358 41.844C172.951 42.026 172.47 42.117 171.915 42.117Z" fill="#B5B5C3"/>
<path d="M182.824 38.243C182.824 38.5117 182.807 38.7543 182.772 38.971H177.299C177.343 39.543 177.555 40.0023 177.936 40.349C178.318 40.6957 178.786 40.869 179.34 40.869C180.138 40.869 180.701 40.5353 181.03 39.868H182.629C182.413 40.5267 182.018 41.0683 181.446 41.493C180.883 41.909 180.181 42.117 179.34 42.117C178.656 42.117 178.04 41.9653 177.494 41.662C176.957 41.35 176.532 40.9167 176.22 40.362C175.917 39.7987 175.765 39.1487 175.765 38.412C175.765 37.6753 175.913 37.0297 176.207 36.475C176.511 35.9117 176.931 35.4783 177.468 35.175C178.014 34.8717 178.638 34.72 179.34 34.72C180.016 34.72 180.619 34.8673 181.147 35.162C181.676 35.4567 182.088 35.8727 182.382 36.41C182.677 36.9387 182.824 37.5497 182.824 38.243ZM181.277 37.775C181.269 37.229 181.074 36.7913 180.692 36.462C180.311 36.1327 179.839 35.968 179.275 35.968C178.764 35.968 178.326 36.1327 177.962 36.462C177.598 36.7827 177.382 37.2203 177.312 37.775H181.277Z" fill="#B5B5C3"/>
</svg>
