<svg width="18" height="18" viewBox="0 0 18 18" fill="none" xmlns="http://www.w3.org/2000/svg">
<path fill-rule="evenodd" clip-rule="evenodd" d="M4.70461 11.5329C0.630541 9.81461 2.23819 4.01439 5.06649 3.05625C6.23989 2.65874 7.53403 3.97764 7.52616 4.79628C7.52241 5.15066 7.33978 5.49566 7.14928 5.85567C6.89952 6.3278 6.63627 6.82469 6.74802 7.39957C6.9449 8.41209 7.1654 10.1206 6.59727 10.9318C6.02913 11.7425 5.458 11.8505 4.70461 11.5333V11.5329ZM4.99599 10.8421C5.28962 10.9659 5.43362 10.9576 5.51275 10.9348C5.59412 10.9115 5.75275 10.8305 5.98301 10.5012C6.12288 10.3017 6.21814 9.88061 6.20951 9.25135C6.20201 8.65997 6.10638 8.02921 6.01188 7.54282C5.86038 6.76281 6.17163 6.11105 6.39401 5.68092L6.49901 5.48029C6.57364 5.34003 6.63327 5.22716 6.68577 5.10641C6.75627 4.94515 6.77577 4.8499 6.77577 4.78878C6.77614 4.76928 6.76302 4.67027 6.66589 4.50677C6.5593 4.33331 6.42385 4.17934 6.26539 4.05151C5.90425 3.75713 5.55475 3.68251 5.30724 3.76651C4.25348 4.12351 3.26271 5.49866 3.04033 7.11231C2.82658 8.65997 3.35534 10.1499 4.99599 10.8421ZM12.8794 3.05625C15.7077 4.01439 17.3157 9.81461 13.2413 11.5333C12.4879 11.8509 11.9167 11.7425 11.3486 10.9318C10.7805 10.1206 11.001 8.41209 11.1978 7.39957C11.3096 6.82469 11.0463 6.3278 10.7966 5.85529C10.6061 5.49566 10.4235 5.15028 10.4201 4.79665C10.4118 3.97764 11.7064 2.65874 12.8794 3.05625ZM12.4331 10.9351C12.5122 10.9576 12.6566 10.9659 12.9499 10.8421C14.5905 10.1502 15.1193 8.65997 14.9059 7.11194C14.6832 5.49866 13.6928 4.12351 12.639 3.76688C12.3915 3.68251 12.0416 3.75713 11.6805 4.05189C11.5102 4.19064 11.3715 4.35377 11.2803 4.50677C11.1828 4.67027 11.1697 4.76928 11.1701 4.78878C11.1705 4.8499 11.19 4.94553 11.2601 5.10641C11.3126 5.22716 11.3726 5.34003 11.4468 5.48029C11.4787 5.54104 11.514 5.60704 11.5518 5.68092C11.7742 6.11105 12.0859 6.76243 11.9344 7.54282C11.8395 8.02921 11.7442 8.66034 11.7364 9.25135C11.7281 9.88061 11.8234 10.3017 11.9629 10.5012C12.1935 10.8305 12.3521 10.9115 12.4331 10.9348V10.9351Z" fill="#003482"/>
<path d="M10.7307 8.54278L10.757 8.91666H10.763C10.763 8.91666 10.7592 8.91666 10.7536 8.91778C10.6705 8.93288 10.5916 8.96589 10.5226 9.01454C10.4138 9.09179 10.2541 9.26354 10.2541 9.69705V15.1223H9.50406V9.69667C9.50406 9.03441 9.77031 8.62903 10.0872 8.4029C10.2504 8.28738 10.4375 8.2101 10.6347 8.17677C10.6546 8.17362 10.6746 8.17112 10.6947 8.16927L10.7007 8.16852H10.7045C10.7045 8.16852 10.7052 8.16852 10.7307 8.5424V8.54278ZM7.21465 8.54278C7.18914 8.91666 7.18839 8.91666 7.18839 8.91666H7.18277C7.18277 8.91666 7.18652 8.91666 7.19177 8.91778C7.27501 8.93285 7.35396 8.96586 7.42315 9.01454C7.5319 9.09179 7.69165 9.26354 7.69165 9.69705V15.1223H8.44167V9.69667C8.44167 9.03441 8.17541 8.62903 7.85816 8.4029C7.69495 8.28736 7.50782 8.21007 7.31065 8.17677C7.29073 8.17362 7.27072 8.17112 7.25065 8.16927L7.24502 8.16852H7.2409L7.21465 8.5424V8.54278Z" fill="#003482"/>
</svg>
