<svg width="9" height="10" viewBox="0 0 9 10" fill="none" xmlns="http://www.w3.org/2000/svg">
<path d="M2.0568 2.74848C2.36627 3.71649 2.6567 4.56135 2.92332 5.28088C3.1947 5.99609 3.53512 6.7718 3.9422 7.60585C4.06122 7.49133 4.31832 7.06998 4.7135 6.34397C5.10629 5.61364 5.77522 4.261 6.72268 2.2904C7.18451 1.45635 7.53445 0.864301 7.77013 0.518581C8.01056 0.17286 8.21053 0 8.37003 0C8.56047 0 8.70806 0.103716 8.81757 0.311148C8.92469 0.518581 8.97945 0.77571 8.97945 1.08038C8.97945 1.20786 8.94612 1.35695 8.88423 1.52981C8.81995 1.69835 8.68664 1.96629 8.48429 2.33361C8.28671 2.7031 8.03675 3.15038 7.73204 3.67328L7.3321 4.37336C5.59192 8.12443 4.35641 9.99996 3.62796 9.99996C3.21375 9.99996 2.73526 9.33229 2.19011 7.99478C1.64258 6.65944 1.03078 4.86385 0.352322 2.61019C0.116647 2.12618 0 1.69835 0 1.32238C0 1.02852 0.033328 0.786514 0.104744 0.596368C0.180922 0.4019 0.333277 0.302505 0.561811 0.302505C0.85938 0.302505 1.07601 0.380292 1.20932 0.535867C1.34263 0.691441 1.4688 0.965857 1.59021 1.35695L2.0568 2.74848Z" fill="black"/>
</svg>
