<svg width="9" height="10" viewBox="0 0 9 10" fill="none" xmlns="http://www.w3.org/2000/svg">
<path d="M7.40891 5.85569C7.40891 4.79122 7.2203 3.87161 6.84792 3.09904C6.48037 2.32208 5.76947 1.93141 4.72003 1.93141C4.41052 1.93141 4.05507 2.01701 3.65609 2.18601C3.2547 2.35062 2.86539 2.57888 2.48576 2.87078C2.11096 3.1583 1.80387 3.47654 1.5669 3.82771C1.5669 4.05597 1.55964 4.43786 1.54755 4.969C1.53304 5.47819 1.52821 5.82936 1.52821 6.0225C1.52821 6.2332 1.5403 6.43951 1.5669 6.63704C1.59833 6.83018 1.64427 7.07161 1.70231 7.35693C1.74583 7.57421 1.78452 7.80028 1.81837 8.03292C1.84981 8.26118 1.86673 8.47627 1.86673 8.6738C1.86673 9.05569 1.81837 9.34541 1.72165 9.54294C1.62977 9.73608 1.42423 9.83265 1.10263 9.83265C0.785866 9.83265 0.531971 9.75364 0.338527 9.59561C0.149919 9.4332 0.062869 9.10398 0.0773776 8.61235L0.125739 4.67929C0.0411067 3.73114 0 3.07929 0 2.72154V2.42305C0 1.83265 0.0604511 1.29493 0.183772 0.807682C0.311928 0.316049 0.515045 0.0702332 0.79312 0.0702332C1.35411 0.0702332 1.6346 0.509191 1.6346 1.38711C1.6346 1.52757 1.61042 1.80631 1.5669 2.22113L1.53788 2.4845C1.69747 1.95775 1.99247 1.50782 2.41805 1.13251C2.84846 0.759396 3.31031 0.478463 3.80118 0.289712C4.29688 0.0965707 4.72003 0 5.06823 0C6.45378 0 7.43792 0.515775 8.01825 1.54513C8.59859 2.57668 8.88875 3.82771 8.88875 5.30261C8.88875 6.66777 8.81621 7.7915 8.67596 8.6738C8.54055 9.5583 8.25522 9.99945 7.82481 9.99945C7.63137 9.99945 7.47178 9.97531 7.35087 9.92922C7.23481 9.88752 7.13808 9.78436 7.06071 9.62195C6.98817 9.45953 6.95431 9.20713 6.95431 8.86694C6.95431 8.64527 6.97366 8.42798 7.01235 8.21728C7.05103 8.0022 7.10423 7.73224 7.17677 7.4096C7.25899 7.04088 7.31702 6.75117 7.35087 6.54047C7.38956 6.32538 7.40891 6.09712 7.40891 5.85569Z" fill="black"/>
</svg>
