<svg width="18" height="18" viewBox="0 0 18 18" fill="none" xmlns="http://www.w3.org/2000/svg">
<path d="M5.25 12.75H12.75V11.25H5.25V12.75ZM9 10.5L12 7.5L10.95 6.45L9.75 7.6125V4.5H8.25V7.6125L7.05 6.45L6 7.5L9 10.5ZM9 16.5C7.9625 16.5 6.9875 16.303 6.075 15.909C5.1625 15.5155 4.36875 14.9812 3.69375 14.3062C3.01875 13.6312 2.4845 12.8375 2.091 11.925C1.697 11.0125 1.5 10.0375 1.5 9C1.5 7.9625 1.697 6.9875 2.091 6.075C2.4845 5.1625 3.01875 4.36875 3.69375 3.69375C4.36875 3.01875 5.1625 2.48425 6.075 2.09025C6.9875 1.69675 7.9625 1.5 9 1.5C10.0375 1.5 11.0125 1.69675 11.925 2.09025C12.8375 2.48425 13.6312 3.01875 14.3062 3.69375C14.9812 4.36875 15.5155 5.1625 15.909 6.075C16.303 6.9875 16.5 7.9625 16.5 9C16.5 10.0375 16.303 11.0125 15.909 11.925C15.5155 12.8375 14.9812 13.6312 14.3062 14.3062C13.6312 14.9812 12.8375 15.5155 11.925 15.909C11.0125 16.303 10.0375 16.5 9 16.5Z" fill="#003482"/>
</svg>
