<svg width="37" height="41" viewBox="0 0 37 41" fill="none" xmlns="http://www.w3.org/2000/svg">
<path d="M10.9103 8.53846C10.1323 8.53846 9.48718 7.89333 9.48718 7.11538V1.42308C9.48718 0.645128 10.1323 0 10.9103 0C11.6882 0 12.3333 0.645128 12.3333 1.42308V7.11538C12.3333 7.89333 11.6882 8.53846 10.9103 8.53846Z" fill="#E3F5FF"/>
<path d="M26.0897 8.53846C25.3118 8.53846 24.6667 7.89333 24.6667 7.11538V1.42308C24.6667 0.645128 25.3118 0 26.0897 0C26.8677 0 27.5128 0.645128 27.5128 1.42308V7.11538C27.5128 7.89333 26.8677 8.53846 26.0897 8.53846Z" fill="#E3F5FF"/>
<path d="M34.6282 16.2982H2.37179C1.59385 16.2982 0.948718 15.6531 0.948718 14.8751C0.948718 14.0972 1.59385 13.452 2.37179 13.452H34.6282C35.4062 13.452 36.0513 14.0972 36.0513 14.8751C36.0513 15.6531 35.4062 16.2982 34.6282 16.2982Z" fill="#E3F5FF"/>
<path d="M26.0897 40.7949H10.9103C3.98462 40.7949 0 36.8103 0 29.8846V13.7564C0 6.83077 3.98462 2.84615 10.9103 2.84615H26.0897C33.0154 2.84615 37 6.83077 37 13.7564V29.8846C37 36.8103 33.0154 40.7949 26.0897 40.7949ZM10.9103 5.69231C5.48359 5.69231 2.84615 8.32974 2.84615 13.7564V29.8846C2.84615 35.3113 5.48359 37.9487 10.9103 37.9487H26.0897C31.5164 37.9487 34.1538 35.3113 34.1538 29.8846V13.7564C34.1538 8.32974 31.5164 5.69231 26.0897 5.69231H10.9103Z" fill="#E3F5FF"/>
<path d="M11.859 25.141C11.6123 25.141 11.3656 25.0841 11.1379 24.9893C10.9102 24.8944 10.7016 24.7615 10.5118 24.5908C10.341 24.401 10.2082 24.1923 10.1133 23.9646C10.0184 23.737 9.96154 23.4903 9.96154 23.2436C9.96154 22.7503 10.1703 22.257 10.5118 21.8964C10.7016 21.7257 10.9102 21.5928 11.1379 21.4979C11.4795 21.3462 11.859 21.3082 12.2385 21.3841C12.3523 21.4031 12.4662 21.441 12.58 21.4979C12.6939 21.5359 12.8077 21.5929 12.9215 21.6688C13.0164 21.7447 13.1113 21.8206 13.2061 21.8964C13.282 21.9913 13.3769 22.0862 13.4338 22.1811C13.5097 22.2949 13.5667 22.4087 13.6046 22.5226C13.6616 22.6364 13.6995 22.7503 13.7185 22.8641C13.7375 22.9969 13.7564 23.1108 13.7564 23.2436C13.7564 23.7369 13.5477 24.2303 13.2061 24.5908C12.8456 24.9323 12.3523 25.141 11.859 25.141Z" fill="#E3F5FF"/>
<path d="M18.5 25.1409C18.0067 25.1409 17.5133 24.9322 17.1528 24.5906C17.0769 24.4958 17.0011 24.4009 16.9252 24.306C16.8493 24.1922 16.7923 24.0784 16.7543 23.9645C16.6974 23.8507 16.6595 23.7368 16.6405 23.623C16.6215 23.4902 16.6026 23.3763 16.6026 23.2435C16.6026 22.9968 16.6595 22.7501 16.7543 22.5224C16.8492 22.2947 16.9821 22.0861 17.1528 21.8963C17.6841 21.365 18.538 21.1942 19.221 21.4978C19.4677 21.5927 19.6574 21.7255 19.8472 21.8963C20.1887 22.2568 20.3974 22.7501 20.3974 23.2435C20.3974 23.3763 20.3785 23.4902 20.3595 23.623C20.3405 23.7368 20.3026 23.8507 20.2457 23.9645C20.2077 24.0784 20.1507 24.1922 20.0748 24.306C19.9989 24.4009 19.9231 24.4958 19.8472 24.5906C19.6574 24.7614 19.4677 24.8943 19.221 24.9891C18.9933 25.084 18.7467 25.1409 18.5 25.1409Z" fill="#E3F5FF"/>
<path d="M11.859 31.7819C11.6123 31.7819 11.3656 31.725 11.1379 31.6302C10.9102 31.5353 10.7016 31.4024 10.5118 31.2317C10.341 31.0419 10.2082 30.8522 10.1133 30.6055C10.0184 30.3778 9.96154 30.1312 9.96154 29.8845C9.96154 29.3912 10.1703 28.8978 10.5118 28.5373C10.7016 28.3666 10.9102 28.2337 11.1379 28.1388C11.84 27.8352 12.6749 28.0061 13.2061 28.5373C13.282 28.6322 13.3769 28.7271 13.4338 28.8219C13.5097 28.9358 13.5667 29.0496 13.6046 29.1635C13.6616 29.2773 13.6995 29.3912 13.7185 29.524C13.7375 29.6378 13.7564 29.7707 13.7564 29.8845C13.7564 30.3778 13.5477 30.8711 13.2061 31.2317C12.8456 31.5732 12.3523 31.7819 11.859 31.7819Z" fill="#E3F5FF"/>
</svg>
