<svg width="20" height="20" viewBox="0 0 20 20" fill="none" xmlns="http://www.w3.org/2000/svg">
<path opacity="0.3" fill-rule="evenodd" clip-rule="evenodd" d="M7.49935 9.16667C5.6584 9.16667 4.16602 7.67428 4.16602 5.83333C4.16602 3.99238 5.6584 2.5 7.49935 2.5C9.3403 2.5 10.8327 3.99238 10.8327 5.83333C10.8327 7.67428 9.3403 9.16667 7.49935 9.16667ZM15.8327 9.16667C15.3724 9.16667 14.9993 8.79358 14.9993 8.33334V6.66667H13.3327C12.8724 6.66667 12.4994 6.29358 12.4994 5.83334C12.4994 5.3731 12.8724 5.00001 13.3327 5.00001H14.9993V3.33334C14.9993 2.8731 15.3724 2.50001 15.8327 2.50001C16.2929 2.50001 16.666 2.8731 16.666 3.33334V5.00001H18.3327C18.7929 5.00001 19.166 5.3731 19.166 5.83334C19.166 6.29358 18.7929 6.66667 18.3327 6.66667H16.666V8.33334C16.666 8.79358 16.2929 9.16667 15.8327 9.16667Z" fill="white"/>
<path d="M0.00054307 16.8333C0.323549 12.8561 3.55159 10.834 7.48612 10.834C11.476 10.834 14.7541 12.745 14.9983 16.834C15.008 16.9969 14.9983 17.5007 14.3722 17.5007C11.2843 17.5007 6.6956 17.5007 0.606252 17.5007C0.39726 17.5007 -0.0170515 17.05 0.00054307 16.8333Z" fill="white"/>
</svg>
