<svg width="38" height="38" viewBox="0 0 38 38" fill="none" xmlns="http://www.w3.org/2000/svg">
<path d="M23.75 38H14.25C13.4104 37.9992 12.6054 37.6653 12.0118 37.0716C11.4181 36.4779 11.0842 35.6729 11.0833 34.8333V26.9167H3.16667C2.32707 26.9158 1.52211 26.5819 0.928421 25.9882C0.334738 25.3946 0.000838338 24.5896 0 23.75V14.25C0.000838338 13.4104 0.334738 12.6054 0.928421 12.0118C1.52211 11.4181 2.32707 11.0842 3.16667 11.0833H11.0833V3.16667C11.0842 2.32707 11.4181 1.52211 12.0118 0.928421C12.6054 0.334738 13.4104 0.000838338 14.25 0H23.75C24.5896 0.000838338 25.3946 0.334738 25.9882 0.928421C26.5819 1.52211 26.9158 2.32707 26.9167 3.16667V11.0833H34.8333C35.6729 11.0842 36.4779 11.4181 37.0716 12.0118C37.6653 12.6054 37.9992 13.4104 38 14.25V23.75C37.9987 24.5895 37.6647 25.3942 37.0711 25.9878C36.4775 26.5814 35.6728 26.9154 34.8333 26.9167H26.9167V34.8333C26.9154 35.6728 26.5814 36.4775 25.9878 37.0711C25.3942 37.6647 24.5895 37.9987 23.75 38ZM3.16667 14.25V23.75H14.25V34.8333H23.75V23.75H34.8333V14.25H23.75V3.16667H14.25V14.25H3.16667Z" fill="#003482"/>
</svg>
