<svg width="16" height="16" viewBox="0 0 16 16" fill="none" xmlns="http://www.w3.org/2000/svg">
<path d="M8.44559 13.826L7.99892 14.2327L7.03227 13.3527C3.59897 10.2394 1.33233 8.17943 1.33233 5.66613C1.33233 3.60615 2.94565 1.9995 4.99896 1.9995C6.15895 1.9995 7.27227 2.53949 7.99892 3.38615C8.72558 2.53949 9.8389 1.9995 10.9989 1.9995C13.0522 1.9995 14.6655 3.60615 14.6655 5.66613C14.6655 6.61945 14.3322 7.5061 13.7455 8.40609C13.3322 8.2061 12.8722 8.07277 12.3922 8.0261C12.9989 7.19944 13.3322 6.43278 13.3322 5.66613C13.3322 4.33281 12.3322 3.33282 10.9989 3.33282C9.97224 3.33282 8.97225 3.99948 8.61892 4.90613H7.37893C7.0256 3.99948 6.02561 3.33282 4.99896 3.33282C3.66564 3.33282 2.66565 4.33281 2.66565 5.66613C2.66565 7.59277 4.75896 9.49275 7.92559 12.3661L7.99892 12.4327L8.02559 12.4061C8.07892 12.9127 8.22559 13.3927 8.44559 13.826ZM11.3322 9.33275V11.3327H9.33224V12.666H11.3322V14.666H12.6655V12.666H14.6655V11.3327H12.6655V9.33275H11.3322Z" fill="#003482"/>
</svg>
