<svg width="12" height="12" viewBox="0 0 12 12" fill="none" xmlns="http://www.w3.org/2000/svg">
<g clip-path="url(#clip0_1239_234007)">
<path d="M8.67753 10.0671L9.98562 9.99414L10.0621 8.68654L7.57295 6.19736L6.18935 7.57846L8.67753 10.0671Z" fill="#003482"/>
<path d="M5.11826 0.802984L4.34171 1.57954L3.33363 0.571467C3.15509 0.378796 2.93951 0.224121 2.6998 0.116695C2.46008 0.00927013 2.20117 -0.0486975 1.93853 -0.0537394C1.6759 -0.0587812 1.41495 -0.0107936 1.17129 0.0873524C0.927634 0.185498 0.706278 0.331786 0.520467 0.517462C0.334656 0.703139 0.188208 0.924389 0.0898854 1.16798C-0.00843715 1.41156 -0.0566138 1.67248 -0.0517623 1.93512C-0.0469108 2.19775 0.0108692 2.45671 0.118121 2.6965C0.225372 2.93629 0.379891 3.15198 0.572433 3.33067L0.573433 3.33167L1.58201 4.33974L0.80545 5.1163L1.78902 6.09987L2.62058 5.26781L8.387 11.0337L10.2136 10.9302L11.2817 11.9983L12.0068 11.2732L10.9387 10.2052L11.0422 8.37853L5.27627 2.61262L6.10833 1.78056L5.11826 0.802984ZM10.2686 10.2777L8.63552 10.3707L3.07911 4.81427L4.80574 3.08765L10.3621 8.64405L10.2686 10.2777Z" fill="#003482"/>
</g>
<defs>
<clipPath id="clip0_1239_234007">
<rect width="11.6981" height="11.6981" fill="white" transform="scale(1.02588)"/>
</clipPath>
</defs>
</svg>
