<svg width="66" height="66" viewBox="0 0 66 66" fill="none" xmlns="http://www.w3.org/2000/svg">
<path d="M31.1437 42.1437C31.6479 42.6479 32.2786 42.8881 33.0357 42.8643C33.7911 42.8423 34.4208 42.5792 34.925 42.075C35.4292 41.5708 35.6813 40.9292 35.6813 40.15C35.6813 39.3708 35.4292 38.7292 34.925 38.225L32.45 35.75H41.3187C42.0979 35.75 42.7396 35.486 43.2438 34.958C43.7479 34.4318 44 33.7792 44 33C44 32.2208 43.7369 31.5672 43.2108 31.0392C42.6828 30.5131 42.0292 30.25 41.25 30.25H32.45L34.9938 27.7062C35.4979 27.2021 35.739 26.5714 35.717 25.8143C35.6932 25.0589 35.4292 24.4292 34.925 23.925C34.4208 23.4208 33.7792 23.1688 33 23.1688C32.2208 23.1688 31.5792 23.4208 31.075 23.925L23.925 31.075C23.4208 31.5792 23.1688 32.2208 23.1688 33C23.1688 33.7792 23.4208 34.4208 23.925 34.925L31.1437 42.1437ZM33 60.5C29.1958 60.5 25.6208 59.7777 22.275 58.333C18.9292 56.8902 16.0188 54.9313 13.5438 52.4563C11.0688 49.9813 9.10983 47.0708 7.667 43.725C6.22233 40.3792 5.5 36.8042 5.5 33C5.5 29.1958 6.22233 25.6208 7.667 22.275C9.10983 18.9292 11.0688 16.0188 13.5438 13.5438C16.0188 11.0688 18.9292 9.10892 22.275 7.66425C25.6208 6.22142 29.1958 5.5 33 5.5C36.8042 5.5 40.3792 6.22142 43.725 7.66425C47.0708 9.10892 49.9813 11.0688 52.4563 13.5438C54.9313 16.0188 56.8902 18.9292 58.333 22.275C59.7777 25.6208 60.5 29.1958 60.5 33C60.5 36.8042 59.7777 40.3792 58.333 43.725C56.8902 47.0708 54.9313 49.9813 52.4563 52.4563C49.9813 54.9313 47.0708 56.8902 43.725 58.333C40.3792 59.7777 36.8042 60.5 33 60.5Z" fill="#003482"/>
</svg>
