<svg width="3" height="14" viewBox="0 0 3 14" fill="none" xmlns="http://www.w3.org/2000/svg">
<path d="M2.39405 1.12485C2.39405 1.93227 2.06076 2.33491 1.39888 2.33491C1.10314 2.33491 0.828529 2.25822 0.572694 2.10483C0.321554 1.95144 0.197157 1.67875 0.197157 1.28676C0.197157 1.09502 0.253488 0.899026 0.366149 0.698769C0.483504 0.494252 0.631372 0.328081 0.807405 0.195996C0.981091 0.0660424 1.15008 0 1.31438 0C1.60073 0 1.85187 0.0852158 2.06545 0.255647C2.28374 0.421818 2.39405 0.711552 2.39405 1.12485ZM1.79319 12.9528C1.79319 13.2766 1.71808 13.5323 1.56787 13.7197C1.41765 13.9072 1.24866 14.001 1.06089 14.001C0.798017 14.001 0.586777 13.9264 0.431868 13.7794C0.281653 13.626 0.164298 13.3704 0.0844959 13.0125C0.0281653 12.7014 0 12.0325 0 11.0099C0 9.32261 0.0704135 7.79298 0.215934 6.41675C0.366149 5.04264 0.699438 4.35453 1.2205 4.35453C1.43878 4.35453 1.5796 4.444 1.64298 4.6187C1.71104 4.78913 1.74625 5.03625 1.74625 5.36007L1.66175 6.72353C1.62889 7.18369 1.59838 7.66942 1.56787 8.18072C1.53501 8.68775 1.52093 9.13513 1.52093 9.52713C1.52093 9.9532 1.56787 10.5476 1.66175 11.3081C1.74859 12.0985 1.79319 12.646 1.79319 12.9528Z" fill="black"/>
</svg>
