<svg width="23" height="21" viewBox="0 0 23 21" fill="none" xmlns="http://www.w3.org/2000/svg">
<path d="M9.34375 13.7812H18.8097L16.9553 15.4809L17.9688 16.4062L21.5625 13.125L17.9688 9.84375L16.9553 10.7691L18.8097 12.4688H9.34375V13.7812Z" fill="white"/>
<path d="M15.8125 9.18751V6.56251C15.813 6.47614 15.7949 6.39053 15.7591 6.31057C15.7234 6.23062 15.6707 6.15789 15.6041 6.09657L10.5728 1.50282C10.5057 1.442 10.426 1.39388 10.3384 1.36122C10.2509 1.32857 10.1571 1.31201 10.0625 1.31251H2.875C2.49375 1.31251 2.12812 1.45079 1.85853 1.69693C1.58895 1.94307 1.4375 2.27691 1.4375 2.62501V18.375C1.4375 18.7231 1.58895 19.0569 1.85853 19.3031C2.12812 19.5492 2.49375 19.6875 2.875 19.6875H14.375C14.7562 19.6875 15.1219 19.5492 15.3915 19.3031C15.661 19.0569 15.8125 18.7231 15.8125 18.375V17.0625H14.375V18.375H2.875V2.62501H8.625V6.56251C8.625 6.91061 8.77645 7.24445 9.04603 7.49059C9.31562 7.73673 9.68125 7.87501 10.0625 7.87501H14.375V9.18751H15.8125ZM10.0625 6.56251V2.89407L14.0803 6.56251H10.0625Z" fill="white"/>
</svg>
