<svg width="50" height="50" viewBox="0 0 50 50" fill="none" xmlns="http://www.w3.org/2000/svg">
<rect width="50" height="50" rx="6" fill="#F3F6F9"/>
<g clip-path="url(#clip0_0_2820)">
<path d="M38.0511 45.6886L37.9196 45.238C37.856 45.0203 37.644 44.8869 37.4258 44.9146L37.2871 43.8735L36.9996 41.7171C36.9996 41.717 36.9996 41.7169 36.9996 41.7168L36.9662 41.4663C36.8152 40.3333 36.1132 39.3492 34.9572 38.7713L33.6026 38.094C33.3832 37.9843 33.2157 38.1254 33.0546 38.3046L30.0817 37.2108C29.5185 37.0231 29.1386 36.496 29.1386 35.9023V33.678L32.1094 32.4402C33.6512 31.7976 34.6556 30.2909 34.6556 28.6204V22.4135C34.6556 20.509 33.1117 17.5859 31.2073 17.5859H18.7935C16.889 17.5859 15.3452 20.509 15.3452 22.4135V28.6204C15.3452 30.2909 16.3496 31.7975 17.8916 32.4401L20.8625 33.6779V35.9021C20.8625 36.4958 20.4826 37.0229 19.9194 37.2107L16.9465 38.3045C16.7854 38.1252 16.6179 37.984 16.3985 38.0938L15.0439 38.7711C13.8878 39.3491 13.1859 40.3333 13.0349 41.4661L13.0015 41.7166C13.0015 41.7167 13.0015 41.7168 13.0015 41.7169L12.714 43.8733L12.5752 44.9145C12.3571 44.8867 12.1452 45.0202 12.0815 45.2378L11.95 45.6884C11.8796 45.9297 12.0181 46.1823 12.2594 46.2527L12.3917 46.2914L12.2096 47.6572C12.044 48.8977 13.0088 49.9997 14.2601 49.9997H35.7408C36.9921 49.9997 37.957 48.8977 37.7915 47.6573L37.6095 46.2915L37.7418 46.2528C37.983 46.1826 38.1215 45.9299 38.0511 45.6886Z" fill="#F6B47B"/>
<path d="M20.8636 33.5352V35.9032C20.8636 36.394 20.6035 36.8387 20.1953 37.0843C25.6914 38.0339 28.8327 33.9117 29.1181 33.5352H20.8636Z" fill="#E2A071"/>
<path d="M32.1097 32.4401L27.6533 34.2969C26.8128 34.6471 25.9113 34.8274 25.0008 34.8274C24.0903 34.8274 23.1887 34.6471 22.3482 34.2969L17.8921 32.4402C16.3501 31.7976 15.3457 30.2909 15.3457 28.6204V22.4135C15.3457 20.5091 16.8896 17.5859 18.794 17.5859H31.2078C33.1122 17.5859 34.656 20.5091 34.656 22.4135V28.6204C34.656 30.2909 33.6516 31.7976 32.1097 32.4401Z" fill="#FDC88E"/>
<path d="M20.174 26.5514C19.7947 26.5514 19.4844 26.241 19.4844 25.8617V25.1721C19.4844 24.7928 19.7947 24.4824 20.174 24.4824C20.5533 24.4824 20.8637 24.7928 20.8637 25.1721V25.8617C20.8637 26.241 20.5533 26.5514 20.174 26.5514Z" fill="#623F33"/>
<path d="M29.8283 26.5514C29.449 26.5514 29.1387 26.241 29.1387 25.8617V25.1721C29.1387 24.7928 29.449 24.4824 29.8283 24.4824C30.2076 24.4824 30.518 24.7928 30.518 25.1721V25.8617C30.518 26.241 30.2076 26.5514 29.8283 26.5514Z" fill="#623F33"/>
<path d="M25.0011 31.3985C23.775 31.3985 22.6281 31.0968 21.8546 30.5705C21.5397 30.3564 21.4578 29.9273 21.6724 29.6125C21.8862 29.298 22.3156 29.2161 22.6304 29.4303C23.1726 29.799 24.0589 30.0193 25.0011 30.0193C25.9434 30.0193 26.8296 29.799 27.3718 29.4303C27.6873 29.2155 28.1157 29.2977 28.3298 29.6125C28.5443 29.9273 28.4625 30.3564 28.1477 30.5705C27.3742 31.0968 26.2272 31.3985 25.0011 31.3985Z" fill="#E2A071"/>
<path d="M15.3457 23.202V28.621C15.3457 30.2914 16.3501 31.7982 17.8921 32.4407L22.3481 34.2974C22.5662 34.3882 22.7888 34.4665 23.0142 34.5344C21.0449 33.0938 19.7341 31.8344 18.966 31.0109C18.4072 30.4118 18.1043 29.6212 18.1043 28.8019V24.9475C20.0785 24.2584 25.1858 21.9951 25.2566 18.2763C25.2634 17.9248 25.258 17.6114 25.2425 17.332C21.9967 21.7687 17.5001 22.9321 15.3457 23.202Z" fill="#F6B47B"/>
<path d="M36.9411 32.939C36.9411 31.4777 35.7363 30.8602 35.7363 29.6158C35.7363 28.3714 37.3017 28.0366 37.3017 26.1711C37.3017 24.9241 36.746 23.9559 36.3774 23.0636C38.479 13.9546 30.5952 10 28.4497 10C26.2083 10 25.0014 10.6897 25.0014 10.6897C25.0014 10.6897 23.7945 10 21.5532 10C19.4076 10 11.5238 13.9546 13.6255 23.0635C13.2569 23.9558 12.7012 24.924 12.7012 26.171C12.7012 28.0366 14.2665 28.3713 14.2665 29.6157C14.2665 30.8601 13.0618 31.4777 13.0618 32.9389C13.0618 34.4002 14.2221 35.1078 14.5991 36.2072C14.7715 36.71 14.5704 38.2184 14.5704 38.2184C14.5704 38.2184 15.7988 36.1915 15.1523 34.3295C14.5057 32.4675 15.2557 32.2672 15.8419 31.4541C16.7256 30.2284 16.6057 28.8534 15.8841 27.517C15.4181 26.6539 15.5407 25.8202 16.1939 25.2397C16.8814 24.6289 17.0426 23.5747 17.0436 23.5679C20.3086 22.6121 25.0014 20.6972 25.0014 17.5862C25.0014 20.6972 29.6943 22.6121 32.9592 23.5679C32.9602 23.5746 33.1214 24.6289 33.8088 25.2397C34.462 25.8202 34.5847 26.6539 34.1187 27.517C33.397 28.8534 33.2772 30.2285 34.1608 31.4541C34.747 32.2672 35.497 32.4675 34.8505 34.3295C34.2039 36.1914 35.4324 38.2184 35.4324 38.2184C35.4324 38.2184 35.2313 36.7099 35.4037 36.2072C35.7807 35.1078 36.9411 34.4002 36.9411 32.939Z" fill="#6E4439"/>
<path d="M36.967 41.4675C36.816 40.3346 36.114 39.3505 34.9581 38.7725L33.6034 38.0952C33.353 37.97 33.1702 38.1716 32.9874 38.3836C29.3118 42.6449 25.0016 44.4842 25.0016 44.4842H25.0015H25.0014C25.0014 44.4842 20.6912 42.6449 17.0156 38.3836C16.8328 38.1716 16.65 37.97 16.3996 38.0952L15.045 38.7725C13.8889 39.3506 13.187 40.3347 13.036 41.4675L12.4746 45.6775C14.2963 46.3049 17.4151 47.2425 17.4151 47.2425V50.0011H32.5875V47.2425C32.5875 47.2425 35.7063 46.3049 37.5283 45.6775L36.967 41.4675Z" fill="#57B9DD"/>
<path d="M17.3973 47.0303C17.3552 46.2102 17.0814 45.4178 16.5868 44.7583L13.3491 40.4414C13.1928 40.7633 13.083 41.1059 13.0349 41.4661L12.4883 45.5662L17.3973 47.0303Z" fill="#43A0C5"/>
<path d="M11.95 45.6883C11.8796 45.9296 12.0181 46.1823 12.2593 46.2526L17.4145 47.7564V47.2408C17.4145 46.915 17.3633 46.5959 17.2885 46.2828L12.6458 44.9285C12.4046 44.8581 12.152 44.9966 12.0816 45.2378L11.95 45.6883Z" fill="#258CAC"/>
<path d="M32.6035 47.0303C32.6457 46.2102 32.9195 45.4178 33.414 44.7583L36.6517 40.4414C36.808 40.7633 36.9178 41.1059 36.9659 41.4661L37.5126 45.5662L32.6035 47.0303Z" fill="#43A0C5"/>
<path d="M38.0504 45.6883C38.1209 45.9296 37.9823 46.1823 37.7411 46.2526L32.5859 47.7564V47.2408C32.5859 46.915 32.6371 46.5959 32.7119 46.2828L37.3547 44.9285C37.5959 44.8581 37.8484 44.9966 37.9188 45.2378L38.0504 45.6883Z" fill="#258CAC"/>
<path d="M21.5531 10C19.4076 10 11.5239 13.9546 13.6255 23.0635C13.2569 23.9558 12.7012 24.924 12.7012 26.171C12.7012 28.0366 14.2665 28.3713 14.2665 29.6157C14.2665 30.8601 13.0618 31.4777 13.0618 32.9389C13.0618 34.4002 14.2221 35.1078 14.5991 36.2072C14.7715 36.71 14.5704 38.2184 14.5704 38.2184C14.5704 38.2184 15.7988 36.1915 15.1523 34.3295C14.5057 32.4675 15.2557 32.2672 15.8419 31.4541C16.7256 30.2284 16.6057 28.8534 15.8841 27.517C15.4181 26.6539 15.5407 25.8202 16.1939 25.2397C16.8814 24.6289 17.0426 23.5747 17.0436 23.5679L17.0429 23.5678C17.0431 23.5678 17.0433 23.5677 17.0436 23.5677C15.0953 14.6007 22.8628 10.6968 25.0014 10.69V10.6897C25.0014 10.6897 23.7945 10 21.5531 10Z" fill="#5E342E"/>
</g>
<defs>
<clipPath id="clip0_0_2820">
<rect width="40" height="40" fill="white" transform="translate(5 10)"/>
</clipPath>
</defs>
</svg>
