<svg width="42" height="30" viewBox="0 0 42 30" fill="none" xmlns="http://www.w3.org/2000/svg">
<path fill-rule="evenodd" clip-rule="evenodd" d="M12.701 1.16079C12.3335 0.792972 11.8971 0.501146 11.4167 0.301977C10.9364 0.102807 10.4215 0.000195285 9.90157 2.7847e-07C9.38158 -0.000194728 8.86665 0.102031 8.38617 0.30084C7.9057 0.499649 7.46908 0.791148 7.10126 1.15869L6.36205 1.89791C5.64728 1.69438 4.89097 1.68649 4.17211 1.87507C3.45325 2.06365 2.7982 2.44178 2.27539 2.96997C1.49028 3.76307 1.04987 4.83395 1.04987 5.94992C1.04987 7.06589 1.49028 8.13677 2.27539 8.92987L3.15005 9.81083V21.0009H0V23.1009H2.15253C1.63107 23.6118 1.2736 24.2665 1.1257 24.9814C0.977798 25.6963 1.04618 26.4391 1.32211 27.115C1.59804 27.7909 2.06903 28.3693 2.67501 28.7764C3.28099 29.1835 3.9945 29.401 4.72455 29.401C5.4546 29.401 6.16811 29.1835 6.77409 28.7764C7.38007 28.3693 7.85105 27.7909 8.12699 27.115C8.40292 26.4391 8.4713 25.6963 8.3234 24.9814C8.1755 24.2665 7.81803 23.6118 7.29656 23.1009H34.7041C34.1826 23.6118 33.8252 24.2665 33.6773 24.9814C33.5294 25.6963 33.5977 26.4391 33.8737 27.115C34.1496 27.7909 34.6206 28.3693 35.2266 28.7764C35.8325 29.1835 36.5461 29.401 37.2761 29.401C38.0062 29.401 38.7197 29.1835 39.3256 28.7764C39.9316 28.3693 40.4026 27.7909 40.6785 27.115C40.9545 26.4391 41.0229 25.6963 40.875 24.9814C40.7271 24.2665 40.3696 23.6118 39.8481 23.1009H42.0007V21.0009H37.8006V17.7322C38.7023 17.5065 39.5024 16.9853 40.0733 16.2519C40.6443 15.5184 40.9531 14.6149 40.9506 13.6854C40.9506 11.3859 39.1016 9.51997 36.8199 9.51997H14.8157C14.7732 9.52009 14.7311 9.5118 14.6918 9.49558C14.6526 9.47936 14.6169 9.45554 14.5868 9.42547L14.2025 9.03697L14.59 8.65161C14.9579 8.28407 15.2497 7.84764 15.4489 7.36727C15.648 6.88689 15.7506 6.37198 15.7507 5.85196C15.7508 5.33194 15.6484 4.81699 15.4494 4.33654C15.2505 3.85609 14.9588 3.41956 14.591 3.05187L12.701 1.16184V1.16079ZM12.722 7.54804L13.1053 7.16584C13.278 6.99324 13.415 6.7883 13.5085 6.56273C13.6019 6.33717 13.65 6.09539 13.65 5.85122C13.65 5.60705 13.6019 5.36527 13.5085 5.1397C13.415 4.91413 13.278 4.70919 13.1053 4.5366L11.2152 2.64657C10.8668 2.29773 10.3941 2.10155 9.90104 2.10116C9.408 2.10077 8.93498 2.29619 8.58598 2.64447L8.21848 3.01197L12.7231 7.54804H12.722ZM38.8506 13.6854C38.8506 12.5283 37.9245 11.62 36.8199 11.62H14.8157C14.4965 11.6201 14.1804 11.557 13.8855 11.4345C13.5907 11.3119 13.3231 11.1323 13.0979 10.906L6.6865 4.4505C6.49571 4.2569 6.26833 4.10317 6.01759 3.99824C5.76685 3.8933 5.49775 3.83927 5.22593 3.83927C4.95412 3.83927 4.68502 3.8933 4.43428 3.99824C4.18353 4.10317 3.95615 4.2569 3.76536 4.4505C3.37106 4.85016 3.14999 5.38901 3.14999 5.95044C3.14999 6.51188 3.37106 7.05073 3.76536 7.45039L12.0101 15.7508H36.8199C37.9266 15.7508 38.8506 14.8425 38.8506 13.6854ZM10.7889 17.5012C11.0115 17.7248 11.3118 17.8508 11.6258 17.8508H35.7006V21.0009H5.25008V11.9245L10.7889 17.5012ZM6.3001 25.7259C6.3001 26.1437 6.13416 26.5443 5.83879 26.8396C5.54341 27.135 5.1428 27.301 4.72507 27.301C4.30735 27.301 3.90674 27.135 3.61136 26.8396C3.31599 26.5443 3.15005 26.1437 3.15005 25.7259C3.15005 25.3082 3.31599 24.9076 3.61136 24.6122C3.90674 24.3168 4.30735 24.1509 4.72507 24.1509C5.1428 24.1509 5.54341 24.3168 5.83879 24.6122C6.13416 24.9076 6.3001 25.3082 6.3001 25.7259ZM37.2756 27.301C37.6933 27.301 38.0939 27.135 38.3893 26.8396C38.6847 26.5443 38.8506 26.1437 38.8506 25.7259C38.8506 25.3082 38.6847 24.9076 38.3893 24.6122C38.0939 24.3168 37.6933 24.1509 37.2756 24.1509C36.8579 24.1509 36.4572 24.3168 36.1619 24.6122C35.8665 24.9076 35.7006 25.3082 35.7006 25.7259C35.7006 26.1437 35.8665 26.5443 36.1619 26.8396C36.4572 27.135 36.8579 27.301 37.2756 27.301Z" fill="white"/>
</svg>
