<svg width="24" height="19" viewBox="0 0 24 19" fill="none" xmlns="http://www.w3.org/2000/svg">
<g opacity="0.5">
<path d="M13.9244 15.0423C13.5078 15.0423 13.2121 14.9003 13.0374 14.6164C12.8621 14.333 12.8911 14.0593 13.1244 13.7954L16.9994 9.50065L13.1244 5.20586C12.8911 4.94197 12.8621 4.66805 13.0374 4.38411C13.2121 4.10069 13.5078 3.95898 13.9244 3.95898C14.1078 3.95898 14.2744 3.99514 14.4244 4.06744C14.5744 4.14028 14.6994 4.22947 14.7994 4.33503L19.0244 9.04544C19.0911 9.11141 19.1411 9.18398 19.1744 9.26315C19.2078 9.34232 19.2244 9.42148 19.2244 9.50065C19.2244 9.57982 19.2078 9.65555 19.1744 9.72786C19.1411 9.80069 19.0911 9.87669 19.0244 9.95586L14.7994 14.6663C14.6994 14.7718 14.5744 14.861 14.4244 14.9339C14.2744 15.0062 14.1078 15.0423 13.9244 15.0423ZM7.97445 15.0423C7.55778 15.0423 7.26211 14.9003 7.08745 14.6164C6.91211 14.333 6.94111 14.0593 7.17445 13.7954L11.0494 9.50065L7.17445 5.20586C6.94111 4.94197 6.91211 4.66805 7.08745 4.38411C7.26211 4.10069 7.55778 3.95898 7.97445 3.95898C8.15778 3.95898 8.32445 3.99514 8.47445 4.06744C8.62445 4.14028 8.74945 4.22947 8.84945 4.33503L13.0744 9.04544C13.1411 9.11141 13.1911 9.18398 13.2244 9.26315C13.2578 9.34232 13.2744 9.42148 13.2744 9.50065C13.2744 9.57982 13.2578 9.65898 13.2244 9.73815C13.1911 9.81732 13.1411 9.88989 13.0744 9.95586L8.84945 14.6663C8.74945 14.7718 8.62445 14.861 8.47445 14.9339C8.32445 15.0062 8.15778 15.0423 7.97445 15.0423Z" fill="black"/>
</g>
</svg>
