<svg width="13" height="9" viewBox="0 0 13 9" fill="none" xmlns="http://www.w3.org/2000/svg">
<g opacity="0.2">
<path d="M12.248 4.36091C11.7669 3.11631 10.9315 2.03998 9.84533 1.26494C8.75912 0.489909 7.46961 0.0501435 6.13619 0C4.80276 0.0501435 3.51326 0.489909 2.42704 1.26494C1.34083 2.03998 0.505528 3.11631 0.0243714 4.36091C-0.0081238 4.45079 -0.0081238 4.54921 0.0243714 4.63909C0.505528 5.88369 1.34083 6.96002 2.42704 7.73506C3.51326 8.51009 4.80276 8.94986 6.13619 9C7.46961 8.94986 8.75912 8.51009 9.84533 7.73506C10.9315 6.96002 11.7669 5.88369 12.248 4.63909C12.2805 4.54921 12.2805 4.45079 12.248 4.36091ZM6.13619 8.18182C3.96801 8.18182 1.6771 6.57409 0.846644 4.5C1.6771 2.42591 3.96801 0.818182 6.13619 0.818182C8.30437 0.818182 10.5953 2.42591 11.4257 4.5C10.5953 6.57409 8.30437 8.18182 6.13619 8.18182Z" fill="#003482"/>
<path d="M6.13619 2.04688C5.65072 2.04688 5.17616 2.19083 4.77251 2.46054C4.36887 2.73025 4.05426 3.1136 3.86848 3.56211C3.6827 4.01062 3.6341 4.50414 3.72881 4.98028C3.82351 5.45641 4.05729 5.89377 4.40056 6.23705C4.74384 6.58032 5.18119 6.81409 5.65733 6.9088C6.13346 7.00351 6.62699 6.9549 7.0755 6.76913C7.52401 6.58335 7.90736 6.26874 8.17707 5.86509C8.44677 5.46145 8.59073 4.98688 8.59073 4.50142C8.59073 3.85043 8.33213 3.22611 7.87181 2.76579C7.4115 2.30548 6.78717 2.04688 6.13619 2.04688ZM6.13619 6.13778C5.81254 6.13778 5.49617 6.04181 5.22707 5.86201C4.95797 5.6822 4.74824 5.42664 4.62438 5.12763C4.50053 4.82862 4.46813 4.49961 4.53127 4.18218C4.5944 3.86476 4.75025 3.57319 4.9791 3.34434C5.20795 3.11549 5.49952 2.95964 5.81695 2.8965C6.13437 2.83336 6.46339 2.86576 6.7624 2.98962C7.0614 3.11347 7.31697 3.32321 7.49677 3.59231C7.67658 3.8614 7.77255 4.17778 7.77255 4.50142C7.77255 4.93541 7.60015 5.35163 7.29327 5.6585C6.98639 5.96538 6.57018 6.13778 6.13619 6.13778Z" fill="#003482"/>
</g>
</svg>
