<svg width="9" height="14" viewBox="0 0 9 14" fill="none" xmlns="http://www.w3.org/2000/svg">
<path d="M8.45581 0C8.58894 0 8.69911 0.0791672 8.78633 0.233336C8.87815 0.389587 8.92405 0.556255 8.92405 0.73334C8.92405 0.879175 8.88274 1.02293 8.8047 1.16668C8.73125 1.30626 8.54992 1.58752 8.26301 2.00835C8.23088 2.04169 8.20792 2.07294 8.18956 2.10002C8.17579 2.12919 8.16202 2.15419 8.14366 2.17502C8.01971 2.35419 7.89806 2.52086 7.77641 2.67503C7.47573 3.0917 7.21177 3.47503 6.98683 3.82504C6.7596 4.17087 6.52089 4.58129 6.27071 5.05838C6.21562 5.17088 5.9333 5.67297 5.42604 6.56673C4.56761 8.07299 3.88362 9.35009 3.36947 10.4001C2.85992 11.4501 2.60744 12.2751 2.60744 12.8751C2.60744 13.146 2.53628 13.4022 2.39627 13.6418C2.26085 13.8793 2.0933 14.0001 1.89131 14.0001C1.78114 14.0001 1.63883 13.9418 1.46898 13.8251C1.29683 13.7126 1.14764 13.5751 1.0191 13.4085C0.890569 13.2418 0.826301 13.0918 0.826301 12.9585C0.837777 12.6251 0.986971 12.0959 1.27618 11.3751C1.56309 10.6584 1.86377 10.0543 2.17593 9.56676L3.02059 8.05841C2.65334 7.31465 1.96017 5.80006 0.945656 3.5167L0.229528 1.91669C0.16067 1.76252 0.105583 1.60418 0.0642679 1.44168C0.0206574 1.27501 0 1.14168 0 1.04168C0.0114763 0.731257 0.0964015 0.481255 0.257071 0.291669C0.415446 0.0979177 0.605954 0 0.826301 0C0.984675 0 1.10173 0.0583339 1.17518 0.175002C1.25322 0.291669 1.35192 0.497922 1.46898 0.791674C1.79261 1.62502 2.21495 2.64586 2.73597 3.85004C3.26159 5.05005 3.66327 5.92089 3.9387 6.4584L7.06946 0.950009C7.23473 0.656256 7.43901 0.425004 7.6846 0.258336C7.93479 0.0875011 8.19186 0 8.45581 0Z" fill="black"/>
</svg>
