<svg width="39" height="38" viewBox="0 0 39 38" fill="none" xmlns="http://www.w3.org/2000/svg">
<path d="M29.593 36.2826H12.5038C11.9792 36.2826 11.5055 35.9612 11.3194 35.4536C11.1332 34.946 11.2686 34.4045 11.6747 34.0492C12.8591 33.0001 13.5528 31.4943 13.5528 29.9207C13.5528 26.892 11.0825 24.4217 8.05378 24.4217C6.8017 24.4217 5.6173 24.8447 4.61902 25.64C4.22986 25.9445 3.72227 25.9952 3.28235 25.7922C2.84243 25.5892 2.57171 25.1323 2.57171 24.6416V17.2476C2.57171 13.0345 5.98955 9.61666 10.2026 9.61666H29.6268C33.8399 9.61666 37.2578 13.0345 37.2578 17.2476V19.6841C37.2578 20.3778 36.6825 20.9531 35.9888 20.9531H32.5709C31.9787 20.9531 31.4373 21.173 31.0481 21.5791L31.0312 21.5961C30.5574 22.0529 30.3375 22.679 30.3882 23.3219C30.4898 24.4387 31.5557 25.3354 32.7739 25.3354H35.9888C36.6825 25.3354 37.2578 25.9107 37.2578 26.6044V28.6178C37.2239 32.8647 33.8061 36.2826 29.593 36.2826ZM15.1094 33.7446H29.593C32.4017 33.7446 34.6859 31.4604 34.6859 28.6517V27.9072H32.7401C30.1852 27.9072 28.0194 26.0122 27.8164 23.5757C27.681 22.1882 28.1886 20.8178 29.2038 19.8195C30.0837 18.9227 31.2681 18.432 32.5371 18.432H34.6859V17.2645C34.6859 14.4558 32.4017 12.1716 29.593 12.1716H10.1688C7.36006 12.1716 5.07587 14.4558 5.07587 17.2645V22.4759C6.02339 22.1037 7.02167 21.9006 8.03687 21.9006C12.4699 21.9006 16.0739 25.5046 16.0739 29.9376C16.0739 31.2743 15.7355 32.5941 15.1094 33.7446Z" fill="#003482"/>
<path d="M3.80701 18.537C3.11328 18.537 2.538 17.9617 2.538 17.268V11.0584C2.538 8.53728 4.11158 6.23606 6.46346 5.35622L19.8979 0.280211C21.2854 -0.22739 22.842 -0.0411708 24.0434 0.804831C25.2447 1.65083 25.9723 3.02133 25.9723 4.47645V10.906C25.9723 11.5998 25.397 12.175 24.7032 12.175C24.0095 12.175 23.4342 11.5998 23.4342 10.906V4.47645C23.4342 3.83349 23.1297 3.2582 22.6052 2.88596C22.0637 2.51372 21.4038 2.4291 20.7947 2.64906L7.36022 7.72506C5.97278 8.24958 5.07601 9.55248 5.07601 11.0584V17.268C5.07601 17.9617 4.50073 18.537 3.80701 18.537Z" fill="#003482"/>
<path d="M32.7404 27.9074C30.1855 27.9074 28.0197 26.0124 27.8166 23.5759C27.6813 22.1715 28.1889 20.8011 29.2041 19.8028C30.067 18.9229 31.2514 18.4323 32.5204 18.4323H36.0398C37.7149 18.483 39.0008 19.8027 39.0008 21.427V24.9127C39.0008 26.537 37.7149 27.8567 36.0905 27.9074H32.7404ZM36.0059 20.9703H32.5373C31.9451 20.9703 31.4037 21.1902 31.0145 21.5963C30.5238 22.0701 30.287 22.713 30.3546 23.3559C30.4562 24.4727 31.5221 25.3694 32.7404 25.3694H36.0567C36.2766 25.3694 36.4797 25.1665 36.4797 24.9127V21.427C36.4797 21.1732 36.2767 20.9872 36.0059 20.9703Z" fill="#003482"/>
<path d="M23.265 19.3642H11.421C10.7273 19.3642 10.152 18.7889 10.152 18.0952C10.152 17.4015 10.7273 16.8262 11.421 16.8262H23.265C23.9588 16.8262 24.534 17.4015 24.534 18.0952C24.534 18.7889 23.9588 19.3642 23.265 19.3642Z" fill="#003482"/>
<path d="M8.03701 37.9762C3.60397 37.9762 0 34.3722 0 29.9392C0 27.4689 1.0998 25.1846 3.01176 23.6618C4.43304 22.5282 6.22657 21.9022 8.03701 21.9022C12.4701 21.9022 16.074 25.5061 16.074 29.9392C16.074 32.2403 15.0757 34.4399 13.3499 35.9627C11.8609 37.2656 9.98282 37.9762 8.03701 37.9762ZM8.03701 24.4402C6.78493 24.4402 5.60053 24.8631 4.60225 25.6584C3.29941 26.6905 2.538 28.2641 2.538 29.9392C2.538 32.9679 5.00833 35.4382 8.03701 35.4382C9.35677 35.4382 10.6427 34.9475 11.6748 34.0677C12.8592 33.0186 13.536 31.5297 13.536 29.9392C13.536 26.9105 11.0657 24.4402 8.03701 24.4402Z" fill="#003482"/>
<path d="M6.34613 32.8989C5.92313 32.8989 5.50013 32.6789 5.26325 32.2898C4.90793 31.6807 5.09404 30.9023 5.70316 30.547L7.20905 29.6503V27.8229C7.20905 27.1291 7.78433 26.5539 8.47805 26.5539C9.17177 26.5539 9.74705 27.1291 9.74705 27.8229V30.3609C9.74705 30.8008 9.51017 31.2238 9.13793 31.4438L7.02292 32.7128C6.80296 32.8481 6.56609 32.8989 6.34613 32.8989Z" fill="#003482"/>
</svg>
