<svg width="16" height="16" viewBox="0 0 16 16" fill="none" xmlns="http://www.w3.org/2000/svg">
<g opacity="0.5">
<path d="M3.33398 11.3327L6.33398 7.33268L8.66732 10.3327L10.334 8.33268L12.6673 11.3327M13.334 3.99935H8.00065L6.66732 2.66602H2.66732C2.3137 2.66602 1.97456 2.80649 1.72451 3.05654C1.47446 3.30659 1.33398 3.64573 1.33398 3.99935V11.9993C1.33398 12.353 1.47446 12.6921 1.72451 12.9422C1.97456 13.1922 2.3137 13.3327 2.66732 13.3327H13.334C13.6876 13.3327 14.0267 13.1922 14.2768 12.9422C14.5268 12.6921 14.6673 12.353 14.6673 11.9993V5.33268C14.6673 4.97906 14.5268 4.63992 14.2768 4.38987C14.0267 4.13982 13.6876 3.99935 13.334 3.99935Z" fill="#003482"/>
</g>
</svg>
