<svg width="9" height="14" viewBox="0 0 9 14" fill="none" xmlns="http://www.w3.org/2000/svg">
<path d="M6.69313 9.48176C6.69313 8.98496 6.63281 8.54089 6.51441 8.15156C6.39377 7.76223 6.13016 7.42968 5.7191 7.1539C5.3125 6.87813 4.71379 6.74024 3.92294 6.74024C3.52975 6.74024 3.14103 6.82541 2.76125 6.99168C2.37923 7.1539 2.06647 7.35668 1.82296 7.60001C1.58392 7.84334 1.46552 8.0745 1.46552 8.28944V12.6532C1.45211 12.9026 1.43871 13.1033 1.42084 13.2534C1.40297 13.4055 1.34488 13.5373 1.25105 13.6508C1.15499 13.7603 1.00308 13.813 0.795312 13.813C0.598718 13.813 0.415528 13.7522 0.25021 13.6265C0.0826587 13.4967 0 13.2372 0 12.8478C0 11.475 0.0290421 9.52232 0.0893609 6.99168C0.147445 4.21367 0.178722 2.27919 0.178722 1.19232C0.178722 1.04632 0.214466 0.880044 0.285955 0.689435C0.361911 0.500854 0.464677 0.338634 0.589782 0.202775C0.719355 0.0689438 0.862332 0 1.01871 0C1.19073 0 1.33595 0.08111 1.45658 0.24333C1.58169 0.401494 1.64424 0.583992 1.64424 0.794878V0.835433C1.64424 1.31804 1.6219 2.09669 1.58169 3.1714C1.53254 4.12444 1.5102 4.93149 1.5102 5.59659L1.46552 6.71591C1.5236 6.38133 1.68892 6.08122 1.957 5.81559C2.22509 5.5459 2.54008 5.33704 2.90423 5.19104C3.27284 5.04099 3.61912 4.96393 3.94081 4.96393C5.51803 4.96393 6.6127 5.39787 7.22036 6.26169C7.82801 7.12754 8.13184 8.15764 8.13184 9.35199L8.03354 12.3693C8.03354 12.4078 8.02684 12.5842 8.01567 12.8965C8.00227 13.2047 7.93078 13.4683 7.8012 13.6833C7.6694 13.8941 7.48397 13.9996 7.24717 13.9996C7.00142 13.9996 6.8093 13.9023 6.66632 13.7076C6.52334 13.5129 6.45185 13.2696 6.45185 12.9776C6.45185 12.5721 6.48983 12.0124 6.56802 11.2986C6.65068 10.6072 6.69313 10.0718 6.69313 9.69265V9.48176Z" fill="black"/>
</svg>
