<svg width="50" height="50" viewBox="0 0 50 50" fill="none" xmlns="http://www.w3.org/2000/svg">
<rect width="50" height="50" rx="6" fill="#F3F6F9"/>
<path d="M38.5014 47.6743L37.6285 40.6905C37.4967 39.6364 36.7714 38.7516 35.7636 38.4156L32.3975 37.2936C31.9352 37.1394 31.4282 37.2376 31.0717 37.5413L30.0802 37.2108C29.517 37.023 29.1371 36.496 29.1371 35.9023V33.678L32.1078 32.4401C33.6498 31.7978 34.6542 30.2912 34.6542 28.6207V27.931C35.7969 27.931 36.7232 27.0047 36.7232 25.862C36.7232 25.3466 36.5343 24.8756 36.2225 24.5133C36.8079 22.3825 38.4533 15.6421 36.7232 12.7586L37.4128 10C37.4128 10 30.1715 10.1724 26.3784 11.3793L27.7577 10C27.7577 10 18.0594 10 16.0342 13.4477L16.0336 13.4483C16.0336 13.4483 12.5853 13.4196 12.5853 17.5862C12.5853 19.1112 13.4359 22.9191 13.8011 24.484C13.4741 24.8499 13.2749 25.3326 13.2749 25.862C13.2749 27.0047 14.2012 27.931 15.3439 27.931V28.6207C15.3439 30.2911 16.3483 31.7977 17.8903 32.4403L20.8611 33.6781V35.9024C20.8611 36.4961 20.4812 37.0231 19.918 37.2109L18.9265 37.5414C18.57 37.2377 18.063 37.1395 17.6007 37.2936L14.2346 38.4157C13.2268 38.7517 12.5014 39.6365 12.3697 40.6906L11.4968 47.6744C11.3424 48.9092 12.3052 49.9999 13.5497 49.9999H13.5691H36.429H36.4484C37.6929 49.9999 38.6558 48.9092 38.5014 47.6743Z" fill="#FFD7A3"/>
<path d="M29.1369 33.6797L20.861 33.6798V35.904C20.861 36.4005 20.5864 36.8377 20.1699 37.0815C25.9539 38.0938 29.1369 33.6797 29.1369 33.6797Z" fill="#FDC88E"/>
<path d="M13.9652 25.1724C13.9652 25.1724 12.5859 19.5281 12.5859 17.5862C12.5859 13.4196 16.0342 13.4483 16.0342 13.4483L16.0348 13.4477C18.0601 10 27.7583 10 27.7583 10L26.379 11.3793C30.1721 10.1724 37.4135 10 37.4135 10L36.7238 12.7586C38.7928 16.2069 36.0342 25.1724 36.0342 25.1724H13.9652Z" fill="#734A3E"/>
<path d="M27.7583 10C27.7583 10 18.0601 10 16.0348 13.4477L16.0342 13.4483C16.0342 13.4483 12.5859 13.4196 12.5859 17.5862C12.5859 19.5281 13.9652 25.1724 13.9652 25.1724C13.9652 25.1724 28.3044 18.7644 37.4135 10C37.4135 10 30.1721 10.1724 26.379 11.3793L27.7583 10Z" fill="#623F33"/>
<path d="M34.6547 23.7924V22.4131C34.6547 20.5087 33.1108 18.9648 31.2064 18.9648H18.7926C16.8882 18.9648 15.3444 20.5087 15.3444 22.4131V23.7924C14.2017 23.7924 13.2754 24.7187 13.2754 25.8614C13.2754 27.0041 14.2017 27.9303 15.3444 27.9303V28.62C15.3444 30.2904 16.3487 31.7971 17.8907 32.4396L22.3468 34.2964C23.1874 34.6466 24.0889 34.8269 24.9994 34.8269C25.9099 34.8269 26.8114 34.6465 27.6519 34.2964L32.1083 32.4396C33.6503 31.7971 34.6547 30.2905 34.6547 28.62V27.9303C35.7973 27.9303 36.7236 27.0041 36.7236 25.8614C36.7236 24.7187 35.7973 23.7924 34.6547 23.7924Z" fill="#FFE1B2"/>
<path d="M20.1721 26.5533C19.7928 26.5533 19.4824 26.243 19.4824 25.8637V25.174C19.4824 24.7947 19.7928 24.4844 20.1721 24.4844C20.5514 24.4844 20.8617 24.7947 20.8617 25.174V25.8637C20.8617 26.243 20.5514 26.5533 20.1721 26.5533Z" fill="#623F33"/>
<path d="M29.8264 26.5533C29.4471 26.5533 29.1367 26.243 29.1367 25.8637V25.174C29.1367 24.7947 29.4471 24.4844 29.8264 24.4844C30.2057 24.4844 30.516 24.7947 30.516 25.174V25.8637C30.516 26.243 30.2057 26.5533 29.8264 26.5533Z" fill="#623F33"/>
<path d="M24.9992 31.3966C23.773 31.3966 22.6261 31.0948 21.8526 30.5686C21.5378 30.3544 21.4559 29.9254 21.6705 29.6105C21.8842 29.2961 22.3136 29.2142 22.6285 29.4284C23.1706 29.7971 24.0569 30.0173 24.9992 30.0173C25.9414 30.0173 26.8277 29.7971 27.3698 29.4284C27.6854 29.2136 28.1137 29.2957 28.3279 29.6105C28.5423 29.9254 28.4605 30.3544 28.1457 30.5686C27.3723 31.0948 26.2253 31.3966 24.9992 31.3966Z" fill="#E4B07B"/>
<path d="M38.5014 47.6756L37.6285 40.6919C37.4968 39.6377 36.7714 38.7529 35.7636 38.4169L32.3975 37.2949C31.8113 37.0994 31.1518 37.3082 30.8207 37.8299C29.5981 39.7561 27.4494 41.0356 24.9991 41.0356C22.5487 41.0356 20.4 39.756 19.1775 37.8299C18.8464 37.3082 18.1869 37.0994 17.6007 37.2949L14.2346 38.4169C13.2268 38.7529 12.5014 39.6377 12.3697 40.6919L11.4968 47.6756C11.3424 48.9104 12.3053 50.0012 13.5498 50.0012H36.4485C37.6929 50.0012 38.6558 48.9104 38.5014 47.6756Z" fill="#00BEA4"/>
<path d="M12.9446 39.3242C12.6384 39.7119 12.4334 40.1803 12.3697 40.69L11.4968 47.6738C11.3424 48.9087 12.3053 49.9994 13.5498 49.9994H17.4129V45.5108C17.4129 44.8473 17.1737 44.2061 16.7393 43.7046L12.9446 39.3242Z" fill="#00AB9A"/>
<path d="M37.0542 39.3242C37.3604 39.7119 37.5654 40.1803 37.6291 40.69L38.502 47.6738C38.6564 48.9087 37.6935 49.9994 36.449 49.9994H32.5859V45.5108C32.5859 44.8473 32.8251 44.2061 33.2595 43.7046L37.0542 39.3242Z" fill="#00AB9A"/>
<path d="M18.9647 31.0099C18.4059 30.4108 18.1031 29.6202 18.1031 28.8009V20.9854C20.2981 20.8208 27.2189 20.2223 31.2065 18.9648H18.7926C18.5552 18.9648 18.3253 18.9925 18.103 19.0408V19.0343C16.5291 19.3539 15.3444 20.7449 15.3444 22.4131V23.7924C14.2017 23.7924 13.2754 24.7187 13.2754 25.8614C13.2754 27.0041 14.2017 27.9303 15.3444 27.9303V28.62C15.3444 30.2905 16.3487 31.7971 17.8907 32.4396L22.3468 34.2964C22.5649 34.3872 22.7874 34.4655 23.0129 34.5333C21.0436 33.0927 19.7327 31.8333 18.9647 31.0099Z" fill="#FFD7A3"/>
</svg>
