<svg width="36" height="36" viewBox="0 0 36 36" fill="none" xmlns="http://www.w3.org/2000/svg">
<path d="M27.6944 35.9601H8.30497C3.71714 35.9601 0 32.2262 0 27.6384V15.2311C0 12.954 1.40649 10.0908 3.21483 8.68428L12.2398 1.65185C14.9523 -0.457884 19.289 -0.558347 22.1019 1.41743L32.4496 8.66753C34.4422 10.0573 35.9993 13.0377 35.9993 15.4655V27.6551C35.9993 32.2262 32.2822 35.9601 27.6944 35.9601ZM13.7802 3.62762L4.75526 10.6601C3.56645 11.5977 2.51158 13.7242 2.51158 15.2311V27.6384C2.51158 30.8364 5.10688 33.4485 8.30497 33.4485H27.6944C30.8925 33.4485 33.4878 30.8532 33.4878 27.6551V15.4655C33.4878 13.8581 32.3324 11.6312 31.0097 10.727L20.6619 3.47693C18.7531 2.13742 15.6053 2.20439 13.7802 3.62762Z" fill="white"/>
<path d="M17.999 29.2639C17.3125 29.2639 16.7432 28.6946 16.7432 28.0081V22.9849C16.7432 22.2984 17.3125 21.7291 17.999 21.7291C18.6855 21.7291 19.2548 22.2984 19.2548 22.9849V28.0081C19.2548 28.6946 18.6855 29.2639 17.999 29.2639Z" fill="white"/>
</svg>
