<svg width="8" height="13" viewBox="0 0 8 13" fill="none" xmlns="http://www.w3.org/2000/svg">
<path d="M2.11862 5.36874C2.00837 5.36874 1.83581 5.37744 1.60095 5.39484C1.33732 5.40789 1.11683 5.41225 0.939477 5.41225C0.836422 5.41225 0.709401 5.37309 0.556017 5.29043C0.407427 5.20994 0.278008 5.09682 0.16297 4.95107C0.0527254 4.8075 0 4.64218 0 4.4551C0 4.27019 0.0431396 4.09617 0.134211 3.93301C0.230076 3.77204 0.34751 3.64369 0.488911 3.55015C0.635105 3.45226 0.786093 3.40223 0.939477 3.40223C1.16955 3.40223 1.60095 3.42398 2.23365 3.46314C2.25283 2.64086 2.33192 1.85774 2.47332 1.11377C2.61951 0.371983 2.89752 0 3.30734 0C3.40321 0 3.50147 0.0413316 3.60452 0.121819C3.70518 0.204482 3.78906 0.3176 3.85377 0.461172C3.92327 0.60692 3.95922 0.761369 3.95922 0.922344C3.95922 1.62498 3.91609 2.26235 3.8346 2.83664L3.79625 3.08028L3.70039 3.48925C3.96162 3.48925 4.27079 3.48707 4.63028 3.48054C4.98738 3.47619 5.26299 3.46967 5.45472 3.46314C6.0347 3.44139 6.61948 3.42834 7.20905 3.42834C7.41995 3.42834 7.57333 3.5458 7.6692 3.77639C7.76506 4.00263 7.813 4.24626 7.813 4.5073C7.813 4.78575 7.73151 5.00763 7.57333 5.16861C7.41276 5.33176 7.2426 5.41225 7.06525 5.41225L3.6908 5.36874L3.68122 6.29108C3.65485 6.84797 3.64287 7.45272 3.64287 8.10097C3.64287 9.02331 3.72915 9.75205 3.90171 10.285C4.07426 10.8136 4.4026 11.0768 4.88911 11.0768C5.31092 11.0768 5.82859 10.8745 6.44213 10.4677C6.56915 10.3938 6.63625 10.3546 6.64344 10.3546C6.82798 10.3546 6.95261 10.4025 7.01732 10.4938C7.08682 10.5874 7.12277 10.7505 7.12277 10.9811C7.12277 11.2596 6.99814 11.5598 6.7489 11.8774C6.49965 12.1906 6.20247 12.4582 5.85735 12.6779C5.51224 12.8932 5.21026 12.9998 4.95622 12.9998C4.13178 12.9998 3.51825 12.7388 3.11561 12.2167C2.71777 11.6903 2.47332 11.0573 2.37745 10.3198C2.28159 9.58455 2.22407 8.6274 2.20489 7.44836C2.20489 6.52602 2.17614 5.83426 2.11862 5.36874Z" fill="black"/>
</svg>
