<svg width="1240" height="50" viewBox="0 0 1240 50" fill="none" xmlns="http://www.w3.org/2000/svg">
<path d="M1208 15C1208 11.6863 1210.69 9 1214 9H1234C1237.31 9 1240 11.6863 1240 15V35C1240 38.3137 1237.31 41 1234 41H1214C1210.69 41 1208 38.3137 1208 35V15Z" fill="#FAFAFA"/>
<path d="M1218.26 25.8205C1217.8 25.8205 1217.44 25.4531 1217.44 25C1217.44 24.5468 1217.8 24.1795 1218.26 24.1795H1224C1224.45 24.1795 1224.82 24.5468 1224.82 25C1224.82 25.4531 1224.45 25.8205 1224 25.8205H1218.26Z" fill="#181C32"/>
<path d="M1223.42 29.3429C1223.1 29.6633 1223.1 30.1828 1223.42 30.5032C1223.74 30.8237 1224.26 30.8237 1224.58 30.5032L1229.5 25.5802C1229.81 25.2695 1229.82 24.7694 1229.53 24.4455L1225.02 19.5225C1224.71 19.1884 1224.19 19.1658 1223.86 19.4721C1223.52 19.7783 1223.5 20.2973 1223.81 20.6313L1227.79 24.9753L1223.42 29.3429Z" fill="#181C32"/>
<path d="M1039 18C1039 14.6863 1041.69 12 1045 12H1107C1110.31 12 1113 14.6863 1113 18V32C1113 35.3137 1110.31 38 1107 38H1045C1041.69 38 1039 35.3137 1039 32V18Z" fill="#F4FFF3"/>
<path d="M1058.31 23.555C1058.11 23.1737 1057.84 22.8877 1057.49 22.697C1057.13 22.499 1056.73 22.4 1056.27 22.4C1055.76 22.4 1055.31 22.5137 1054.91 22.741C1054.52 22.9683 1054.2 23.291 1053.98 23.709C1053.76 24.127 1053.65 24.611 1053.65 25.161C1053.65 25.711 1053.76 26.1987 1053.98 26.624C1054.2 27.042 1054.52 27.3647 1054.91 27.592C1055.31 27.8193 1055.76 27.933 1056.27 27.933C1056.95 27.933 1057.5 27.7423 1057.93 27.361C1058.35 26.9797 1058.61 26.4627 1058.71 25.81H1055.84V24.809H1060.05V25.788C1059.97 26.382 1059.76 26.9283 1059.41 27.427C1059.07 27.9257 1058.63 28.3253 1058.08 28.626C1057.54 28.9193 1056.93 29.066 1056.27 29.066C1055.55 29.066 1054.89 28.901 1054.3 28.571C1053.7 28.2337 1053.23 27.768 1052.88 27.174C1052.53 26.58 1052.36 25.909 1052.36 25.161C1052.36 24.413 1052.53 23.742 1052.88 23.148C1053.23 22.554 1053.7 22.092 1054.3 21.762C1054.9 21.4247 1055.55 21.256 1056.27 21.256C1057.08 21.256 1057.8 21.4577 1058.43 21.861C1059.07 22.257 1059.53 22.8217 1059.82 23.555H1058.31Z" fill="#5F8D4E"/>
<path d="M1066.84 25.821C1066.84 26.0483 1066.83 26.2537 1066.8 26.437H1062.17C1062.2 26.921 1062.38 27.3097 1062.71 27.603C1063.03 27.8963 1063.42 28.043 1063.89 28.043C1064.57 28.043 1065.04 27.7607 1065.32 27.196H1066.68C1066.49 27.7533 1066.16 28.2117 1065.68 28.571C1065.2 28.923 1064.6 29.099 1063.89 29.099C1063.31 29.099 1062.79 28.9707 1062.33 28.714C1061.88 28.45 1061.52 28.0833 1061.25 27.614C1061 27.1373 1060.87 26.5873 1060.87 25.964C1060.87 25.3407 1060.99 24.7943 1061.24 24.325C1061.5 23.8483 1061.85 23.4817 1062.31 23.225C1062.77 22.9683 1063.3 22.84 1063.89 22.84C1064.47 22.84 1064.98 22.9647 1065.42 23.214C1065.87 23.4633 1066.22 23.8153 1066.47 24.27C1066.72 24.7173 1066.84 25.2343 1066.84 25.821ZM1065.53 25.425C1065.53 24.963 1065.36 24.5927 1065.04 24.314C1064.71 24.0353 1064.32 23.896 1063.84 23.896C1063.41 23.896 1063.04 24.0353 1062.73 24.314C1062.42 24.5853 1062.24 24.9557 1062.18 25.425H1065.53Z" fill="#5F8D4E"/>
<path d="M1075.41 22.84C1075.89 22.84 1076.31 22.939 1076.69 23.137C1077.07 23.335 1077.37 23.6283 1077.58 24.017C1077.8 24.4057 1077.91 24.875 1077.91 25.425V29H1076.67V25.612C1076.67 25.0693 1076.53 24.655 1076.26 24.369C1075.99 24.0757 1075.62 23.929 1075.15 23.929C1074.68 23.929 1074.31 24.0757 1074.03 24.369C1073.76 24.655 1073.62 25.0693 1073.62 25.612V29H1072.38V25.612C1072.38 25.0693 1072.24 24.655 1071.97 24.369C1071.7 24.0757 1071.33 23.929 1070.86 23.929C1070.39 23.929 1070.02 24.0757 1069.74 24.369C1069.47 24.655 1069.33 25.0693 1069.33 25.612V29H1068.08V22.939H1069.33V23.632C1069.53 23.3827 1069.8 23.1883 1070.11 23.049C1070.43 22.9097 1070.76 22.84 1071.12 22.84C1071.61 22.84 1072.04 22.9427 1072.42 23.148C1072.8 23.3533 1073.1 23.6503 1073.3 24.039C1073.48 23.6723 1073.77 23.3827 1074.16 23.17C1074.55 22.95 1074.97 22.84 1075.41 22.84Z" fill="#5F8D4E"/>
<path d="M1085.06 25.821C1085.06 26.0483 1085.05 26.2537 1085.02 26.437H1080.39C1080.42 26.921 1080.6 27.3097 1080.92 27.603C1081.25 27.8963 1081.64 28.043 1082.11 28.043C1082.79 28.043 1083.26 27.7607 1083.54 27.196H1084.9C1084.71 27.7533 1084.38 28.2117 1083.89 28.571C1083.42 28.923 1082.82 29.099 1082.11 29.099C1081.53 29.099 1081.01 28.9707 1080.55 28.714C1080.1 28.45 1079.74 28.0833 1079.47 27.614C1079.22 27.1373 1079.09 26.5873 1079.09 25.964C1079.09 25.3407 1079.21 24.7943 1079.46 24.325C1079.72 23.8483 1080.07 23.4817 1080.53 23.225C1080.99 22.9683 1081.52 22.84 1082.11 22.84C1082.68 22.84 1083.19 22.9647 1083.64 23.214C1084.09 23.4633 1084.44 23.8153 1084.69 24.27C1084.94 24.7173 1085.06 25.2343 1085.06 25.821ZM1083.75 25.425C1083.74 24.963 1083.58 24.5927 1083.26 24.314C1082.93 24.0353 1082.53 23.896 1082.06 23.896C1081.62 23.896 1081.25 24.0353 1080.95 24.314C1080.64 24.5853 1080.45 24.9557 1080.4 25.425H1083.75Z" fill="#5F8D4E"/>
<path d="M1087.55 23.819C1087.73 23.511 1087.97 23.2727 1088.27 23.104C1088.58 22.928 1088.95 22.84 1089.36 22.84V24.138H1089.04C1088.55 24.138 1088.18 24.2627 1087.92 24.512C1087.67 24.7613 1087.55 25.194 1087.55 25.81V29H1086.29V22.939H1087.55V23.819Z" fill="#5F8D4E"/>
<path d="M1090.1 25.942C1090.1 25.3333 1090.22 24.7943 1090.47 24.325C1090.73 23.8557 1091.07 23.4927 1091.51 23.236C1091.95 22.972 1092.43 22.84 1092.96 22.84C1093.43 22.84 1093.85 22.9353 1094.2 23.126C1094.56 23.3093 1094.85 23.5403 1095.06 23.819V22.939H1096.32V29H1095.06V28.098C1094.85 28.384 1094.56 28.6223 1094.19 28.813C1093.82 29.0037 1093.41 29.099 1092.94 29.099C1092.42 29.099 1091.94 28.967 1091.51 28.703C1091.07 28.4317 1090.73 28.0577 1090.47 27.581C1090.22 27.097 1090.1 26.5507 1090.1 25.942ZM1095.06 25.964C1095.06 25.546 1094.97 25.183 1094.79 24.875C1094.63 24.567 1094.4 24.3323 1094.12 24.171C1093.85 24.0097 1093.54 23.929 1093.22 23.929C1092.9 23.929 1092.6 24.0097 1092.32 24.171C1092.04 24.325 1091.81 24.556 1091.64 24.864C1091.47 25.1647 1091.38 25.524 1091.38 25.942C1091.38 26.36 1091.47 26.7267 1091.64 27.042C1091.81 27.3573 1092.04 27.5993 1092.32 27.768C1092.61 27.9293 1092.91 28.01 1093.22 28.01C1093.54 28.01 1093.85 27.9293 1094.12 27.768C1094.4 27.6067 1094.63 27.372 1094.79 27.064C1094.97 26.7487 1095.06 26.382 1095.06 25.964Z" fill="#5F8D4E"/>
<path d="M1099.22 20.86V29H1097.97V20.86H1099.22Z" fill="#5F8D4E"/>
<path d="M847.552 16.972C848.576 16.1187 849.392 15.4093 850 14.844C850.608 14.268 851.115 13.6707 851.52 13.052C851.925 12.4333 852.128 11.8253 852.128 11.228C852.128 10.684 852 10.2573 851.744 9.948C851.488 9.63867 851.093 9.484 850.56 9.484C850.027 9.484 849.616 9.66533 849.328 10.028C849.04 10.38 848.891 10.8653 848.88 11.484H846.704C846.747 10.204 847.125 9.23333 847.84 8.572C848.565 7.91067 849.483 7.58 850.592 7.58C851.808 7.58 852.741 7.90533 853.392 8.556C854.043 9.196 854.368 10.044 854.368 11.1C854.368 11.932 854.144 12.7267 853.696 13.484C853.248 14.2413 852.736 14.9027 852.16 15.468C851.584 16.0227 850.832 16.6947 849.904 17.484H854.624V19.34H846.72V17.676L847.552 16.972Z" fill="#464E5F"/>
<path d="M855.94 17.228V15.468L861.172 7.98H863.779V15.276H865.188V17.228H863.779V19.5H861.539V17.228H855.94ZM861.683 10.38L858.404 15.276H861.683V10.38Z" fill="#464E5F"/>
<path d="M872.87 4.348L868.55 22.396H866.358L870.678 4.348H872.87Z" fill="#464E5F"/>
<path d="M874.123 9.9V7.836H877.979V19.5H875.675V9.9H874.123Z" fill="#464E5F"/>
<path d="M880.896 16.972C881.92 16.1187 882.736 15.4093 883.344 14.844C883.952 14.268 884.458 13.6707 884.864 13.052C885.269 12.4333 885.472 11.8253 885.472 11.228C885.472 10.684 885.344 10.2573 885.088 9.948C884.832 9.63867 884.437 9.484 883.904 9.484C883.37 9.484 882.96 9.66533 882.672 10.028C882.384 10.38 882.234 10.8653 882.224 11.484H880.048C880.09 10.204 880.469 9.23333 881.184 8.572C881.909 7.91067 882.826 7.58 883.936 7.58C885.152 7.58 886.085 7.90533 886.736 8.556C887.386 9.196 887.712 10.044 887.712 11.1C887.712 11.932 887.488 12.7267 887.04 13.484C886.592 14.2413 886.08 14.9027 885.504 15.468C884.928 16.0227 884.176 16.6947 883.248 17.484H887.968V19.34H880.064V17.676L880.896 16.972Z" fill="#464E5F"/>
<path d="M895.635 4.348L891.315 22.396H889.123L893.443 4.348H895.635Z" fill="#464E5F"/>
<path d="M897.865 16.972C898.888 16.1187 899.705 15.4093 900.312 14.844C900.92 14.268 901.427 13.6707 901.833 13.052C902.238 12.4333 902.44 11.8253 902.44 11.228C902.44 10.684 902.312 10.2573 902.057 9.948C901.801 9.63867 901.406 9.484 900.872 9.484C900.339 9.484 899.929 9.66533 899.641 10.028C899.352 10.38 899.203 10.8653 899.193 11.484H897.016C897.059 10.204 897.438 9.23333 898.153 8.572C898.878 7.91067 899.795 7.58 900.904 7.58C902.12 7.58 903.054 7.90533 903.705 8.556C904.355 9.196 904.68 10.044 904.68 11.1C904.68 11.932 904.456 12.7267 904.008 13.484C903.56 14.2413 903.048 14.9027 902.472 15.468C901.896 16.0227 901.144 16.6947 900.216 17.484H904.937V19.34H897.032V17.676L897.865 16.972Z" fill="#464E5F"/>
<path d="M906.348 13.516C906.348 11.6707 906.679 10.2253 907.34 9.18C908.012 8.13467 909.121 7.612 910.668 7.612C912.215 7.612 913.319 8.13467 913.98 9.18C914.652 10.2253 914.988 11.6707 914.988 13.516C914.988 15.372 914.652 16.828 913.98 17.884C913.319 18.94 912.215 19.468 910.668 19.468C909.121 19.468 908.012 18.94 907.34 17.884C906.679 16.828 906.348 15.372 906.348 13.516ZM912.78 13.516C912.78 12.7267 912.727 12.0653 912.62 11.532C912.524 10.988 912.321 10.5453 912.012 10.204C911.713 9.86267 911.265 9.692 910.668 9.692C910.071 9.692 909.617 9.86267 909.308 10.204C909.009 10.5453 908.807 10.988 908.7 11.532C908.604 12.0653 908.556 12.7267 908.556 13.516C908.556 14.3267 908.604 15.0093 908.7 15.564C908.796 16.108 908.999 16.5507 909.308 16.892C909.617 17.2227 910.071 17.388 910.668 17.388C911.265 17.388 911.719 17.2227 912.028 16.892C912.337 16.5507 912.54 16.108 912.636 15.564C912.732 15.0093 912.78 14.3267 912.78 13.516Z" fill="#464E5F"/>
<path d="M917.396 16.972C918.42 16.1187 919.236 15.4093 919.844 14.844C920.452 14.268 920.958 13.6707 921.364 13.052C921.769 12.4333 921.972 11.8253 921.972 11.228C921.972 10.684 921.844 10.2573 921.588 9.948C921.332 9.63867 920.937 9.484 920.404 9.484C919.87 9.484 919.46 9.66533 919.172 10.028C918.884 10.38 918.734 10.8653 918.724 11.484H916.548C916.59 10.204 916.969 9.23333 917.684 8.572C918.409 7.91067 919.326 7.58 920.436 7.58C921.652 7.58 922.585 7.90533 923.236 8.556C923.886 9.196 924.212 10.044 924.212 11.1C924.212 11.932 923.988 12.7267 923.54 13.484C923.092 14.2413 922.58 14.9027 922.004 15.468C921.428 16.0227 920.676 16.6947 919.748 17.484H924.468V19.34H916.564V17.676L917.396 16.972Z" fill="#464E5F"/>
<path d="M926.583 16.972C927.607 16.1187 928.423 15.4093 929.031 14.844C929.639 14.268 930.146 13.6707 930.551 13.052C930.957 12.4333 931.159 11.8253 931.159 11.228C931.159 10.684 931.031 10.2573 930.775 9.948C930.519 9.63867 930.125 9.484 929.591 9.484C929.058 9.484 928.647 9.66533 928.359 10.028C928.071 10.38 927.922 10.8653 927.911 11.484H925.735C925.778 10.204 926.157 9.23333 926.871 8.572C927.597 7.91067 928.514 7.58 929.623 7.58C930.839 7.58 931.773 7.90533 932.423 8.556C933.074 9.196 933.399 10.044 933.399 11.1C933.399 11.932 933.175 12.7267 932.727 13.484C932.279 14.2413 931.767 14.9027 931.191 15.468C930.615 16.0227 929.863 16.6947 928.935 17.484H933.655V19.34H925.751V17.676L926.583 16.972Z" fill="#464E5F"/>
<path d="M846.78 35.638C846.78 34.1387 847.031 32.9687 847.534 32.128C848.045 31.2787 848.921 30.854 850.16 30.854C851.399 30.854 852.27 31.2787 852.773 32.128C853.284 32.9687 853.54 34.1387 853.54 35.638C853.54 37.1547 853.284 38.342 852.773 39.2C852.27 40.0493 851.399 40.474 850.16 40.474C848.921 40.474 848.045 40.0493 847.534 39.2C847.031 38.342 846.78 37.1547 846.78 35.638ZM852.084 35.638C852.084 34.936 852.036 34.3423 851.941 33.857C851.854 33.3717 851.672 32.9773 851.395 32.674C851.118 32.362 850.706 32.206 850.16 32.206C849.614 32.206 849.202 32.362 848.925 32.674C848.648 32.9773 848.461 33.3717 848.366 33.857C848.279 34.3423 848.236 34.936 848.236 35.638C848.236 36.366 848.279 36.977 848.366 37.471C848.453 37.965 848.635 38.3637 848.912 38.667C849.198 38.9703 849.614 39.122 850.16 39.122C850.706 39.122 851.118 38.9703 851.395 38.667C851.681 38.3637 851.867 37.965 851.954 37.471C852.041 36.977 852.084 36.366 852.084 35.638Z" fill="#B5B5C3"/>
<path d="M855.082 33.363C855.134 32.557 855.442 31.9287 856.005 31.478C856.577 31.0273 857.305 30.802 858.189 30.802C858.796 30.802 859.32 30.9103 859.762 31.127C860.204 31.3437 860.538 31.6383 860.763 32.011C860.988 32.3837 861.101 32.804 861.101 33.272C861.101 33.8093 860.958 34.2687 860.672 34.65C860.386 35.0313 860.044 35.287 859.645 35.417V35.469C860.156 35.625 860.555 35.911 860.841 36.327C861.127 36.7343 861.27 37.2587 861.27 37.9C861.27 38.4113 861.153 38.8663 860.919 39.265C860.685 39.6637 860.339 39.98 859.879 40.214C859.42 40.4393 858.87 40.552 858.228 40.552C857.292 40.552 856.521 40.3137 855.914 39.837C855.316 39.3517 854.995 38.6583 854.952 37.757H856.382C856.417 38.2163 856.594 38.5933 856.915 38.888C857.236 39.174 857.669 39.317 858.215 39.317C858.744 39.317 859.151 39.174 859.437 38.888C859.723 38.5933 859.866 38.2163 859.866 37.757C859.866 37.1503 859.671 36.7213 859.281 36.47C858.9 36.21 858.31 36.08 857.513 36.08H857.175V34.858H857.526C858.228 34.8493 858.761 34.7323 859.125 34.507C859.498 34.2817 859.684 33.9263 859.684 33.441C859.684 33.025 859.55 32.6957 859.281 32.453C859.012 32.2017 858.631 32.076 858.137 32.076C857.652 32.076 857.275 32.2017 857.006 32.453C856.737 32.6957 856.577 32.999 856.525 33.363H855.082Z" fill="#B5B5C3"/>
<path d="M863.62 40.591C863.351 40.591 863.126 40.5 862.944 40.318C862.762 40.136 862.671 39.9107 862.671 39.642C862.671 39.3733 862.762 39.148 862.944 38.966C863.126 38.784 863.351 38.693 863.62 38.693C863.88 38.693 864.101 38.784 864.283 38.966C864.465 39.148 864.556 39.3733 864.556 39.642C864.556 39.9107 864.465 40.136 864.283 40.318C864.101 40.5 863.88 40.591 863.62 40.591ZM863.62 35.131C863.351 35.131 863.126 35.04 862.944 34.858C862.762 34.676 862.671 34.4507 862.671 34.182C862.671 33.9133 862.762 33.688 862.944 33.506C863.126 33.324 863.351 33.233 863.62 33.233C863.88 33.233 864.101 33.324 864.283 33.506C864.465 33.688 864.556 33.9133 864.556 34.182C864.556 34.4507 864.465 34.676 864.283 34.858C864.101 35.04 863.88 35.131 863.62 35.131Z" fill="#B5B5C3"/>
<path d="M866.013 35.638C866.013 34.1387 866.265 32.9687 866.767 32.128C867.279 31.2787 868.154 30.854 869.393 30.854C870.633 30.854 871.504 31.2787 872.006 32.128C872.518 32.9687 872.773 34.1387 872.773 35.638C872.773 37.1547 872.518 38.342 872.006 39.2C871.504 40.0493 870.633 40.474 869.393 40.474C868.154 40.474 867.279 40.0493 866.767 39.2C866.265 38.342 866.013 37.1547 866.013 35.638ZM871.317 35.638C871.317 34.936 871.27 34.3423 871.174 33.857C871.088 33.3717 870.906 32.9773 870.628 32.674C870.351 32.362 869.939 32.206 869.393 32.206C868.847 32.206 868.436 32.362 868.158 32.674C867.881 32.9773 867.695 33.3717 867.599 33.857C867.513 34.3423 867.469 34.936 867.469 35.638C867.469 36.366 867.513 36.977 867.599 37.471C867.686 37.965 867.868 38.3637 868.145 38.667C868.431 38.9703 868.847 39.122 869.393 39.122C869.939 39.122 870.351 38.9703 870.628 38.667C870.914 38.3637 871.101 37.965 871.187 37.471C871.274 36.977 871.317 36.366 871.317 35.638Z" fill="#B5B5C3"/>
<path d="M874.342 35.638C874.342 34.1387 874.593 32.9687 875.096 32.128C875.607 31.2787 876.482 30.854 877.721 30.854C878.961 30.854 879.832 31.2787 880.335 32.128C880.846 32.9687 881.102 34.1387 881.102 35.638C881.102 37.1547 880.846 38.342 880.335 39.2C879.832 40.0493 878.961 40.474 877.721 40.474C876.482 40.474 875.607 40.0493 875.096 39.2C874.593 38.342 874.342 37.1547 874.342 35.638ZM879.646 35.638C879.646 34.936 879.598 34.3423 879.503 33.857C879.416 33.3717 879.234 32.9773 878.957 32.674C878.679 32.362 878.268 32.206 877.721 32.206C877.175 32.206 876.764 32.362 876.487 32.674C876.209 32.9773 876.023 33.3717 875.928 33.857C875.841 34.3423 875.798 34.936 875.798 35.638C875.798 36.366 875.841 36.977 875.928 37.471C876.014 37.965 876.196 38.3637 876.474 38.667C876.76 38.9703 877.175 39.122 877.721 39.122C878.268 39.122 878.679 38.9703 878.957 38.667C879.243 38.3637 879.429 37.965 879.516 37.471C879.602 36.977 879.646 36.366 879.646 35.638Z" fill="#B5B5C3"/>
<path d="M892.56 34.156C892.56 34.6153 892.451 35.0487 892.235 35.456C892.018 35.8633 891.671 36.197 891.195 36.457C890.718 36.7083 890.107 36.834 889.362 36.834H887.724V40.5H886.242V31.465H889.362C890.055 31.465 890.64 31.5863 891.117 31.829C891.602 32.063 891.962 32.3837 892.196 32.791C892.438 33.1983 892.56 33.6533 892.56 34.156ZM889.362 35.625C889.925 35.625 890.345 35.4993 890.623 35.248C890.9 34.988 891.039 34.624 891.039 34.156C891.039 33.168 890.48 32.674 889.362 32.674H887.724V35.625H889.362Z" fill="#B5B5C3"/>
<path d="M903.489 31.465V40.5H902.007V34.312L899.251 40.5H898.224L895.455 34.312V40.5H893.973V31.465H895.572L898.744 38.55L901.903 31.465H903.489Z" fill="#B5B5C3"/>
<path d="M272.88 23.408C272.933 22.3413 273.307 21.52 274 20.944C274.704 20.3573 275.627 20.064 276.768 20.064C277.547 20.064 278.213 20.2027 278.768 20.48C279.323 20.7467 279.739 21.1147 280.016 21.584C280.304 22.0427 280.448 22.5653 280.448 23.152C280.448 23.824 280.272 24.3947 279.92 24.864C279.579 25.3227 279.168 25.632 278.688 25.792V25.856C279.307 26.048 279.787 26.3893 280.128 26.88C280.48 27.3707 280.656 28 280.656 28.768C280.656 29.408 280.507 29.9787 280.208 30.48C279.92 30.9813 279.488 31.376 278.912 31.664C278.347 31.9413 277.664 32.08 276.864 32.08C275.659 32.08 274.677 31.776 273.92 31.168C273.163 30.56 272.763 29.664 272.72 28.48H274.896C274.917 29.0027 275.093 29.424 275.424 29.744C275.765 30.0533 276.229 30.208 276.816 30.208C277.36 30.208 277.776 30.0587 278.064 29.76C278.363 29.4507 278.512 29.056 278.512 28.576C278.512 27.936 278.309 27.4773 277.904 27.2C277.499 26.9227 276.869 26.784 276.016 26.784H275.552V24.944H276.016C277.531 24.944 278.288 24.4373 278.288 23.424C278.288 22.9653 278.149 22.608 277.872 22.352C277.605 22.096 277.216 21.968 276.704 21.968C276.203 21.968 275.813 22.1067 275.536 22.384C275.269 22.6507 275.115 22.992 275.072 23.408H272.88Z" fill="#464E5F"/>
<path d="M285.018 28.72C285.103 29.1893 285.295 29.552 285.594 29.808C285.903 30.0533 286.314 30.176 286.826 30.176C287.487 30.176 287.967 29.904 288.266 29.36C288.565 28.8053 288.714 27.8773 288.714 26.576C288.469 26.9173 288.122 27.184 287.674 27.376C287.237 27.568 286.762 27.664 286.25 27.664C285.567 27.664 284.949 27.5253 284.394 27.248C283.85 26.96 283.418 26.5387 283.098 25.984C282.778 25.4187 282.618 24.736 282.618 23.936C282.618 22.752 282.97 21.8133 283.674 21.12C284.378 20.416 285.338 20.064 286.554 20.064C288.069 20.064 289.135 20.5493 289.754 21.52C290.383 22.4907 290.698 23.952 290.698 25.904C290.698 27.2907 290.575 28.4267 290.33 29.312C290.095 30.1973 289.685 30.8693 289.098 31.328C288.522 31.7867 287.733 32.016 286.73 32.016C285.941 32.016 285.269 31.8667 284.714 31.568C284.159 31.2587 283.733 30.8587 283.434 30.368C283.146 29.8667 282.981 29.3173 282.938 28.72H285.018ZM286.714 25.84C287.269 25.84 287.706 25.6693 288.026 25.328C288.346 24.9867 288.506 24.528 288.506 23.952C288.506 23.3227 288.335 22.8373 287.994 22.496C287.663 22.144 287.21 21.968 286.634 21.968C286.058 21.968 285.599 22.1493 285.258 22.512C284.927 22.864 284.762 23.3333 284.762 23.92C284.762 24.4853 284.922 24.9493 285.242 25.312C285.573 25.664 286.063 25.84 286.714 25.84Z" fill="#464E5F"/>
<path d="M292.346 29.728V27.968L297.578 20.48H300.186V27.776H301.594V29.728H300.186V32H297.946V29.728H292.346ZM298.09 22.88L294.81 27.776H298.09V22.88Z" fill="#464E5F"/>
<path d="M304.972 25.824C303.905 25.2693 303.372 24.4107 303.372 23.248C303.372 22.672 303.516 22.1493 303.804 21.68C304.103 21.2 304.545 20.8213 305.132 20.544C305.729 20.256 306.455 20.112 307.308 20.112C308.161 20.112 308.881 20.256 309.468 20.544C310.065 20.8213 310.508 21.2 310.796 21.68C311.095 22.1493 311.244 22.672 311.244 23.248C311.244 23.8347 311.1 24.352 310.812 24.8C310.524 25.2373 310.14 25.5787 309.66 25.824C310.247 26.08 310.705 26.4533 311.036 26.944C311.367 27.4347 311.532 28.016 311.532 28.688C311.532 29.4133 311.345 30.048 310.972 30.592C310.609 31.1253 310.108 31.536 309.468 31.824C308.828 32.112 308.108 32.256 307.308 32.256C306.508 32.256 305.788 32.112 305.148 31.824C304.519 31.536 304.017 31.1253 303.644 30.592C303.281 30.048 303.1 29.4133 303.1 28.688C303.1 28.016 303.265 27.4347 303.596 26.944C303.927 26.4427 304.385 26.0693 304.972 25.824ZM309.068 23.568C309.068 23.0453 308.908 22.64 308.588 22.352C308.279 22.064 307.852 21.92 307.308 21.92C306.775 21.92 306.348 22.064 306.028 22.352C305.719 22.64 305.564 23.0507 305.564 23.584C305.564 24.064 305.724 24.448 306.044 24.736C306.375 25.024 306.796 25.168 307.308 25.168C307.82 25.168 308.241 25.024 308.572 24.736C308.903 24.4373 309.068 24.048 309.068 23.568ZM307.308 26.8C306.7 26.8 306.204 26.9547 305.82 27.264C305.447 27.5733 305.26 28.016 305.26 28.592C305.26 29.1253 305.441 29.5627 305.804 29.904C306.177 30.2347 306.679 30.4 307.308 30.4C307.937 30.4 308.433 30.2293 308.796 29.888C309.159 29.5467 309.34 29.1147 309.34 28.592C309.34 28.0267 309.153 27.5893 308.78 27.28C308.407 26.96 307.916 26.8 307.308 26.8Z" fill="#464E5F"/>
<path d="M321.141 22.272H315.957V25.008C316.181 24.7307 316.501 24.5067 316.917 24.336C317.333 24.1547 317.776 24.064 318.245 24.064C319.098 24.064 319.797 24.2507 320.341 24.624C320.885 24.9973 321.28 25.4773 321.525 26.064C321.77 26.64 321.893 27.2587 321.893 27.92C321.893 29.1467 321.541 30.1333 320.837 30.88C320.144 31.6267 319.152 32 317.861 32C316.645 32 315.674 31.696 314.949 31.088C314.224 30.48 313.813 29.6853 313.717 28.704H315.893C315.989 29.1307 316.202 29.472 316.533 29.728C316.874 29.984 317.306 30.112 317.829 30.112C318.458 30.112 318.933 29.9147 319.253 29.52C319.573 29.1253 319.733 28.6027 319.733 27.952C319.733 27.2907 319.568 26.7893 319.237 26.448C318.917 26.096 318.442 25.92 317.813 25.92C317.365 25.92 316.992 26.032 316.693 26.256C316.394 26.48 316.181 26.7787 316.053 27.152H313.909V20.304H321.141V22.272Z" fill="#464E5F"/>
<path d="M329.646 23.248C329.539 22.8 329.353 22.464 329.086 22.24C328.83 22.016 328.457 21.904 327.966 21.904C327.23 21.904 326.686 22.2027 326.334 22.8C325.993 23.3867 325.817 24.3467 325.806 25.68C326.062 25.2533 326.435 24.9227 326.926 24.688C327.417 24.4427 327.95 24.32 328.526 24.32C329.219 24.32 329.833 24.4693 330.366 24.768C330.899 25.0667 331.315 25.504 331.614 26.08C331.913 26.6453 332.062 27.328 332.062 28.128C332.062 28.8853 331.907 29.5627 331.598 30.16C331.299 30.7467 330.857 31.2053 330.27 31.536C329.683 31.8667 328.985 32.032 328.174 32.032C327.065 32.032 326.19 31.7867 325.55 31.296C324.921 30.8053 324.478 30.1227 324.222 29.248C323.977 28.3627 323.854 27.2747 323.854 25.984C323.854 24.032 324.19 22.56 324.862 21.568C325.534 20.5653 326.595 20.064 328.046 20.064C329.166 20.064 330.035 20.368 330.654 20.976C331.273 21.584 331.63 22.3413 331.726 23.248H329.646ZM328.014 26.16C327.449 26.16 326.974 26.3253 326.59 26.656C326.206 26.9867 326.014 27.4667 326.014 28.096C326.014 28.7253 326.19 29.2213 326.542 29.584C326.905 29.9467 327.411 30.128 328.062 30.128C328.638 30.128 329.091 29.952 329.422 29.6C329.763 29.248 329.934 28.7733 329.934 28.176C329.934 27.5573 329.769 27.0667 329.438 26.704C329.118 26.3413 328.643 26.16 328.014 26.16Z" fill="#464E5F"/>
<path d="M333.864 23.408C333.918 22.3413 334.291 21.52 334.984 20.944C335.688 20.3573 336.611 20.064 337.752 20.064C338.531 20.064 339.198 20.2027 339.752 20.48C340.307 20.7467 340.723 21.1147 341 21.584C341.288 22.0427 341.432 22.5653 341.432 23.152C341.432 23.824 341.256 24.3947 340.904 24.864C340.563 25.3227 340.152 25.632 339.672 25.792V25.856C340.291 26.048 340.771 26.3893 341.112 26.88C341.464 27.3707 341.64 28 341.64 28.768C341.64 29.408 341.491 29.9787 341.192 30.48C340.904 30.9813 340.472 31.376 339.896 31.664C339.331 31.9413 338.648 32.08 337.848 32.08C336.643 32.08 335.662 31.776 334.904 31.168C334.147 30.56 333.747 29.664 333.704 28.48H335.88C335.902 29.0027 336.078 29.424 336.408 29.744C336.75 30.0533 337.214 30.208 337.8 30.208C338.344 30.208 338.76 30.0587 339.048 29.76C339.347 29.4507 339.496 29.056 339.496 28.576C339.496 27.936 339.294 27.4773 338.888 27.2C338.483 26.9227 337.854 26.784 337 26.784H336.536V24.944H337C338.515 24.944 339.272 24.4373 339.272 23.424C339.272 22.9653 339.134 22.608 338.856 22.352C338.59 22.096 338.2 21.968 337.688 21.968C337.187 21.968 336.798 22.1067 336.52 22.384C336.254 22.6507 336.099 22.992 336.056 23.408H333.864Z" fill="#464E5F"/>
<path d="M344.115 29.472C345.138 28.6187 345.954 27.9093 346.562 27.344C347.171 26.768 347.677 26.1707 348.082 25.552C348.488 24.9333 348.69 24.3253 348.69 23.728C348.69 23.184 348.562 22.7573 348.306 22.448C348.05 22.1387 347.656 21.984 347.122 21.984C346.589 21.984 346.178 22.1653 345.891 22.528C345.603 22.88 345.453 23.3653 345.443 23.984H343.267C343.309 22.704 343.688 21.7333 344.402 21.072C345.128 20.4107 346.045 20.08 347.155 20.08C348.371 20.08 349.304 20.4053 349.954 21.056C350.605 21.696 350.931 22.544 350.931 23.6C350.931 24.432 350.707 25.2267 350.259 25.984C349.811 26.7413 349.298 27.4027 348.723 27.968C348.147 28.5227 347.395 29.1947 346.466 29.984H351.186V31.84H343.283V30.176L344.115 29.472Z" fill="#464E5F"/>
<path d="M414.528 27.568C414.528 26.6507 414.715 25.8507 415.088 25.168C415.461 24.4747 415.979 23.9413 416.64 23.568C417.301 23.184 418.059 22.992 418.912 22.992C420.011 22.992 420.917 23.2693 421.632 23.824C422.357 24.368 422.843 25.136 423.088 26.128H420.672C420.544 25.744 420.325 25.4453 420.016 25.232C419.717 25.008 419.344 24.896 418.896 24.896C418.256 24.896 417.749 25.1307 417.376 25.6C417.003 26.0587 416.816 26.7147 416.816 27.568C416.816 28.4107 417.003 29.0667 417.376 29.536C417.749 29.9947 418.256 30.224 418.896 30.224C419.803 30.224 420.395 29.8187 420.672 29.008H423.088C422.843 29.968 422.357 30.7307 421.632 31.296C420.907 31.8613 420 32.144 418.912 32.144C418.059 32.144 417.301 31.9573 416.64 31.584C415.979 31.2 415.461 30.6667 415.088 29.984C414.715 29.2907 414.528 28.4853 414.528 27.568Z" fill="#464E5F"/>
<path d="M428.665 32.144C427.812 32.144 427.044 31.9573 426.361 31.584C425.678 31.2 425.14 30.6613 424.745 29.968C424.361 29.2747 424.169 28.4747 424.169 27.568C424.169 26.6613 424.366 25.8613 424.761 25.168C425.166 24.4747 425.716 23.9413 426.409 23.568C427.102 23.184 427.876 22.992 428.729 22.992C429.582 22.992 430.356 23.184 431.049 23.568C431.742 23.9413 432.286 24.4747 432.681 25.168C433.086 25.8613 433.289 26.6613 433.289 27.568C433.289 28.4747 433.081 29.2747 432.665 29.968C432.26 30.6613 431.705 31.2 431.001 31.584C430.308 31.9573 429.529 32.144 428.665 32.144ZM428.665 30.192C429.07 30.192 429.449 30.096 429.801 29.904C430.164 29.7013 430.452 29.4027 430.665 29.008C430.878 28.6133 430.985 28.1333 430.985 27.568C430.985 26.7253 430.761 26.08 430.313 25.632C429.876 25.1733 429.337 24.944 428.697 24.944C428.057 24.944 427.518 25.1733 427.081 25.632C426.654 26.08 426.441 26.7253 426.441 27.568C426.441 28.4107 426.649 29.0613 427.065 29.52C427.492 29.968 428.025 30.192 428.665 30.192Z" fill="#464E5F"/>
<path d="M434.356 27.536C434.356 26.64 434.532 25.8453 434.884 25.152C435.247 24.4587 435.737 23.9253 436.356 23.552C436.975 23.1787 437.663 22.992 438.42 22.992C438.996 22.992 439.545 23.12 440.068 23.376C440.591 23.6213 441.007 23.952 441.316 24.368V20.16H443.588V32H441.316V30.688C441.039 31.1253 440.649 31.4773 440.148 31.744C439.647 32.0107 439.065 32.144 438.404 32.144C437.657 32.144 436.975 31.952 436.356 31.568C435.737 31.184 435.247 30.6453 434.884 29.952C434.532 29.248 434.356 28.4427 434.356 27.536ZM441.332 27.568C441.332 27.024 441.225 26.56 441.012 26.176C440.799 25.7813 440.511 25.4827 440.148 25.28C439.785 25.0667 439.396 24.96 438.98 24.96C438.564 24.96 438.18 25.0613 437.828 25.264C437.476 25.4667 437.188 25.7653 436.964 26.16C436.751 26.544 436.644 27.0027 436.644 27.536C436.644 28.0693 436.751 28.5387 436.964 28.944C437.188 29.3387 437.476 29.6427 437.828 29.856C438.191 30.0693 438.575 30.176 438.98 30.176C439.396 30.176 439.785 30.0747 440.148 29.872C440.511 29.6587 440.799 29.36 441.012 28.976C441.225 28.5813 441.332 28.112 441.332 27.568Z" fill="#464E5F"/>
<path d="M454.256 23.136L448.768 36.192H446.384L448.304 31.776L444.752 23.136H447.264L449.552 29.328L451.872 23.136H454.256Z" fill="#464E5F"/>
<path d="M459.527 24.976H457.975V32H455.703V24.976H454.695V23.136H455.703V22.688C455.703 21.6 456.013 20.8 456.631 20.288C457.25 19.776 458.183 19.536 459.431 19.568V21.456C458.887 21.4453 458.509 21.536 458.295 21.728C458.082 21.92 457.975 22.2667 457.975 22.768V23.136H459.527V24.976Z" fill="#464E5F"/>
<path d="M469.507 21.504C470.744 21.504 471.816 21.7333 472.723 22.192C473.63 22.6507 474.323 23.296 474.803 24.128C475.294 24.96 475.539 25.92 475.539 27.008C475.539 27.8827 475.384 28.7093 475.075 29.488C474.776 30.2667 474.339 30.896 473.763 31.376C473.187 31.856 472.504 32.096 471.715 32.096C471.16 32.096 470.712 31.984 470.371 31.76C470.03 31.5253 469.811 31.1947 469.715 30.768C469.406 31.184 469.006 31.5147 468.515 31.76C468.024 31.9947 467.507 32.112 466.963 32.112C466.152 32.112 465.518 31.872 465.059 31.392C464.6 30.9013 464.371 30.2347 464.371 29.392C464.371 28.592 464.536 27.8453 464.867 27.152C465.198 26.4587 465.656 25.904 466.243 25.488C466.83 25.0613 467.491 24.848 468.227 24.848C469.144 24.848 469.774 25.168 470.115 25.808L470.259 24.976H472.131L471.379 29.296C471.347 29.4987 471.331 29.6853 471.331 29.856C471.331 30.112 471.384 30.304 471.491 30.432C471.598 30.56 471.779 30.624 472.035 30.624C472.419 30.624 472.739 30.4427 472.995 30.08C473.262 29.7173 473.459 29.264 473.587 28.72C473.726 28.176 473.795 27.632 473.795 27.088C473.795 25.7973 473.4 24.8 472.611 24.096C471.822 23.3813 470.707 23.024 469.267 23.024C468.04 23.024 466.931 23.3227 465.939 23.92C464.947 24.5067 464.168 25.312 463.603 26.336C463.048 27.3493 462.771 28.48 462.771 29.728C462.771 31.0507 463.16 32.0693 463.939 32.784C464.728 33.4987 465.843 33.856 467.283 33.856C468.318 33.856 469.23 33.6693 470.019 33.296L470.339 34.768C469.326 35.1947 468.2 35.408 466.963 35.408C465.768 35.408 464.723 35.1787 463.827 34.72C462.931 34.272 462.238 33.632 461.747 32.8C461.256 31.968 461.011 31.0027 461.011 29.904C461.011 28.336 461.374 26.912 462.099 25.632C462.835 24.352 463.848 23.344 465.139 22.608C466.44 21.872 467.896 21.504 469.507 21.504ZM467.667 30.448C468.051 30.448 468.403 30.336 468.723 30.112C469.043 29.888 469.294 29.5893 469.475 29.216C469.667 28.8427 469.763 28.4427 469.763 28.016C469.763 27.568 469.64 27.2053 469.395 26.928C469.15 26.6507 468.808 26.512 468.371 26.512C467.976 26.512 467.63 26.6347 467.331 26.88C467.032 27.1147 466.798 27.424 466.627 27.808C466.467 28.192 466.387 28.5973 466.387 29.024C466.387 29.4613 466.494 29.808 466.707 30.064C466.92 30.32 467.24 30.448 467.667 30.448Z" fill="#464E5F"/>
<path d="M488.799 23.008C489.888 23.008 490.762 23.344 491.423 24.016C492.095 24.6773 492.431 25.6053 492.431 26.8V32H490.191V27.104C490.191 26.4107 490.016 25.8827 489.664 25.52C489.312 25.1467 488.832 24.96 488.224 24.96C487.616 24.96 487.13 25.1467 486.767 25.52C486.415 25.8827 486.24 26.4107 486.24 27.104V32H484V27.104C484 26.4107 483.823 25.8827 483.471 25.52C483.12 25.1467 482.639 24.96 482.031 24.96C481.413 24.96 480.922 25.1467 480.56 25.52C480.208 25.8827 480.031 26.4107 480.031 27.104V32H477.792V23.136H480.031V24.208C480.319 23.8347 480.688 23.5413 481.135 23.328C481.594 23.1147 482.095 23.008 482.639 23.008C483.333 23.008 483.952 23.1573 484.496 23.456C485.04 23.744 485.461 24.16 485.759 24.704C486.047 24.192 486.464 23.7813 487.008 23.472C487.562 23.1627 488.159 23.008 488.799 23.008Z" fill="#464E5F"/>
<path d="M493.981 27.536C493.981 26.64 494.157 25.8453 494.509 25.152C494.872 24.4587 495.357 23.9253 495.965 23.552C496.584 23.1787 497.272 22.992 498.029 22.992C498.69 22.992 499.266 23.1253 499.757 23.392C500.258 23.6587 500.658 23.9947 500.957 24.4V23.136H503.213V32H500.957V30.704C500.669 31.12 500.269 31.4667 499.757 31.744C499.256 32.0107 498.674 32.144 498.013 32.144C497.266 32.144 496.584 31.952 495.965 31.568C495.357 31.184 494.872 30.6453 494.509 29.952C494.157 29.248 493.981 28.4427 493.981 27.536ZM500.957 27.568C500.957 27.024 500.85 26.56 500.637 26.176C500.424 25.7813 500.136 25.4827 499.773 25.28C499.41 25.0667 499.021 24.96 498.605 24.96C498.189 24.96 497.805 25.0613 497.453 25.264C497.101 25.4667 496.813 25.7653 496.589 26.16C496.376 26.544 496.269 27.0027 496.269 27.536C496.269 28.0693 496.376 28.5387 496.589 28.944C496.813 29.3387 497.101 29.6427 497.453 29.856C497.816 30.0693 498.2 30.176 498.605 30.176C499.021 30.176 499.41 30.0747 499.773 29.872C500.136 29.6587 500.424 29.36 500.637 28.976C500.85 28.5813 500.957 28.112 500.957 27.568Z" fill="#464E5F"/>
<path d="M506.537 22.08C506.142 22.08 505.812 21.9573 505.545 21.712C505.289 21.456 505.161 21.1413 505.161 20.768C505.161 20.3947 505.289 20.0853 505.545 19.84C505.812 19.584 506.142 19.456 506.537 19.456C506.932 19.456 507.257 19.584 507.513 19.84C507.78 20.0853 507.913 20.3947 507.913 20.768C507.913 21.1413 507.78 21.456 507.513 21.712C507.257 21.9573 506.932 22.08 506.537 22.08ZM507.641 23.136V32H505.401V23.136H507.641Z" fill="#464E5F"/>
<path d="M512.094 20.16V32H509.854V20.16H512.094Z" fill="#464E5F"/>
<path d="M515.299 32.112C514.894 32.112 514.558 31.9893 514.291 31.744C514.035 31.488 513.907 31.1733 513.907 30.8C513.907 30.4267 514.035 30.1173 514.291 29.872C514.558 29.616 514.894 29.488 515.299 29.488C515.694 29.488 516.019 29.616 516.275 29.872C516.531 30.1173 516.659 30.4267 516.659 30.8C516.659 31.1733 516.531 31.488 516.275 31.744C516.019 31.9893 515.694 32.112 515.299 32.112Z" fill="#464E5F"/>
<path d="M517.887 27.568C517.887 26.6507 518.074 25.8507 518.447 25.168C518.821 24.4747 519.338 23.9413 519.999 23.568C520.661 23.184 521.418 22.992 522.271 22.992C523.37 22.992 524.277 23.2693 524.991 23.824C525.717 24.368 526.202 25.136 526.447 26.128H524.031C523.903 25.744 523.685 25.4453 523.375 25.232C523.077 25.008 522.703 24.896 522.255 24.896C521.615 24.896 521.109 25.1307 520.735 25.6C520.362 26.0587 520.175 26.7147 520.175 27.568C520.175 28.4107 520.362 29.0667 520.735 29.536C521.109 29.9947 521.615 30.224 522.255 30.224C523.162 30.224 523.754 29.8187 524.031 29.008H526.447C526.202 29.968 525.717 30.7307 524.991 31.296C524.266 31.8613 523.359 32.144 522.271 32.144C521.418 32.144 520.661 31.9573 519.999 31.584C519.338 31.2 518.821 30.6667 518.447 29.984C518.074 29.2907 517.887 28.4853 517.887 27.568Z" fill="#464E5F"/>
<path d="M532.024 32.144C531.171 32.144 530.403 31.9573 529.72 31.584C529.038 31.2 528.499 30.6613 528.104 29.968C527.72 29.2747 527.528 28.4747 527.528 27.568C527.528 26.6613 527.726 25.8613 528.12 25.168C528.526 24.4747 529.075 23.9413 529.768 23.568C530.462 23.184 531.235 22.992 532.088 22.992C532.942 22.992 533.715 23.184 534.408 23.568C535.102 23.9413 535.646 24.4747 536.04 25.168C536.446 25.8613 536.648 26.6613 536.648 27.568C536.648 28.4747 536.44 29.2747 536.024 29.968C535.619 30.6613 535.064 31.2 534.36 31.584C533.667 31.9573 532.888 32.144 532.024 32.144ZM532.024 30.192C532.43 30.192 532.808 30.096 533.16 29.904C533.523 29.7013 533.811 29.4027 534.024 29.008C534.238 28.6133 534.344 28.1333 534.344 27.568C534.344 26.7253 534.12 26.08 533.672 25.632C533.235 25.1733 532.696 24.944 532.056 24.944C531.416 24.944 530.878 25.1733 530.44 25.632C530.014 26.08 529.8 26.7253 529.8 27.568C529.8 28.4107 530.008 29.0613 530.424 29.52C530.851 29.968 531.384 30.192 532.024 30.192Z" fill="#464E5F"/>
<path d="M549.299 23.008C550.388 23.008 551.262 23.344 551.924 24.016C552.596 24.6773 552.932 25.6053 552.932 26.8V32H550.692V27.104C550.692 26.4107 550.516 25.8827 550.164 25.52C549.812 25.1467 549.331 24.96 548.724 24.96C548.116 24.96 547.63 25.1467 547.268 25.52C546.916 25.8827 546.74 26.4107 546.74 27.104V32H544.5V27.104C544.5 26.4107 544.323 25.8827 543.971 25.52C543.62 25.1467 543.139 24.96 542.531 24.96C541.913 24.96 541.422 25.1467 541.06 25.52C540.708 25.8827 540.531 26.4107 540.531 27.104V32H538.292V23.136H540.531V24.208C540.82 23.8347 541.188 23.5413 541.635 23.328C542.094 23.1147 542.596 23.008 543.14 23.008C543.833 23.008 544.451 23.1573 544.995 23.456C545.539 23.744 545.961 24.16 546.26 24.704C546.548 24.192 546.964 23.7813 547.508 23.472C548.062 23.1627 548.659 23.008 549.299 23.008Z" fill="#464E5F"/>
<path d="M640.976 35.152C639.941 34.1493 639.136 32.8693 638.56 31.312C637.995 29.7547 637.712 28.0853 637.712 26.304C637.712 24.48 638.011 22.768 638.608 21.168C639.205 19.5573 640.075 18.24 641.216 17.216H643.472V17.424C642.299 18.544 641.403 19.888 640.784 21.456C640.176 23.024 639.872 24.64 639.872 26.304C639.872 27.9253 640.16 29.4933 640.736 31.008C641.323 32.512 642.155 33.8187 643.232 34.928V35.152H640.976Z" fill="#464E5F"/>
<path d="M645.318 29.472C646.342 28.6187 647.158 27.9093 647.766 27.344C648.374 26.768 648.88 26.1707 649.286 25.552C649.691 24.9333 649.894 24.3253 649.894 23.728C649.894 23.184 649.766 22.7573 649.51 22.448C649.254 22.1387 648.859 21.984 648.326 21.984C647.792 21.984 647.382 22.1653 647.094 22.528C646.806 22.88 646.656 23.3653 646.646 23.984H644.47C644.512 22.704 644.891 21.7333 645.606 21.072C646.331 20.4107 647.248 20.08 648.358 20.08C649.574 20.08 650.507 20.4053 651.158 21.056C651.808 21.696 652.134 22.544 652.134 23.6C652.134 24.432 651.91 25.2267 651.462 25.984C651.014 26.7413 650.502 27.4027 649.926 27.968C649.35 28.5227 648.598 29.1947 647.67 29.984H652.39V31.84H644.486V30.176L645.318 29.472Z" fill="#464E5F"/>
<path d="M654.505 29.472C655.529 28.6187 656.345 27.9093 656.953 27.344C657.561 26.768 658.068 26.1707 658.473 25.552C658.878 24.9333 659.081 24.3253 659.081 23.728C659.081 23.184 658.953 22.7573 658.697 22.448C658.441 22.1387 658.046 21.984 657.513 21.984C656.98 21.984 656.569 22.1653 656.281 22.528C655.993 22.88 655.844 23.3653 655.833 23.984H653.657C653.7 22.704 654.078 21.7333 654.793 21.072C655.518 20.4107 656.436 20.08 657.545 20.08C658.761 20.08 659.694 20.4053 660.345 21.056C660.996 21.696 661.321 22.544 661.321 23.6C661.321 24.432 661.097 25.2267 660.649 25.984C660.201 26.7413 659.689 27.4027 659.113 27.968C658.537 28.5227 657.785 29.1947 656.857 29.984H661.577V31.84H653.673V30.176L654.505 29.472Z" fill="#464E5F"/>
<path d="M665.581 28.72C665.666 29.1893 665.858 29.552 666.157 29.808C666.466 30.0533 666.877 30.176 667.389 30.176C668.05 30.176 668.53 29.904 668.829 29.36C669.127 28.8053 669.277 27.8773 669.277 26.576C669.031 26.9173 668.685 27.184 668.237 27.376C667.799 27.568 667.325 27.664 666.813 27.664C666.13 27.664 665.511 27.5253 664.957 27.248C664.413 26.96 663.981 26.5387 663.661 25.984C663.341 25.4187 663.181 24.736 663.181 23.936C663.181 22.752 663.533 21.8133 664.237 21.12C664.941 20.416 665.901 20.064 667.117 20.064C668.631 20.064 669.698 20.5493 670.317 21.52C670.946 22.4907 671.261 23.952 671.261 25.904C671.261 27.2907 671.138 28.4267 670.893 29.312C670.658 30.1973 670.247 30.8693 669.661 31.328C669.085 31.7867 668.295 32.016 667.293 32.016C666.503 32.016 665.831 31.8667 665.277 31.568C664.722 31.2587 664.295 30.8587 663.997 30.368C663.709 29.8667 663.543 29.3173 663.501 28.72H665.581ZM667.277 25.84C667.831 25.84 668.269 25.6693 668.589 25.328C668.909 24.9867 669.069 24.528 669.069 23.952C669.069 23.3227 668.898 22.8373 668.557 22.496C668.226 22.144 667.773 21.968 667.197 21.968C666.621 21.968 666.162 22.1493 665.821 22.512C665.49 22.864 665.325 23.3333 665.325 23.92C665.325 24.4853 665.485 24.9493 665.805 25.312C666.135 25.664 666.626 25.84 667.277 25.84Z" fill="#464E5F"/>
<path d="M672.684 35.152V34.928C673.762 33.8187 674.588 32.512 675.164 31.008C675.751 29.4933 676.044 27.9253 676.044 26.304C676.044 24.64 675.735 23.024 675.116 21.456C674.508 19.888 673.618 18.544 672.444 17.424V17.216H674.7C675.842 18.24 676.711 19.5573 677.308 21.168C677.906 22.768 678.204 24.48 678.204 26.304C678.204 28.0853 677.916 29.7547 677.34 31.312C676.775 32.8693 675.975 34.1493 674.94 35.152H672.684Z" fill="#464E5F"/>
<path d="M692.422 22.272H687.238V25.008C687.462 24.7307 687.782 24.5067 688.198 24.336C688.614 24.1547 689.057 24.064 689.526 24.064C690.38 24.064 691.078 24.2507 691.622 24.624C692.166 24.9973 692.561 25.4773 692.806 26.064C693.052 26.64 693.174 27.2587 693.174 27.92C693.174 29.1467 692.822 30.1333 692.118 30.88C691.425 31.6267 690.433 32 689.142 32C687.926 32 686.956 31.696 686.23 31.088C685.505 30.48 685.094 29.6853 684.998 28.704H687.174C687.27 29.1307 687.484 29.472 687.814 29.728C688.156 29.984 688.588 30.112 689.11 30.112C689.74 30.112 690.214 29.9147 690.534 29.52C690.854 29.1253 691.014 28.6027 691.014 27.952C691.014 27.2907 690.849 26.7893 690.518 26.448C690.198 26.096 689.724 25.92 689.094 25.92C688.646 25.92 688.273 26.032 687.974 26.256C687.676 26.48 687.462 26.7787 687.334 27.152H685.19V20.304H692.422V22.272Z" fill="#464E5F"/>
<path d="M702.719 22.272H697.535V25.008C697.759 24.7307 698.079 24.5067 698.495 24.336C698.911 24.1547 699.354 24.064 699.823 24.064C700.677 24.064 701.375 24.2507 701.919 24.624C702.463 24.9973 702.858 25.4773 703.103 26.064C703.349 26.64 703.471 27.2587 703.471 27.92C703.471 29.1467 703.119 30.1333 702.415 30.88C701.722 31.6267 700.73 32 699.439 32C698.223 32 697.253 31.696 696.527 31.088C695.802 30.48 695.391 29.6853 695.295 28.704H697.471C697.567 29.1307 697.781 29.472 698.111 29.728C698.453 29.984 698.885 30.112 699.407 30.112C700.037 30.112 700.511 29.9147 700.831 29.52C701.151 29.1253 701.311 28.6027 701.311 27.952C701.311 27.2907 701.146 26.7893 700.815 26.448C700.495 26.096 700.021 25.92 699.391 25.92C698.943 25.92 698.57 26.032 698.271 26.256C697.973 26.48 697.759 26.7787 697.631 27.152H695.487V20.304H702.719V22.272Z" fill="#464E5F"/>
<path d="M713.016 22.272H707.832V25.008C708.056 24.7307 708.376 24.5067 708.792 24.336C709.208 24.1547 709.651 24.064 710.12 24.064C710.973 24.064 711.672 24.2507 712.216 24.624C712.76 24.9973 713.155 25.4773 713.4 26.064C713.646 26.64 713.768 27.2587 713.768 27.92C713.768 29.1467 713.416 30.1333 712.712 30.88C712.019 31.6267 711.027 32 709.736 32C708.52 32 707.549 31.696 706.824 31.088C706.099 30.48 705.688 29.6853 705.592 28.704H707.768C707.864 29.1307 708.077 29.472 708.408 29.728C708.749 29.984 709.181 30.112 709.704 30.112C710.333 30.112 710.808 29.9147 711.128 29.52C711.448 29.1253 711.608 28.6027 711.608 27.952C711.608 27.2907 711.443 26.7893 711.112 26.448C710.792 26.096 710.317 25.92 709.688 25.92C709.24 25.92 708.867 26.032 708.568 26.256C708.269 26.48 708.056 26.7787 707.928 27.152H705.784V20.304H713.016V22.272Z" fill="#464E5F"/>
<path d="M722.545 25.344V27.232H715.761V25.344H722.545Z" fill="#464E5F"/>
<path d="M724.801 26.016C724.801 24.1707 725.132 22.7253 725.793 21.68C726.465 20.6347 727.574 20.112 729.121 20.112C730.668 20.112 731.772 20.6347 732.433 21.68C733.105 22.7253 733.441 24.1707 733.441 26.016C733.441 27.872 733.105 29.328 732.433 30.384C731.772 31.44 730.668 31.968 729.121 31.968C727.574 31.968 726.465 31.44 725.793 30.384C725.132 29.328 724.801 27.872 724.801 26.016ZM731.233 26.016C731.233 25.2267 731.18 24.5653 731.073 24.032C730.977 23.488 730.774 23.0453 730.465 22.704C730.167 22.3627 729.719 22.192 729.121 22.192C728.524 22.192 728.07 22.3627 727.761 22.704C727.462 23.0453 727.26 23.488 727.153 24.032C727.057 24.5653 727.009 25.2267 727.009 26.016C727.009 26.8267 727.057 27.5093 727.153 28.064C727.249 28.608 727.452 29.0507 727.761 29.392C728.07 29.7227 728.524 29.888 729.121 29.888C729.719 29.888 730.172 29.7227 730.481 29.392C730.79 29.0507 730.993 28.608 731.089 28.064C731.185 27.5093 731.233 26.8267 731.233 26.016Z" fill="#464E5F"/>
<path d="M734.873 22.4V20.336H738.729V32H736.425V22.4H734.873Z" fill="#464E5F"/>
<path d="M740.942 26.016C740.942 24.1707 741.272 22.7253 741.934 21.68C742.606 20.6347 743.715 20.112 745.262 20.112C746.808 20.112 747.912 20.6347 748.574 21.68C749.246 22.7253 749.582 24.1707 749.582 26.016C749.582 27.872 749.246 29.328 748.574 30.384C747.912 31.44 746.808 31.968 745.262 31.968C743.715 31.968 742.606 31.44 741.934 30.384C741.272 29.328 740.942 27.872 740.942 26.016ZM747.374 26.016C747.374 25.2267 747.32 24.5653 747.214 24.032C747.118 23.488 746.915 23.0453 746.606 22.704C746.307 22.3627 745.859 22.192 745.262 22.192C744.664 22.192 744.211 22.3627 743.902 22.704C743.603 23.0453 743.4 23.488 743.294 24.032C743.198 24.5653 743.15 25.2267 743.15 26.016C743.15 26.8267 743.198 27.5093 743.294 28.064C743.39 28.608 743.592 29.0507 743.902 29.392C744.211 29.7227 744.664 29.888 745.262 29.888C745.859 29.888 746.312 29.7227 746.622 29.392C746.931 29.0507 747.134 28.608 747.23 28.064C747.326 27.5093 747.374 26.8267 747.374 26.016Z" fill="#464E5F"/>
<path d="M753.878 28.72C753.963 29.1893 754.155 29.552 754.453 29.808C754.763 30.0533 755.173 30.176 755.685 30.176C756.347 30.176 756.827 29.904 757.125 29.36C757.424 28.8053 757.573 27.8773 757.573 26.576C757.328 26.9173 756.982 27.184 756.534 27.376C756.096 27.568 755.622 27.664 755.109 27.664C754.427 27.664 753.808 27.5253 753.253 27.248C752.709 26.96 752.278 26.5387 751.958 25.984C751.638 25.4187 751.477 24.736 751.477 23.936C751.477 22.752 751.83 21.8133 752.534 21.12C753.237 20.416 754.198 20.064 755.414 20.064C756.928 20.064 757.995 20.5493 758.614 21.52C759.243 22.4907 759.557 23.952 759.557 25.904C759.557 27.2907 759.435 28.4267 759.19 29.312C758.955 30.1973 758.544 30.8693 757.958 31.328C757.382 31.7867 756.592 32.016 755.589 32.016C754.8 32.016 754.128 31.8667 753.573 31.568C753.019 31.2587 752.592 30.8587 752.294 30.368C752.005 29.8667 751.84 29.3173 751.797 28.72H753.878ZM755.573 25.84C756.128 25.84 756.565 25.6693 756.885 25.328C757.206 24.9867 757.365 24.528 757.365 23.952C757.365 23.3227 757.195 22.8373 756.854 22.496C756.523 22.144 756.07 21.968 755.494 21.968C754.918 21.968 754.459 22.1493 754.117 22.512C753.787 22.864 753.622 23.3333 753.622 23.92C753.622 24.4853 753.781 24.9493 754.102 25.312C754.432 25.664 754.923 25.84 755.573 25.84Z" fill="#464E5F"/>
<path d="M0 6C0 2.68629 2.68629 0 6 0H44C47.3137 0 50 2.68629 50 6V44C50 47.3137 47.3137 50 44 50H6C2.68629 50 0 47.3137 0 44V6Z" fill="#F3F6F9"/>
<path d="M38.0506 45.6889L37.9191 45.2383C37.8555 45.0206 37.6435 44.8872 37.4254 44.9149L36.9991 41.7173C36.9991 41.7172 36.9991 41.7174 36.9991 41.7173L36.9657 41.4665C36.8147 40.3336 36.1127 39.3495 34.9568 38.7715L33.6021 38.0942C33.3827 37.9846 33.2152 38.1257 33.0541 38.3049L30.0812 37.2111C29.518 37.0234 29.1381 36.4963 29.1381 35.9026V33.6783L32.1089 32.4404C33.6507 31.7978 34.6551 30.2912 34.6551 28.6207V22.4138C34.6551 20.5093 33.1112 17.5862 31.2068 17.5862H18.793C16.8886 17.5862 15.3448 20.5093 15.3448 22.4138V28.6207C15.3448 30.2911 16.3492 31.7978 17.8912 32.4403L20.862 33.6782V35.9024C20.862 36.4961 20.4821 37.0232 19.9189 37.2109L16.9461 38.3047C16.7849 38.1255 16.6174 37.9843 16.398 38.0941L15.0434 38.7714C13.8874 39.3494 13.1855 40.3335 13.0344 41.4664L13.0011 41.7169C13.0011 41.7168 13.0011 41.717 13.0011 41.7169L12.5748 44.9147C12.3567 44.887 12.1447 45.0204 12.0811 45.2381L11.9495 45.6887C11.8791 45.93 12.0176 46.1826 12.2589 46.253L12.3912 46.2916L12.2092 47.6575C12.0435 48.8979 13.0083 50 14.2596 50H35.7403C36.9916 50 37.9565 48.8979 37.7911 47.6576L37.609 46.2917L37.7413 46.2531C37.9825 46.1828 38.1211 45.9302 38.0506 45.6889Z" fill="#F6B47B"/>
<path d="M20.862 33.5345L20.862 35.9024C20.862 36.3932 20.6019 36.838 20.1938 37.0836C25.6898 38.0332 28.8311 33.911 29.1165 33.5345H20.862Z" fill="#E2A071"/>
<path d="M32.1089 32.4404L27.6524 34.2972C26.8119 34.6473 25.9104 34.8277 24.9999 34.8277C24.0894 34.8277 23.1878 34.6473 22.3473 34.2972L17.8912 32.4403C16.3492 31.7978 15.3448 30.2911 15.3448 28.6207V22.4138C15.3448 20.5093 16.8886 17.5862 18.793 17.5862H31.2068C33.1112 17.5862 34.6551 20.5093 34.6551 22.4138V28.6207C34.6551 30.2912 33.6507 31.7978 32.1089 32.4404Z" fill="#FDC88E"/>
<path d="M20.1724 26.5517C19.7931 26.5517 19.4828 26.2414 19.4828 25.8621V25.1724C19.4828 24.7931 19.7931 24.4828 20.1724 24.4828C20.5517 24.4828 20.8621 24.7931 20.8621 25.1724V25.8621C20.8621 26.2414 20.5517 26.5517 20.1724 26.5517Z" fill="#623F33"/>
<path d="M29.8276 26.5517C29.4483 26.5517 29.1379 26.2414 29.1379 25.8621V25.1724C29.1379 24.7931 29.4483 24.4828 29.8276 24.4828C30.2069 24.4828 30.5172 24.7931 30.5172 25.1724V25.8621C30.5172 26.2414 30.2069 26.5517 29.8276 26.5517Z" fill="#623F33"/>
<path d="M25 31.3981C23.7739 31.3981 22.627 31.0964 21.8535 30.5701C21.5386 30.356 21.4567 29.9269 21.6713 29.6121C21.8851 29.2976 22.3145 29.2157 22.6293 29.4299C23.1715 29.7986 24.0578 30.0189 25 30.0189C25.9422 30.0189 26.8285 29.7986 27.3707 29.4299C27.6862 29.2151 28.1146 29.2973 28.3287 29.6121C28.5432 29.9269 28.4614 30.356 28.1466 30.5701C27.3731 31.0964 26.2261 31.3981 25 31.3981Z" fill="#E2A071"/>
<path d="M15.3448 23.2019L15.3448 28.6207C15.3448 30.2911 16.3492 31.7978 17.8912 32.4403L22.3473 34.2972C22.5654 34.388 22.7879 34.4663 23.0134 34.5342C21.0441 33.0936 19.7332 31.8342 18.9651 31.0107C18.4063 30.4116 18.1035 29.621 18.1035 28.8017V24.9473C20.0776 24.2582 25.1849 21.995 25.2558 18.2761C25.2625 17.9246 25.2572 17.6113 25.2416 17.3319C21.9959 21.7685 17.4992 22.9319 15.3448 23.2019Z" fill="#F6B47B"/>
<path d="M36.9396 32.939C36.9396 31.4777 35.7349 30.8602 35.7349 29.6158C35.7349 28.3714 37.3002 28.0366 37.3002 26.1711C37.3002 24.9241 36.7446 23.9559 36.3759 23.0636C38.4776 13.9546 30.5938 10 28.4483 10C26.2069 10 25 10.6897 25 10.6897C25 10.6897 23.7931 10 21.5517 10C19.4062 10 11.5224 13.9546 13.624 23.0635C13.2554 23.9558 12.6997 24.924 12.6997 26.171C12.6997 28.0366 14.2651 28.3713 14.2651 29.6157C14.2651 30.8601 13.0603 31.4777 13.0603 32.9389C13.0603 34.4002 14.2207 35.1078 14.5977 36.2072C14.7701 36.71 14.569 38.2184 14.569 38.2184C14.569 38.2184 15.7974 36.1915 15.1508 34.3295C14.5043 32.4675 15.2543 32.2672 15.8405 31.4541C16.7241 30.2284 16.6043 28.8534 15.8827 27.517C15.4166 26.6539 15.5393 25.8202 16.1925 25.2397C16.88 24.6289 17.0412 23.5747 17.0421 23.5679C20.3071 22.6121 25 20.6972 25 17.5862C25 20.6972 29.6928 22.6121 32.9577 23.5679C32.9588 23.5746 33.12 24.6289 33.8074 25.2397C34.4606 25.8202 34.5833 26.6539 34.1172 27.517C33.3956 28.8534 33.2758 30.2285 34.1594 31.4541C34.7456 32.2672 35.4956 32.4675 34.849 34.3295C34.2025 36.1914 35.4309 38.2184 35.4309 38.2184C35.4309 38.2184 35.2298 36.7099 35.4022 36.2072C35.7793 35.1078 36.9396 34.4002 36.9396 32.939Z" fill="#6E4439"/>
<path d="M36.9657 41.4665C36.8147 40.3336 36.1127 39.3495 34.9568 38.7715L33.6021 38.0942C33.3517 37.9691 33.1688 38.1707 32.986 38.3827C29.3105 42.644 25.0002 44.4833 25.0002 44.4833C25.0002 44.4833 20.6898 42.644 17.0143 38.3827C16.8314 38.1707 16.6484 37.9689 16.398 38.0941L15.0434 38.7714C13.8874 39.3494 13.1855 40.3335 13.0344 41.4664L12.4732 45.6767C14.2949 46.304 17.4137 47.2416 17.4137 47.2416V50.0002H32.5862V47.2416C32.5862 47.2416 35.7049 46.304 37.5269 45.6767L36.9657 41.4665Z" fill="#57B9DD"/>
<path d="M17.3967 47.0307C17.3545 46.2106 17.0807 45.4182 16.5862 44.7587L13.3485 40.4418C13.1922 40.7637 13.0825 41.1061 13.0344 41.4664L12.4876 45.5666L17.3967 47.0307Z" fill="#43A0C5"/>
<path d="M11.9495 45.6887C11.8791 45.93 12.0176 46.1826 12.2589 46.253L17.4138 47.7571L17.4137 47.2416C17.4137 46.9158 17.3626 46.5966 17.2878 46.2835L12.6451 44.9292C12.4039 44.8588 12.1514 44.9969 12.0811 45.2381L11.9495 45.6887Z" fill="#258CAC"/>
<path d="M32.6033 47.0307C32.6454 46.2106 32.9192 45.4182 33.4138 44.7587L36.6515 40.4418C36.8078 40.7637 36.9176 41.1063 36.9657 41.4665L37.5123 45.5666L32.6033 47.0307Z" fill="#43A0C5"/>
<path d="M38.0506 45.6889C38.1211 45.9302 37.9825 46.1828 37.7413 46.2531L32.5862 47.7571L32.5862 47.2416C32.5862 46.9158 32.6374 46.5966 32.7122 46.2835L37.3549 44.9292C37.5961 44.8588 37.8487 44.9971 37.9191 45.2383L38.0506 45.6889Z" fill="#258CAC"/>
<path d="M21.5517 10C19.4062 10 11.5224 13.9546 13.624 23.0635C13.2554 23.9558 12.6997 24.924 12.6997 26.171C12.6997 28.0366 14.2651 28.3713 14.2651 29.6157C14.2651 30.8601 13.0603 31.4777 13.0603 32.9389C13.0603 34.4002 14.2207 35.1078 14.5977 36.2072C14.7701 36.71 14.569 38.2184 14.569 38.2184C14.569 38.2184 15.7974 36.1915 15.1508 34.3295C14.5043 32.4675 15.2543 32.2672 15.8405 31.4541C16.7241 30.2284 16.6043 28.8534 15.8827 27.517C15.4166 26.6539 15.5393 25.8202 16.1925 25.2397C16.88 24.6289 17.0412 23.5747 17.0421 23.5679C17.0419 23.5679 17.0424 23.5678 17.0421 23.5679C15.0939 14.6009 22.8614 10.6965 25 10.6897C25 10.6897 23.7931 10 21.5517 10Z" fill="#5E342E"/>
<path d="M65.56 15.4C65.56 14.3013 65.8053 13.32 66.296 12.456C66.7973 11.5813 67.4747 10.904 68.328 10.424C69.192 9.93333 70.1573 9.688 71.224 9.688C72.472 9.688 73.5653 10.008 74.504 10.648C75.4427 11.288 76.0987 12.1733 76.472 13.304H73.896C73.64 12.7707 73.2773 12.3707 72.808 12.104C72.3493 11.8373 71.816 11.704 71.208 11.704C70.5573 11.704 69.976 11.8587 69.464 12.168C68.9627 12.4667 68.568 12.8933 68.28 13.448C68.0027 14.0027 67.864 14.6533 67.864 15.4C67.864 16.136 68.0027 16.7867 68.28 17.352C68.568 17.9067 68.9627 18.3387 69.464 18.648C69.976 18.9467 70.5573 19.096 71.208 19.096C71.816 19.096 72.3493 18.9627 72.808 18.696C73.2773 18.4187 73.64 18.0133 73.896 17.48H76.472C76.0987 18.6213 75.4427 19.512 74.504 20.152C73.576 20.7813 72.4827 21.096 71.224 21.096C70.1573 21.096 69.192 20.856 68.328 20.376C67.4747 19.8853 66.7973 19.208 66.296 18.344C65.8053 17.48 65.56 16.4987 65.56 15.4Z" fill="#464E5F"/>
<path d="M82.3213 21.144C81.4679 21.144 80.6999 20.9573 80.0173 20.584C79.3346 20.2 78.7959 19.6613 78.4013 18.968C78.0173 18.2747 77.8252 17.4747 77.8252 16.568C77.8252 15.6613 78.0226 14.8613 78.4173 14.168C78.8226 13.4747 79.3719 12.9413 80.0652 12.568C80.7586 12.184 81.5319 11.992 82.3853 11.992C83.2386 11.992 84.0119 12.184 84.7053 12.568C85.3986 12.9413 85.9426 13.4747 86.3372 14.168C86.7426 14.8613 86.9453 15.6613 86.9453 16.568C86.9453 17.4747 86.7373 18.2747 86.3213 18.968C85.9159 19.6613 85.3613 20.2 84.6572 20.584C83.9639 20.9573 83.1852 21.144 82.3213 21.144ZM82.3213 19.192C82.7266 19.192 83.1053 19.096 83.4573 18.904C83.8199 18.7013 84.1079 18.4027 84.3213 18.008C84.5346 17.6133 84.6413 17.1333 84.6413 16.568C84.6413 15.7253 84.4173 15.08 83.9693 14.632C83.5319 14.1733 82.9932 13.944 82.3532 13.944C81.7132 13.944 81.1746 14.1733 80.7373 14.632C80.3106 15.08 80.0973 15.7253 80.0973 16.568C80.0973 17.4107 80.3053 18.0613 80.7213 18.52C81.1479 18.968 81.6813 19.192 82.3213 19.192Z" fill="#464E5F"/>
<path d="M88.0124 16.536C88.0124 15.64 88.1884 14.8453 88.5404 14.152C88.903 13.4587 89.3937 12.9253 90.0124 12.552C90.631 12.1787 91.319 11.992 92.0764 11.992C92.6524 11.992 93.2017 12.12 93.7244 12.376C94.247 12.6213 94.663 12.952 94.9724 13.368V9.16H97.2444V21H94.9724V19.688C94.695 20.1253 94.3057 20.4773 93.8044 20.744C93.303 21.0107 92.7217 21.144 92.0604 21.144C91.3137 21.144 90.631 20.952 90.0124 20.568C89.3937 20.184 88.903 19.6453 88.5404 18.952C88.1884 18.248 88.0124 17.4427 88.0124 16.536ZM94.9884 16.568C94.9884 16.024 94.8817 15.56 94.6684 15.176C94.455 14.7813 94.167 14.4827 93.8044 14.28C93.4417 14.0667 93.0524 13.96 92.6364 13.96C92.2204 13.96 91.8364 14.0613 91.4844 14.264C91.1324 14.4667 90.8444 14.7653 90.6204 15.16C90.407 15.544 90.3004 16.0027 90.3004 16.536C90.3004 17.0693 90.407 17.5387 90.6204 17.944C90.8444 18.3387 91.1324 18.6427 91.4844 18.856C91.847 19.0693 92.231 19.176 92.6364 19.176C93.0524 19.176 93.4417 19.0747 93.8044 18.872C94.167 18.6587 94.455 18.36 94.6684 17.976C94.8817 17.5813 94.9884 17.112 94.9884 16.568Z" fill="#464E5F"/>
<path d="M107.912 12.136L102.424 25.192H100.04L101.96 20.776L98.4081 12.136H100.92L103.208 18.328L105.528 12.136H107.912Z" fill="#464E5F"/>
<path d="M119.828 9.832V11.64H115.172V14.504H118.74V16.28H115.172V21H112.932V9.832H119.828Z" fill="#464E5F"/>
<path d="M122.552 11.08C122.158 11.08 121.827 10.9573 121.561 10.712C121.305 10.456 121.176 10.1413 121.176 9.768C121.176 9.39467 121.305 9.08533 121.561 8.84C121.827 8.584 122.158 8.456 122.552 8.456C122.947 8.456 123.273 8.584 123.529 8.84C123.795 9.08533 123.928 9.39467 123.928 9.768C123.928 10.1413 123.795 10.456 123.529 10.712C123.273 10.9573 122.947 11.08 122.552 11.08ZM123.657 12.136V21H121.417V12.136H123.657Z" fill="#464E5F"/>
<path d="M129.262 21.144C128.536 21.144 127.886 21.016 127.31 20.76C126.734 20.4933 126.275 20.136 125.934 19.688C125.603 19.24 125.422 18.744 125.39 18.2H127.646C127.688 18.5413 127.854 18.824 128.142 19.048C128.44 19.272 128.808 19.384 129.246 19.384C129.672 19.384 130.003 19.2987 130.238 19.128C130.483 18.9573 130.606 18.7387 130.606 18.472C130.606 18.184 130.456 17.9707 130.158 17.832C129.87 17.6827 129.406 17.5227 128.766 17.352C128.104 17.192 127.56 17.0267 127.134 16.856C126.718 16.6853 126.355 16.424 126.046 16.072C125.747 15.72 125.598 15.2453 125.598 14.648C125.598 14.1573 125.736 13.7093 126.014 13.304C126.302 12.8987 126.707 12.5787 127.23 12.344C127.763 12.1093 128.387 11.992 129.102 11.992C130.158 11.992 131 12.2587 131.63 12.792C132.259 13.3147 132.606 14.024 132.67 14.92H130.526C130.494 14.568 130.344 14.2907 130.078 14.088C129.822 13.8747 129.475 13.768 129.038 13.768C128.632 13.768 128.318 13.8427 128.094 13.992C127.88 14.1413 127.774 14.3493 127.774 14.616C127.774 14.9147 127.923 15.144 128.222 15.304C128.52 15.4533 128.984 15.608 129.614 15.768C130.254 15.928 130.782 16.0933 131.198 16.264C131.614 16.4347 131.971 16.7013 132.27 17.064C132.579 17.416 132.739 17.8853 132.75 18.472C132.75 18.984 132.606 19.4427 132.318 19.848C132.04 20.2533 131.635 20.5733 131.102 20.808C130.579 21.032 129.966 21.144 129.262 21.144Z" fill="#464E5F"/>
<path d="M139.58 12.008C140.252 12.008 140.85 12.1573 141.372 12.456C141.895 12.744 142.3 13.176 142.588 13.752C142.887 14.3173 143.036 15 143.036 15.8V21H140.796V16.104C140.796 15.4 140.62 14.8613 140.268 14.488C139.916 14.104 139.436 13.912 138.828 13.912C138.21 13.912 137.719 14.104 137.356 14.488C137.004 14.8613 136.828 15.4 136.828 16.104V21H134.588V9.16H136.828V13.24C137.116 12.856 137.5 12.5573 137.98 12.344C138.46 12.12 138.994 12.008 139.58 12.008Z" fill="#464E5F"/>
<path d="M153.406 16.376C153.406 16.696 153.385 16.984 153.342 17.24H146.863C146.916 17.88 147.14 18.3813 147.535 18.744C147.929 19.1067 148.414 19.288 148.99 19.288C149.822 19.288 150.414 18.9307 150.766 18.216H153.182C152.926 19.0693 152.436 19.7733 151.71 20.328C150.985 20.872 150.094 21.144 149.038 21.144C148.185 21.144 147.417 20.9573 146.734 20.584C146.062 20.2 145.535 19.6613 145.15 18.968C144.777 18.2747 144.59 17.4747 144.59 16.568C144.59 15.6507 144.777 14.8453 145.15 14.152C145.524 13.4587 146.047 12.9253 146.719 12.552C147.391 12.1787 148.164 11.992 149.038 11.992C149.881 11.992 150.633 12.1733 151.294 12.536C151.966 12.8987 152.484 13.416 152.846 14.088C153.22 14.7493 153.406 15.512 153.406 16.376ZM151.087 15.736C151.076 15.16 150.868 14.7013 150.462 14.36C150.057 14.008 149.561 13.832 148.975 13.832C148.42 13.832 147.951 14.0027 147.566 14.344C147.193 14.6747 146.964 15.1387 146.878 15.736H151.087Z" fill="#464E5F"/>
<path d="M157.281 13.512C157.569 13.0427 157.943 12.6747 158.402 12.408C158.871 12.1413 159.404 12.008 160.001 12.008V14.36H159.41C158.706 14.36 158.172 14.5253 157.809 14.856C157.457 15.1867 157.281 15.7627 157.281 16.584V21H155.042V12.136H157.281V13.512Z" fill="#464E5F"/>
<path d="M65.481 37.463C65.481 36.579 65.6847 35.786 66.092 35.084C66.508 34.382 67.067 33.836 67.769 33.446C68.4797 33.0473 69.2553 32.848 70.096 32.848C71.058 32.848 71.9117 33.0863 72.657 33.563C73.411 34.031 73.957 34.6983 74.295 35.565H72.514C72.28 35.0883 71.955 34.733 71.539 34.499C71.123 34.265 70.642 34.148 70.096 34.148C69.498 34.148 68.965 34.2823 68.497 34.551C68.029 34.8197 67.6607 35.2053 67.392 35.708C67.132 36.2107 67.002 36.7957 67.002 37.463C67.002 38.1303 67.132 38.7153 67.392 39.218C67.6607 39.7207 68.029 40.1107 68.497 40.388C68.965 40.6567 69.498 40.791 70.096 40.791C70.642 40.791 71.123 40.674 71.539 40.44C71.955 40.206 72.28 39.8507 72.514 39.374H74.295C73.957 40.2407 73.411 40.908 72.657 41.376C71.9117 41.844 71.058 42.078 70.096 42.078C69.2467 42.078 68.471 41.883 67.769 41.493C67.067 41.0943 66.508 40.544 66.092 39.842C65.6847 39.14 65.481 38.347 65.481 37.463Z" fill="#B5B5C3"/>
<path d="M75.5357 38.386C75.5357 37.6667 75.683 37.0297 75.9777 36.475C76.281 35.9203 76.6884 35.4913 77.1997 35.188C77.7197 34.876 78.2917 34.72 78.9157 34.72C79.479 34.72 79.9687 34.8327 80.3847 35.058C80.8094 35.2747 81.1474 35.5477 81.3987 35.877V34.837H82.8937V42H81.3987V40.934C81.1474 41.272 80.805 41.5537 80.3717 41.779C79.9384 42.0043 79.4444 42.117 78.8897 42.117C78.2744 42.117 77.711 41.961 77.1997 41.649C76.6884 41.3283 76.281 40.8863 75.9777 40.323C75.683 39.751 75.5357 39.1053 75.5357 38.386ZM81.3987 38.412C81.3987 37.918 81.2947 37.489 81.0867 37.125C80.8874 36.761 80.623 36.4837 80.2937 36.293C79.9644 36.1023 79.609 36.007 79.2277 36.007C78.8464 36.007 78.491 36.1023 78.1617 36.293C77.8324 36.475 77.5637 36.748 77.3557 37.112C77.1564 37.4673 77.0567 37.892 77.0567 38.386C77.0567 38.88 77.1564 39.3133 77.3557 39.686C77.5637 40.0587 77.8324 40.3447 78.1617 40.544C78.4997 40.7347 78.855 40.83 79.2277 40.83C79.609 40.83 79.9644 40.7347 80.2937 40.544C80.623 40.3533 80.8874 40.076 81.0867 39.712C81.2947 39.3393 81.3987 38.906 81.3987 38.412Z" fill="#B5B5C3"/>
<path d="M86.3222 35.877C86.5389 35.513 86.8249 35.2313 87.1802 35.032C87.5442 34.824 87.9732 34.72 88.4672 34.72V36.254H88.0902C87.5096 36.254 87.0676 36.4013 86.7642 36.696C86.4696 36.9907 86.3222 37.502 86.3222 38.23V42H84.8402V34.837H86.3222V35.877Z" fill="#B5B5C3"/>
<path d="M89.3355 38.386C89.3355 37.6667 89.4828 37.0297 89.7775 36.475C90.0808 35.9203 90.4882 35.4913 90.9995 35.188C91.5195 34.876 92.0958 34.72 92.7285 34.72C93.1965 34.72 93.6558 34.824 94.1065 35.032C94.5658 35.2313 94.9298 35.5 95.1985 35.838V32.38H96.6935V42H95.1985V40.921C94.9558 41.2677 94.6178 41.5537 94.1845 41.779C93.7598 42.0043 93.2702 42.117 92.7155 42.117C92.0915 42.117 91.5195 41.961 90.9995 41.649C90.4882 41.3283 90.0808 40.8863 89.7775 40.323C89.4828 39.751 89.3355 39.1053 89.3355 38.386ZM95.1985 38.412C95.1985 37.918 95.0945 37.489 94.8865 37.125C94.6872 36.761 94.4228 36.4837 94.0935 36.293C93.7642 36.1023 93.4088 36.007 93.0275 36.007C92.6462 36.007 92.2908 36.1023 91.9615 36.293C91.6322 36.475 91.3635 36.748 91.1555 37.112C90.9562 37.4673 90.8565 37.892 90.8565 38.386C90.8565 38.88 90.9562 39.3133 91.1555 39.686C91.3635 40.0587 91.6322 40.3447 91.9615 40.544C92.2995 40.7347 92.6548 40.83 93.0275 40.83C93.4088 40.83 93.7642 40.7347 94.0935 40.544C94.4228 40.3533 94.6872 40.076 94.8865 39.712C95.0945 39.3393 95.1985 38.906 95.1985 38.412Z" fill="#B5B5C3"/>
<path d="M99.394 33.888C99.1254 33.888 98.9 33.797 98.718 33.615C98.536 33.433 98.445 33.2077 98.445 32.939C98.445 32.6703 98.536 32.445 98.718 32.263C98.9 32.081 99.1254 31.99 99.394 31.99C99.654 31.99 99.875 32.081 100.057 32.263C100.239 32.445 100.33 32.6703 100.33 32.939C100.33 33.2077 100.239 33.433 100.057 33.615C99.875 33.797 99.654 33.888 99.394 33.888ZM100.122 34.837V42H98.64V34.837H100.122Z" fill="#B5B5C3"/>
<path d="M105.175 42.117C104.499 42.117 103.888 41.9653 103.342 41.662C102.796 41.35 102.367 40.9167 102.055 40.362C101.743 39.7987 101.587 39.1487 101.587 38.412C101.587 37.684 101.747 37.0383 102.068 36.475C102.388 35.9117 102.826 35.4783 103.381 35.175C103.935 34.8717 104.555 34.72 105.24 34.72C105.924 34.72 106.544 34.8717 107.099 35.175C107.653 35.4783 108.091 35.9117 108.412 36.475C108.732 37.0383 108.893 37.684 108.893 38.412C108.893 39.14 108.728 39.7857 108.399 40.349C108.069 40.9123 107.619 41.35 107.047 41.662C106.483 41.9653 105.859 42.117 105.175 42.117ZM105.175 40.83C105.556 40.83 105.911 40.739 106.241 40.557C106.579 40.375 106.852 40.102 107.06 39.738C107.268 39.374 107.372 38.932 107.372 38.412C107.372 37.892 107.272 37.4543 107.073 37.099C106.873 36.735 106.609 36.462 106.28 36.28C105.95 36.098 105.595 36.007 105.214 36.007C104.832 36.007 104.477 36.098 104.148 36.28C103.827 36.462 103.571 36.735 103.381 37.099C103.19 37.4543 103.095 37.892 103.095 38.412C103.095 39.1833 103.29 39.7813 103.68 40.206C104.078 40.622 104.577 40.83 105.175 40.83Z" fill="#B5B5C3"/>
<path d="M111.84 32.38V42H110.358V32.38H111.84Z" fill="#B5B5C3"/>
<path d="M116.893 42.117C116.217 42.117 115.606 41.9653 115.06 41.662C114.514 41.35 114.085 40.9167 113.773 40.362C113.461 39.7987 113.305 39.1487 113.305 38.412C113.305 37.684 113.465 37.0383 113.786 36.475C114.106 35.9117 114.544 35.4783 115.099 35.175C115.653 34.8717 116.273 34.72 116.958 34.72C117.642 34.72 118.262 34.8717 118.817 35.175C119.371 35.4783 119.809 35.9117 120.13 36.475C120.45 37.0383 120.611 37.684 120.611 38.412C120.611 39.14 120.446 39.7857 120.117 40.349C119.787 40.9123 119.337 41.35 118.765 41.662C118.201 41.9653 117.577 42.117 116.893 42.117ZM116.893 40.83C117.274 40.83 117.629 40.739 117.959 40.557C118.297 40.375 118.57 40.102 118.778 39.738C118.986 39.374 119.09 38.932 119.09 38.412C119.09 37.892 118.99 37.4543 118.791 37.099C118.591 36.735 118.327 36.462 117.998 36.28C117.668 36.098 117.313 36.007 116.932 36.007C116.55 36.007 116.195 36.098 115.866 36.28C115.545 36.462 115.289 36.735 115.099 37.099C114.908 37.4543 114.813 37.892 114.813 38.412C114.813 39.1833 115.008 39.7813 115.398 40.206C115.796 40.622 116.295 40.83 116.893 40.83Z" fill="#B5B5C3"/>
<path d="M124.962 34.72C125.516 34.72 126.006 34.8327 126.431 35.058C126.864 35.2747 127.202 35.5477 127.445 35.877V34.837H128.94V42.117C128.94 42.7757 128.801 43.3607 128.524 43.872C128.246 44.392 127.843 44.7993 127.315 45.094C126.795 45.3887 126.171 45.536 125.443 45.536C124.472 45.536 123.666 45.3063 123.025 44.847C122.383 44.3963 122.019 43.781 121.933 43.001H123.402C123.514 43.3737 123.753 43.6727 124.117 43.898C124.489 44.132 124.931 44.249 125.443 44.249C126.041 44.249 126.522 44.067 126.886 43.703C127.258 43.339 127.445 42.8103 127.445 42.117V40.921C127.193 41.259 126.851 41.545 126.418 41.779C125.993 42.0043 125.508 42.117 124.962 42.117C124.338 42.117 123.766 41.961 123.246 41.649C122.734 41.3283 122.327 40.8863 122.024 40.323C121.729 39.751 121.582 39.1053 121.582 38.386C121.582 37.6667 121.729 37.0297 122.024 36.475C122.327 35.9203 122.734 35.4913 123.246 35.188C123.766 34.876 124.338 34.72 124.962 34.72ZM127.445 38.412C127.445 37.918 127.341 37.489 127.133 37.125C126.933 36.761 126.669 36.4837 126.34 36.293C126.01 36.1023 125.655 36.007 125.274 36.007C124.892 36.007 124.537 36.1023 124.208 36.293C123.878 36.475 123.61 36.748 123.402 37.112C123.202 37.4673 123.103 37.892 123.103 38.386C123.103 38.88 123.202 39.3133 123.402 39.686C123.61 40.0587 123.878 40.3447 124.208 40.544C124.546 40.7347 124.901 40.83 125.274 40.83C125.655 40.83 126.01 40.7347 126.34 40.544C126.669 40.3533 126.933 40.076 127.133 39.712C127.341 39.3393 127.445 38.906 127.445 38.412Z" fill="#B5B5C3"/>
<path d="M131.64 33.888C131.371 33.888 131.146 33.797 130.964 33.615C130.782 33.433 130.691 33.2077 130.691 32.939C130.691 32.6703 130.782 32.445 130.964 32.263C131.146 32.081 131.371 31.99 131.64 31.99C131.9 31.99 132.121 32.081 132.303 32.263C132.485 32.445 132.576 32.6703 132.576 32.939C132.576 33.2077 132.485 33.433 132.303 33.615C132.121 33.797 131.9 33.888 131.64 33.888ZM132.368 34.837V42H130.886V34.837H132.368Z" fill="#B5B5C3"/>
<path d="M136.914 42.117C136.351 42.117 135.844 42.0173 135.393 41.818C134.951 41.61 134.6 41.3327 134.34 40.986C134.08 40.6307 133.941 40.2363 133.924 39.803H135.458C135.484 40.1063 135.627 40.362 135.887 40.57C136.156 40.7693 136.489 40.869 136.888 40.869C137.304 40.869 137.625 40.791 137.85 40.635C138.084 40.4703 138.201 40.2623 138.201 40.011C138.201 39.7423 138.071 39.543 137.811 39.413C137.56 39.283 137.157 39.14 136.602 38.984C136.065 38.8367 135.627 38.6937 135.289 38.555C134.951 38.4163 134.656 38.204 134.405 37.918C134.162 37.632 134.041 37.255 134.041 36.787C134.041 36.4057 134.154 36.059 134.379 35.747C134.604 35.4263 134.925 35.175 135.341 34.993C135.766 34.811 136.251 34.72 136.797 34.72C137.612 34.72 138.266 34.928 138.76 35.344C139.263 35.7513 139.531 36.3103 139.566 37.021H138.084C138.058 36.7003 137.928 36.4447 137.694 36.254C137.46 36.0633 137.144 35.968 136.745 35.968C136.355 35.968 136.056 36.0417 135.848 36.189C135.64 36.3363 135.536 36.5313 135.536 36.774C135.536 36.9647 135.605 37.125 135.744 37.255C135.883 37.385 136.052 37.489 136.251 37.567C136.45 37.6363 136.745 37.7273 137.135 37.84C137.655 37.9787 138.08 38.1217 138.409 38.269C138.747 38.4077 139.037 38.6157 139.28 38.893C139.523 39.1703 139.648 39.5387 139.657 39.998C139.657 40.4053 139.544 40.7693 139.319 41.09C139.094 41.4107 138.773 41.662 138.357 41.844C137.95 42.026 137.469 42.117 136.914 42.117Z" fill="#B5B5C3"/>
<path d="M142.987 36.046V40.011C142.987 40.2797 143.048 40.4747 143.169 40.596C143.299 40.7087 143.516 40.765 143.819 40.765H144.729V42H143.559C142.892 42 142.381 41.844 142.025 41.532C141.67 41.22 141.492 40.713 141.492 40.011V36.046H140.647V34.837H141.492V33.056H142.987V34.837H144.729V36.046H142.987Z" fill="#B5B5C3"/>
<path d="M148.695 42.117C148.132 42.117 147.625 42.0173 147.174 41.818C146.732 41.61 146.381 41.3327 146.121 40.986C145.861 40.6307 145.722 40.2363 145.705 39.803H147.239C147.265 40.1063 147.408 40.362 147.668 40.57C147.937 40.7693 148.27 40.869 148.669 40.869C149.085 40.869 149.406 40.791 149.631 40.635C149.865 40.4703 149.982 40.2623 149.982 40.011C149.982 39.7423 149.852 39.543 149.592 39.413C149.341 39.283 148.938 39.14 148.383 38.984C147.846 38.8367 147.408 38.6937 147.07 38.555C146.732 38.4163 146.437 38.204 146.186 37.918C145.943 37.632 145.822 37.255 145.822 36.787C145.822 36.4057 145.935 36.059 146.16 35.747C146.385 35.4263 146.706 35.175 147.122 34.993C147.547 34.811 148.032 34.72 148.578 34.72C149.393 34.72 150.047 34.928 150.541 35.344C151.044 35.7513 151.312 36.3103 151.347 37.021H149.865C149.839 36.7003 149.709 36.4447 149.475 36.254C149.241 36.0633 148.925 35.968 148.526 35.968C148.136 35.968 147.837 36.0417 147.629 36.189C147.421 36.3363 147.317 36.5313 147.317 36.774C147.317 36.9647 147.386 37.125 147.525 37.255C147.664 37.385 147.833 37.489 148.032 37.567C148.231 37.6363 148.526 37.7273 148.916 37.84C149.436 37.9787 149.861 38.1217 150.19 38.269C150.528 38.4077 150.818 38.6157 151.061 38.893C151.304 39.1703 151.429 39.5387 151.438 39.998C151.438 40.4053 151.325 40.7693 151.1 41.09C150.875 41.4107 150.554 41.662 150.138 41.844C149.731 42.026 149.25 42.117 148.695 42.117Z" fill="#B5B5C3"/>
</svg>
