<svg width="36" height="36" viewBox="0 0 36 36" fill="none" xmlns="http://www.w3.org/2000/svg">
<path fill-rule="evenodd" clip-rule="evenodd" d="M28 10C28 15.523 23.523 20 18 20C12.477 20 8 15.523 8 10C8 4.477 12.477 0 18 0C23.523 0 28 4.477 28 10ZM26 10C26 12.1217 25.1571 14.1566 23.6569 15.6569C22.1566 17.1571 20.1217 18 18 18C15.8783 18 13.8434 17.1571 12.3431 15.6569C10.8429 14.1566 10 12.1217 10 10C10 7.87827 10.8429 5.84344 12.3431 4.34315C13.8434 2.84285 15.8783 2 18 2C20.1217 2 22.1566 2.84285 23.6569 4.34315C25.1571 5.84344 26 7.87827 26 10ZM11.914 22.855L11.925 22.877L12 23.024H23.749C23.978 22.59 24.497 21.898 25 22.013C26.13 22.27 27.268 22.628 28.361 23.069L28.394 23.053L28.405 23.075L28.413 23.09C32.528 24.762 36 27.596 36 30.57V36H0V30.57C0 26.795 5.596 23.243 11 22.013C11.441 21.913 11.703 22.433 11.914 22.855ZM26.704 24.583C26.275 24.4328 25.8411 24.2971 25.403 24.176L24.957 25.024H10.793L10.379 24.237L10.019 24.345C10.012 24.411 10.006 24.485 10.003 24.569C9.99 24.914 10.016 25.323 10.073 25.739C10.1315 26.1729 10.2251 26.6013 10.353 27.02C11.0555 27.1032 11.7059 27.432 12.1895 27.9483C12.6731 28.4645 12.9587 29.1351 12.9959 29.8415C13.0331 30.5479 12.8194 31.2447 12.3927 31.8089C11.966 32.3731 11.3537 32.7683 10.6638 32.9248C9.97396 33.0813 9.25099 32.989 8.62258 32.6642C7.99418 32.3394 7.50076 31.803 7.22945 31.1498C6.95815 30.4965 6.92643 29.7683 7.13988 29.0939C7.35333 28.4195 7.79822 27.8422 8.396 27.464L8.388 27.436C8.25475 26.9685 8.15549 26.4919 8.091 26.01C8.04858 25.7021 8.02055 25.3925 8.007 25.082C6.771 25.61 5.618 26.248 4.652 26.952C2.73 28.356 2 29.668 2 30.57V34H34V30.57C34 29.667 33.27 28.355 31.348 26.953C30.5099 26.3504 29.6174 25.8275 28.682 25.391C28.6413 25.933 28.5584 26.4709 28.434 27H29C29.1857 27.0001 29.3676 27.0519 29.5255 27.1496C29.6834 27.2472 29.811 27.3869 29.894 27.553L30.894 29.553C30.964 29.692 31 29.845 31 30V32C31 32.2652 30.8946 32.5196 30.7071 32.7071C30.5196 32.8946 30.2652 33 30 33H28V31H29V30.236L28.382 29H25.618L25 30.236V31H26V33H24C23.7348 33 23.4804 32.8946 23.2929 32.7071C23.1054 32.5196 23 32.2652 23 32V30C23 29.845 23.036 29.692 23.106 29.553L24.106 27.553C24.189 27.3869 24.3166 27.2472 24.4745 27.1496C24.6324 27.0519 24.8143 27.0001 25 27H26.362C26.374 26.96 26.387 26.92 26.399 26.876C26.493 26.555 26.577 26.156 26.634 25.74C26.69 25.328 26.716 24.925 26.704 24.583ZM11 30C11 30.574 10.538 31.015 10 31.015C9.462 31.015 9 30.575 9 30C9 29.426 9.462 28.985 10 28.985C10.538 28.985 11 29.425 11 30Z" fill="#003482"/>
</svg>
