<svg width="21" height="24" viewBox="0 0 21 24" fill="none" xmlns="http://www.w3.org/2000/svg">
<path d="M10.5 16.332C12.4495 16.332 14 14.7792 14 12.832C14 10.8849 12.4495 9.33203 10.5 9.33203C8.5505 9.33203 7 10.8849 7 12.832C7 14.7792 8.5505 16.332 10.5 16.332Z" fill="white"/>
<path d="M20.7865 10.717C20.5116 9.37341 19.9744 8.09723 19.2057 6.9615C18.4503 5.84416 17.488 4.88183 16.3707 4.1265C15.2348 3.35805 13.9587 2.82088 12.6152 2.54567C11.9094 2.40255 11.1909 2.33218 10.4708 2.33567V0L5.83333 3.5L10.4708 7V4.669C11.0355 4.66667 11.6002 4.72033 12.145 4.83233C13.1892 5.04631 14.181 5.46374 15.064 6.06083C15.9348 6.64795 16.6842 7.3974 17.2713 8.26817C18.1829 9.61593 18.669 11.2063 18.6667 12.8333C18.6665 13.9252 18.4483 15.006 18.025 16.0125C17.8191 16.4973 17.5675 16.9614 17.2737 17.3985C16.9786 17.833 16.6435 18.2388 16.2727 18.6107C15.1433 19.7379 13.7096 20.5111 12.1473 20.8355C11.0608 21.0548 9.94148 21.0548 8.855 20.8355C7.81032 20.6213 6.81804 20.2035 5.93483 19.6058C5.06506 19.0192 4.31643 18.2706 3.72983 17.4008C2.81931 16.0516 2.33299 14.461 2.33333 12.8333H0C0.00124153 14.926 0.626367 16.9707 1.7955 18.7063C2.55132 19.8218 3.51267 20.7832 4.62817 21.539C6.36139 22.7121 8.40713 23.3372 10.5 23.3333C11.2108 23.3333 11.9198 23.2617 12.6163 23.1198C13.9588 22.8426 15.2342 22.3056 16.3707 21.539C16.9287 21.163 17.4487 20.7336 17.9235 20.2568C18.3989 19.7801 18.8286 19.2598 19.2068 18.7028C20.3789 16.9701 21.0036 14.9253 21 12.8333C20.9999 12.1225 20.9284 11.4135 20.7865 10.717Z" fill="white"/>
</svg>
