<svg width="26" height="25" viewBox="0 0 26 25" fill="none" xmlns="http://www.w3.org/2000/svg">
<path d="M0 24.5814H15.8247C22.3808 24.5814 25.9996 22.1558 25.9996 17.7897C25.9996 14.6829 24.1134 12.6636 20.7195 12.1543V12.0855C23.8885 11.4043 25.621 9.5245 25.621 6.79369C25.621 2.42155 21.8909 0 15.1811 0H0V24.5814ZM9.79634 9.72866V6.14484H13.5621C15.0341 6.14484 15.8247 6.76135 15.8247 7.85286C15.8247 9.04747 15.0341 9.72866 13.5621 9.72866H9.79634ZM9.79634 18.4386V14.6829H13.9407C15.4127 14.6829 16.2033 15.3944 16.2033 16.7285C16.2033 17.8221 15.4127 18.4386 13.9407 18.4386H9.79634Z" fill="black"/>
</svg>
