<svg width="12" height="14" viewBox="0 0 12 14" fill="none" xmlns="http://www.w3.org/2000/svg">
<path opacity="0.5" d="M5.33333 8V6.66667H6.66667V8H5.33333ZM2.66667 8V6.66667H4V8H2.66667ZM8 8V6.66667H9.33333V8H8ZM5.33333 10.6667V9.33333H6.66667V10.6667H5.33333ZM2.66667 10.6667V9.33333H4V10.6667H2.66667ZM8 10.6667V9.33333H9.33333V10.6667H8ZM0 13.3333V1.33333H2V0H3.33333V1.33333H8.66667V0H10V1.33333H12V13.3333H0ZM1.33333 12H10.6667V5.33333H1.33333V12ZM1.33333 4H10.6667V2.66667H1.33333V4ZM1.33333 4V2.66667V4Z" fill="#181C32"/>
</svg>
