<svg width="10" height="12" viewBox="0 0 10 12" fill="none" xmlns="http://www.w3.org/2000/svg">
<path d="M0.172686 1.63677C0.177357 1.0092 0.331524 0.580927 0.630512 0.347709C0.934172 0.11661 1.29856 0 1.72369 0H3.27469C4.19501 0 5.1714 0.269262 6.19917 0.805666C7.23161 1.34419 8.10055 2.09473 8.80597 3.06153C9.50906 4.02833 9.86178 5.1181 9.86178 6.3266C9.86178 7.5139 9.50673 8.52734 8.79663 9.36269C8.09121 10.2002 7.22694 10.8277 6.19917 11.2454C5.17607 11.6652 4.20202 11.873 3.27469 11.873C2.45247 11.873 1.86851 11.8412 1.52748 11.7797C1.44572 11.8094 1.33127 11.8497 1.18177 11.9069C1.03695 11.9684 0.952859 12.0002 0.9295 12.0002C0.691244 12.0002 0.50204 11.873 0.359554 11.6186C0.214731 11.3599 0.116626 11.0482 0.0605653 10.6857C0.00917639 10.3189 -0.00951038 9.97118 0.004505 9.64255L0.172686 1.63677ZM3.64843 9.99026C4.34451 9.99026 5.06395 9.86941 5.80675 9.62559C6.55422 9.38389 7.18256 9.0065 7.69411 8.49766C8.21033 7.98458 8.46961 7.34428 8.46961 6.58102C8.46961 5.73295 8.21734 4.94 7.7128 4.19794C7.21293 3.45164 6.57524 2.85799 5.7974 2.417C5.02424 1.976 4.25575 1.7555 3.48959 1.7555C3.23264 1.7555 2.90563 1.76398 2.50853 1.78095C2.11611 1.79791 1.81946 1.81487 1.62091 1.83183C1.50879 2.41488 1.45273 3.05093 1.45273 3.73999V5.41068C1.45273 7.58174 1.52981 9.08919 1.68631 9.93089C1.705 9.94362 1.77274 9.95634 1.89187 9.9733C2.01567 9.98602 2.15348 9.99026 2.30298 9.99026H3.64843Z" fill="black"/>
</svg>
