<svg width="22" height="19" viewBox="0 0 22 19" fill="none" xmlns="http://www.w3.org/2000/svg">
<path d="M11.1344 0C9.41247 0 8.01845 1.26734 8.01845 2.83025C8.01845 5.24751 13.8087 8.89364 13.8087 8.89364C13.8087 8.89364 19.5967 5.22929 19.5967 2.83025C19.5967 1.26734 18.2027 0 16.4807 0C15.3432 0 14.3529 0.552689 13.8087 1.37869C13.2622 0.552689 12.2719 0 11.1344 0ZM20.0561 10.1205C19.735 10.1387 19.4227 10.2663 19.1796 10.4869L14.6986 14.5541H10.2444L9.35448 13.7464L12.7782 13.1269C13.2778 13.0358 13.6882 12.6977 13.7797 12.2422C13.9224 11.5356 13.3336 10.9161 12.5819 10.9161H6.37461C5.43113 10.9161 4.52334 11.2562 3.85644 11.8636L0 15.3619L4.01034 19L5.52704 17.6233C5.69432 17.4715 5.91514 17.3844 6.15379 17.3844H14.4064C14.8793 17.3844 15.3254 17.2062 15.6577 16.9046L21.0041 12.0519C21.5104 11.5923 21.5015 10.8392 20.9617 10.3978C20.7074 10.1913 20.3796 10.1002 20.0561 10.1205Z" fill="#F9473F"/>
</svg>
