<svg width="1240" height="50" viewBox="0 0 1240 50" fill="none" xmlns="http://www.w3.org/2000/svg">
<path d="M1208 15C1208 11.6863 1210.69 9 1214 9H1234C1237.31 9 1240 11.6863 1240 15V35C1240 38.3137 1237.31 41 1234 41H1214C1210.69 41 1208 38.3137 1208 35V15Z" fill="#FAFAFA"/>
<path d="M1218.26 25.8205C1217.8 25.8205 1217.44 25.4531 1217.44 25C1217.44 24.5468 1217.8 24.1795 1218.26 24.1795H1224C1224.45 24.1795 1224.82 24.5468 1224.82 25C1224.82 25.4531 1224.45 25.8205 1224 25.8205H1218.26Z" fill="#181C32"/>
<path d="M1223.42 29.3429C1223.1 29.6633 1223.1 30.1828 1223.42 30.5032C1223.74 30.8237 1224.26 30.8237 1224.58 30.5032L1229.5 25.5802C1229.81 25.2695 1229.82 24.7694 1229.53 24.4455L1225.02 19.5225C1224.71 19.1884 1224.19 19.1658 1223.86 19.4721C1223.52 19.7783 1223.5 20.2973 1223.81 20.6313L1227.79 24.9753L1223.42 29.3429Z" fill="#181C32"/>
<path d="M1039 18C1039 14.6863 1041.69 12 1045 12H1107C1110.31 12 1113 14.6863 1113 18V32C1113 35.3137 1110.31 38 1107 38H1045C1041.69 38 1039 35.3137 1039 32V18Z" fill="#F4FFF3"/>
<path d="M1066.56 29H1065.3L1061.53 23.291V29H1060.28V21.344H1061.53L1065.3 27.042V21.344H1066.56V29Z" fill="#5F8D4E"/>
<path d="M1073.76 25.821C1073.76 26.0483 1073.74 26.2537 1073.72 26.437H1069.08C1069.12 26.921 1069.3 27.3097 1069.62 27.603C1069.95 27.8963 1070.34 28.043 1070.81 28.043C1071.49 28.043 1071.96 27.7607 1072.24 27.196H1073.59C1073.41 27.7533 1073.08 28.2117 1072.59 28.571C1072.12 28.923 1071.52 29.099 1070.81 29.099C1070.23 29.099 1069.71 28.9707 1069.25 28.714C1068.79 28.45 1068.44 28.0833 1068.17 27.614C1067.91 27.1373 1067.79 26.5873 1067.79 25.964C1067.79 25.3407 1067.91 24.7943 1068.16 24.325C1068.42 23.8483 1068.77 23.4817 1069.23 23.225C1069.69 22.9683 1070.22 22.84 1070.81 22.84C1071.38 22.84 1071.89 22.9647 1072.34 23.214C1072.79 23.4633 1073.14 23.8153 1073.39 24.27C1073.63 24.7173 1073.76 25.2343 1073.76 25.821ZM1072.45 25.425C1072.44 24.963 1072.28 24.5927 1071.96 24.314C1071.63 24.0353 1071.23 23.896 1070.76 23.896C1070.32 23.896 1069.95 24.0353 1069.65 24.314C1069.34 24.5853 1069.15 24.9557 1069.1 25.425H1072.45Z" fill="#5F8D4E"/>
<path d="M1080.48 22.939V29H1079.23V28.285C1079.03 28.5343 1078.77 28.7323 1078.45 28.879C1078.13 29.0183 1077.79 29.088 1077.44 29.088C1076.96 29.088 1076.53 28.989 1076.15 28.791C1075.77 28.593 1075.48 28.2997 1075.26 27.911C1075.04 27.5223 1074.94 27.053 1074.94 26.503V22.939H1076.18V26.316C1076.18 26.8587 1076.32 27.2767 1076.59 27.57C1076.86 27.856 1077.23 27.999 1077.7 27.999C1078.17 27.999 1078.54 27.856 1078.81 27.57C1079.09 27.2767 1079.23 26.8587 1079.23 26.316V22.939H1080.48Z" fill="#5F8D4E"/>
<path d="M1083.39 23.819C1083.57 23.511 1083.82 23.2727 1084.12 23.104C1084.43 22.928 1084.79 22.84 1085.21 22.84V24.138H1084.89C1084.4 24.138 1084.02 24.2627 1083.77 24.512C1083.52 24.7613 1083.39 25.194 1083.39 25.81V29H1082.14V22.939H1083.39V23.819Z" fill="#5F8D4E"/>
<path d="M1088.99 29.099C1088.42 29.099 1087.9 28.9707 1087.44 28.714C1086.97 28.45 1086.61 28.0833 1086.35 27.614C1086.08 27.1373 1085.95 26.5873 1085.95 25.964C1085.95 25.348 1086.09 24.8017 1086.36 24.325C1086.63 23.8483 1087 23.4817 1087.47 23.225C1087.94 22.9683 1088.46 22.84 1089.04 22.84C1089.62 22.84 1090.15 22.9683 1090.62 23.225C1091.09 23.4817 1091.46 23.8483 1091.73 24.325C1092 24.8017 1092.13 25.348 1092.13 25.964C1092.13 26.58 1091.99 27.1263 1091.72 27.603C1091.44 28.0797 1091.06 28.45 1090.57 28.714C1090.09 28.9707 1089.57 29.099 1088.99 29.099ZM1088.99 28.01C1089.31 28.01 1089.61 27.933 1089.89 27.779C1090.18 27.625 1090.41 27.394 1090.58 27.086C1090.76 26.778 1090.85 26.404 1090.85 25.964C1090.85 25.524 1090.76 25.1537 1090.59 24.853C1090.43 24.545 1090.2 24.314 1089.92 24.16C1089.64 24.006 1089.34 23.929 1089.02 23.929C1088.7 23.929 1088.4 24.006 1088.12 24.16C1087.85 24.314 1087.63 24.545 1087.47 24.853C1087.31 25.1537 1087.23 25.524 1087.23 25.964C1087.23 26.6167 1087.39 27.1227 1087.72 27.482C1088.06 27.834 1088.48 28.01 1088.99 28.01Z" fill="#5F8D4E"/>
<path d="M848.052 16.972C849.076 16.1187 849.892 15.4093 850.5 14.844C851.108 14.268 851.615 13.6707 852.02 13.052C852.425 12.4333 852.628 11.8253 852.628 11.228C852.628 10.684 852.5 10.2573 852.244 9.948C851.988 9.63867 851.593 9.484 851.06 9.484C850.527 9.484 850.116 9.66533 849.828 10.028C849.54 10.38 849.391 10.8653 849.38 11.484H847.204C847.247 10.204 847.625 9.23333 848.34 8.572C849.065 7.91067 849.983 7.58 851.092 7.58C852.308 7.58 853.241 7.90533 853.892 8.556C854.543 9.196 854.868 10.044 854.868 11.1C854.868 11.932 854.644 12.7267 854.196 13.484C853.748 14.2413 853.236 14.9027 852.66 15.468C852.084 16.0227 851.332 16.6947 850.404 17.484H855.124V19.34H847.22V17.676L848.052 16.972Z" fill="#464E5F"/>
<path d="M856.568 10.908C856.621 9.84133 856.994 9.02 857.688 8.444C858.391 7.85733 859.314 7.564 860.456 7.564C861.234 7.564 861.901 7.70267 862.456 7.98C863.01 8.24667 863.426 8.61467 863.703 9.084C863.992 9.54267 864.135 10.0653 864.135 10.652C864.135 11.324 863.959 11.8947 863.607 12.364C863.266 12.8227 862.855 13.132 862.375 13.292V13.356C862.994 13.548 863.474 13.8893 863.815 14.38C864.167 14.8707 864.344 15.5 864.344 16.268C864.344 16.908 864.194 17.4787 863.896 17.98C863.607 18.4813 863.175 18.876 862.599 19.164C862.034 19.4413 861.352 19.58 860.552 19.58C859.346 19.58 858.365 19.276 857.607 18.668C856.85 18.06 856.45 17.164 856.407 15.98H858.583C858.605 16.5027 858.781 16.924 859.112 17.244C859.453 17.5533 859.917 17.708 860.503 17.708C861.047 17.708 861.464 17.5587 861.752 17.26C862.05 16.9507 862.2 16.556 862.2 16.076C862.2 15.436 861.997 14.9773 861.591 14.7C861.186 14.4227 860.557 14.284 859.703 14.284H859.24V12.444H859.703C861.218 12.444 861.976 11.9373 861.976 10.924C861.976 10.4653 861.837 10.108 861.56 9.852C861.293 9.596 860.904 9.468 860.391 9.468C859.89 9.468 859.501 9.60667 859.224 9.884C858.957 10.1507 858.802 10.492 858.76 10.908H856.568Z" fill="#464E5F"/>
<path d="M872.37 4.348L868.05 22.396H865.858L870.178 4.348H872.37Z" fill="#464E5F"/>
<path d="M873.623 9.9V7.836H877.479V19.5H875.175V9.9H873.623Z" fill="#464E5F"/>
<path d="M880.396 16.972C881.42 16.1187 882.236 15.4093 882.844 14.844C883.452 14.268 883.958 13.6707 884.364 13.052C884.769 12.4333 884.972 11.8253 884.972 11.228C884.972 10.684 884.844 10.2573 884.588 9.948C884.332 9.63867 883.937 9.484 883.404 9.484C882.87 9.484 882.46 9.66533 882.172 10.028C881.884 10.38 881.734 10.8653 881.724 11.484H879.548C879.59 10.204 879.969 9.23333 880.684 8.572C881.409 7.91067 882.326 7.58 883.436 7.58C884.652 7.58 885.585 7.90533 886.236 8.556C886.886 9.196 887.212 10.044 887.212 11.1C887.212 11.932 886.988 12.7267 886.54 13.484C886.092 14.2413 885.58 14.9027 885.004 15.468C884.428 16.0227 883.676 16.6947 882.748 17.484H887.468V19.34H879.564V17.676L880.396 16.972Z" fill="#464E5F"/>
<path d="M895.135 4.348L890.815 22.396H888.623L892.943 4.348H895.135Z" fill="#464E5F"/>
<path d="M897.365 16.972C898.388 16.1187 899.205 15.4093 899.812 14.844C900.42 14.268 900.927 13.6707 901.333 13.052C901.738 12.4333 901.94 11.8253 901.94 11.228C901.94 10.684 901.812 10.2573 901.557 9.948C901.301 9.63867 900.906 9.484 900.372 9.484C899.839 9.484 899.429 9.66533 899.141 10.028C898.852 10.38 898.703 10.8653 898.693 11.484H896.516C896.559 10.204 896.938 9.23333 897.653 8.572C898.378 7.91067 899.295 7.58 900.404 7.58C901.62 7.58 902.554 7.90533 903.205 8.556C903.855 9.196 904.18 10.044 904.18 11.1C904.18 11.932 903.956 12.7267 903.508 13.484C903.06 14.2413 902.548 14.9027 901.972 15.468C901.396 16.0227 900.644 16.6947 899.716 17.484H904.437V19.34H896.532V17.676L897.365 16.972Z" fill="#464E5F"/>
<path d="M905.848 13.516C905.848 11.6707 906.179 10.2253 906.84 9.18C907.512 8.13467 908.621 7.612 910.168 7.612C911.715 7.612 912.819 8.13467 913.48 9.18C914.152 10.2253 914.488 11.6707 914.488 13.516C914.488 15.372 914.152 16.828 913.48 17.884C912.819 18.94 911.715 19.468 910.168 19.468C908.621 19.468 907.512 18.94 906.84 17.884C906.179 16.828 905.848 15.372 905.848 13.516ZM912.28 13.516C912.28 12.7267 912.227 12.0653 912.12 11.532C912.024 10.988 911.821 10.5453 911.512 10.204C911.213 9.86267 910.765 9.692 910.168 9.692C909.571 9.692 909.117 9.86267 908.808 10.204C908.509 10.5453 908.307 10.988 908.2 11.532C908.104 12.0653 908.056 12.7267 908.056 13.516C908.056 14.3267 908.104 15.0093 908.2 15.564C908.296 16.108 908.499 16.5507 908.808 16.892C909.117 17.2227 909.571 17.388 910.168 17.388C910.765 17.388 911.219 17.2227 911.528 16.892C911.837 16.5507 912.04 16.108 912.136 15.564C912.232 15.0093 912.28 14.3267 912.28 13.516Z" fill="#464E5F"/>
<path d="M916.896 16.972C917.92 16.1187 918.736 15.4093 919.344 14.844C919.952 14.268 920.458 13.6707 920.864 13.052C921.269 12.4333 921.472 11.8253 921.472 11.228C921.472 10.684 921.344 10.2573 921.088 9.948C920.832 9.63867 920.437 9.484 919.904 9.484C919.37 9.484 918.96 9.66533 918.672 10.028C918.384 10.38 918.234 10.8653 918.224 11.484H916.048C916.09 10.204 916.469 9.23333 917.184 8.572C917.909 7.91067 918.826 7.58 919.936 7.58C921.152 7.58 922.085 7.90533 922.736 8.556C923.386 9.196 923.712 10.044 923.712 11.1C923.712 11.932 923.488 12.7267 923.04 13.484C922.592 14.2413 922.08 14.9027 921.504 15.468C920.928 16.0227 920.176 16.6947 919.248 17.484H923.968V19.34H916.064V17.676L916.896 16.972Z" fill="#464E5F"/>
<path d="M926.083 16.972C927.107 16.1187 927.923 15.4093 928.531 14.844C929.139 14.268 929.646 13.6707 930.051 13.052C930.457 12.4333 930.659 11.8253 930.659 11.228C930.659 10.684 930.531 10.2573 930.275 9.948C930.019 9.63867 929.625 9.484 929.091 9.484C928.558 9.484 928.147 9.66533 927.859 10.028C927.571 10.38 927.422 10.8653 927.411 11.484H925.235C925.278 10.204 925.657 9.23333 926.371 8.572C927.097 7.91067 928.014 7.58 929.123 7.58C930.339 7.58 931.273 7.90533 931.923 8.556C932.574 9.196 932.899 10.044 932.899 11.1C932.899 11.932 932.675 12.7267 932.227 13.484C931.779 14.2413 931.267 14.9027 930.691 15.468C930.115 16.0227 929.363 16.6947 928.435 17.484H933.155V19.34H925.251V17.676L926.083 16.972Z" fill="#464E5F"/>
<path d="M847.085 32.375V31.023H849.789V40.5H848.294V32.375H847.085Z" fill="#B5B5C3"/>
<path d="M852.644 38.485C853.476 37.7657 854.13 37.1763 854.607 36.717C855.092 36.249 855.495 35.7637 855.816 35.261C856.137 34.7583 856.297 34.2557 856.297 33.753C856.297 33.233 856.171 32.8257 855.92 32.531C855.677 32.2363 855.292 32.089 854.763 32.089C854.252 32.089 853.853 32.2537 853.567 32.583C853.29 32.9037 853.142 33.337 853.125 33.883H851.695C851.721 32.895 852.016 32.141 852.579 31.621C853.151 31.0923 853.875 30.828 854.75 30.828C855.695 30.828 856.431 31.088 856.96 31.608C857.497 32.128 857.766 32.8213 857.766 33.688C857.766 34.312 857.606 34.9143 857.285 35.495C856.973 36.067 856.596 36.5827 856.154 37.042C855.721 37.4927 855.166 38.017 854.49 38.615L853.905 39.135H858.026V40.37H851.708V39.291L852.644 38.485Z" fill="#B5B5C3"/>
<path d="M860.121 40.591C859.852 40.591 859.627 40.5 859.445 40.318C859.263 40.136 859.172 39.9107 859.172 39.642C859.172 39.3733 859.263 39.148 859.445 38.966C859.627 38.784 859.852 38.693 860.121 38.693C860.381 38.693 860.602 38.784 860.784 38.966C860.966 39.148 861.057 39.3733 861.057 39.642C861.057 39.9107 860.966 40.136 860.784 40.318C860.602 40.5 860.381 40.591 860.121 40.591ZM860.121 35.131C859.852 35.131 859.627 35.04 859.445 34.858C859.263 34.676 859.172 34.4507 859.172 34.182C859.172 33.9133 859.263 33.688 859.445 33.506C859.627 33.324 859.852 33.233 860.121 33.233C860.381 33.233 860.602 33.324 860.784 33.506C860.966 33.688 861.057 33.9133 861.057 34.182C861.057 34.4507 860.966 34.676 860.784 34.858C860.602 35.04 860.381 35.131 860.121 35.131Z" fill="#B5B5C3"/>
<path d="M862.332 38.524V37.406L866.7 31.14H868.494V37.237H869.703V38.524H868.494V40.5H867.038V38.524H862.332ZM867.103 32.648L864.035 37.237H867.103V32.648Z" fill="#B5B5C3"/>
<path d="M870.931 35.638C870.931 34.1387 871.183 32.9687 871.685 32.128C872.197 31.2787 873.072 30.854 874.311 30.854C875.551 30.854 876.422 31.2787 876.924 32.128C877.436 32.9687 877.691 34.1387 877.691 35.638C877.691 37.1547 877.436 38.342 876.924 39.2C876.422 40.0493 875.551 40.474 874.311 40.474C873.072 40.474 872.197 40.0493 871.685 39.2C871.183 38.342 870.931 37.1547 870.931 35.638ZM876.235 35.638C876.235 34.936 876.188 34.3423 876.092 33.857C876.006 33.3717 875.824 32.9773 875.546 32.674C875.269 32.362 874.857 32.206 874.311 32.206C873.765 32.206 873.354 32.362 873.076 32.674C872.799 32.9773 872.613 33.3717 872.517 33.857C872.431 34.3423 872.387 34.936 872.387 35.638C872.387 36.366 872.431 36.977 872.517 37.471C872.604 37.965 872.786 38.3637 873.063 38.667C873.349 38.9703 873.765 39.122 874.311 39.122C874.857 39.122 875.269 38.9703 875.546 38.667C875.832 38.3637 876.019 37.965 876.105 37.471C876.192 36.977 876.235 36.366 876.235 35.638Z" fill="#B5B5C3"/>
<path d="M889.149 34.156C889.149 34.6153 889.041 35.0487 888.824 35.456C888.608 35.8633 888.261 36.197 887.784 36.457C887.308 36.7083 886.697 36.834 885.951 36.834H884.313V40.5H882.831V31.465H885.951C886.645 31.465 887.23 31.5863 887.706 31.829C888.192 32.063 888.551 32.3837 888.785 32.791C889.028 33.1983 889.149 33.6533 889.149 34.156ZM885.951 35.625C886.515 35.625 886.935 35.4993 887.212 35.248C887.49 34.988 887.628 34.624 887.628 34.156C887.628 33.168 887.069 32.674 885.951 32.674H884.313V35.625H885.951Z" fill="#B5B5C3"/>
<path d="M900.079 31.465V40.5H898.597V34.312L895.841 40.5H894.814L892.045 34.312V40.5H890.563V31.465H892.162L895.334 38.55L898.493 31.465H900.079Z" fill="#B5B5C3"/>
<path d="M273.552 29.472C274.576 28.6187 275.392 27.9093 276 27.344C276.608 26.768 277.115 26.1707 277.52 25.552C277.925 24.9333 278.128 24.3253 278.128 23.728C278.128 23.184 278 22.7573 277.744 22.448C277.488 22.1387 277.093 21.984 276.56 21.984C276.027 21.984 275.616 22.1653 275.328 22.528C275.04 22.88 274.891 23.3653 274.88 23.984H272.704C272.747 22.704 273.125 21.7333 273.84 21.072C274.565 20.4107 275.483 20.08 276.592 20.08C277.808 20.08 278.741 20.4053 279.392 21.056C280.043 21.696 280.368 22.544 280.368 23.6C280.368 24.432 280.144 25.2267 279.696 25.984C279.248 26.7413 278.736 27.4027 278.16 27.968C277.584 28.5227 276.832 29.1947 275.904 29.984H280.624V31.84H272.72V30.176L273.552 29.472Z" fill="#464E5F"/>
<path d="M282.068 23.408C282.121 22.3413 282.494 21.52 283.188 20.944C283.892 20.3573 284.814 20.064 285.956 20.064C286.734 20.064 287.401 20.2027 287.956 20.48C288.51 20.7467 288.926 21.1147 289.203 21.584C289.491 22.0427 289.635 22.5653 289.635 23.152C289.635 23.824 289.46 24.3947 289.108 24.864C288.766 25.3227 288.355 25.632 287.875 25.792V25.856C288.494 26.048 288.974 26.3893 289.315 26.88C289.667 27.3707 289.844 28 289.844 28.768C289.844 29.408 289.694 29.9787 289.396 30.48C289.108 30.9813 288.675 31.376 288.099 31.664C287.534 31.9413 286.852 32.08 286.052 32.08C284.846 32.08 283.865 31.776 283.108 31.168C282.35 30.56 281.95 29.664 281.908 28.48H284.083C284.105 29.0027 284.281 29.424 284.612 29.744C284.953 30.0533 285.417 30.208 286.004 30.208C286.548 30.208 286.964 30.0587 287.251 29.76C287.55 29.4507 287.699 29.056 287.699 28.576C287.699 27.936 287.497 27.4773 287.091 27.2C286.686 26.9227 286.057 26.784 285.203 26.784H284.74V24.944H285.203C286.718 24.944 287.475 24.4373 287.475 23.424C287.475 22.9653 287.337 22.608 287.06 22.352C286.793 22.096 286.404 21.968 285.892 21.968C285.39 21.968 285.001 22.1067 284.724 22.384C284.457 22.6507 284.302 22.992 284.259 23.408H282.068Z" fill="#464E5F"/>
<path d="M293.566 25.824C292.499 25.2693 291.966 24.4107 291.966 23.248C291.966 22.672 292.11 22.1493 292.398 21.68C292.696 21.2 293.139 20.8213 293.726 20.544C294.323 20.256 295.048 20.112 295.902 20.112C296.755 20.112 297.475 20.256 298.062 20.544C298.659 20.8213 299.102 21.2 299.39 21.68C299.688 22.1493 299.838 22.672 299.838 23.248C299.838 23.8347 299.694 24.352 299.406 24.8C299.118 25.2373 298.734 25.5787 298.254 25.824C298.84 26.08 299.299 26.4533 299.63 26.944C299.96 27.4347 300.126 28.016 300.126 28.688C300.126 29.4133 299.939 30.048 299.566 30.592C299.203 31.1253 298.702 31.536 298.062 31.824C297.422 32.112 296.702 32.256 295.902 32.256C295.102 32.256 294.382 32.112 293.742 31.824C293.112 31.536 292.611 31.1253 292.238 30.592C291.875 30.048 291.694 29.4133 291.694 28.688C291.694 28.016 291.859 27.4347 292.19 26.944C292.52 26.4427 292.979 26.0693 293.566 25.824ZM297.662 23.568C297.662 23.0453 297.502 22.64 297.182 22.352C296.872 22.064 296.446 21.92 295.902 21.92C295.368 21.92 294.942 22.064 294.622 22.352C294.312 22.64 294.158 23.0507 294.158 23.584C294.158 24.064 294.318 24.448 294.638 24.736C294.968 25.024 295.39 25.168 295.902 25.168C296.414 25.168 296.835 25.024 297.166 24.736C297.496 24.4373 297.662 24.048 297.662 23.568ZM295.902 26.8C295.294 26.8 294.798 26.9547 294.414 27.264C294.04 27.5733 293.854 28.016 293.854 28.592C293.854 29.1253 294.035 29.5627 294.398 29.904C294.771 30.2347 295.272 30.4 295.902 30.4C296.531 30.4 297.027 30.2293 297.39 29.888C297.752 29.5467 297.934 29.1147 297.934 28.592C297.934 28.0267 297.747 27.5893 297.374 27.28C297 26.96 296.51 26.8 295.902 26.8Z" fill="#464E5F"/>
<path d="M301.799 29.728V27.968L307.031 20.48H309.639V27.776H311.047V29.728H309.639V32H307.399V29.728H301.799ZM307.543 22.88L304.263 27.776H307.543V22.88Z" fill="#464E5F"/>
<path d="M319.897 22.032L315.641 32H313.369L317.657 22.288H312.185V20.368H319.897V22.032Z" fill="#464E5F"/>
<path d="M329.079 22.272H323.895V25.008C324.119 24.7307 324.439 24.5067 324.855 24.336C325.271 24.1547 325.713 24.064 326.183 24.064C327.036 24.064 327.735 24.2507 328.279 24.624C328.823 24.9973 329.217 25.4773 329.463 26.064C329.708 26.64 329.831 27.2587 329.831 27.92C329.831 29.1467 329.479 30.1333 328.775 30.88C328.081 31.6267 327.089 32 325.799 32C324.583 32 323.612 31.696 322.887 31.088C322.161 30.48 321.751 29.6853 321.655 28.704H323.831C323.927 29.1307 324.14 29.472 324.471 29.728C324.812 29.984 325.244 30.112 325.767 30.112C326.396 30.112 326.871 29.9147 327.191 29.52C327.511 29.1253 327.671 28.6027 327.671 27.952C327.671 27.2907 327.505 26.7893 327.175 26.448C326.855 26.096 326.38 25.92 325.751 25.92C325.303 25.92 324.929 26.032 324.631 26.256C324.332 26.48 324.119 26.7787 323.991 27.152H321.847V20.304H329.079V22.272Z" fill="#464E5F"/>
<path d="M337.583 23.248C337.477 22.8 337.29 22.464 337.023 22.24C336.767 22.016 336.394 21.904 335.904 21.904C335.168 21.904 334.624 22.2027 334.272 22.8C333.93 23.3867 333.754 24.3467 333.743 25.68C334 25.2533 334.373 24.9227 334.863 24.688C335.354 24.4427 335.888 24.32 336.464 24.32C337.157 24.32 337.77 24.4693 338.303 24.768C338.837 25.0667 339.253 25.504 339.552 26.08C339.85 26.6453 340 27.328 340 28.128C340 28.8853 339.845 29.5627 339.535 30.16C339.237 30.7467 338.794 31.2053 338.207 31.536C337.621 31.8667 336.922 32.032 336.112 32.032C335.002 32.032 334.128 31.7867 333.487 31.296C332.858 30.8053 332.415 30.1227 332.159 29.248C331.914 28.3627 331.792 27.2747 331.792 25.984C331.792 24.032 332.128 22.56 332.799 21.568C333.471 20.5653 334.533 20.064 335.983 20.064C337.103 20.064 337.973 20.368 338.591 20.976C339.21 21.584 339.568 22.3413 339.664 23.248H337.583ZM335.952 26.16C335.386 26.16 334.911 26.3253 334.527 26.656C334.143 26.9867 333.952 27.4667 333.952 28.096C333.952 28.7253 334.128 29.2213 334.479 29.584C334.842 29.9467 335.349 30.128 336 30.128C336.576 30.128 337.029 29.952 337.359 29.6C337.701 29.248 337.871 28.7733 337.871 28.176C337.871 27.5573 337.706 27.0667 337.375 26.704C337.055 26.3413 336.581 26.16 335.952 26.16Z" fill="#464E5F"/>
<path d="M344.362 28.72C344.447 29.1893 344.639 29.552 344.938 29.808C345.247 30.0533 345.658 30.176 346.17 30.176C346.831 30.176 347.311 29.904 347.61 29.36C347.909 28.8053 348.058 27.8773 348.058 26.576C347.813 26.9173 347.466 27.184 347.018 27.376C346.581 27.568 346.106 27.664 345.594 27.664C344.911 27.664 344.293 27.5253 343.738 27.248C343.194 26.96 342.762 26.5387 342.442 25.984C342.122 25.4187 341.962 24.736 341.962 23.936C341.962 22.752 342.314 21.8133 343.018 21.12C343.722 20.416 344.682 20.064 345.898 20.064C347.413 20.064 348.479 20.5493 349.098 21.52C349.727 22.4907 350.042 23.952 350.042 25.904C350.042 27.2907 349.919 28.4267 349.674 29.312C349.439 30.1973 349.029 30.8693 348.442 31.328C347.866 31.7867 347.077 32.016 346.074 32.016C345.285 32.016 344.613 31.8667 344.058 31.568C343.503 31.2587 343.077 30.8587 342.778 30.368C342.49 29.8667 342.325 29.3173 342.282 28.72H344.362ZM346.058 25.84C346.613 25.84 347.05 25.6693 347.37 25.328C347.69 24.9867 347.85 24.528 347.85 23.952C347.85 23.3227 347.679 22.8373 347.338 22.496C347.007 22.144 346.554 21.968 345.978 21.968C345.402 21.968 344.943 22.1493 344.602 22.512C344.271 22.864 344.106 23.3333 344.106 23.92C344.106 24.4853 344.266 24.9493 344.586 25.312C344.917 25.664 345.407 25.84 346.058 25.84Z" fill="#464E5F"/>
<path d="M416.24 22.08C415.835 22.08 415.499 21.9573 415.232 21.712C414.976 21.456 414.848 21.1413 414.848 20.768C414.848 20.3947 414.976 20.0853 415.232 19.84C415.499 19.584 415.835 19.456 416.24 19.456C416.635 19.456 416.96 19.584 417.216 19.84C417.472 20.0853 417.6 20.3947 417.6 20.768C417.6 21.1413 417.472 21.456 417.216 21.712C416.96 21.9573 416.635 22.08 416.24 22.08ZM417.344 33.456C417.344 34.4373 417.099 35.1413 416.608 35.568C416.128 36.0053 415.435 36.224 414.528 36.224H413.536V34.32H414.176C414.517 34.32 414.757 34.2507 414.896 34.112C415.035 33.984 415.104 33.7707 415.104 33.472V23.136H417.344V33.456Z" fill="#464E5F"/>
<path d="M418.981 27.536C418.981 26.64 419.157 25.8453 419.509 25.152C419.872 24.4587 420.357 23.9253 420.965 23.552C421.584 23.1787 422.272 22.992 423.029 22.992C423.69 22.992 424.266 23.1253 424.757 23.392C425.258 23.6587 425.658 23.9947 425.957 24.4V23.136H428.213V32H425.957V30.704C425.669 31.12 425.269 31.4667 424.757 31.744C424.256 32.0107 423.674 32.144 423.013 32.144C422.266 32.144 421.584 31.952 420.965 31.568C420.357 31.184 419.872 30.6453 419.509 29.952C419.157 29.248 418.981 28.4427 418.981 27.536ZM425.957 27.568C425.957 27.024 425.85 26.56 425.637 26.176C425.424 25.7813 425.136 25.4827 424.773 25.28C424.41 25.0667 424.021 24.96 423.605 24.96C423.189 24.96 422.805 25.0613 422.453 25.264C422.101 25.4667 421.813 25.7653 421.589 26.16C421.376 26.544 421.269 27.0027 421.269 27.536C421.269 28.0693 421.376 28.5387 421.589 28.944C421.813 29.3387 422.101 29.6427 422.453 29.856C422.816 30.0693 423.2 30.176 423.605 30.176C424.021 30.176 424.41 30.0747 424.773 29.872C425.136 29.6587 425.424 29.36 425.637 28.976C425.85 28.5813 425.957 28.112 425.957 27.568Z" fill="#464E5F"/>
<path d="M429.825 27.568C429.825 26.6507 430.012 25.8507 430.385 25.168C430.758 24.4747 431.276 23.9413 431.937 23.568C432.598 23.184 433.356 22.992 434.209 22.992C435.308 22.992 436.214 23.2693 436.929 23.824C437.654 24.368 438.14 25.136 438.385 26.128H435.969C435.841 25.744 435.622 25.4453 435.313 25.232C435.014 25.008 434.641 24.896 434.193 24.896C433.553 24.896 433.046 25.1307 432.673 25.6C432.3 26.0587 432.113 26.7147 432.113 27.568C432.113 28.4107 432.3 29.0667 432.673 29.536C433.046 29.9947 433.553 30.224 434.193 30.224C435.1 30.224 435.692 29.8187 435.969 29.008H438.385C438.14 29.968 437.654 30.7307 436.929 31.296C436.204 31.8613 435.297 32.144 434.209 32.144C433.356 32.144 432.598 31.9573 431.937 31.584C431.276 31.2 430.758 30.6667 430.385 29.984C430.012 29.2907 429.825 28.4853 429.825 27.568Z" fill="#464E5F"/>
<path d="M442.266 24.432C442.554 24.0053 442.949 23.6587 443.45 23.392C443.962 23.1253 444.543 22.992 445.194 22.992C445.951 22.992 446.634 23.1787 447.242 23.552C447.861 23.9253 448.346 24.4587 448.698 25.152C449.061 25.8347 449.242 26.6293 449.242 27.536C449.242 28.4427 449.061 29.248 448.698 29.952C448.346 30.6453 447.861 31.184 447.242 31.568C446.634 31.952 445.951 32.144 445.194 32.144C444.533 32.144 443.951 32.016 443.45 31.76C442.959 31.4933 442.565 31.152 442.266 30.736V32H440.026V20.16H442.266V24.432ZM446.954 27.536C446.954 27.0027 446.842 26.544 446.618 26.16C446.405 25.7653 446.117 25.4667 445.754 25.264C445.402 25.0613 445.018 24.96 444.602 24.96C444.197 24.96 443.813 25.0667 443.45 25.28C443.098 25.4827 442.81 25.7813 442.586 26.176C442.373 26.5707 442.266 27.0347 442.266 27.568C442.266 28.1013 442.373 28.5653 442.586 28.96C442.81 29.3547 443.098 29.6587 443.45 29.872C443.813 30.0747 444.197 30.176 444.602 30.176C445.018 30.176 445.402 30.0693 445.754 29.856C446.117 29.6427 446.405 29.3387 446.618 28.944C446.842 28.5493 446.954 28.08 446.954 27.536Z" fill="#464E5F"/>
<path d="M452.006 22.08C451.6 22.08 451.264 21.9573 450.998 21.712C450.742 21.456 450.614 21.1413 450.614 20.768C450.614 20.3947 450.742 20.0853 450.998 19.84C451.264 19.584 451.6 19.456 452.006 19.456C452.4 19.456 452.726 19.584 452.982 19.84C453.238 20.0853 453.366 20.3947 453.366 20.768C453.366 21.1413 453.238 21.456 452.982 21.712C452.726 21.9573 452.4 22.08 452.006 22.08ZM453.11 33.456C453.11 34.4373 452.864 35.1413 452.374 35.568C451.894 36.0053 451.2 36.224 450.294 36.224H449.302V34.32H449.942C450.283 34.32 450.523 34.2507 450.662 34.112C450.8 33.984 450.87 33.7707 450.87 33.472V23.136H453.11V33.456Z" fill="#464E5F"/>
<path d="M463.851 21.504C465.088 21.504 466.16 21.7333 467.067 22.192C467.973 22.6507 468.667 23.296 469.147 24.128C469.637 24.96 469.883 25.92 469.883 27.008C469.883 27.8827 469.728 28.7093 469.419 29.488C469.12 30.2667 468.683 30.896 468.107 31.376C467.531 31.856 466.848 32.096 466.059 32.096C465.504 32.096 465.056 31.984 464.715 31.76C464.373 31.5253 464.155 31.1947 464.059 30.768C463.749 31.184 463.349 31.5147 462.859 31.76C462.368 31.9947 461.851 32.112 461.307 32.112C460.496 32.112 459.861 31.872 459.403 31.392C458.944 30.9013 458.715 30.2347 458.715 29.392C458.715 28.592 458.88 27.8453 459.211 27.152C459.541 26.4587 460 25.904 460.587 25.488C461.173 25.0613 461.835 24.848 462.571 24.848C463.488 24.848 464.117 25.168 464.459 25.808L464.603 24.976H466.475L465.723 29.296C465.691 29.4987 465.675 29.6853 465.675 29.856C465.675 30.112 465.728 30.304 465.835 30.432C465.941 30.56 466.123 30.624 466.379 30.624C466.763 30.624 467.083 30.4427 467.339 30.08C467.605 29.7173 467.803 29.264 467.931 28.72C468.069 28.176 468.139 27.632 468.139 27.088C468.139 25.7973 467.744 24.8 466.955 24.096C466.165 23.3813 465.051 23.024 463.611 23.024C462.384 23.024 461.275 23.3227 460.283 23.92C459.291 24.5067 458.512 25.312 457.947 26.336C457.392 27.3493 457.115 28.48 457.115 29.728C457.115 31.0507 457.504 32.0693 458.283 32.784C459.072 33.4987 460.187 33.856 461.627 33.856C462.661 33.856 463.573 33.6693 464.363 33.296L464.683 34.768C463.669 35.1947 462.544 35.408 461.307 35.408C460.112 35.408 459.067 35.1787 458.171 34.72C457.275 34.272 456.581 33.632 456.091 32.8C455.6 31.968 455.355 31.0027 455.355 29.904C455.355 28.336 455.717 26.912 456.443 25.632C457.179 24.352 458.192 23.344 459.483 22.608C460.784 21.872 462.24 21.504 463.851 21.504ZM462.011 30.448C462.395 30.448 462.747 30.336 463.067 30.112C463.387 29.888 463.637 29.5893 463.819 29.216C464.011 28.8427 464.107 28.4427 464.107 28.016C464.107 27.568 463.984 27.2053 463.739 26.928C463.493 26.6507 463.152 26.512 462.715 26.512C462.32 26.512 461.973 26.6347 461.675 26.88C461.376 27.1147 461.141 27.424 460.971 27.808C460.811 28.192 460.731 28.5973 460.731 29.024C460.731 29.4613 460.837 29.808 461.051 30.064C461.264 30.32 461.584 30.448 462.011 30.448Z" fill="#464E5F"/>
<path d="M483.143 23.008C484.231 23.008 485.106 23.344 485.767 24.016C486.439 24.6773 486.775 25.6053 486.775 26.8V32H484.535V27.104C484.535 26.4107 484.359 25.8827 484.007 25.52C483.655 25.1467 483.175 24.96 482.567 24.96C481.959 24.96 481.474 25.1467 481.111 25.52C480.759 25.8827 480.583 26.4107 480.583 27.104V32H478.343V27.104C478.343 26.4107 478.167 25.8827 477.815 25.52C477.463 25.1467 476.983 24.96 476.375 24.96C475.757 24.96 475.266 25.1467 474.903 25.52C474.551 25.8827 474.375 26.4107 474.375 27.104V32H472.135V23.136H474.375V24.208C474.663 23.8347 475.031 23.5413 475.479 23.328C475.938 23.1147 476.439 23.008 476.983 23.008C477.677 23.008 478.295 23.1573 478.839 23.456C479.383 23.744 479.805 24.16 480.103 24.704C480.391 24.192 480.807 23.7813 481.351 23.472C481.906 23.1627 482.503 23.008 483.143 23.008Z" fill="#464E5F"/>
<path d="M488.325 27.536C488.325 26.64 488.501 25.8453 488.853 25.152C489.216 24.4587 489.701 23.9253 490.309 23.552C490.928 23.1787 491.616 22.992 492.373 22.992C493.034 22.992 493.61 23.1253 494.101 23.392C494.602 23.6587 495.002 23.9947 495.301 24.4V23.136H497.557V32H495.301V30.704C495.013 31.12 494.613 31.4667 494.101 31.744C493.6 32.0107 493.018 32.144 492.357 32.144C491.61 32.144 490.928 31.952 490.309 31.568C489.701 31.184 489.216 30.6453 488.853 29.952C488.501 29.248 488.325 28.4427 488.325 27.536ZM495.301 27.568C495.301 27.024 495.194 26.56 494.981 26.176C494.768 25.7813 494.48 25.4827 494.117 25.28C493.754 25.0667 493.365 24.96 492.949 24.96C492.533 24.96 492.149 25.0613 491.797 25.264C491.445 25.4667 491.157 25.7653 490.933 26.16C490.72 26.544 490.613 27.0027 490.613 27.536C490.613 28.0693 490.72 28.5387 490.933 28.944C491.157 29.3387 491.445 29.6427 491.797 29.856C492.16 30.0693 492.544 30.176 492.949 30.176C493.365 30.176 493.754 30.0747 494.117 29.872C494.48 29.6587 494.768 29.36 494.981 28.976C495.194 28.5813 495.301 28.112 495.301 27.568Z" fill="#464E5F"/>
<path d="M500.881 22.08C500.486 22.08 500.155 21.9573 499.889 21.712C499.633 21.456 499.505 21.1413 499.505 20.768C499.505 20.3947 499.633 20.0853 499.889 19.84C500.155 19.584 500.486 19.456 500.881 19.456C501.275 19.456 501.601 19.584 501.857 19.84C502.123 20.0853 502.257 20.3947 502.257 20.768C502.257 21.1413 502.123 21.456 501.857 21.712C501.601 21.9573 501.275 22.08 500.881 22.08ZM501.985 23.136V32H499.745V23.136H501.985Z" fill="#464E5F"/>
<path d="M506.438 20.16V32H504.198V20.16H506.438Z" fill="#464E5F"/>
<path d="M509.643 32.112C509.238 32.112 508.902 31.9893 508.635 31.744C508.379 31.488 508.251 31.1733 508.251 30.8C508.251 30.4267 508.379 30.1173 508.635 29.872C508.902 29.616 509.238 29.488 509.643 29.488C510.038 29.488 510.363 29.616 510.619 29.872C510.875 30.1173 511.003 30.4267 511.003 30.8C511.003 31.1733 510.875 31.488 510.619 31.744C510.363 31.9893 510.038 32.112 509.643 32.112Z" fill="#464E5F"/>
<path d="M512.231 27.568C512.231 26.6507 512.418 25.8507 512.791 25.168C513.164 24.4747 513.682 23.9413 514.343 23.568C515.004 23.184 515.762 22.992 516.615 22.992C517.714 22.992 518.62 23.2693 519.335 23.824C520.06 24.368 520.546 25.136 520.791 26.128H518.375C518.247 25.744 518.028 25.4453 517.719 25.232C517.42 25.008 517.047 24.896 516.599 24.896C515.959 24.896 515.452 25.1307 515.079 25.6C514.706 26.0587 514.519 26.7147 514.519 27.568C514.519 28.4107 514.706 29.0667 515.079 29.536C515.452 29.9947 515.959 30.224 516.599 30.224C517.506 30.224 518.098 29.8187 518.375 29.008H520.791C520.546 29.968 520.06 30.7307 519.335 31.296C518.61 31.8613 517.703 32.144 516.615 32.144C515.762 32.144 515.004 31.9573 514.343 31.584C513.682 31.2 513.164 30.6667 512.791 29.984C512.418 29.2907 512.231 28.4853 512.231 27.568Z" fill="#464E5F"/>
<path d="M526.368 32.144C525.515 32.144 524.747 31.9573 524.064 31.584C523.381 31.2 522.843 30.6613 522.448 29.968C522.064 29.2747 521.872 28.4747 521.872 27.568C521.872 26.6613 522.069 25.8613 522.464 25.168C522.869 24.4747 523.419 23.9413 524.112 23.568C524.805 23.184 525.579 22.992 526.432 22.992C527.285 22.992 528.059 23.184 528.752 23.568C529.445 23.9413 529.99 24.4747 530.384 25.168C530.789 25.8613 530.992 26.6613 530.992 27.568C530.992 28.4747 530.784 29.2747 530.368 29.968C529.963 30.6613 529.408 31.2 528.704 31.584C528.011 31.9573 527.232 32.144 526.368 32.144ZM526.368 30.192C526.773 30.192 527.152 30.096 527.504 29.904C527.867 29.7013 528.155 29.4027 528.368 29.008C528.581 28.6133 528.688 28.1333 528.688 27.568C528.688 26.7253 528.464 26.08 528.016 25.632C527.579 25.1733 527.04 24.944 526.4 24.944C525.76 24.944 525.221 25.1733 524.784 25.632C524.357 26.08 524.144 26.7253 524.144 27.568C524.144 28.4107 524.352 29.0613 524.768 29.52C525.195 29.968 525.728 30.192 526.368 30.192Z" fill="#464E5F"/>
<path d="M543.643 23.008C544.731 23.008 545.606 23.344 546.267 24.016C546.939 24.6773 547.275 25.6053 547.275 26.8V32H545.035V27.104C545.035 26.4107 544.859 25.8827 544.507 25.52C544.155 25.1467 543.675 24.96 543.067 24.96C542.459 24.96 541.974 25.1467 541.611 25.52C541.259 25.8827 541.083 26.4107 541.083 27.104V32H538.843V27.104C538.843 26.4107 538.667 25.8827 538.315 25.52C537.963 25.1467 537.483 24.96 536.875 24.96C536.257 24.96 535.766 25.1467 535.403 25.52C535.051 25.8827 534.875 26.4107 534.875 27.104V32H532.635V23.136H534.875V24.208C535.163 23.8347 535.531 23.5413 535.979 23.328C536.438 23.1147 536.939 23.008 537.483 23.008C538.177 23.008 538.795 23.1573 539.339 23.456C539.883 23.744 540.305 24.16 540.603 24.704C540.891 24.192 541.307 23.7813 541.851 23.472C542.406 23.1627 543.003 23.008 543.643 23.008Z" fill="#464E5F"/>
<path d="M640.976 35.152C639.941 34.1493 639.136 32.8693 638.56 31.312C637.995 29.7547 637.712 28.0853 637.712 26.304C637.712 24.48 638.011 22.768 638.608 21.168C639.205 19.5573 640.075 18.24 641.216 17.216H643.472V17.424C642.299 18.544 641.403 19.888 640.784 21.456C640.176 23.024 639.872 24.64 639.872 26.304C639.872 27.9253 640.16 29.4933 640.736 31.008C641.323 32.512 642.155 33.8187 643.232 34.928V35.152H640.976Z" fill="#464E5F"/>
<path d="M644.646 23.408C644.699 22.3413 645.072 21.52 645.766 20.944C646.47 20.3573 647.392 20.064 648.534 20.064C649.312 20.064 649.979 20.2027 650.534 20.48C651.088 20.7467 651.504 21.1147 651.782 21.584C652.07 22.0427 652.214 22.5653 652.214 23.152C652.214 23.824 652.038 24.3947 651.686 24.864C651.344 25.3227 650.934 25.632 650.454 25.792V25.856C651.072 26.048 651.552 26.3893 651.894 26.88C652.246 27.3707 652.422 28 652.422 28.768C652.422 29.408 652.272 29.9787 651.974 30.48C651.686 30.9813 651.254 31.376 650.678 31.664C650.112 31.9413 649.43 32.08 648.63 32.08C647.424 32.08 646.443 31.776 645.686 31.168C644.928 30.56 644.528 29.664 644.486 28.48H646.662C646.683 29.0027 646.859 29.424 647.19 29.744C647.531 30.0533 647.995 30.208 648.582 30.208C649.126 30.208 649.542 30.0587 649.83 29.76C650.128 29.4507 650.278 29.056 650.278 28.576C650.278 27.936 650.075 27.4773 649.67 27.2C649.264 26.9227 648.635 26.784 647.782 26.784H647.318V24.944H647.782C649.296 24.944 650.054 24.4373 650.054 23.424C650.054 22.9653 649.915 22.608 649.638 22.352C649.371 22.096 648.982 21.968 648.47 21.968C647.968 21.968 647.579 22.1067 647.302 22.384C647.035 22.6507 646.88 22.992 646.838 23.408H644.646Z" fill="#464E5F"/>
<path d="M653.92 22.4V20.336H657.776V32H655.472V22.4H653.92Z" fill="#464E5F"/>
<path d="M662.581 28.72C662.666 29.1893 662.858 29.552 663.157 29.808C663.466 30.0533 663.877 30.176 664.389 30.176C665.05 30.176 665.53 29.904 665.829 29.36C666.127 28.8053 666.277 27.8773 666.277 26.576C666.031 26.9173 665.685 27.184 665.237 27.376C664.799 27.568 664.325 27.664 663.813 27.664C663.13 27.664 662.511 27.5253 661.957 27.248C661.413 26.96 660.981 26.5387 660.661 25.984C660.341 25.4187 660.181 24.736 660.181 23.936C660.181 22.752 660.533 21.8133 661.237 21.12C661.941 20.416 662.901 20.064 664.117 20.064C665.631 20.064 666.698 20.5493 667.317 21.52C667.946 22.4907 668.261 23.952 668.261 25.904C668.261 27.2907 668.138 28.4267 667.893 29.312C667.658 30.1973 667.247 30.8693 666.661 31.328C666.085 31.7867 665.295 32.016 664.293 32.016C663.503 32.016 662.831 31.8667 662.277 31.568C661.722 31.2587 661.295 30.8587 660.997 30.368C660.709 29.8667 660.543 29.3173 660.501 28.72H662.581ZM664.277 25.84C664.831 25.84 665.269 25.6693 665.589 25.328C665.909 24.9867 666.069 24.528 666.069 23.952C666.069 23.3227 665.898 22.8373 665.557 22.496C665.226 22.144 664.773 21.968 664.197 21.968C663.621 21.968 663.162 22.1493 662.821 22.512C662.49 22.864 662.325 23.3333 662.325 23.92C662.325 24.4853 662.485 24.9493 662.805 25.312C663.135 25.664 663.626 25.84 664.277 25.84Z" fill="#464E5F"/>
<path d="M669.684 35.152V34.928C670.762 33.8187 671.588 32.512 672.164 31.008C672.751 29.4933 673.044 27.9253 673.044 26.304C673.044 24.64 672.735 23.024 672.116 21.456C671.508 19.888 670.618 18.544 669.444 17.424V17.216H671.7C672.842 18.24 673.711 19.5573 674.308 21.168C674.906 22.768 675.204 24.48 675.204 26.304C675.204 28.0853 674.916 29.7547 674.34 31.312C673.775 32.8693 672.975 34.1493 671.94 35.152H669.684Z" fill="#464E5F"/>
<path d="M689.422 22.272H684.238V25.008C684.462 24.7307 684.782 24.5067 685.198 24.336C685.614 24.1547 686.057 24.064 686.526 24.064C687.38 24.064 688.078 24.2507 688.622 24.624C689.166 24.9973 689.561 25.4773 689.806 26.064C690.052 26.64 690.174 27.2587 690.174 27.92C690.174 29.1467 689.822 30.1333 689.118 30.88C688.425 31.6267 687.433 32 686.142 32C684.926 32 683.956 31.696 683.23 31.088C682.505 30.48 682.094 29.6853 681.998 28.704H684.174C684.27 29.1307 684.484 29.472 684.814 29.728C685.156 29.984 685.588 30.112 686.11 30.112C686.74 30.112 687.214 29.9147 687.534 29.52C687.854 29.1253 688.014 28.6027 688.014 27.952C688.014 27.2907 687.849 26.7893 687.518 26.448C687.198 26.096 686.724 25.92 686.094 25.92C685.646 25.92 685.273 26.032 684.974 26.256C684.676 26.48 684.462 26.7787 684.334 27.152H682.19V20.304H689.422V22.272Z" fill="#464E5F"/>
<path d="M699.719 22.272H694.535V25.008C694.759 24.7307 695.079 24.5067 695.495 24.336C695.911 24.1547 696.354 24.064 696.823 24.064C697.677 24.064 698.375 24.2507 698.919 24.624C699.463 24.9973 699.858 25.4773 700.103 26.064C700.349 26.64 700.471 27.2587 700.471 27.92C700.471 29.1467 700.119 30.1333 699.415 30.88C698.722 31.6267 697.73 32 696.439 32C695.223 32 694.253 31.696 693.527 31.088C692.802 30.48 692.391 29.6853 692.295 28.704H694.471C694.567 29.1307 694.781 29.472 695.111 29.728C695.453 29.984 695.885 30.112 696.407 30.112C697.037 30.112 697.511 29.9147 697.831 29.52C698.151 29.1253 698.311 28.6027 698.311 27.952C698.311 27.2907 698.146 26.7893 697.815 26.448C697.495 26.096 697.021 25.92 696.391 25.92C695.943 25.92 695.57 26.032 695.271 26.256C694.973 26.48 694.759 26.7787 694.631 27.152H692.487V20.304H699.719V22.272Z" fill="#464E5F"/>
<path d="M710.016 22.272H704.832V25.008C705.056 24.7307 705.376 24.5067 705.792 24.336C706.208 24.1547 706.651 24.064 707.12 24.064C707.973 24.064 708.672 24.2507 709.216 24.624C709.76 24.9973 710.155 25.4773 710.4 26.064C710.646 26.64 710.768 27.2587 710.768 27.92C710.768 29.1467 710.416 30.1333 709.712 30.88C709.019 31.6267 708.027 32 706.736 32C705.52 32 704.549 31.696 703.824 31.088C703.099 30.48 702.688 29.6853 702.592 28.704H704.768C704.864 29.1307 705.077 29.472 705.408 29.728C705.749 29.984 706.181 30.112 706.704 30.112C707.333 30.112 707.808 29.9147 708.128 29.52C708.448 29.1253 708.608 28.6027 708.608 27.952C708.608 27.2907 708.443 26.7893 708.112 26.448C707.792 26.096 707.317 25.92 706.688 25.92C706.24 25.92 705.867 26.032 705.568 26.256C705.269 26.48 705.056 26.7787 704.928 27.152H702.784V20.304H710.016V22.272Z" fill="#464E5F"/>
<path d="M719.545 25.344V27.232H712.761V25.344H719.545Z" fill="#464E5F"/>
<path d="M721.801 26.016C721.801 24.1707 722.132 22.7253 722.793 21.68C723.465 20.6347 724.574 20.112 726.121 20.112C727.668 20.112 728.772 20.6347 729.433 21.68C730.105 22.7253 730.441 24.1707 730.441 26.016C730.441 27.872 730.105 29.328 729.433 30.384C728.772 31.44 727.668 31.968 726.121 31.968C724.574 31.968 723.465 31.44 722.793 30.384C722.132 29.328 721.801 27.872 721.801 26.016ZM728.233 26.016C728.233 25.2267 728.18 24.5653 728.073 24.032C727.977 23.488 727.774 23.0453 727.465 22.704C727.167 22.3627 726.719 22.192 726.121 22.192C725.524 22.192 725.07 22.3627 724.761 22.704C724.462 23.0453 724.26 23.488 724.153 24.032C724.057 24.5653 724.009 25.2267 724.009 26.016C724.009 26.8267 724.057 27.5093 724.153 28.064C724.249 28.608 724.452 29.0507 724.761 29.392C725.07 29.7227 725.524 29.888 726.121 29.888C726.719 29.888 727.172 29.7227 727.481 29.392C727.79 29.0507 727.993 28.608 728.089 28.064C728.185 27.5093 728.233 26.8267 728.233 26.016Z" fill="#464E5F"/>
<path d="M731.873 22.4V20.336H735.729V32H733.425V22.4H731.873Z" fill="#464E5F"/>
<path d="M737.67 22.4V20.336H741.526V32H739.222V22.4H737.67Z" fill="#464E5F"/>
<path d="M751.579 22.272H746.395V25.008C746.619 24.7307 746.939 24.5067 747.355 24.336C747.771 24.1547 748.213 24.064 748.683 24.064C749.536 24.064 750.235 24.2507 750.779 24.624C751.323 24.9973 751.717 25.4773 751.963 26.064C752.208 26.64 752.331 27.2587 752.331 27.92C752.331 29.1467 751.979 30.1333 751.275 30.88C750.581 31.6267 749.589 32 748.299 32C747.083 32 746.112 31.696 745.387 31.088C744.661 30.48 744.251 29.6853 744.155 28.704H746.331C746.427 29.1307 746.64 29.472 746.971 29.728C747.312 29.984 747.744 30.112 748.267 30.112C748.896 30.112 749.371 29.9147 749.691 29.52C750.011 29.1253 750.171 28.6027 750.171 27.952C750.171 27.2907 750.005 26.7893 749.675 26.448C749.355 26.096 748.88 25.92 748.251 25.92C747.803 25.92 747.429 26.032 747.131 26.256C746.832 26.48 746.619 26.7787 746.491 27.152H744.347V20.304H751.579V22.272Z" fill="#464E5F"/>
<path d="M0 6C0 2.68629 2.68629 0 6 0H44C47.3137 0 50 2.68629 50 6V44C50 47.3137 47.3137 50 44 50H6C2.68629 50 0 47.3137 0 44V6Z" fill="#F3F6F9"/>
<path d="M38.7813 46.4549L38.7187 45.8915C38.6939 45.6686 38.4931 45.5079 38.2703 45.5327L38.2352 45.5366L37.6294 40.6905C37.4976 39.6364 36.7723 38.7516 35.7645 38.4156L32.3983 37.2936C31.9361 37.1394 31.429 37.2375 31.0726 37.5413L30.081 37.2108C29.5177 37.023 29.1379 36.496 29.1379 35.9023V33.678L32.1087 32.4401C33.6507 31.7978 34.6551 30.2912 34.6551 28.6207V27.931C35.7978 27.931 36.7241 27.0047 36.7241 25.862C36.7241 25.517 36.6392 25.1919 36.4897 24.9058C36.6401 24.5653 36.7241 24.1891 36.7241 23.7931C36.7241 23.5138 36.6702 23.2496 36.5931 22.9956C37.0992 22.4955 37.4138 21.8021 37.4138 21.0345C37.4138 20.7551 37.3599 20.491 37.2827 20.237C37.7889 19.7369 38.1034 19.0435 38.1034 18.2758C38.1034 16.949 37.1661 15.8426 35.9179 15.5785C35.9863 15.3383 36.0345 15.0897 36.0345 14.8276C36.0345 13.304 34.7994 12.069 33.2758 12.069C32.7037 12.069 32.1723 12.2433 31.7316 12.5415C31.3551 11.4659 30.342 10.6897 29.1379 10.6897C28.4577 10.6897 27.843 10.9453 27.362 11.3534C26.8808 10.5463 26.008 10 25.0001 10C23.9921 10 23.1194 10.5463 22.6381 11.3534C22.1571 10.9453 21.5424 10.6897 20.8622 10.6897C19.658 10.6897 18.6449 11.4659 18.2685 12.5415C17.8277 12.2433 17.2963 12.069 16.7242 12.069C15.2007 12.069 13.9656 13.304 13.9656 14.8276C13.9656 15.0897 14.0139 15.3383 14.0822 15.5785C12.8339 15.8426 11.8966 16.949 11.8966 18.2758C11.8966 19.0435 12.2111 19.7369 12.7173 20.237C12.6401 20.491 12.5862 20.7551 12.5862 21.0345C12.5862 21.8021 12.9008 22.4955 13.4069 22.9956C13.3298 23.2496 13.2759 23.5138 13.2759 23.7931C13.2759 24.1891 13.3599 24.5653 13.5103 24.9058C13.3609 25.1919 13.2759 25.517 13.2759 25.862C13.2759 27.0047 14.2022 27.931 15.3448 27.931V28.6207C15.3448 30.2911 16.3492 31.7977 17.8912 32.4403L20.8621 33.6781V35.9024C20.8621 36.4961 20.4822 37.0231 19.919 37.2109L18.9274 37.5414C18.571 37.2376 18.0639 37.1395 17.6016 37.2937L14.2355 38.4157C13.2277 38.7517 12.5023 39.6365 12.3705 40.6906L11.7648 45.5367L11.7297 45.5328C11.5068 45.508 11.3061 45.6686 11.2813 45.8916L11.2187 46.455C11.194 46.6779 11.3546 46.8786 11.5774 46.9034L12.5862 47.0154V48.6206C12.5862 49.3823 13.2038 49.9999 13.9655 49.9999H17.4138H32.5862H36.0345C36.7963 49.9999 37.4138 49.3823 37.4138 48.6206V47.0154L38.4225 46.9033C38.6454 46.8785 38.8061 46.6778 38.7813 46.4549Z" fill="#C38762"/>
<path d="M37.2827 20.237C37.7889 19.7369 38.1034 19.0435 38.1034 18.2758C38.1034 16.949 37.1661 15.8426 35.9179 15.5785C35.9863 15.3383 36.0345 15.0897 36.0345 14.8276C36.0345 13.304 34.7994 12.069 33.2758 12.069C32.7037 12.069 32.1723 12.2433 31.7316 12.5415C31.3551 11.4659 30.342 10.6897 29.1379 10.6897C28.4577 10.6897 27.843 10.9453 27.362 11.3534C26.8808 10.5463 26.008 10 25.0001 10C23.9921 10 23.1194 10.5463 22.6381 11.3534C22.1571 10.9453 21.5424 10.6897 20.8622 10.6897C19.658 10.6897 18.6449 11.4659 18.2685 12.5415C17.8277 12.2433 17.2963 12.069 16.7242 12.069C15.2007 12.069 13.9656 13.304 13.9656 14.8276C13.9656 15.0897 14.0139 15.3383 14.0822 15.5785C12.8339 15.8426 11.8966 16.949 11.8966 18.2758C11.8966 19.0435 12.2111 19.7369 12.7173 20.237C12.6401 20.491 12.5862 20.7551 12.5862 21.0345C12.5862 21.8021 12.9008 22.4955 13.4069 22.9956C13.3298 23.2496 13.2759 23.5138 13.2759 23.7931C13.2759 25.3166 14.5109 26.5517 16.0345 26.5517C16.0341 26.5517 16.0347 26.5517 16.0345 26.5517H33.9647C33.9643 26.5517 33.9649 26.5517 33.9647 26.5517C35.4882 26.5517 36.7241 25.3166 36.7241 23.7931C36.7241 23.5138 36.6702 23.2496 36.5931 22.9956C37.0992 22.4955 37.4138 21.8021 37.4138 21.0345C37.4138 20.7551 37.3599 20.491 37.2827 20.237Z" fill="#623F33"/>
<path d="M32.5862 49.9999L32.5861 46.5519H38.362L37.6294 40.6905C37.4976 39.6364 36.7723 38.7516 35.7645 38.4156L32.3983 37.2936C31.8121 37.0981 31.1525 37.3071 30.8214 37.8288C29.599 39.755 27.4503 41.0346 25 41.0346C22.5498 41.0346 20.401 39.7549 19.1785 37.8287C18.8474 37.307 18.1879 37.0982 17.6016 37.2937L14.2355 38.4157C13.2277 38.7517 12.5023 39.6365 12.3705 40.6906L11.7146 45.9383L17.4138 46.5518L17.4138 49.9999H32.5862Z" fill="#FFD739"/>
<path d="M29.1379 33.678L20.8621 31.839L20.8621 35.9024C20.8621 36.3988 20.5875 36.8361 20.171 37.0799C25.955 38.0923 29.1379 33.678 29.1379 33.678Z" fill="#A46D4D"/>
<path d="M34.6551 23.7931V21.7241C34.6551 19.8197 33.1112 17.5862 31.2068 17.5862H18.7931C16.8886 17.5862 15.3448 19.8197 15.3448 21.7241V23.7931C14.2021 23.7931 13.2759 24.7195 13.2759 25.862C13.2759 27.0047 14.2022 27.931 15.3448 27.931V28.6207C15.3448 30.2911 16.3492 31.7977 17.8912 32.4403L22.3473 34.297C23.1879 34.6473 24.0894 34.8275 25 34.8275C25.9105 34.8275 26.8119 34.6472 27.6525 34.297L32.1087 32.4401C33.6507 31.7978 34.6551 30.2912 34.6551 28.6207V27.931C35.7978 27.931 36.7241 27.0047 36.7241 25.862C36.7241 24.7194 35.7978 23.7931 34.6551 23.7931Z" fill="#D29771"/>
<path d="M20.1725 26.5517C19.7932 26.5517 19.4828 26.2413 19.4828 25.862V25.1724C19.4828 24.7931 19.7932 24.4827 20.1725 24.4827C20.5518 24.4827 20.8622 24.7931 20.8622 25.1724V25.862C20.8622 26.2413 20.5517 26.5517 20.1725 26.5517Z" fill="#623F33"/>
<path d="M29.8275 26.5517C29.4482 26.5517 29.1379 26.2413 29.1379 25.862V25.1724C29.1379 24.7931 29.4482 24.4827 29.8275 24.4827C30.2069 24.4827 30.5172 24.7931 30.5172 25.1724V25.862C30.5172 26.2413 30.2069 26.5517 29.8275 26.5517Z" fill="#623F33"/>
<path d="M25 31.3981C23.7739 31.3981 22.627 31.0964 21.8535 30.5701C21.5387 30.3559 21.4569 29.9269 21.6713 29.6121C21.8851 29.2976 22.3145 29.2157 22.6294 29.4299C23.1715 29.7986 24.0578 30.0189 25 30.0189C25.9423 30.0189 26.8286 29.7986 27.3707 29.4299C27.6862 29.2151 28.1146 29.2972 28.3287 29.6121C28.5432 29.9269 28.4614 30.3559 28.1466 30.5701C27.3731 31.0964 26.2262 31.3981 25 31.3981Z" fill="#A46D4D"/>
<path d="M17.4139 47.0724V45.5115C17.4139 44.848 17.1748 44.2068 16.7404 43.7052L12.9457 39.3248C12.6395 39.7125 12.4342 40.1809 12.3705 40.6906L11.6504 46.4532C12.7472 46.5191 15.6648 46.8609 17.4139 47.0724Z" fill="#FFC33D"/>
<path d="M17.4139 46.1643L11.7297 45.5328C11.5068 45.508 11.3061 45.6686 11.2813 45.8916L11.2187 46.455C11.194 46.6779 11.3546 46.8786 11.5774 46.9034L17.4139 47.5518V46.1643Z" fill="#FFB440"/>
<path d="M32.5862 47.0724V45.5115C32.5862 44.848 32.8253 44.2068 33.2597 43.7052L37.0544 39.3248C37.3606 39.7125 37.5657 40.1808 37.6294 40.6905L38.3497 46.4532C37.2529 46.5191 34.3352 46.8609 32.5862 47.0724Z" fill="#FFC33D"/>
<path d="M32.5862 46.1643L38.2703 45.5327C38.4931 45.5079 38.6939 45.6686 38.7187 45.8915L38.7813 46.4549C38.8061 46.6778 38.6454 46.8785 38.4225 46.9033L32.5862 47.5518V46.1643Z" fill="#FFB440"/>
<path d="M15.3448 17.6724V23.7931C14.2021 23.7931 13.2759 24.7195 13.2759 25.862C13.2759 27.0047 14.2022 27.931 15.3448 27.931V28.6207C15.3448 30.2911 16.3492 31.7977 17.8912 32.4403L22.3473 34.297C22.5654 34.3879 22.7879 34.4662 23.0133 34.534C21.044 33.0934 19.7332 31.834 18.9651 31.0106C18.4063 30.4114 18.1034 29.6208 18.1034 28.8015V21.0149C18.8375 20.9331 19.4927 20.5939 19.9813 20.0914C20.3575 20.2534 20.7713 20.3448 21.2069 20.3448C22.1549 20.3448 22.993 19.9107 23.5622 19.2408C23.9819 19.4989 24.4712 19.6552 25 19.6552C25.7081 19.6552 26.3473 19.3805 26.8358 18.9419C27.3712 19.3808 28.0468 19.6552 28.7931 19.6552C30.1106 19.6552 31.2282 18.8314 31.6762 17.6724H15.3448Z" fill="#C38762"/>
<path d="M34.6551 18.2758C34.6103 18.2758 34.5685 18.2862 34.5243 18.289C34.6043 18.0687 34.6551 17.8341 34.6551 17.5862C34.6551 16.4435 33.7288 15.5172 32.5861 15.5172C32.3352 15.5172 32.0977 15.5687 31.8751 15.6505C31.7645 14.0371 30.4346 12.7586 28.7931 12.7586C27.3799 12.7586 26.2007 13.709 25.8257 15.0013C25.5725 14.8907 25.2939 14.8276 25 14.8276C24.2259 14.8276 23.5593 15.2577 23.2044 15.8871C22.7702 15.2478 22.0379 14.8276 21.2069 14.8276C20.2194 14.8276 19.3731 15.4222 18.9993 16.2715C18.6198 15.8145 18.0543 15.5172 17.4139 15.5172C16.6451 15.5172 15.9749 15.9367 15.6182 16.559C15.5708 16.5542 15.5227 16.5517 15.4741 16.5517C14.6885 16.5517 14.0517 17.1885 14.0517 17.9741C14.0517 18.2058 14.1083 18.4239 14.2066 18.6173C13.646 18.9874 13.2758 19.6227 13.2758 20.3448C13.2758 21.4875 14.2021 22.4138 15.3448 22.4138C16.4875 22.4138 17.4138 21.4875 17.4138 20.3448C17.4138 20.0969 17.363 19.8623 17.283 19.642C17.3271 19.6448 17.369 19.6552 17.4138 19.6552C18.1878 19.6552 18.8545 19.2251 19.2093 18.5957C19.6435 19.2349 20.376 19.6552 21.2069 19.6552C22.1944 19.6552 23.0407 19.0605 23.4145 18.2112C23.794 18.6683 24.3594 18.9655 25 18.9655C25.6864 18.9655 26.2902 18.6274 26.6666 18.1127C27.2226 18.638 27.9678 18.9655 28.7931 18.9655C29.4971 18.9655 30.139 18.7221 30.6598 18.327C30.9583 19.1025 31.7054 19.6552 32.5861 19.6552C32.631 19.6552 32.6728 19.6448 32.7169 19.642C32.6369 19.8623 32.5861 20.0969 32.5861 20.3448C32.5861 21.4875 33.5124 22.4138 34.6551 22.4138C35.7978 22.4138 36.7241 21.4875 36.7241 20.3448C36.7241 19.2021 35.7978 18.2758 34.6551 18.2758Z" fill="#623F33"/>
<path d="M72.616 9.832V17.672C72.616 18.76 72.3013 19.608 71.672 20.216C71.0427 20.8133 70.2 21.112 69.144 21.112C68.0773 21.112 67.2133 20.8027 66.552 20.184C65.9013 19.5653 65.576 18.7013 65.576 17.592H67.816C67.8267 18.072 67.9387 18.4453 68.152 18.712C68.376 18.9787 68.696 19.112 69.112 19.112C69.5173 19.112 69.8267 18.984 70.04 18.728C70.2533 18.472 70.36 18.12 70.36 17.672V9.832H72.616Z" fill="#464E5F"/>
<path d="M74.653 16.536C74.653 15.64 74.829 14.8453 75.181 14.152C75.5437 13.4587 76.029 12.9253 76.637 12.552C77.2557 12.1787 77.9437 11.992 78.701 11.992C79.3623 11.992 79.9383 12.1253 80.429 12.392C80.9303 12.6587 81.3303 12.9947 81.629 13.4V12.136H83.885V21H81.629V19.704C81.341 20.12 80.941 20.4667 80.429 20.744C79.9277 21.0107 79.3463 21.144 78.685 21.144C77.9383 21.144 77.2557 20.952 76.637 20.568C76.029 20.184 75.5437 19.6453 75.181 18.952C74.829 18.248 74.653 17.4427 74.653 16.536ZM81.629 16.568C81.629 16.024 81.5223 15.56 81.309 15.176C81.0957 14.7813 80.8077 14.4827 80.445 14.28C80.0823 14.0667 79.693 13.96 79.277 13.96C78.861 13.96 78.477 14.0613 78.125 14.264C77.773 14.4667 77.485 14.7653 77.261 15.16C77.0477 15.544 76.941 16.0027 76.941 16.536C76.941 17.0693 77.0477 17.5387 77.261 17.944C77.485 18.3387 77.773 18.6427 78.125 18.856C78.4877 19.0693 78.8717 19.176 79.277 19.176C79.693 19.176 80.0823 19.0747 80.445 18.872C80.8077 18.6587 81.0957 18.36 81.309 17.976C81.5223 17.5813 81.629 17.112 81.629 16.568Z" fill="#464E5F"/>
<path d="M85.4967 16.568C85.4967 15.6507 85.6834 14.8507 86.0567 14.168C86.4301 13.4747 86.9474 12.9413 87.6087 12.568C88.2701 12.184 89.0274 11.992 89.8808 11.992C90.9794 11.992 91.8861 12.2693 92.6008 12.824C93.3261 13.368 93.8114 14.136 94.0567 15.128H91.6407C91.5127 14.744 91.2941 14.4453 90.9847 14.232C90.6861 14.008 90.3128 13.896 89.8648 13.896C89.2248 13.896 88.7181 14.1307 88.3447 14.6C87.9714 15.0587 87.7848 15.7147 87.7848 16.568C87.7848 17.4107 87.9714 18.0667 88.3447 18.536C88.7181 18.9947 89.2248 19.224 89.8648 19.224C90.7714 19.224 91.3634 18.8187 91.6407 18.008H94.0567C93.8114 18.968 93.3261 19.7307 92.6008 20.296C91.8754 20.8613 90.9688 21.144 89.8808 21.144C89.0274 21.144 88.2701 20.9573 87.6087 20.584C86.9474 20.2 86.4301 19.6667 86.0567 18.984C85.6834 18.2907 85.4967 17.4853 85.4967 16.568Z" fill="#464E5F"/>
<path d="M99.6338 21.144C98.7804 21.144 98.0124 20.9573 97.3298 20.584C96.6471 20.2 96.1084 19.6613 95.7138 18.968C95.3298 18.2747 95.1377 17.4747 95.1377 16.568C95.1377 15.6613 95.3351 14.8613 95.7298 14.168C96.1351 13.4747 96.6844 12.9413 97.3777 12.568C98.0711 12.184 98.8444 11.992 99.6978 11.992C100.551 11.992 101.324 12.184 102.018 12.568C102.711 12.9413 103.255 13.4747 103.65 14.168C104.055 14.8613 104.258 15.6613 104.258 16.568C104.258 17.4747 104.05 18.2747 103.634 18.968C103.228 19.6613 102.674 20.2 101.97 20.584C101.276 20.9573 100.498 21.144 99.6338 21.144ZM99.6338 19.192C100.039 19.192 100.418 19.096 100.77 18.904C101.132 18.7013 101.42 18.4027 101.634 18.008C101.847 17.6133 101.954 17.1333 101.954 16.568C101.954 15.7253 101.73 15.08 101.282 14.632C100.844 14.1733 100.306 13.944 99.6657 13.944C99.0257 13.944 98.4871 14.1733 98.0498 14.632C97.6231 15.08 97.4098 15.7253 97.4098 16.568C97.4098 17.4107 97.6178 18.0613 98.0338 18.52C98.4604 18.968 98.9938 19.192 99.6338 19.192Z" fill="#464E5F"/>
<path d="M108.141 13.432C108.429 13.0053 108.824 12.6587 109.325 12.392C109.837 12.1253 110.418 11.992 111.069 11.992C111.826 11.992 112.509 12.1787 113.117 12.552C113.736 12.9253 114.221 13.4587 114.573 14.152C114.936 14.8347 115.117 15.6293 115.117 16.536C115.117 17.4427 114.936 18.248 114.573 18.952C114.221 19.6453 113.736 20.184 113.117 20.568C112.509 20.952 111.826 21.144 111.069 21.144C110.408 21.144 109.826 21.016 109.325 20.76C108.834 20.4933 108.44 20.152 108.141 19.736V21H105.901V9.16H108.141V13.432ZM112.829 16.536C112.829 16.0027 112.717 15.544 112.493 15.16C112.28 14.7653 111.992 14.4667 111.629 14.264C111.277 14.0613 110.893 13.96 110.477 13.96C110.072 13.96 109.688 14.0667 109.325 14.28C108.973 14.4827 108.685 14.7813 108.461 15.176C108.248 15.5707 108.141 16.0347 108.141 16.568C108.141 17.1013 108.248 17.5653 108.461 17.96C108.685 18.3547 108.973 18.6587 109.325 18.872C109.688 19.0747 110.072 19.176 110.477 19.176C110.893 19.176 111.277 19.0693 111.629 18.856C111.992 18.6427 112.28 18.3387 112.493 17.944C112.717 17.5493 112.829 17.08 112.829 16.536Z" fill="#464E5F"/>
<path d="M127.069 9.832V17.672C127.069 18.76 126.754 19.608 126.125 20.216C125.496 20.8133 124.653 21.112 123.597 21.112C122.53 21.112 121.666 20.8027 121.005 20.184C120.354 19.5653 120.029 18.7013 120.029 17.592H122.269C122.28 18.072 122.392 18.4453 122.605 18.712C122.829 18.9787 123.149 19.112 123.565 19.112C123.97 19.112 124.28 18.984 124.493 18.728C124.706 18.472 124.813 18.12 124.813 17.672V9.832H127.069Z" fill="#464E5F"/>
<path d="M133.618 21.144C132.765 21.144 131.997 20.9573 131.314 20.584C130.631 20.2 130.093 19.6613 129.698 18.968C129.314 18.2747 129.122 17.4747 129.122 16.568C129.122 15.6613 129.319 14.8613 129.714 14.168C130.119 13.4747 130.669 12.9413 131.362 12.568C132.055 12.184 132.829 11.992 133.682 11.992C134.535 11.992 135.309 12.184 136.002 12.568C136.695 12.9413 137.239 13.4747 137.634 14.168C138.039 14.8613 138.242 15.6613 138.242 16.568C138.242 17.4747 138.034 18.2747 137.618 18.968C137.213 19.6613 136.658 20.2 135.954 20.584C135.261 20.9573 134.482 21.144 133.618 21.144ZM133.618 19.192C134.023 19.192 134.402 19.096 134.754 18.904C135.117 18.7013 135.405 18.4027 135.618 18.008C135.831 17.6133 135.938 17.1333 135.938 16.568C135.938 15.7253 135.714 15.08 135.266 14.632C134.829 14.1733 134.29 13.944 133.65 13.944C133.01 13.944 132.471 14.1733 132.034 14.632C131.607 15.08 131.394 15.7253 131.394 16.568C131.394 17.4107 131.602 18.0613 132.018 18.52C132.445 18.968 132.978 19.192 133.618 19.192Z" fill="#464E5F"/>
<path d="M144.797 12.008C145.853 12.008 146.707 12.344 147.357 13.016C148.008 13.6773 148.333 14.6053 148.333 15.8V21H146.093V16.104C146.093 15.4 145.917 14.8613 145.565 14.488C145.213 14.104 144.733 13.912 144.125 13.912C143.507 13.912 143.016 14.104 142.653 14.488C142.301 14.8613 142.125 15.4 142.125 16.104V21H139.885V12.136H142.125V13.24C142.424 12.856 142.803 12.5573 143.261 12.344C143.731 12.12 144.243 12.008 144.797 12.008Z" fill="#464E5F"/>
<path d="M158.703 16.376C158.703 16.696 158.682 16.984 158.639 17.24H152.159C152.213 17.88 152.437 18.3813 152.831 18.744C153.226 19.1067 153.711 19.288 154.287 19.288C155.119 19.288 155.711 18.9307 156.063 18.216H158.479C158.223 19.0693 157.733 19.7733 157.007 20.328C156.282 20.872 155.391 21.144 154.335 21.144C153.482 21.144 152.714 20.9573 152.031 20.584C151.359 20.2 150.831 19.6613 150.447 18.968C150.074 18.2747 149.887 17.4747 149.887 16.568C149.887 15.6507 150.074 14.8453 150.447 14.152C150.821 13.4587 151.343 12.9253 152.015 12.552C152.687 12.1787 153.461 11.992 154.335 11.992C155.178 11.992 155.93 12.1733 156.591 12.536C157.263 12.8987 157.781 13.416 158.143 14.088C158.517 14.7493 158.703 15.512 158.703 16.376ZM156.383 15.736C156.373 15.16 156.165 14.7013 155.759 14.36C155.354 14.008 154.858 13.832 154.271 13.832C153.717 13.832 153.247 14.0027 152.863 14.344C152.49 14.6747 152.261 15.1387 152.175 15.736H156.383Z" fill="#464E5F"/>
<path d="M163.73 21.144C163.005 21.144 162.354 21.016 161.778 20.76C161.202 20.4933 160.744 20.136 160.402 19.688C160.072 19.24 159.89 18.744 159.858 18.2H162.114C162.157 18.5413 162.322 18.824 162.61 19.048C162.909 19.272 163.277 19.384 163.714 19.384C164.141 19.384 164.472 19.2987 164.706 19.128C164.952 18.9573 165.074 18.7387 165.074 18.472C165.074 18.184 164.925 17.9707 164.626 17.832C164.338 17.6827 163.874 17.5227 163.234 17.352C162.573 17.192 162.029 17.0267 161.602 16.856C161.186 16.6853 160.824 16.424 160.514 16.072C160.216 15.72 160.066 15.2453 160.066 14.648C160.066 14.1573 160.205 13.7093 160.482 13.304C160.77 12.8987 161.176 12.5787 161.698 12.344C162.232 12.1093 162.856 11.992 163.57 11.992C164.626 11.992 165.469 12.2587 166.098 12.792C166.728 13.3147 167.074 14.024 167.138 14.92H164.994C164.962 14.568 164.813 14.2907 164.546 14.088C164.29 13.8747 163.944 13.768 163.506 13.768C163.101 13.768 162.786 13.8427 162.562 13.992C162.349 14.1413 162.242 14.3493 162.242 14.616C162.242 14.9147 162.392 15.144 162.69 15.304C162.989 15.4533 163.453 15.608 164.082 15.768C164.722 15.928 165.25 16.0933 165.666 16.264C166.082 16.4347 166.44 16.7013 166.738 17.064C167.048 17.416 167.208 17.8853 167.218 18.472C167.218 18.984 167.074 19.4427 166.786 19.848C166.509 20.2533 166.104 20.5733 165.57 20.808C165.048 21.032 164.434 21.144 163.73 21.144Z" fill="#464E5F"/>
<path d="M70.096 42.091C69.2553 42.091 68.4797 41.896 67.769 41.506C67.067 41.1073 66.508 40.557 66.092 39.855C65.6847 39.1443 65.481 38.347 65.481 37.463C65.481 36.579 65.6847 35.786 66.092 35.084C66.508 34.382 67.067 33.836 67.769 33.446C68.4797 33.0473 69.2553 32.848 70.096 32.848C70.9453 32.848 71.721 33.0473 72.423 33.446C73.1337 33.836 73.6927 34.382 74.1 35.084C74.5073 35.786 74.711 36.579 74.711 37.463C74.711 38.347 74.5073 39.1443 74.1 39.855C73.6927 40.557 73.1337 41.1073 72.423 41.506C71.721 41.896 70.9453 42.091 70.096 42.091ZM70.096 40.804C70.694 40.804 71.227 40.6697 71.695 40.401C72.163 40.1237 72.527 39.7337 72.787 39.231C73.0557 38.7197 73.19 38.1303 73.19 37.463C73.19 36.7957 73.0557 36.2107 72.787 35.708C72.527 35.2053 72.163 34.8197 71.695 34.551C71.227 34.2823 70.694 34.148 70.096 34.148C69.498 34.148 68.965 34.2823 68.497 34.551C68.029 34.8197 67.6607 35.2053 67.392 35.708C67.132 36.2107 67.002 36.7957 67.002 37.463C67.002 38.1303 67.132 38.7197 67.392 39.231C67.6607 39.7337 68.029 40.1237 68.497 40.401C68.965 40.6697 69.498 40.804 70.096 40.804Z" fill="#B5B5C3"/>
<path d="M77.6513 35.89C77.9027 35.5607 78.245 35.2833 78.6783 35.058C79.1117 34.8327 79.6013 34.72 80.1473 34.72C80.7713 34.72 81.339 34.876 81.8503 35.188C82.3703 35.4913 82.7777 35.9203 83.0723 36.475C83.367 37.0297 83.5143 37.6667 83.5143 38.386C83.5143 39.1053 83.367 39.751 83.0723 40.323C82.7777 40.8863 82.3703 41.3283 81.8503 41.649C81.339 41.961 80.7713 42.117 80.1473 42.117C79.6013 42.117 79.116 42.0087 78.6913 41.792C78.2667 41.5667 77.92 41.2893 77.6513 40.96V45.406H76.1693V34.837H77.6513V35.89ZM82.0063 38.386C82.0063 37.892 81.9023 37.4673 81.6943 37.112C81.495 36.748 81.2263 36.475 80.8883 36.293C80.559 36.1023 80.2037 36.007 79.8223 36.007C79.4497 36.007 79.0943 36.1023 78.7563 36.293C78.427 36.4837 78.1583 36.761 77.9503 37.125C77.751 37.489 77.6513 37.918 77.6513 38.412C77.6513 38.906 77.751 39.3393 77.9503 39.712C78.1583 40.076 78.427 40.3533 78.7563 40.544C79.0943 40.7347 79.4497 40.83 79.8223 40.83C80.2037 40.83 80.559 40.7347 80.8883 40.544C81.2263 40.3447 81.495 40.0587 81.6943 39.686C81.9023 39.3133 82.0063 38.88 82.0063 38.386Z" fill="#B5B5C3"/>
<path d="M88.6849 34.72C89.2309 34.72 89.7162 34.837 90.1409 35.071C90.5742 35.305 90.9122 35.6517 91.1549 36.111C91.4062 36.5703 91.5319 37.125 91.5319 37.775V42H90.0629V37.996C90.0629 37.3547 89.9025 36.865 89.5819 36.527C89.2612 36.1803 88.8235 36.007 88.2689 36.007C87.7142 36.007 87.2722 36.1803 86.9429 36.527C86.6222 36.865 86.4619 37.3547 86.4619 37.996V42H84.9799V32.38H86.4619V35.669C86.7132 35.3657 87.0295 35.1317 87.4109 34.967C87.8009 34.8023 88.2255 34.72 88.6849 34.72Z" fill="#B5B5C3"/>
<path d="M95.1513 36.046V40.011C95.1513 40.2797 95.2119 40.4747 95.3333 40.596C95.4633 40.7087 95.6799 40.765 95.9833 40.765H96.8933V42H95.7233C95.0559 42 94.5446 41.844 94.1893 41.532C93.8339 41.22 93.6563 40.713 93.6563 40.011V36.046H92.8113V34.837H93.6563V33.056H95.1513V34.837H96.8933V36.046H95.1513Z" fill="#B5B5C3"/>
<path d="M101.964 34.72C102.51 34.72 102.996 34.837 103.42 35.071C103.854 35.305 104.192 35.6517 104.434 36.111C104.686 36.5703 104.811 37.125 104.811 37.775V42H103.342V37.996C103.342 37.3547 103.182 36.865 102.861 36.527C102.541 36.1803 102.103 36.007 101.548 36.007C100.994 36.007 100.552 36.1803 100.222 36.527C99.9015 36.865 99.7412 37.3547 99.7412 37.996V42H98.2592V32.38H99.7412V35.669C99.9925 35.3657 100.309 35.1317 100.69 34.967C101.08 34.8023 101.505 34.72 101.964 34.72Z" fill="#B5B5C3"/>
<path d="M106.208 38.386C106.208 37.6667 106.355 37.0297 106.65 36.475C106.953 35.9203 107.36 35.4913 107.872 35.188C108.392 34.876 108.964 34.72 109.588 34.72C110.151 34.72 110.641 34.8327 111.057 35.058C111.481 35.2747 111.819 35.5477 112.071 35.877V34.837H113.566V42H112.071V40.934C111.819 41.272 111.477 41.5537 111.044 41.779C110.61 42.0043 110.116 42.117 109.562 42.117C108.946 42.117 108.383 41.961 107.872 41.649C107.36 41.3283 106.953 40.8863 106.65 40.323C106.355 39.751 106.208 39.1053 106.208 38.386ZM112.071 38.412C112.071 37.918 111.967 37.489 111.759 37.125C111.559 36.761 111.295 36.4837 110.966 36.293C110.636 36.1023 110.281 36.007 109.9 36.007C109.518 36.007 109.163 36.1023 108.834 36.293C108.504 36.475 108.236 36.748 108.028 37.112C107.828 37.4673 107.729 37.892 107.729 38.386C107.729 38.88 107.828 39.3133 108.028 39.686C108.236 40.0587 108.504 40.3447 108.834 40.544C109.172 40.7347 109.527 40.83 109.9 40.83C110.281 40.83 110.636 40.7347 110.966 40.544C111.295 40.3533 111.559 40.076 111.759 39.712C111.967 39.3393 112.071 38.906 112.071 38.412Z" fill="#B5B5C3"/>
<path d="M116.994 32.38V42H115.512V32.38H116.994Z" fill="#B5B5C3"/>
<path d="M127.611 34.72C128.174 34.72 128.677 34.837 129.119 35.071C129.57 35.305 129.921 35.6517 130.172 36.111C130.432 36.5703 130.562 37.125 130.562 37.775V42H129.093V37.996C129.093 37.3547 128.933 36.865 128.612 36.527C128.291 36.1803 127.854 36.007 127.299 36.007C126.744 36.007 126.302 36.1803 125.973 36.527C125.652 36.865 125.492 37.3547 125.492 37.996V42H124.023V37.996C124.023 37.3547 123.863 36.865 123.542 36.527C123.221 36.1803 122.784 36.007 122.229 36.007C121.674 36.007 121.232 36.1803 120.903 36.527C120.582 36.865 120.422 37.3547 120.422 37.996V42H118.94V34.837H120.422V35.656C120.665 35.3613 120.972 35.1317 121.345 34.967C121.718 34.8023 122.116 34.72 122.541 34.72C123.113 34.72 123.624 34.8413 124.075 35.084C124.526 35.3267 124.872 35.6777 125.115 36.137C125.332 35.7037 125.67 35.3613 126.129 35.11C126.588 34.85 127.082 34.72 127.611 34.72Z" fill="#B5B5C3"/>
<path d="M135.555 42.117C134.879 42.117 134.268 41.9653 133.722 41.662C133.176 41.35 132.747 40.9167 132.435 40.362C132.123 39.7987 131.967 39.1487 131.967 38.412C131.967 37.684 132.127 37.0383 132.448 36.475C132.768 35.9117 133.206 35.4783 133.761 35.175C134.315 34.8717 134.935 34.72 135.62 34.72C136.304 34.72 136.924 34.8717 137.479 35.175C138.033 35.4783 138.471 35.9117 138.792 36.475C139.112 37.0383 139.273 37.684 139.273 38.412C139.273 39.14 139.108 39.7857 138.779 40.349C138.449 40.9123 137.999 41.35 137.427 41.662C136.863 41.9653 136.239 42.117 135.555 42.117ZM135.555 40.83C135.936 40.83 136.291 40.739 136.621 40.557C136.959 40.375 137.232 40.102 137.44 39.738C137.648 39.374 137.752 38.932 137.752 38.412C137.752 37.892 137.652 37.4543 137.453 37.099C137.253 36.735 136.989 36.462 136.66 36.28C136.33 36.098 135.975 36.007 135.594 36.007C135.212 36.007 134.857 36.098 134.528 36.28C134.207 36.462 133.951 36.735 133.761 37.099C133.57 37.4543 133.475 37.892 133.475 38.412C133.475 39.1833 133.67 39.7813 134.06 40.206C134.458 40.622 134.957 40.83 135.555 40.83Z" fill="#B5B5C3"/>
<path d="M142.22 32.38V42H140.738V32.38H142.22Z" fill="#B5B5C3"/>
<path d="M147.272 42.117C146.596 42.117 145.985 41.9653 145.439 41.662C144.893 41.35 144.464 40.9167 144.152 40.362C143.84 39.7987 143.684 39.1487 143.684 38.412C143.684 37.684 143.845 37.0383 144.165 36.475C144.486 35.9117 144.924 35.4783 145.478 35.175C146.033 34.8717 146.653 34.72 147.337 34.72C148.022 34.72 148.642 34.8717 149.196 35.175C149.751 35.4783 150.189 35.9117 150.509 36.475C150.83 37.0383 150.99 37.684 150.99 38.412C150.99 39.14 150.826 39.7857 150.496 40.349C150.167 40.9123 149.716 41.35 149.144 41.662C148.581 41.9653 147.957 42.117 147.272 42.117ZM147.272 40.83C147.654 40.83 148.009 40.739 148.338 40.557C148.676 40.375 148.949 40.102 149.157 39.738C149.365 39.374 149.469 38.932 149.469 38.412C149.469 37.892 149.37 37.4543 149.17 37.099C148.971 36.735 148.707 36.462 148.377 36.28C148.048 36.098 147.693 36.007 147.311 36.007C146.93 36.007 146.575 36.098 146.245 36.28C145.925 36.462 145.669 36.735 145.478 37.099C145.288 37.4543 145.192 37.892 145.192 38.412C145.192 39.1833 145.387 39.7813 145.777 40.206C146.176 40.622 146.674 40.83 147.272 40.83Z" fill="#B5B5C3"/>
<path d="M155.341 34.72C155.896 34.72 156.386 34.8327 156.81 35.058C157.244 35.2747 157.582 35.5477 157.824 35.877V34.837H159.319V42.117C159.319 42.7757 159.181 43.3607 158.903 43.872C158.626 44.392 158.223 44.7993 157.694 45.094C157.174 45.3887 156.55 45.536 155.822 45.536C154.852 45.536 154.046 45.3063 153.404 44.847C152.763 44.3963 152.399 43.781 152.312 43.001H153.781C153.894 43.3737 154.132 43.6727 154.496 43.898C154.869 44.132 155.311 44.249 155.822 44.249C156.42 44.249 156.901 44.067 157.265 43.703C157.638 43.339 157.824 42.8103 157.824 42.117V40.921C157.573 41.259 157.231 41.545 156.797 41.779C156.373 42.0043 155.887 42.117 155.341 42.117C154.717 42.117 154.145 41.961 153.625 41.649C153.114 41.3283 152.707 40.8863 152.403 40.323C152.109 39.751 151.961 39.1053 151.961 38.386C151.961 37.6667 152.109 37.0297 152.403 36.475C152.707 35.9203 153.114 35.4913 153.625 35.188C154.145 34.876 154.717 34.72 155.341 34.72ZM157.824 38.412C157.824 37.918 157.72 37.489 157.512 37.125C157.313 36.761 157.049 36.4837 156.719 36.293C156.39 36.1023 156.035 36.007 155.653 36.007C155.272 36.007 154.917 36.1023 154.587 36.293C154.258 36.475 153.989 36.748 153.781 37.112C153.582 37.4673 153.482 37.892 153.482 38.386C153.482 38.88 153.582 39.3133 153.781 39.686C153.989 40.0587 154.258 40.3447 154.587 40.544C154.925 40.7347 155.281 40.83 155.653 40.83C156.035 40.83 156.39 40.7347 156.719 40.544C157.049 40.3533 157.313 40.076 157.512 39.712C157.72 39.3393 157.824 38.906 157.824 38.412Z" fill="#B5B5C3"/>
<path d="M162.02 33.888C161.751 33.888 161.526 33.797 161.344 33.615C161.162 33.433 161.071 33.2077 161.071 32.939C161.071 32.6703 161.162 32.445 161.344 32.263C161.526 32.081 161.751 31.99 162.02 31.99C162.28 31.99 162.501 32.081 162.683 32.263C162.865 32.445 162.956 32.6703 162.956 32.939C162.956 33.2077 162.865 33.433 162.683 33.615C162.501 33.797 162.28 33.888 162.02 33.888ZM162.748 34.837V42H161.266V34.837H162.748Z" fill="#B5B5C3"/>
<path d="M167.294 42.117C166.73 42.117 166.223 42.0173 165.773 41.818C165.331 41.61 164.98 41.3327 164.72 40.986C164.46 40.6307 164.321 40.2363 164.304 39.803H165.838C165.864 40.1063 166.007 40.362 166.267 40.57C166.535 40.7693 166.869 40.869 167.268 40.869C167.684 40.869 168.004 40.791 168.23 40.635C168.464 40.4703 168.581 40.2623 168.581 40.011C168.581 39.7423 168.451 39.543 168.191 39.413C167.939 39.283 167.536 39.14 166.982 38.984C166.444 38.8367 166.007 38.6937 165.669 38.555C165.331 38.4163 165.036 38.204 164.785 37.918C164.542 37.632 164.421 37.255 164.421 36.787C164.421 36.4057 164.533 36.059 164.759 35.747C164.984 35.4263 165.305 35.175 165.721 34.993C166.145 34.811 166.631 34.72 167.177 34.72C167.991 34.72 168.646 34.928 169.14 35.344C169.642 35.7513 169.911 36.3103 169.946 37.021H168.464C168.438 36.7003 168.308 36.4447 168.074 36.254C167.84 36.0633 167.523 35.968 167.125 35.968C166.735 35.968 166.436 36.0417 166.228 36.189C166.02 36.3363 165.916 36.5313 165.916 36.774C165.916 36.9647 165.985 37.125 166.124 37.255C166.262 37.385 166.431 37.489 166.631 37.567C166.83 37.6363 167.125 37.7273 167.515 37.84C168.035 37.9787 168.459 38.1217 168.789 38.269C169.127 38.4077 169.417 38.6157 169.66 38.893C169.902 39.1703 170.028 39.5387 170.037 39.998C170.037 40.4053 169.924 40.7693 169.699 41.09C169.473 41.4107 169.153 41.662 168.737 41.844C168.329 42.026 167.848 42.117 167.294 42.117Z" fill="#B5B5C3"/>
<path d="M173.367 36.046V40.011C173.367 40.2797 173.428 40.4747 173.549 40.596C173.679 40.7087 173.896 40.765 174.199 40.765H175.109V42H173.939C173.272 42 172.76 41.844 172.405 41.532C172.05 41.22 171.872 40.713 171.872 40.011V36.046H171.027V34.837H171.872V33.056H173.367V34.837H175.109V36.046H173.367Z" fill="#B5B5C3"/>
<path d="M179.075 42.117C178.512 42.117 178.005 42.0173 177.554 41.818C177.112 41.61 176.761 41.3327 176.501 40.986C176.241 40.6307 176.102 40.2363 176.085 39.803H177.619C177.645 40.1063 177.788 40.362 178.048 40.57C178.317 40.7693 178.65 40.869 179.049 40.869C179.465 40.869 179.786 40.791 180.011 40.635C180.245 40.4703 180.362 40.2623 180.362 40.011C180.362 39.7423 180.232 39.543 179.972 39.413C179.721 39.283 179.318 39.14 178.763 38.984C178.226 38.8367 177.788 38.6937 177.45 38.555C177.112 38.4163 176.817 38.204 176.566 37.918C176.323 37.632 176.202 37.255 176.202 36.787C176.202 36.4057 176.315 36.059 176.54 35.747C176.765 35.4263 177.086 35.175 177.502 34.993C177.927 34.811 178.412 34.72 178.958 34.72C179.773 34.72 180.427 34.928 180.921 35.344C181.424 35.7513 181.692 36.3103 181.727 37.021H180.245C180.219 36.7003 180.089 36.4447 179.855 36.254C179.621 36.0633 179.305 35.968 178.906 35.968C178.516 35.968 178.217 36.0417 178.009 36.189C177.801 36.3363 177.697 36.5313 177.697 36.774C177.697 36.9647 177.766 37.125 177.905 37.255C178.044 37.385 178.213 37.489 178.412 37.567C178.611 37.6363 178.906 37.7273 179.296 37.84C179.816 37.9787 180.241 38.1217 180.57 38.269C180.908 38.4077 181.198 38.6157 181.441 38.893C181.684 39.1703 181.809 39.5387 181.818 39.998C181.818 40.4053 181.705 40.7693 181.48 41.09C181.255 41.4107 180.934 41.662 180.518 41.844C180.111 42.026 179.63 42.117 179.075 42.117Z" fill="#B5B5C3"/>
</svg>
