<svg width="50" height="50" viewBox="0 0 50 50" fill="none" xmlns="http://www.w3.org/2000/svg">
<rect width="50" height="50" rx="6" fill="#F3F6F9"/>
<g clip-path="url(#clip0_0_3044)">
<path d="M38.7818 46.4549L38.7192 45.8915C38.6945 45.6686 38.4937 45.5079 38.2709 45.5327L38.2358 45.5366L37.63 40.6905C37.4982 39.6364 36.7729 38.7516 35.765 38.4156L32.3989 37.2936C31.9367 37.1394 31.4296 37.2375 31.0731 37.5413L30.0816 37.2108C29.5183 37.023 29.1385 36.496 29.1385 35.9023V33.678L32.1093 32.4401C33.6513 31.7978 34.6557 30.2912 34.6557 28.6207V27.931C35.7984 27.931 36.7247 27.0047 36.7247 25.862C36.7247 25.517 36.6398 25.1919 36.4903 24.9058C36.6406 24.5653 36.7247 24.1891 36.7247 23.7931C36.7247 23.5138 36.6708 23.2496 36.5937 22.9956C37.0998 22.4955 37.4143 21.8021 37.4143 21.0345C37.4143 20.7551 37.3605 20.491 37.2833 20.237C37.7895 19.7369 38.104 19.0435 38.104 18.2758C38.104 16.949 37.1667 15.8426 35.9185 15.5785C35.9868 15.3383 36.035 15.0897 36.035 14.8276C36.035 13.304 34.7999 12.069 33.2764 12.069C32.7043 12.069 32.1729 12.2433 31.7322 12.5415C31.3557 11.4659 30.3426 10.6897 29.1385 10.6897C28.4582 10.6897 27.8436 10.9453 27.3626 11.3534C26.8814 10.5463 26.0086 10 25.0007 10C23.9927 10 23.12 10.5463 22.6387 11.3534C22.1576 10.9453 21.543 10.6897 20.8627 10.6897C19.6586 10.6897 18.6455 11.4659 18.269 12.5415C17.8283 12.2433 17.2969 12.069 16.7248 12.069C15.2013 12.069 13.9662 13.304 13.9662 14.8276C13.9662 15.0897 14.0145 15.3383 14.0828 15.5785C12.8345 15.8426 11.8972 16.949 11.8972 18.2758C11.8972 19.0435 12.2117 19.7369 12.7178 20.237C12.6407 20.491 12.5868 20.7551 12.5868 21.0345C12.5868 21.8021 12.9014 22.4955 13.4075 22.9956C13.3303 23.2496 13.2765 23.5138 13.2765 23.7931C13.2765 24.1891 13.3605 24.5653 13.5109 24.9058C13.3615 25.1919 13.2765 25.517 13.2765 25.862C13.2765 27.0047 14.2028 27.931 15.3454 27.931V28.6207C15.3454 30.2911 16.3498 31.7977 17.8918 32.4403L20.8627 33.6781V35.9024C20.8627 36.4961 20.4827 37.0231 19.9196 37.2109L18.928 37.5414C18.5715 37.2376 18.0645 37.1395 17.6022 37.2936L14.2361 38.4157C13.2283 38.7517 12.5029 39.6365 12.3711 40.6906L11.7653 45.5367L11.7303 45.5328C11.5074 45.508 11.3066 45.6686 11.2819 45.8916L11.2193 46.455C11.1946 46.6779 11.3552 46.8786 11.578 46.9034L12.5868 47.0154V48.6206C12.5868 49.3823 13.2044 49.9999 13.9661 49.9999H17.4144H32.5868H36.035C36.7968 49.9999 37.4143 49.3823 37.4143 48.6206V47.0154L38.4231 46.9033C38.646 46.8785 38.8067 46.6778 38.7818 46.4549Z" fill="#C38762"/>
<path d="M37.2827 20.237C37.7888 19.7369 38.1033 19.0435 38.1033 18.2758C38.1033 16.949 37.166 15.8426 35.9178 15.5785C35.9862 15.3383 36.0344 15.0897 36.0344 14.8276C36.0344 13.304 34.7993 12.069 33.2757 12.069C32.7036 12.069 32.1722 12.2433 31.7315 12.5415C31.3551 11.4659 30.342 10.6897 29.1378 10.6897C28.4576 10.6897 27.8429 10.9453 27.3619 11.3534C26.8808 10.5463 26.0079 10 25 10C23.9921 10 23.1193 10.5463 22.638 11.3534C22.157 10.9453 21.5423 10.6897 20.8621 10.6897C19.6579 10.6897 18.6448 11.4659 18.2684 12.5415C17.8276 12.2433 17.2962 12.069 16.7241 12.069C15.2006 12.069 13.9655 13.304 13.9655 14.8276C13.9655 15.0897 14.0138 15.3383 14.0821 15.5785C12.8338 15.8426 11.8965 16.949 11.8965 18.2758C11.8965 19.0435 12.2111 19.7369 12.7172 20.237C12.64 20.491 12.5861 20.7551 12.5861 21.0345C12.5861 21.8021 12.9007 22.4955 13.4068 22.9956C13.3297 23.2496 13.2758 23.5138 13.2758 23.7931C13.2758 25.3166 14.5109 26.5517 16.0344 26.5517C16.0347 26.5517 16.0349 26.5517 16.0353 26.5517H33.9646C33.9649 26.5517 33.9651 26.5517 33.9655 26.5517C35.489 26.5517 36.7241 25.3166 36.7241 23.7931C36.7241 23.5138 36.6702 23.2496 36.5931 22.9956C37.0992 22.4955 37.4138 21.8021 37.4138 21.0345C37.4137 20.7551 37.3599 20.491 37.2827 20.237Z" fill="#623F33"/>
<path d="M32.5864 49.9994V46.5511H38.3622L37.6295 40.69C37.4977 39.6359 36.7724 38.751 35.7645 38.4151L32.3984 37.293C31.8122 37.0976 31.1527 37.3063 30.8216 37.828C29.5992 39.7542 27.4505 41.0338 25.0002 41.0338C22.55 41.0338 20.4012 39.7541 19.1787 37.8279C18.8476 37.3062 18.1881 37.0975 17.6019 37.2929L14.2358 38.415C13.2279 38.7509 12.5026 39.6358 12.3708 40.6899L11.7148 45.9375L17.4141 46.551V49.9993H32.5864V49.9994H32.5864Z" fill="#FFD739"/>
<path d="M29.1388 33.679L20.863 31.8398V35.9032C20.863 36.3997 20.5883 36.8369 20.1719 37.0807C25.9558 38.0931 29.1388 33.679 29.1388 33.679Z" fill="#A46D4D"/>
<path d="M34.6566 23.7928V21.7239C34.6566 19.8195 33.1127 17.5859 31.2083 17.5859H18.7946C16.8901 17.5859 15.3463 19.8195 15.3463 21.7239V23.7928C14.2036 23.7928 13.2773 24.7192 13.2773 25.8618C13.2773 27.0045 14.2036 27.9307 15.3463 27.9307V28.6204C15.3463 30.2908 16.3507 31.7975 17.8927 32.44L22.3488 34.2968C23.1894 34.647 24.0909 34.8273 25.0015 34.8273C25.912 34.8273 26.8134 34.6469 27.654 34.2968L32.1103 32.44C33.6522 31.7975 34.6566 30.2909 34.6566 28.6204V27.9307C35.7993 27.9307 36.7256 27.0045 36.7256 25.8618C36.7256 24.7191 35.7993 23.7928 34.6566 23.7928Z" fill="#D29771"/>
<path d="M20.174 26.5514C19.7947 26.5514 19.4844 26.241 19.4844 25.8617V25.1721C19.4844 24.7928 19.7947 24.4824 20.174 24.4824C20.5533 24.4824 20.8637 24.7928 20.8637 25.1721V25.8617C20.8637 26.241 20.5533 26.5514 20.174 26.5514Z" fill="#623F33"/>
<path d="M29.8283 26.5514C29.449 26.5514 29.1387 26.241 29.1387 25.8617V25.1721C29.1387 24.7928 29.449 24.4824 29.8283 24.4824C30.2076 24.4824 30.518 24.7928 30.518 25.1721V25.8617C30.518 26.241 30.2076 26.5514 29.8283 26.5514Z" fill="#623F33"/>
<path d="M25.0011 31.3985C23.7749 31.3985 22.6281 31.0968 21.8545 30.5705C21.5397 30.3564 21.4579 29.9273 21.6724 29.6125C21.8862 29.298 22.3156 29.2161 22.6304 29.4303C23.1725 29.799 24.0588 30.0193 25.0011 30.0193C25.9433 30.0193 26.8296 29.799 27.3717 29.4303C27.6873 29.2155 28.1156 29.2977 28.3298 29.6125C28.5442 29.9273 28.4624 30.3564 28.1476 30.5705C27.3742 31.0968 26.2272 31.3985 25.0011 31.3985Z" fill="#A46D4D"/>
<path d="M17.4139 47.0718V45.5109C17.4139 44.8474 17.1748 44.2062 16.7404 43.7046L12.9456 39.3242C12.6394 39.7119 12.4344 40.1803 12.3707 40.69L11.6504 46.4527C12.7472 46.5185 15.6648 46.8603 17.4139 47.0718Z" fill="#FFC33D"/>
<path d="M17.4145 46.1634L11.7303 45.5318C11.5074 45.5071 11.3067 45.6677 11.2819 45.8905L11.2193 46.454C11.1946 46.6768 11.3552 46.8776 11.578 46.9023L17.4145 47.5509V46.1634Z" fill="#FFB440"/>
<path d="M32.5859 47.0718V45.5109C32.5859 44.8474 32.8251 44.2062 33.2595 43.7046L37.0542 39.3242C37.3604 39.7119 37.5654 40.1803 37.6291 40.69L38.3495 46.4527C37.2527 46.5185 34.335 46.8603 32.5859 47.0718Z" fill="#FFC33D"/>
<path d="M32.5859 46.1634L38.2701 45.5318C38.493 45.5071 38.6937 45.6677 38.7185 45.8905L38.7811 46.454C38.8058 46.6768 38.6452 46.8776 38.4224 46.9023L32.5859 47.5509V46.1634Z" fill="#FFB440"/>
<path d="M15.3463 17.6719V23.7926C14.2036 23.7926 13.2773 24.7188 13.2773 25.8615C13.2773 27.0042 14.2036 27.9305 15.3463 27.9305V28.6201C15.3463 30.2906 16.3507 31.7973 17.8927 32.4398L22.3487 34.2965C22.5668 34.3874 22.7894 34.4656 23.0148 34.5335C21.0455 33.0929 19.7347 31.8335 18.9666 31.01C18.4078 30.4109 18.1049 29.6203 18.1049 28.801V21.0144C18.839 20.9326 19.4942 20.5934 19.9828 20.0908C20.359 20.2529 20.7728 20.3443 21.2084 20.3443C22.1564 20.3443 22.9945 19.9101 23.5637 19.2403C23.9834 19.4983 24.4727 19.6546 25.0015 19.6546C25.7096 19.6546 26.3488 19.38 26.8373 18.9414C27.3727 19.3803 28.0483 19.6546 28.7946 19.6546C30.1121 19.6546 31.2297 18.8309 31.6777 17.6719H15.3463Z" fill="#C38762"/>
<path d="M34.6566 18.275C34.6118 18.275 34.57 18.2854 34.5258 18.2882C34.6058 18.0679 34.6566 17.8333 34.6566 17.5854C34.6566 16.4427 33.7303 15.5164 32.5876 15.5164C32.3367 15.5164 32.0992 15.5679 31.8766 15.6497C31.766 14.0363 30.4361 12.7578 28.7946 12.7578C27.3814 12.7578 26.2022 13.7082 25.8272 15.0005C25.574 14.8899 25.2954 14.8268 25.0015 14.8268C24.2274 14.8268 23.5608 15.2569 23.2059 15.8863C22.7717 15.247 22.0394 14.8268 21.2084 14.8268C20.2209 14.8268 19.3746 15.4214 19.0008 16.2707C18.6213 15.8137 18.0558 15.5164 17.4154 15.5164C16.6466 15.5164 15.9764 15.9359 15.6197 16.5581C15.5723 16.5534 15.5242 16.5509 15.4756 16.5509C14.69 16.5509 14.0532 17.1877 14.0532 17.9733C14.0532 18.205 14.1098 18.4231 14.2081 18.6165C13.6475 18.9866 13.2773 19.6219 13.2773 20.344C13.2773 21.4867 14.2036 22.413 15.3463 22.413C16.489 22.413 17.4153 21.4867 17.4153 20.344C17.4153 20.0961 17.3645 19.8615 17.2845 19.6412C17.3286 19.644 17.3705 19.6544 17.4153 19.6544C18.1893 19.6544 18.856 19.2243 19.2108 18.5949C19.645 19.2341 20.3775 19.6544 21.2084 19.6544C22.1959 19.6544 23.0422 19.0597 23.416 18.2104C23.7955 18.6675 24.3609 18.9647 25.0015 18.9647C25.6879 18.9647 26.2917 18.6266 26.6681 18.1119C27.2241 18.6372 27.9693 18.9647 28.7946 18.9647C29.4986 18.9647 30.1405 18.7212 30.6613 18.3262C30.9598 19.1017 31.7069 19.6544 32.5876 19.6544C32.6325 19.6544 32.6743 19.644 32.7184 19.6412C32.6384 19.8615 32.5876 20.0961 32.5876 20.344C32.5876 21.4867 33.5139 22.413 34.6566 22.413C35.7993 22.413 36.7256 21.4867 36.7256 20.344C36.7256 19.2013 35.7993 18.275 34.6566 18.275Z" fill="#623F33"/>
</g>
<defs>
<clipPath id="clip0_0_3044">
<rect width="40" height="40" fill="white" transform="translate(5 10)"/>
</clipPath>
</defs>
</svg>
